<svg width="68" height="70" viewBox="0 0 68 70" fill="none" xmlns="http://www.w3.org/2000/svg">
<path d="M36.1561 70.0005C53.5458 70.0005 67.6429 55.9033 67.6429 38.5136C67.6429 21.1239 53.5458 7.02673 36.1561 7.02673C18.7663 7.02673 4.66919 21.1239 4.66919 38.5136C4.66919 55.9033 18.7663 70.0005 36.1561 70.0005Z" fill="url(#paint0_linear_927_1819)"/>
<path d="M36.1545 65.6267C51.1289 65.6267 63.2682 53.4875 63.2682 38.513C63.2682 23.5385 51.1289 11.3993 36.1545 11.3993C21.18 11.3993 9.04077 23.5385 9.04077 38.513C9.04077 53.4875 21.18 65.6267 36.1545 65.6267Z" fill="url(#paint1_linear_927_1819)"/>
<mask id="mask0_927_1819" style="mask-type:luminance" maskUnits="userSpaceOnUse" x="9" y="11" width="55" height="55">
<path d="M36.154 65.6252C51.1285 65.6252 63.2677 53.486 63.2677 38.5115C63.2677 23.537 51.1285 11.3978 36.154 11.3978C21.1795 11.3978 9.04028 23.537 9.04028 38.5115C9.04028 53.486 21.1795 65.6252 36.154 65.6252Z" fill="white"/>
</mask>
<g mask="url(#mask0_927_1819)">
<path d="M58.5779 87.1754H13.7302L18.6538 41.7396H53.6618L58.5779 87.1754Z" fill="url(#paint2_linear_927_1819)"/>
<path d="M43.6333 48.5854C43.2186 48.5854 42.8793 48.2461 42.8793 47.8315V34.9683C42.8793 31.2662 39.8633 28.2502 36.1612 28.2502C32.459 28.2502 29.4431 31.2662 29.4431 34.9683V47.8315C29.4431 48.2461 29.1038 48.5854 28.6891 48.5854C28.2744 48.5854 27.9351 48.2461 27.9351 47.8315V34.9683C27.9351 30.4292 31.6296 26.7422 36.1612 26.7422C40.6927 26.7422 44.3872 30.4368 44.3872 34.9683V47.8315C44.3872 48.2461 44.0479 48.5854 43.6333 48.5854Z" fill="url(#paint3_linear_927_1819)"/>
</g>
<path d="M32.7411 32.899C38.7685 26.8716 38.7685 17.0991 32.7411 11.0717C26.7136 5.04419 16.9412 5.04419 10.9137 11.0717C4.88623 17.0991 4.88623 26.8716 10.9137 32.899C16.9412 38.9265 26.7136 38.9265 32.7411 32.899Z" fill="url(#paint4_linear_927_1819)"/>
<path d="M21.8295 34.9615C28.9961 34.9615 34.8058 29.1518 34.8058 21.9852C34.8058 14.8186 28.9961 9.00891 21.8295 9.00891C14.6629 9.00891 8.85327 14.8186 8.85327 21.9852C8.85327 29.1518 14.6629 34.9615 21.8295 34.9615Z" fill="url(#paint5_linear_927_1819)"/>
<path d="M14.4317 21.2088C13.7984 20.5227 13.4817 19.6028 13.4817 18.4567C13.4817 17.3106 13.7984 16.3908 14.4317 15.7046C15.0651 15.0185 15.8869 14.6792 16.8898 14.6792C17.8926 14.6792 18.7144 15.0185 19.3402 15.7046C19.9661 16.3908 20.2827 17.3106 20.2827 18.4567C20.2827 19.6028 19.9661 20.5227 19.3402 21.2088C18.7144 21.8949 17.9001 22.2342 16.8898 22.2342C15.8794 22.2342 15.0651 21.8949 14.4317 21.2088ZM17.9378 20.0854C18.1942 19.7234 18.3223 19.1806 18.3223 18.4567C18.3223 17.7329 18.1942 17.1975 17.9378 16.8281C17.6814 16.4586 17.3346 16.2777 16.8898 16.2777C16.4449 16.2777 16.1131 16.4662 15.8492 16.8356C15.5853 17.2051 15.4572 17.748 15.4572 18.4492C15.4572 19.1504 15.5853 19.6933 15.8492 20.0627C16.1131 20.4322 16.46 20.6207 16.8898 20.6207C17.3195 20.6207 17.6814 20.4397 17.9378 20.0703V20.0854ZM25.0555 14.8375H27.3854L18.0207 28.5527H15.6909L25.0555 14.83V14.8375ZM24.4372 28.2436C23.9245 27.9344 23.5174 27.4971 23.2309 26.9241C22.9443 26.3511 22.8011 25.68 22.8011 24.926C22.8011 24.172 22.9443 23.501 23.2309 22.9279C23.5174 22.3549 23.917 21.91 24.4372 21.6084C24.95 21.2993 25.5381 21.1485 26.1941 21.1485C27.1969 21.1485 28.0187 21.4878 28.6521 22.1739C29.2854 22.8601 29.6021 23.7799 29.6021 24.926C29.6021 26.0721 29.2854 26.992 28.6521 27.6781C28.0187 28.3642 27.1969 28.7035 26.1941 28.7035C25.5381 28.7035 24.9575 28.5527 24.4372 28.2436ZM27.2346 26.5396C27.4909 26.1701 27.6191 25.6272 27.6191 24.926C27.6191 24.2248 27.4909 23.6819 27.2346 23.3125C26.9782 22.943 26.6314 22.7545 26.1865 22.7545C25.7417 22.7545 25.4099 22.9355 25.146 23.3049C24.8821 23.6744 24.7539 24.2097 24.7539 24.9335C24.7539 25.6574 24.8821 26.1927 25.146 26.5622C25.4099 26.9316 25.7567 27.1126 26.1865 27.1126C26.6163 27.1126 26.9782 26.9241 27.2346 26.5546V26.5396Z" fill="#FFC431"/>
<defs>
<linearGradient id="paint0_linear_927_1819" x1="4.66275" y1="38.512" x2="67.6429" y2="38.512" gradientUnits="userSpaceOnUse">
<stop stop-color="#21B1B8"/>
<stop offset="1" stop-color="#1D7F84"/>
</linearGradient>
<linearGradient id="paint1_linear_927_1819" x1="36.0037" y1="8.92619" x2="36.2977" y2="64.6842" gradientUnits="userSpaceOnUse">
<stop stop-color="white"/>
<stop offset="1" stop-color="#CCE6F3"/>
</linearGradient>
<linearGradient id="paint2_linear_927_1819" x1="13.7256" y1="64.4563" x2="58.5779" y2="64.4563" gradientUnits="userSpaceOnUse">
<stop stop-color="#1BD6DF"/>
<stop offset="1" stop-color="#1499A0"/>
</linearGradient>
<linearGradient id="paint3_linear_927_1819" x1="27.9334" y1="37.6632" x2="44.3872" y2="37.6632" gradientUnits="userSpaceOnUse">
<stop stop-color="#21B1B8"/>
<stop offset="1" stop-color="#1D7F84"/>
</linearGradient>
<linearGradient id="paint4_linear_927_1819" x1="36.5109" y1="3.76422" x2="11.7196" y2="35.7676" gradientUnits="userSpaceOnUse">
<stop stop-color="#FFE14D"/>
<stop offset="1" stop-color="#F7A523"/>
</linearGradient>
<linearGradient id="paint5_linear_927_1819" x1="26.5946" y1="9.17354" x2="17.1288" y2="35.3172" gradientUnits="userSpaceOnUse">
<stop stop-color="#FAAD1E"/>
<stop offset="1" stop-color="#F2830B"/>
</linearGradient>
</defs>
</svg>
