<svg width="75" height="71" viewBox="0 0 75 71" fill="none" xmlns="http://www.w3.org/2000/svg">
<path d="M36.0836 70.158C55.4136 70.158 71.0836 54.4879 71.0836 35.158C71.0836 15.828 55.4136 0.157959 36.0836 0.157959C16.7537 0.157959 1.08362 15.828 1.08362 35.158C1.08362 54.4879 16.7537 70.158 36.0836 70.158Z" fill="url(#paint0_linear_927_1858)"/>
<path d="M36.0835 65.2967C52.7287 65.2967 66.2224 51.8031 66.2224 35.1578C66.2224 18.5126 52.7287 5.01892 36.0835 5.01892C19.4382 5.01892 5.94458 18.5126 5.94458 35.1578C5.94458 51.8031 19.4382 65.2967 36.0835 65.2967Z" fill="url(#paint1_linear_927_1858)"/>
<mask id="mask0_927_1858" style="mask-type:luminance" maskUnits="userSpaceOnUse" x="5" y="5" width="62" height="61">
<path d="M36.0831 65.296C52.7284 65.296 66.222 51.8023 66.222 35.1571C66.222 18.5118 52.7284 5.01819 36.0831 5.01819C19.4379 5.01819 5.94421 18.5118 5.94421 35.1571C5.94421 51.8023 19.4379 65.296 36.0831 65.296Z" fill="white"/>
</mask>
<g mask="url(#mask0_927_1858)">
<path d="M67.4957 64.7347H34.6832L38.2788 31.4948H63.9002L67.4957 64.7347Z" fill="url(#paint2_linear_927_1858)"/>
<path d="M56.5581 36.5068C56.2564 36.5068 56.005 36.2637 56.005 35.9536V26.5415C56.005 23.8344 53.8007 21.6217 51.0852 21.6217C48.3697 21.6217 46.1654 23.826 46.1654 26.5415V35.9536C46.1654 36.2554 45.9223 36.5068 45.6122 36.5068C45.3021 36.5068 45.0591 36.2637 45.0591 35.9536V26.5415C45.0591 23.2226 47.7578 20.5238 51.0768 20.5238C54.3958 20.5238 57.0945 23.2226 57.0945 26.5415V35.9536C57.0945 36.2554 56.8515 36.5068 56.5414 36.5068H56.5581Z" fill="url(#paint3_linear_927_1858)"/>
<path d="M41.9164 70.8527H9.10388L12.6994 37.6128H38.3125L41.9164 70.8527Z" fill="url(#paint4_linear_927_1858)"/>
<path d="M30.9788 42.625C30.6771 42.625 30.4256 42.3819 30.4256 42.0718V32.6597C30.4256 29.9526 28.2214 27.7399 25.5058 27.7399C22.7903 27.7399 20.5861 29.9442 20.5861 32.6597V42.0718C20.5861 42.3735 20.343 42.625 20.0329 42.625C19.7228 42.625 19.4797 42.3819 19.4797 42.0718V32.6597C19.4797 29.3407 22.1785 26.642 25.4975 26.642C28.8164 26.642 31.5152 29.3407 31.5152 32.6597V42.0718C31.5152 42.3735 31.2721 42.625 30.962 42.625H30.9788Z" fill="url(#paint5_linear_927_1858)"/>
</g>
<path d="M20.407 56.9003C24.3167 53.2199 24.5025 47.0669 20.8221 43.1572C17.1417 39.2476 10.9887 39.0617 7.07906 42.7422C3.1694 46.4226 2.98356 52.5755 6.66397 56.4852C10.3444 60.3948 16.4973 60.5807 20.407 56.9003Z" fill="url(#paint6_linear_927_1858)"/>
<path d="M19.5326 55.6028C22.7271 52.4083 22.7271 47.2289 19.5326 44.0344C16.3381 40.8399 11.1588 40.8399 7.96424 44.0344C4.76972 47.2289 4.76972 52.4083 7.96424 55.6028C11.1588 58.7973 16.3381 58.7973 19.5326 55.6028Z" fill="url(#paint7_linear_927_1858)"/>
<path d="M46.8613 52.0469C48.0892 46.8197 44.8472 41.5869 39.6201 40.3589C34.3929 39.131 29.1601 42.373 27.9321 47.6001C26.7042 52.8273 29.9462 58.0601 35.1733 59.2881C40.4005 60.516 45.6333 57.274 46.8613 52.0469Z" fill="url(#paint8_linear_927_1858)"/>
<path d="M45.3553 51.6886C46.3892 47.2907 43.6622 42.8874 39.2644 41.8535C34.8666 40.8196 30.4633 43.5466 29.4293 47.9444C28.3954 52.3422 31.1224 56.7455 35.5202 57.7794C39.918 58.8134 44.3214 56.0864 45.3553 51.6886Z" fill="url(#paint9_linear_927_1858)"/>
<path d="M67.9057 56.6897C71.7024 52.8929 71.7024 46.7372 67.9057 42.9404C64.1089 39.1437 57.9532 39.1437 54.1564 42.9404C50.3596 46.7372 50.3596 52.8929 54.1564 56.6897C57.9532 60.4865 64.1089 60.4865 67.9057 56.6897Z" fill="url(#paint10_linear_927_1858)"/>
<path d="M66.8151 55.5993C70.0096 52.4047 70.0096 47.2254 66.8151 44.0309C63.6206 40.8364 58.4412 40.8364 55.2467 44.0309C52.0522 47.2254 52.0522 52.4047 55.2467 55.5993C58.4412 58.7938 63.6206 58.7938 66.8151 55.5993Z" fill="url(#paint11_linear_927_1858)"/>
<path d="M11.5109 55.4115V55.4741H11.5736H12.8263H12.8889V55.4115V53.5861H15.1259H15.1885V53.5234V52.6197V52.5571H15.1259H12.8889V51.4386H13.5511H13.6137H13.9985C14.8306 51.4386 15.5286 51.3223 16.0923 51.0807C16.665 50.8391 17.1034 50.4901 17.3987 50.0338C17.694 49.5685 17.8461 49.0137 17.8461 48.3784C17.8461 47.4299 17.5508 46.6962 16.9423 46.1861C16.3428 45.6761 15.4301 45.4256 14.2043 45.4256H11.5915L11.5288 45.4166V45.4793L11.5109 50.2575H10.3656H10.303V50.3201V51.3759V51.4386H10.3656H11.5109V52.5571H10.3656H10.303V52.6197V53.5234V53.5861H10.3656H11.5109V55.4204V55.4115ZM13.56 50.2664H12.8979L12.9068 46.6067H14.0969C14.9201 46.6067 15.5107 46.7678 15.8775 47.063C16.2444 47.3583 16.4323 47.8057 16.4323 48.4231C16.4323 48.8974 16.3249 49.2642 16.1191 49.5237C15.9133 49.7922 15.618 49.9801 15.2333 50.0964C14.8485 50.2127 14.3832 50.2754 13.8195 50.2664H13.6137H13.5511H13.56Z" fill="#FFC431"/>
<path d="M34.9785 55.4115V55.4741H35.0411H36.2938H36.3565V55.4115V53.5861H38.5934H38.6561V53.5234V52.6197V52.5571H38.5934H36.3565V51.4386H37.0186H37.0812H37.466C38.2982 51.4386 38.9961 51.3223 39.5598 51.0807C40.1325 50.8391 40.5709 50.4901 40.8662 50.0338C41.1615 49.5685 41.3136 49.0137 41.3136 48.3784C41.3136 47.4299 41.0183 46.6962 40.4099 46.1861C39.8104 45.6761 38.8977 45.4256 37.6718 45.4256H35.059L34.9964 45.4166V45.4793L34.9785 50.2575H33.8331H33.7705V50.3201V51.3759V51.4386H33.8331H34.9785V52.5571H33.8331H33.7705V52.6197V53.5234V53.5861H33.8331H34.9785V55.4204V55.4115ZM37.0276 50.2664H36.3654L36.3744 46.6067H37.5644C38.3876 46.6067 38.9782 46.7678 39.3451 47.063C39.7119 47.3583 39.8998 47.8057 39.8998 48.4231C39.8998 48.8974 39.7925 49.2642 39.5867 49.5237C39.3809 49.7922 39.0856 49.9801 38.7008 50.0964C38.3161 50.2127 37.8508 50.2754 37.287 50.2664H37.0812H37.0186H37.0276Z" fill="#FFC431"/>
<path d="M58.4459 55.4115V55.4741H58.5085H59.7612H59.8239V55.4115V53.5861H62.0609H62.1235V53.5234V52.6197V52.5571H62.0609H59.8239V51.4386H60.486H60.5487H60.9334C61.7656 51.4386 62.4635 51.3223 63.0272 51.0807C63.5999 50.8391 64.0383 50.4901 64.3336 50.0338C64.6289 49.5685 64.781 49.0137 64.781 48.3784C64.781 47.4299 64.4857 46.6962 63.8773 46.1861C63.2778 45.6761 62.3651 45.4256 61.1392 45.4256H58.5264L58.4638 45.4166V45.4793L58.4459 50.2575H57.3006H57.2379V50.3201V51.3759V51.4386H57.3006H58.4459V52.5571H57.3006H57.2379V52.6197V53.5234V53.5861H57.3006H58.4459V55.4204V55.4115ZM60.495 50.2664H59.8328L59.8418 46.6067H61.0318C61.8551 46.6067 62.4456 46.7678 62.8125 47.063C63.1793 47.3583 63.3673 47.8057 63.3673 48.4231C63.3673 48.8974 63.2599 49.2642 63.0541 49.5237C62.8483 49.7922 62.553 49.9801 62.1682 50.0964C61.7835 50.2127 61.3182 50.2754 60.7545 50.2664H60.5487H60.486H60.495Z" fill="#FFC431"/>
<defs>
<linearGradient id="paint0_linear_927_1858" x1="1.07646" y1="35.1561" x2="71.0836" y2="35.1561" gradientUnits="userSpaceOnUse">
<stop stop-color="#21B1B8"/>
<stop offset="1" stop-color="#1D7F84"/>
</linearGradient>
<linearGradient id="paint1_linear_927_1858" x1="35.9158" y1="2.26988" x2="36.2427" y2="64.2574" gradientUnits="userSpaceOnUse">
<stop stop-color="white"/>
<stop offset="1" stop-color="#CCE6F3"/>
</linearGradient>
<linearGradient id="paint2_linear_927_1858" x1="34.6799" y1="48.1139" x2="67.4957" y2="48.1139" gradientUnits="userSpaceOnUse">
<stop stop-color="#21B1B8"/>
<stop offset="1" stop-color="#1D7F84"/>
</linearGradient>
<linearGradient id="paint3_linear_927_1858" x1="45.0579" y1="28.5149" x2="57.0945" y2="28.5149" gradientUnits="userSpaceOnUse">
<stop stop-color="#1BD6DF"/>
<stop offset="1" stop-color="#1499A0"/>
</linearGradient>
<linearGradient id="paint4_linear_927_1858" x1="9.10053" y1="54.2319" x2="41.9164" y2="54.2319" gradientUnits="userSpaceOnUse">
<stop stop-color="#1BD6DF"/>
<stop offset="1" stop-color="#1499A0"/>
</linearGradient>
<linearGradient id="paint5_linear_927_1858" x1="19.4785" y1="34.633" x2="31.5152" y2="34.633" gradientUnits="userSpaceOnUse">
<stop stop-color="#21B1B8"/>
<stop offset="1" stop-color="#1D7F84"/>
</linearGradient>
<linearGradient id="paint6_linear_927_1858" x1="18.8716" y1="32.2367" x2="12.0241" y2="55.7041" gradientUnits="userSpaceOnUse">
<stop stop-color="#FFE14D"/>
<stop offset="1" stop-color="#F7A523"/>
</linearGradient>
<linearGradient id="paint7_linear_927_1858" x1="18.064" y1="35.0354" x2="12.3061" y2="54.7648" gradientUnits="userSpaceOnUse">
<stop stop-color="#FAAD1E"/>
<stop offset="1" stop-color="#F2830B"/>
</linearGradient>
<linearGradient id="paint8_linear_927_1858" x1="42.5289" y1="32.2343" x2="35.6815" y2="55.7017" gradientUnits="userSpaceOnUse">
<stop stop-color="#FFE14D"/>
<stop offset="1" stop-color="#F7A523"/>
</linearGradient>
<linearGradient id="paint9_linear_927_1858" x1="41.7082" y1="35.0347" x2="35.9503" y2="54.7641" gradientUnits="userSpaceOnUse">
<stop stop-color="#FAAD1E"/>
<stop offset="1" stop-color="#F2830B"/>
</linearGradient>
<linearGradient id="paint10_linear_927_1858" x1="66.1596" y1="32.2385" x2="59.3121" y2="55.7059" gradientUnits="userSpaceOnUse">
<stop stop-color="#FFE14D"/>
<stop offset="1" stop-color="#F7A523"/>
</linearGradient>
<linearGradient id="paint11_linear_927_1858" x1="65.3381" y1="35.0378" x2="59.5802" y2="54.7672" gradientUnits="userSpaceOnUse">
<stop stop-color="#FAAD1E"/>
<stop offset="1" stop-color="#F2830B"/>
</linearGradient>
</defs>
</svg>
