<svg width="36" height="36" viewBox="0 0 36 36" fill="none" xmlns="http://www.w3.org/2000/svg">
<circle cx="18" cy="18" r="18" fill="#252434" fill-opacity="0.75"/>
<path d="M12.8234 14.5C12.8634 13.06 13.29 11.9267 14.1034 11.1C14.9167 10.2733 16.01 9.86 17.3834 9.86C18.6767 9.86 19.7234 10.2067 20.5234 10.9C21.3234 11.5933 21.7234 12.5 21.7234 13.62C21.7234 14.3 21.5434 14.9 21.1834 15.42C20.8367 15.9267 20.3634 16.28 19.7634 16.48C20.55 16.68 21.17 17.0733 21.6234 17.66C22.0767 18.2333 22.3034 18.94 22.3034 19.78C22.3034 21.1133 21.8434 22.2 20.9234 23.04C20.0034 23.88 18.81 24.3 17.3434 24.3C15.89 24.3 14.7167 23.88 13.8234 23.04C12.93 22.2 12.4834 21.0867 12.4834 19.7V19.4H14.6834C14.75 21.36 15.6567 22.34 17.4034 22.34C18.1767 22.34 18.79 22.12 19.2434 21.68C19.6967 21.2267 19.9234 20.6133 19.9234 19.84C19.9234 19.0267 19.6634 18.4333 19.1434 18.06C18.6234 17.6867 17.95 17.5 17.1234 17.5C16.87 17.5 16.63 17.5067 16.4034 17.52V15.8H16.6034C17.0167 15.8 17.37 15.78 17.6634 15.74C17.9567 15.6867 18.25 15.6 18.5434 15.48C18.85 15.3467 19.0834 15.14 19.2434 14.86C19.4034 14.5667 19.4834 14.2067 19.4834 13.78C19.4834 13.1667 19.29 12.6733 18.9034 12.3C18.5167 11.9267 17.9967 11.74 17.3434 11.74C15.85 11.74 15.07 12.66 15.0034 14.5H12.8234Z" fill="white"/>
</svg>
