<svg width="70" height="71" viewBox="0 0 70 71" fill="none" xmlns="http://www.w3.org/2000/svg">
<g clip-path="url(#clip0_809_31744)">
<path d="M34.9958 70.1498C54.3235 70.1498 69.9916 54.4817 69.9916 35.154C69.9916 15.8264 54.3235 0.158203 34.9958 0.158203C15.6682 0.158203 0 15.8264 0 35.154C0 54.4817 15.6682 70.1498 34.9958 70.1498Z" fill="url(#paint0_linear_809_31744)"/>
<path d="M34.9956 65.2891C51.6389 65.2891 65.1309 51.7971 65.1309 35.1538C65.1309 18.5106 51.6389 5.01855 34.9956 5.01855C18.3524 5.01855 4.86035 18.5106 4.86035 35.1538C4.86035 51.7971 18.3524 65.2891 34.9956 65.2891Z" fill="url(#paint1_linear_809_31744)"/>
<path d="M32.9846 23.623H38.8256C41.9096 23.623 44.4069 26.1287 44.4069 29.2043V37.9616H27.395V29.2043C27.395 26.1204 29.9007 23.623 32.9762 23.623H32.9846Z" fill="url(#paint2_linear_809_31744)"/>
<path d="M40.8869 21.7792C40.8869 22.9441 40.4847 24.0167 39.8143 24.8715C38.9008 26.0196 37.4846 26.7654 35.9007 26.7654C34.3168 26.7654 32.9006 26.0196 31.9955 24.8715C31.3251 24.0251 30.9229 22.9441 30.9229 21.7792C30.9229 21.201 31.015 20.6563 31.1994 20.1451C31.3838 19.6171 31.6519 19.1227 31.9955 18.6869C32.9006 17.5388 34.3168 16.793 35.9007 16.793C37.4846 16.793 38.9008 17.5388 39.8143 18.6869C40.1579 19.1227 40.426 19.6171 40.6104 20.1451C40.7864 20.6563 40.8869 21.2093 40.8869 21.7792Z" fill="url(#paint3_linear_809_31744)"/>
<path d="M17.2634 29.2207H23.1044C26.1883 29.2207 28.6856 31.7264 28.6856 34.8019V43.5593H11.6821V34.8019C11.6821 31.718 14.1878 29.2207 17.2634 29.2207Z" fill="url(#paint4_linear_809_31744)"/>
<path d="M25.1657 27.3769C25.1657 28.5417 24.7635 29.6144 24.0931 30.4692C23.1796 31.6172 21.7634 32.3631 20.1795 32.3631C18.5957 32.3631 17.1794 31.6172 16.2743 30.4692C15.6039 29.6228 15.2017 28.5417 15.2017 27.3769C15.2017 26.7986 15.2938 26.2539 15.4782 25.7427C15.6626 25.2148 15.9307 24.7203 16.2743 24.2846C17.1794 23.1365 18.5957 22.3906 20.1795 22.3906C21.7634 22.3906 23.1796 23.1365 24.0931 24.2846C24.4367 24.7203 24.7048 25.2148 24.8892 25.7427C25.0652 26.2539 25.1657 26.807 25.1657 27.3769Z" fill="url(#paint5_linear_809_31744)"/>
<path d="M48.7058 29.2207H54.5468C57.6308 29.2207 60.1281 31.7264 60.1281 34.8019V43.5593H43.1162V34.8019C43.1162 31.718 45.6219 29.2207 48.6974 29.2207H48.7058Z" fill="url(#paint6_linear_809_31744)"/>
<path d="M56.6081 27.3769C56.6081 28.5417 56.2059 29.6144 55.5355 30.4692C54.622 31.6172 53.2058 32.3631 51.6219 32.3631C50.038 32.3631 48.6218 31.6172 47.7167 30.4692C47.0463 29.6228 46.644 28.5417 46.644 27.3769C46.644 26.7986 46.7362 26.2539 46.9206 25.7427C47.105 25.2148 47.3731 24.7203 47.7167 24.2846C48.6218 23.1365 50.038 22.3906 51.6219 22.3906C53.2058 22.3906 54.622 23.1365 55.5355 24.2846C55.879 24.7203 56.1472 25.2148 56.3316 25.7427C56.5076 26.2539 56.6081 26.807 56.6081 27.3769Z" fill="url(#paint7_linear_809_31744)"/>
<path d="M35.9095 60.0935C43.0417 60.0935 48.8235 54.3117 48.8235 47.1795C48.8235 40.0474 43.0417 34.2656 35.9095 34.2656C28.7774 34.2656 22.9956 40.0474 22.9956 47.1795C22.9956 54.3117 28.7774 60.0935 35.9095 60.0935Z" fill="url(#paint8_linear_809_31744)"/>
<path d="M35.9096 58.0399C41.9078 58.0399 46.7704 53.1774 46.7704 47.1791C46.7704 41.1809 41.9078 36.3184 35.9096 36.3184C29.9114 36.3184 25.0488 41.1809 25.0488 47.1791C25.0488 53.1774 29.9114 58.0399 35.9096 58.0399Z" fill="url(#paint9_linear_809_31744)"/>
<path d="M33.1973 53.7176V53.792H33.2635H34.6528H34.719V53.7176V51.4284H37.2037L37.2698 51.4366V51.3622V50.23V50.1556H37.2037H34.719V48.7507H35.4541H35.5203H35.9466C36.8729 48.7507 37.6521 48.6102 38.2769 48.3044C38.9165 47.9986 39.4016 47.5606 39.7324 46.9986C40.0632 46.4201 40.2249 45.7258 40.2249 44.9242C40.2249 43.7341 39.8942 42.8167 39.2179 42.1804C38.5489 41.544 37.5345 41.2382 36.1745 41.2299H33.2708L33.2047 41.2217V41.2961L33.19 47.2713H31.9109H31.8447V47.3457V48.668V48.7424H31.9109H33.19V50.1391H31.9109H31.8447V50.2135V51.3457V51.4201H31.9109H33.19V53.7094L33.1973 53.7176ZM35.4762 47.2878H34.741L34.7558 42.7093H36.0789C36.9905 42.7176 37.6447 42.9076 38.0637 43.2795C38.4754 43.6432 38.6812 44.2052 38.6812 44.9738C38.6812 45.5688 38.5636 46.0234 38.3357 46.3539C38.1078 46.6845 37.777 46.9242 37.3507 47.073C36.9243 47.2217 36.4024 47.2878 35.7775 47.2878H35.5497H35.4835H35.4762Z" fill="#FFC431"/>
</g>
<defs>
<linearGradient id="paint0_linear_809_31744" x1="34.7947" y1="-3.03466" x2="35.1802" y2="68.9431" gradientUnits="userSpaceOnUse">
<stop stop-color="#9571CB"/>
<stop offset="1" stop-color="#6237C0"/>
</linearGradient>
<linearGradient id="paint1_linear_809_31744" x1="34.828" y1="2.26984" x2="35.1549" y2="64.25" gradientUnits="userSpaceOnUse">
<stop stop-color="#F5F0FF"/>
<stop offset="1" stop-color="#D2C1F7"/>
</linearGradient>
<linearGradient id="paint2_linear_809_31744" x1="36.7557" y1="38.917" x2="34.6272" y2="25.0309" gradientUnits="userSpaceOnUse">
<stop stop-color="#FAAD1E"/>
<stop offset="1" stop-color="#F2830B"/>
</linearGradient>
<linearGradient id="paint3_linear_809_31744" x1="35.9091" y1="17.0444" x2="35.9091" y2="29.5309" gradientUnits="userSpaceOnUse">
<stop stop-color="#FFC085"/>
<stop offset="1" stop-color="#FA976E"/>
</linearGradient>
<linearGradient id="paint4_linear_809_31744" x1="23.2385" y1="28.257" x2="17.9422" y2="46.5259" gradientUnits="userSpaceOnUse">
<stop stop-color="#9571CB"/>
<stop offset="1" stop-color="#6237C0"/>
</linearGradient>
<linearGradient id="paint5_linear_809_31744" x1="20.1879" y1="22.642" x2="20.1879" y2="35.1369" gradientUnits="userSpaceOnUse">
<stop stop-color="#FFC085"/>
<stop offset="1" stop-color="#FA976E"/>
</linearGradient>
<linearGradient id="paint6_linear_809_31744" x1="50.6668" y1="29.2123" x2="52.1836" y2="44.7828" gradientUnits="userSpaceOnUse">
<stop stop-color="#9571CB"/>
<stop offset="1" stop-color="#6237C0"/>
</linearGradient>
<linearGradient id="paint7_linear_809_31744" x1="51.6303" y1="22.642" x2="51.6303" y2="35.1369" gradientUnits="userSpaceOnUse">
<stop stop-color="#FFC085"/>
<stop offset="1" stop-color="#FA976E"/>
</linearGradient>
<linearGradient id="paint8_linear_809_31744" x1="42.7226" y1="23.8239" x2="33.6217" y2="54.9983" gradientUnits="userSpaceOnUse">
<stop stop-color="#FFE14D"/>
<stop offset="1" stop-color="#F7A523"/>
</linearGradient>
<linearGradient id="paint9_linear_809_31744" x1="41.6333" y1="27.5359" x2="33.9905" y2="53.7576" gradientUnits="userSpaceOnUse">
<stop stop-color="#FAAD1E"/>
<stop offset="1" stop-color="#F2830B"/>
</linearGradient>
<clipPath id="clip0_809_31744">
<rect width="70" height="70" fill="white" transform="translate(0 0.158203)"/>
</clipPath>
</defs>
</svg>
