<svg width="36" height="36" viewBox="0 0 36 36" fill="none" xmlns="http://www.w3.org/2000/svg">
<circle cx="18" cy="18" r="18" fill="#252434" fill-opacity="0.75"/>
<path d="M22.0834 13.56H19.8834C19.6434 12.28 18.9367 11.64 17.7634 11.64C17.43 11.64 17.1234 11.7067 16.8434 11.84C16.5634 11.9733 16.33 12.1267 16.1434 12.3C15.9567 12.4733 15.79 12.7267 15.6434 13.06C15.4967 13.38 15.3834 13.6533 15.3034 13.88C15.2367 14.0933 15.1634 14.4067 15.0834 14.82C15.0167 15.2333 14.9767 15.52 14.9634 15.68C14.95 15.84 14.9234 16.1067 14.8834 16.48C15.6567 15.3333 16.7234 14.76 18.0834 14.76C19.3767 14.76 20.4167 15.1867 21.2034 16.04C22.0034 16.8933 22.4034 18.0067 22.4034 19.38C22.4034 20.8067 21.9567 21.98 21.0634 22.9C20.1834 23.82 19.0567 24.28 17.6834 24.28C16.07 24.28 14.83 23.6733 13.9634 22.46C13.0967 21.2467 12.6634 19.5133 12.6634 17.26C12.6634 14.9267 13.1234 13.1067 14.0434 11.8C14.9634 10.4933 16.2367 9.84 17.8634 9.84C19.05 9.84 20.0167 10.1667 20.7634 10.82C21.51 11.4733 21.95 12.3867 22.0834 13.56ZM17.6234 16.58C16.8767 16.58 16.2834 16.84 15.8434 17.36C15.4034 17.8667 15.1834 18.5467 15.1834 19.4C15.1834 20.2933 15.41 21.0133 15.8634 21.56C16.33 22.1067 16.9367 22.38 17.6834 22.38C18.4167 22.38 19.0034 22.1133 19.4434 21.58C19.8967 21.0467 20.1234 20.34 20.1234 19.46C20.1234 18.5933 19.8967 17.9 19.4434 17.38C18.99 16.8467 18.3834 16.58 17.6234 16.58Z" fill="white"/>
</svg>
