<svg width="1909" height="862" viewBox="0 0 1909 862" fill="none" xmlns="http://www.w3.org/2000/svg">
<path d="M0.00195312 0H1920V862H0.00195312V0Z" fill="url(#paint0_linear_806_6880)"/>
<path d="M0.00195312 133V161.388L1920 231V176.284L0.00195312 133Z" fill="url(#paint1_linear_806_6880)"/>
<path d="M0.00195312 185V223.177L1231 239L0.00195312 185Z" fill="url(#paint2_linear_806_6880)"/>
<path d="M0.00195312 31.5662V105.537L1920 159V29L0.00195312 31.5662Z" fill="url(#paint3_linear_806_6880)"/>
<path opacity="0.5" d="M1321 862H1920V562C1893.33 564.573 1867.21 572.732 1844.04 586.096C1798.49 612.385 1764.89 658.559 1753.84 710.026C1737.34 689.41 1705.26 683.415 1682.38 696.633C1659.48 709.851 1648.69 740.702 1658.31 765.324C1643.23 750.469 1612.61 761.464 1610.39 782.519C1558.62 740.497 1483.24 729.823 1421.86 755.879C1375.66 775.442 1338.85 815.153 1321 861.971V862Z" fill="url(#paint4_linear_806_6880)"/>
<g style="mix-blend-mode:screen" opacity="0.3">
<path d="M1246.82 727.856C1246.23 735.331 1242.35 742.016 1236.66 747.119C1229.45 753.578 1214.98 760.669 1207.52 750.913C1203.62 745.787 1204.75 738.38 1207.52 732.576C1212.11 722.978 1220.8 715.435 1230.88 712.07C1239.73 709.112 1245.83 714.396 1246.77 723.181C1246.93 724.762 1246.95 726.32 1246.84 727.856H1246.82Z" fill="#F0EEF4"/>
</g>
<g style="mix-blend-mode:screen" opacity="0.3">
<path d="M437.011 770.109C435.769 773.452 433.104 776.003 429.83 777.607C425.697 779.617 418.131 780.994 415.986 775.552C414.857 772.706 416.347 769.454 418.38 767.151C421.722 763.334 426.69 761.031 431.749 760.805C436.198 760.602 438.298 763.831 437.576 767.964C437.44 768.709 437.259 769.432 436.988 770.109H437.011Z" fill="#F0EEF4"/>
</g>
<g style="mix-blend-mode:screen" opacity="0.3">
<path d="M106.688 548.117C100.749 547.44 95.5545 544.143 91.6702 539.468C86.7471 533.551 81.5078 521.83 89.4797 516.185C93.6576 513.226 99.5293 514.333 104.069 516.704C111.589 520.611 117.325 527.747 119.696 535.877C121.796 542.991 117.415 547.711 110.392 548.185C109.127 548.275 107.885 548.253 106.666 548.095L106.688 548.117Z" fill="#F0EEF4"/>
</g>
<g style="mix-blend-mode:screen" opacity="0.3">
<path d="M1276.51 703.33C1273.06 706.582 1268.41 708.05 1263.57 708.004C1257.48 707.959 1247.68 705.114 1248.35 697.39C1248.69 693.348 1252.37 690.367 1256.14 688.809C1262.38 686.257 1269.63 686.437 1275.77 689.147C1281.14 691.541 1281.78 696.6 1278.46 701.094C1277.87 701.907 1277.21 702.652 1276.49 703.307L1276.51 703.33Z" fill="#F0EEF4"/>
</g>
<g style="mix-blend-mode:screen" opacity="0.3">
<path d="M477.729 780.092C473.054 780.837 468.379 779.437 464.404 776.705C459.368 773.249 452.864 765.413 457.765 759.383C460.317 756.222 465.037 755.815 469.034 756.673C475.606 758.051 481.523 762.274 485.091 767.965C488.207 772.956 485.881 777.495 480.619 779.37C479.671 779.708 478.722 779.957 477.751 780.092H477.729Z" fill="#F0EEF4"/>
</g>
<g style="mix-blend-mode:screen" opacity="0.3">
<path d="M137.083 750.214C134.26 750.666 131.437 749.83 129.044 748.159C126.017 746.059 122.088 741.339 125.024 737.703C126.582 735.806 129.427 735.557 131.821 736.054C135.796 736.89 139.364 739.442 141.509 742.874C143.384 745.901 141.984 748.633 138.8 749.762C138.235 749.966 137.648 750.124 137.083 750.214Z" fill="#F0EEF4"/>
</g>
<g style="mix-blend-mode:screen" opacity="0.3">
<path d="M98.5337 731.763C94.8752 728.76 92.8201 724.311 92.2555 719.523C91.5328 713.471 93.091 703.399 100.837 703.083C104.902 702.925 108.335 706.177 110.322 709.722C113.642 715.571 114.387 722.798 112.467 729.234C110.796 734.88 105.851 736.122 100.973 733.435C100.092 732.938 99.2789 732.396 98.5337 731.786V731.763Z" fill="#F0EEF4"/>
</g>
<path d="M1690 862H1920V691C1909.02 693.432 1898.59 698.12 1889.59 704.947C1865.97 722.938 1853.7 754.876 1859.18 784.177C1853.88 776.441 1842.17 774.185 1834.42 779.342C1826.61 784.499 1824.08 796.19 1829 804.131C1794.78 789.92 1753.3 795.311 1723.79 817.726C1708.85 829.066 1697.25 844.654 1690.03 861.971L1690 862Z" fill="url(#paint5_linear_806_6880)"/>
<path d="M0.453735 537.322V861.956H558.35C524.294 816.519 465.781 788.786 409.074 795.968C397.241 769.704 360.024 759.044 336.04 774.988C344.238 730.477 325.313 682.058 289.09 654.936C252.889 627.768 201.106 623.206 160.682 643.599C162.759 630.749 155.487 616.973 143.744 611.373C131.978 605.817 116.712 608.911 108.108 618.644C84.2375 579.146 44.5814 550.511 0.453735 537.322Z" fill="url(#paint6_linear_806_6880)"/>
<path d="M426.668 861.977H1072.91C1046.51 825.325 1002.59 801.116 957.193 800.596C956.199 778.962 940.955 758.637 920.472 751.636C899.944 744.59 875.487 751.297 861.417 767.805C860.988 750.145 835.176 739.734 822.619 752.178C809.724 702.721 758.506 666.316 707.558 670.404C656.633 674.491 611.805 718.551 606.904 769.409C602.297 757.349 587.889 749.942 575.401 753.239C562.912 756.536 553.992 770.019 555.912 782.801C518.288 780.407 479.896 795.108 453.451 822.005C442.137 833.523 433.104 847.185 426.69 862L426.668 861.977Z" fill="url(#paint7_linear_806_6880)"/>
<path d="M716 861.982H1231C1209.96 832.761 1174.96 813.46 1138.78 813.046C1137.99 795.797 1125.84 779.593 1109.52 774.012C1093.16 768.394 1073.67 773.742 1062.46 786.903C1062.12 772.824 1041.55 764.524 1031.54 774.444C1021.26 735.014 980.447 705.991 939.846 709.25C899.263 712.508 863.539 747.635 859.633 788.181C855.962 778.567 844.48 772.662 834.528 775.29C824.575 777.919 817.467 788.668 818.996 798.858C789.014 796.95 758.419 808.671 737.344 830.114C728.328 839.296 721.129 850.189 716.018 862L716 861.982Z" fill="url(#paint8_linear_806_6880)"/>
<path d="M0.451721 616.681V861.98H312.732C298.46 841.429 279.151 824.356 256.794 813.155C220.164 794.772 175.878 792.31 137.441 806.515C141.123 792.085 136.719 775.87 126.263 765.256C115.829 754.642 99.7049 749.989 85.1839 753.445C88.8649 708.007 67.8625 661.283 31.4132 633.889C21.9509 626.753 11.4949 620.994 0.429108 616.681H0.451721Z" fill="url(#paint9_linear_806_6880)"/>
<g style="mix-blend-mode:screen" opacity="0.3">
<path d="M0.4505 566.659V861.98H652.27C636.755 838.268 611.688 820.72 583.865 814.962C549.336 807.871 511.554 819.094 486.577 843.958C477.657 825.779 448.434 822.753 435.968 838.674C425.964 821.669 407.942 809.677 388.43 807.035C368.896 804.37 348.322 811.122 334.185 824.831C330.888 786.665 293.965 754.529 255.686 756.607C265.081 747.325 266.503 732.646 264.855 719.525C263.184 706.427 259.028 693.577 259.435 680.388C260.316 652.069 298.097 630.457 326.372 628.944C323.052 612.435 308.26 588.971 298.797 575.083C288.906 597.937 254.963 602.566 230.641 597.35C206.319 592.156 183.691 579.396 158.894 577.251C124.726 574.292 89.6768 594.12 74.6589 624.969C54.4921 600.444 28.928 580.706 0.473145 566.704L0.4505 566.659Z" fill="#F0EEF4"/>
</g>
<path d="M359.006 495.679C359.006 495.679 325.989 489.649 320.072 491.343C314.155 493.037 241.731 542.742 242.273 545.746C242.815 548.75 244.035 551.256 247.535 552.498C251.013 553.74 307.584 541.455 307.584 541.455L355.957 520.633L359.028 495.702L359.006 495.679Z" fill="url(#paint10_linear_806_6880)"/>
<path d="M426.798 629.53C426.798 629.53 412.887 660.085 408.122 663.97C403.356 667.854 321.176 698.928 319.031 696.76C316.863 694.592 315.53 692.153 316.501 688.608C317.472 685.04 360.087 645.519 360.087 645.519L404.599 617.832L426.798 629.553V629.53Z" fill="url(#paint11_linear_806_6880)"/>
<path d="M326.848 553.923L361.988 623.57C364.111 627.793 362.891 632.919 359.075 635.72L330.055 656.993L281.005 559.772L315.354 549.068C319.87 547.668 324.726 549.723 326.848 553.946V553.923Z" fill="url(#paint12_linear_806_6880)"/>
<path d="M307.561 541.434L311.92 550.129H311.965L354.738 634.906L355.144 635.719L360.067 645.498C360.067 645.498 361.738 645.43 365.036 645.091C365.081 645.114 365.103 645.114 365.148 645.091C372.669 644.21 388.567 641.884 412.731 635.471C416.39 634.477 420.252 633.416 424.294 632.241C425.988 631.744 427.727 631.248 429.488 630.706C438.928 627.883 449.361 624.473 460.698 620.453C463.611 619.437 466.615 618.353 469.664 617.201C474.745 615.349 480.007 613.362 485.427 611.239C489.334 609.726 493.353 608.1 497.464 606.429C520.724 596.944 546.898 585.155 575.94 570.476C618.939 548.796 651.481 523.322 676.007 498.323C679.529 494.732 682.917 491.141 686.079 487.596C690.776 482.469 695.044 477.343 699.064 472.329C726.751 437.484 739.375 406.725 744.118 392.949C744.885 390.804 744.659 388.523 743.734 386.649H743.688V386.626C742.763 384.752 741.069 383.284 738.901 382.606C724.944 378.225 692.763 370.118 648.274 371.676C641.838 371.947 635.199 372.308 628.266 373.008C623.5 373.46 618.6 374.047 613.632 374.747C578.944 379.625 539.107 390.714 496.154 412.394C353.654 484.321 307.516 541.502 307.516 541.502L307.561 541.434Z" fill="#F1EDF9"/>
<path d="M432.558 544.235C432.558 544.235 411.533 531.498 395.59 539.538C385.089 544.845 323.594 586.014 282.922 613.453C278.112 616.705 282.516 625.399 287.981 623.479C334.209 607.061 403.878 582.062 414.379 576.777C430.323 568.738 432.581 544.235 432.581 544.235H432.558Z" fill="url(#paint13_linear_806_6880)"/>
<path d="M680.725 418.377C673.16 403.382 669.185 387.303 669.095 371.562C702.834 372.623 727.269 378.856 738.899 382.537C743.281 383.892 745.652 388.59 744.139 392.926C740.187 404.466 730.679 427.817 711.483 455.594C698.882 446.177 688.29 433.44 680.725 418.4V418.377Z" fill="url(#paint14_linear_806_6880)"/>
<path d="M699.084 472.284C683.389 462.618 669.523 447.758 659.993 428.856C650.463 409.999 646.759 390.013 648.295 371.63C652.947 371.472 657.441 371.427 661.754 371.45C661.799 388.41 666.045 405.618 674.152 421.697C682.282 437.822 693.619 451.485 707.214 461.557C704.662 465.057 701.952 468.648 699.062 472.284H699.084Z" fill="url(#paint15_linear_806_6880)"/>
<g style="mix-blend-mode:screen" opacity="0.4">
<path d="M307.56 541.434L311.919 550.129H311.964C545.271 363.343 743.755 386.604 743.755 386.604H743.71C742.784 384.684 741.091 383.239 738.923 382.561C724.966 378.18 692.785 370.073 648.296 371.631C641.86 371.902 635.22 372.263 628.287 372.964C623.522 373.415 618.622 374.002 613.653 374.702C578.966 379.58 539.129 390.669 496.176 412.349C353.675 484.276 307.538 541.457 307.538 541.457L307.56 541.434Z" fill="#F0EEF4"/>
</g>
<g style="mix-blend-mode:multiply">
<path d="M354.737 634.907L355.144 635.72L360.067 645.499C360.067 645.499 361.738 645.431 365.035 645.092C365.08 645.115 365.103 645.115 365.148 645.092C372.713 644.257 388.657 641.908 412.731 635.472C416.389 634.478 420.251 633.417 424.293 632.242C425.987 631.746 427.726 631.249 429.488 630.707C438.927 627.884 449.361 624.474 460.698 620.454C463.611 619.438 466.614 618.354 469.663 617.202C474.744 615.35 480.006 613.363 485.426 611.24C489.333 609.727 493.353 608.101 497.463 606.43C520.724 596.945 546.898 585.156 575.94 570.477C618.938 548.797 651.481 523.324 676.006 498.324C679.529 494.733 682.916 491.142 686.078 487.597C690.775 482.47 695.044 477.344 699.063 472.331C726.75 437.485 739.375 406.726 744.117 392.951C744.885 390.805 744.659 388.524 743.733 386.65H743.688C743.688 386.65 661.937 556.227 354.715 634.952L354.737 634.907Z" fill="#D4D1DB"/>
</g>
<path d="M610.447 514.379C583.798 527.839 551.301 517.134 537.887 490.509C525.601 466.186 533.46 437.054 555.14 421.923C557.218 420.455 559.431 419.123 561.802 417.926C588.428 404.489 620.948 415.171 634.385 441.819C642.537 457.966 641.792 476.259 634.001 491.163C628.965 500.852 620.925 509.072 610.447 514.356V514.379Z" fill="url(#paint16_linear_806_6880)"/>
<path d="M605.231 504.058C584.273 514.627 558.754 506.226 548.185 485.291C538.542 466.163 544.708 443.264 561.735 431.385C563.384 430.233 565.1 429.172 566.975 428.246C587.887 417.699 613.451 426.078 624.02 447.035C630.434 459.727 629.846 474.09 623.726 485.833C619.774 493.444 613.451 499.925 605.231 504.058Z" fill="#0064AB"/>
<path d="M618.554 488.904C597.597 499.473 572.055 491.05 561.509 470.115C555.118 457.446 555.66 443.06 561.757 431.385C563.406 430.233 565.122 429.172 566.997 428.246C587.909 417.699 613.473 426.078 624.042 447.035C630.456 459.727 629.868 474.09 623.748 485.833C622.1 486.985 620.383 488.001 618.554 488.927V488.904Z" fill="#0088BD"/>
<path d="M577.023 441.029C575.262 445.342 576.504 450.333 578.604 454.489C581.856 460.925 587.141 466.3 593.532 469.642C598.59 472.284 604.552 473.639 610.085 472.216C615.618 470.794 620.496 466.142 621.083 460.451C622.867 443.016 585.582 419.981 577.023 441.029Z" fill="#00B0DA"/>
<path d="M464.175 579.666L482.693 578.763C482.987 580.253 484.116 585.786 485.787 587.931C487.865 590.574 496.514 596.423 498.818 598.184C500.353 599.359 499.405 601.617 499.405 601.617L459.432 592.245C459.432 592.245 461.758 584.115 464.152 579.689L464.175 579.666Z" fill="#390280"/>
<path d="M355.64 457.468C361.173 469.008 369.099 480.39 382.356 481.903C413.295 485.472 452.409 478.426 452.409 478.426L461.261 581.902L484.725 579.644L485.2 579.576C485.2 579.576 485.245 451.461 480.864 449.18C477.725 447.532 450.625 445.093 435.155 445.725H435.02C428.313 446.041 424.112 442.744 424.112 442.744L352.275 446.064C352.794 450.106 353.969 453.945 355.64 457.468Z" fill="#0088BD"/>
<path d="M482.693 578.741L484.725 579.644L485.2 579.576C485.2 579.576 485.245 451.462 480.864 449.181C477.725 447.532 450.625 445.093 435.155 445.725C438.272 446.606 473.163 456.023 474.021 456.656C474.879 457.378 482.693 578.741 482.693 578.741Z" fill="#00B0DA"/>
<path d="M355.664 457.468C382.154 457.762 421.765 448.932 435.066 445.77C428.585 443.986 424.159 442.767 424.159 442.767L352.321 446.086C352.841 450.129 354.015 453.968 355.686 457.491L355.664 457.468Z" fill="#0064AB"/>
<path d="M405.775 312.642L412.37 338.229L414.176 345.252L415.057 348.73C415.057 348.73 465.26 359.728 475.738 356.114C486.262 352.524 521.582 286.694 521.582 286.694L517.088 284.255L513.881 282.471L502.906 276.463L499.112 274.386L468.489 326.079L413.228 314.245L405.775 312.642Z" fill="#0088BD"/>
<path d="M413.227 314.245C413.227 314.245 467.833 331.183 469.572 330.776C471.288 330.392 502.882 276.463 502.882 276.463L499.088 274.386L468.466 326.079L413.204 314.245H413.227Z" fill="#00B0DA"/>
<path d="M415.035 348.73C415.035 348.73 465.214 359.75 475.738 356.137C486.262 352.524 521.56 286.716 521.56 286.716L517.088 284.255L513.881 282.493C507.039 296.021 480.052 348.73 473.231 350.356C466.547 351.959 424.384 341.345 412.347 338.229L414.154 345.252L415.035 348.73Z" fill="#0064AB"/>
<path d="M348.391 453.538L398.503 448.999L400.694 448.796L434.93 445.702C434.93 445.702 427.387 380.504 423.051 344.755C420.725 325.536 412.708 316.706 405.775 312.641C404.194 311.715 402.659 311.038 401.281 310.541C397.442 309.163 394.664 309.186 394.664 309.186L377.32 310.699C375.785 311.06 374.339 311.467 372.962 311.873C371.923 312.212 370.929 312.551 369.981 312.89C366.955 314.019 352.23 320.997 350.875 322.329C345.839 331.001 344.168 346.471 344.168 346.471L345.501 379.939L345.772 386.827L348.414 453.538H348.391Z" fill="#0088BD"/>
<path d="M371.09 296.608L379.174 314.087L396.947 311.942L393.221 300.628L371.09 296.608Z" fill="#FF8A8C"/>
<path d="M395.66 261.287L402.413 300.695L378.181 304.105L369.17 296.201L361.785 271.359L395.66 261.287Z" fill="#FFABA7"/>
<path d="M375.651 288.997C375.651 288.997 367.341 275.785 362.192 283.983C358.601 289.719 369.17 296.223 369.17 296.223L375.651 288.997Z" fill="#FFABA7"/>
<path d="M396.947 268.378C397.015 268.785 404.964 285.587 404.964 285.587L396.721 288.026L394.937 272.602L396.947 268.378Z" fill="#FFABA7"/>
<path d="M387.686 239.675C390.238 241.301 391.683 243.131 392.496 244.892C393.557 241.776 393.241 238.501 393.241 238.501C404.962 244.124 400.626 257.245 400.626 257.245C400.784 264.065 367.745 273.098 367.745 273.098L370.794 283.329C367 279.241 362.212 283.961 362.212 283.961L354.172 272.037C358.26 267.543 364.154 263.117 369.303 259.661C376.936 254.558 383.26 247.715 387.686 239.653V239.675Z" fill="#28016A"/>
<path d="M392.204 377.388L401.283 310.519C397.444 309.141 394.666 309.164 394.666 309.164L386.604 309.864L377.322 310.677C375.809 311.038 374.341 311.445 372.963 311.874L392.182 377.388H392.204Z" fill="#F1EDF9"/>
<path d="M412.821 347.127L405.233 339.674L415.238 336.513L405.775 312.665C404.195 311.739 402.659 311.039 401.281 310.564L392.203 377.433L412.844 347.149L412.821 347.127Z" fill="#0064AB"/>
<path d="M375.604 344.665L368.671 351.778L392.18 377.41L372.961 311.896C371.923 312.213 370.929 312.551 369.98 312.913L365.328 341.142L375.626 344.665H375.604Z" fill="#0064AB"/>
<g style="mix-blend-mode:multiply">
<path d="M372.963 311.873L374.363 316.345L380.89 325.965L386.536 313.274L394.282 325.22L400.831 313.883L401.283 310.541C397.444 309.163 394.666 309.186 394.666 309.186L386.604 309.886L377.322 310.699C375.809 311.06 374.341 311.467 372.963 311.896V311.873Z" fill="#D4D1DB"/>
</g>
<path d="M394.665 309.186L386.603 309.886L393.739 322.623L401.282 310.541C397.443 309.163 394.665 309.186 394.665 309.186Z" fill="#F1EDF9"/>
<path d="M372.962 311.874L380.527 323.595L386.602 309.887L377.32 310.7C375.807 311.061 374.339 311.468 372.962 311.897V311.874Z" fill="#F1EDF9"/>
<path d="M398.502 449L400.693 448.796L396.786 383.666L389.83 370.975L387.888 372.036L394.641 384.276L398.502 449Z" fill="#0064AB"/>
<path d="M387.009 389.899C387.347 390.983 388.522 391.592 389.606 391.254C390.69 390.915 391.299 389.741 390.961 388.657C390.622 387.573 389.448 386.963 388.364 387.302C387.28 387.64 386.67 388.815 387.009 389.899Z" fill="#0064AB"/>
<path d="M388.115 402.592C388.454 403.676 389.628 404.285 390.712 403.947C391.796 403.608 392.406 402.434 392.067 401.35C391.728 400.266 390.554 399.656 389.47 399.995C388.386 400.333 387.776 401.508 388.115 402.592Z" fill="#0064AB"/>
<path d="M389.56 416.208C389.899 417.292 391.073 417.902 392.157 417.563C393.241 417.225 393.851 416.05 393.512 414.966C393.173 413.882 391.999 413.272 390.915 413.611C389.831 413.95 389.221 415.124 389.56 416.208Z" fill="#0064AB"/>
<path d="M380.752 427.479L356.769 429.85L358.26 434.592L369.619 436.241L380.323 431.431L380.752 427.479Z" fill="#0064AB"/>
<path d="M427.432 424.113L406.768 426.123L408.055 430.21L417.834 431.656L427.07 427.5L427.432 424.113Z" fill="#0064AB"/>
<path d="M513.001 265.376L523.186 276.555L517.088 284.91L507.377 280.055L508.845 266.55L513.001 265.376Z" fill="#FF8A8C"/>
<path d="M546.513 210.318L574.426 162.306C552.768 150.834 524.427 152.256 503.898 165.693C493.849 172.265 485.651 181.389 475.579 187.915C462.278 196.52 445.882 200.246 430.164 198.191C439.107 203.475 448.073 208.782 457.738 212.599C467.404 216.415 477.837 218.674 488.158 217.612C498.524 216.551 508.234 212.26 518.261 209.437C528.288 206.614 537.276 205.44 546.513 210.295V210.318Z" fill="url(#paint17_linear_806_6880)"/>
<path d="M579.191 165.106L381.385 505.254L376.868 502.115L574.404 162.328L579.191 165.106Z" fill="#F0EEF4"/>
<path d="M350.851 322.331L350.445 337.8L354.758 360.406L360.02 376.417L412.029 405.527L410.245 411.376L406.293 425.22C406.293 425.22 346.131 405.121 337.731 397.871C333.282 394.032 331.43 369.552 328.878 350.989C327.749 342.723 340.237 327.502 350.851 322.331Z" fill="#0088BD"/>
<path d="M502.679 272.963L508.98 261.582L526.392 261.898C526.392 261.898 527.43 264.427 524.63 265.556C521.807 266.685 515.845 267.273 515.845 267.273C515.845 267.273 510.358 279.738 505.412 278.361C500.466 277.006 502.679 272.963 502.679 272.963Z" fill="#FFABA7"/>
<path d="M524.154 267.295C524.154 267.295 526.209 270.027 525.554 271.902C524.921 273.776 514.94 274.68 514.94 274.68L513.991 272.354C513.991 272.354 521.376 266.008 524.154 267.295Z" fill="#FFABA7"/>
<path d="M523.431 262.936C523.431 262.936 525.486 265.669 524.831 267.543C524.199 269.417 514.217 270.321 514.217 270.321L513.269 267.995C513.269 267.995 520.653 261.649 523.431 262.936Z" fill="#FFABA7"/>
<path d="M524.289 272.059C524.289 272.059 526.118 274.498 525.531 276.169C524.944 277.84 516.069 278.653 516.069 278.653L515.233 276.576C515.233 276.576 521.805 270.93 524.267 272.082L524.289 272.059Z" fill="#FFABA7"/>
<path d="M523.86 276.982C523.86 276.982 525.057 279.286 524.334 280.596C523.634 281.928 516.046 281.364 516.046 281.364L515.64 279.489C515.64 279.489 521.941 275.65 523.86 276.96V276.982Z" fill="#FFABA7"/>
<path d="M410.246 411.353L420.498 411.985C420.498 411.985 432.851 420.612 432.987 422.283C433.122 423.954 430.661 426.732 430.254 426.845C429.848 426.958 427.928 426.912 427.928 426.912C427.928 426.912 426.844 429.216 426.031 429.487C425.218 429.758 423.028 430.164 423.028 430.164C423.028 430.164 421.627 431.497 421.153 431.632C420.679 431.79 418.104 431.903 417.608 431.745C417.111 431.587 411.623 425.851 411.42 424.925L407.265 421.605L410.268 411.33L410.246 411.353Z" fill="#FFABA7"/>
<path d="M412.053 405.528L410.269 411.377L358.554 383.238C358.554 383.238 348.685 360.858 347.601 350.56C346.517 340.285 350.604 332.99 350.604 332.99C350.604 332.99 348.911 354.738 361.896 378.879L412.053 405.528Z" fill="#0064AB"/>
<path d="M337.754 397.871C339.222 399.158 342.316 400.83 346.404 402.704C365.464 411.579 406.294 425.219 406.294 425.219L407.582 420.68V420.432C407.582 420.432 341.074 395.771 340.713 395.319C338.432 392.542 330.099 348.278 332.176 345.004C334.276 341.707 336.941 336.716 346.313 328.225C347.217 327.366 363.318 316.526 370.003 312.913C366.977 314.042 351.891 320.659 350.514 321.992C339.945 327.118 327.795 342.723 328.902 351.011C331.408 369.574 333.283 394.032 337.754 397.894V397.871Z" fill="#00B0DA"/>
<path d="M343.467 375.853C349.655 367.723 357.31 360.723 365.937 355.28C371.56 351.734 377.726 348.731 382.016 343.65C387.527 337.146 389.085 327.593 385.923 319.666L383.484 316.911L386.601 309.888L390.282 316.459L388.678 319.666C390.891 326.712 393.15 334.526 391.411 341.685C389.785 348.37 385.223 353.993 379.961 358.419C374.699 362.845 368.715 366.278 363.069 370.23C357.446 374.182 349.045 384.638 349.203 384.548L341.095 385.361L343.467 375.853Z" fill="#FF6790"/>
<g style="mix-blend-mode:screen" opacity="0.2">
<path d="M243.288 318.061C231.439 318.061 221.834 308.456 221.834 296.607C221.834 284.758 231.439 275.153 243.288 275.153C255.137 275.153 264.742 284.758 264.742 296.607C264.742 308.456 255.137 318.061 243.288 318.061Z" fill="#F0EEF4"/>
</g>
<path d="M234.458 287.958C235.746 286.648 239.336 288.003 243.221 291.052C247.037 287.958 250.628 286.512 251.938 287.8C253.248 289.087 251.893 292.678 248.844 296.562C251.938 300.379 253.383 303.969 252.096 305.279C250.809 306.589 247.218 305.234 243.334 302.185C239.517 305.279 235.926 306.724 234.616 305.437C233.307 304.15 234.662 300.559 237.71 296.675C234.616 292.858 233.171 289.268 234.458 287.958Z" fill="#FFE48F"/>
<g style="mix-blend-mode:screen" opacity="0.2">
<path d="M458.053 724.537C446.205 724.537 436.599 714.932 436.599 703.083C436.599 691.234 446.205 681.629 458.053 681.629C469.902 681.629 479.507 691.234 479.507 703.083C479.507 714.932 469.902 724.537 458.053 724.537Z" fill="#F0EEF4"/>
</g>
<path d="M449.224 694.433C450.511 693.123 454.101 694.478 457.986 697.527C461.802 694.433 465.393 692.987 466.703 694.275C468.013 695.562 466.658 699.153 463.609 703.037C466.703 706.854 468.148 710.444 466.861 711.754C465.574 713.064 461.983 711.709 458.099 708.66C454.282 711.754 450.691 713.199 449.382 711.912C448.072 710.625 449.427 707.034 452.476 703.15C449.382 699.333 447.936 695.743 449.224 694.433Z" fill="#FFE48F"/>
<g style="mix-blend-mode:screen" opacity="0.2">
<path d="M706.855 591.521C695.006 591.521 685.4 581.916 685.4 570.067C685.4 558.219 695.006 548.613 706.855 548.613C718.703 548.613 728.309 558.219 728.309 570.067C728.309 581.916 718.703 591.521 706.855 591.521Z" fill="#F0EEF4"/>
</g>
<path d="M694.502 570.179C694.502 568.35 698.002 566.769 702.88 566.159C703.377 561.259 704.913 557.713 706.742 557.713C708.571 557.713 710.152 561.213 710.762 566.091C715.662 566.588 719.208 568.124 719.208 569.953C719.208 571.782 715.708 573.363 710.83 573.973C710.333 578.873 708.797 582.419 706.968 582.419C705.139 582.419 703.558 578.919 702.948 574.041C698.048 573.544 694.502 572.008 694.502 570.179Z" fill="#FFE48F"/>
<g style="mix-blend-mode:screen" opacity="0.2">
<path d="M576.82 315.961C576.82 324.452 583.708 331.34 592.199 331.34C600.691 331.34 607.579 324.452 607.579 315.961C607.579 307.469 600.691 300.582 592.199 300.582C583.708 300.582 576.82 307.469 576.82 315.961Z" fill="#F0EEF4"/>
</g>
<path d="M585.877 309.774C586.803 308.848 589.377 309.819 592.155 311.987C594.888 309.774 597.462 308.735 598.388 309.661C599.314 310.587 598.343 313.161 596.175 315.939C598.388 318.671 599.427 321.246 598.501 322.172C597.575 323.098 595.001 322.127 592.223 319.959C589.49 322.172 586.916 323.211 585.99 322.285C585.064 321.359 586.035 318.784 588.203 316.007C585.99 313.274 584.951 310.7 585.877 309.774Z" fill="#FFE48F"/>
<g style="mix-blend-mode:screen" opacity="0.2">
<path d="M274.387 464.401C280.394 470.408 290.128 470.408 296.135 464.401C302.142 458.394 302.142 448.66 296.135 442.653C290.128 436.646 280.394 436.646 274.387 442.653C268.38 448.66 268.38 458.394 274.387 464.401Z" fill="#F0EEF4"/>
</g>
<path d="M276.418 453.627C276.418 452.318 278.925 451.188 282.426 450.759C282.787 447.259 283.871 444.707 285.181 444.707C286.491 444.707 287.62 447.214 288.049 450.714C291.549 451.076 294.101 452.16 294.101 453.469C294.101 454.779 291.594 455.908 288.094 456.337C287.733 459.838 286.649 462.39 285.339 462.39C284.029 462.39 282.9 459.883 282.471 456.383C278.97 456.021 276.418 454.937 276.418 453.627Z" fill="#FFE48F"/>
<g style="mix-blend-mode:screen" opacity="0.2">
<path d="M164.586 396.244C170.593 402.251 180.326 402.251 186.334 396.244C192.341 390.237 192.341 380.504 186.334 374.497C180.326 368.489 170.593 368.489 164.586 374.497C158.579 380.504 158.579 390.237 164.586 396.244Z" fill="#F0EEF4"/>
</g>
<path d="M166.595 385.449C166.595 384.139 169.101 383.01 172.602 382.581C172.963 379.081 174.047 376.529 175.357 376.529C176.667 376.529 177.796 379.036 178.225 382.536C181.725 382.897 184.277 383.981 184.277 385.291C184.277 386.601 181.771 387.73 178.27 388.159C177.909 391.66 176.825 394.211 175.515 394.211C174.205 394.211 173.076 391.705 172.647 388.204C169.147 387.843 166.595 386.759 166.595 385.449Z" fill="#FFE48F"/>
<g style="mix-blend-mode:screen" opacity="0.2">
<path d="M740.683 500.623C740.683 509.115 747.571 516.003 756.062 516.003C764.553 516.003 771.441 509.115 771.441 500.623C771.441 492.132 764.553 485.244 756.062 485.244C747.571 485.244 740.683 492.132 740.683 500.623Z" fill="#F0EEF4"/>
</g>
<path d="M749.74 494.413C750.666 493.487 753.24 494.458 756.018 496.626C758.75 494.413 761.325 493.374 762.251 494.3C763.177 495.226 762.206 497.801 760.038 500.578C762.251 503.311 763.29 505.886 762.364 506.811C761.438 507.737 758.863 506.766 756.086 504.598C753.353 506.811 750.779 507.85 749.853 506.924C748.927 505.998 749.898 503.424 752.066 500.646C749.853 497.914 748.814 495.339 749.74 494.413Z" fill="#FFE48F"/>
<defs>
<linearGradient id="paint0_linear_806_6880" x1="72.3248" y1="-147.092" x2="1055.58" y2="1154.66" gradientUnits="userSpaceOnUse">
<stop stop-color="#D955B4"/>
<stop offset="0.33" stop-color="#A140B5"/>
<stop offset="0.56" stop-color="#8034B6"/>
<stop offset="1" stop-color="#390280"/>
</linearGradient>
<linearGradient id="paint1_linear_806_6880" x1="960.002" y1="-399.333" x2="960.002" y2="229.438" gradientUnits="userSpaceOnUse">
<stop stop-color="white"/>
<stop offset="1" stop-color="white" stop-opacity="0"/>
</linearGradient>
<linearGradient id="paint2_linear_806_6880" x1="615.517" y1="-104.294" x2="615.517" y2="242.128" gradientUnits="userSpaceOnUse">
<stop stop-color="white"/>
<stop offset="1" stop-color="white" stop-opacity="0"/>
</linearGradient>
<linearGradient id="paint3_linear_806_6880" x1="2002.82" y1="-686.934" x2="2001.25" y2="147.162" gradientUnits="userSpaceOnUse">
<stop stop-color="white"/>
<stop offset="1" stop-color="white" stop-opacity="0"/>
</linearGradient>
<linearGradient id="paint4_linear_806_6880" x1="1557.77" y1="574.662" x2="1716.71" y2="922.016" gradientUnits="userSpaceOnUse">
<stop stop-color="white"/>
<stop offset="1" stop-color="white" stop-opacity="0"/>
</linearGradient>
<linearGradient id="paint5_linear_806_6880" x1="1708.79" y1="627.534" x2="1872.74" y2="878.375" gradientUnits="userSpaceOnUse">
<stop stop-color="white"/>
<stop offset="0.25" stop-color="white" stop-opacity="0.7"/>
<stop offset="0.52" stop-color="white" stop-opacity="0.4"/>
<stop offset="0.75" stop-color="white" stop-opacity="0.18"/>
<stop offset="0.91" stop-color="white" stop-opacity="0.05"/>
<stop offset="1" stop-color="white" stop-opacity="0"/>
</linearGradient>
<linearGradient id="paint6_linear_806_6880" x1="485.722" y1="356.34" x2="211.72" y2="812.296" gradientUnits="userSpaceOnUse">
<stop stop-color="white"/>
<stop offset="1" stop-color="white" stop-opacity="0"/>
</linearGradient>
<linearGradient id="paint7_linear_806_6880" x1="749.788" y1="506.156" x2="749.788" y2="901.024" gradientUnits="userSpaceOnUse">
<stop stop-color="white"/>
<stop offset="0.25" stop-color="white" stop-opacity="0.7"/>
<stop offset="0.52" stop-color="white" stop-opacity="0.4"/>
<stop offset="0.75" stop-color="white" stop-opacity="0.18"/>
<stop offset="0.91" stop-color="white" stop-opacity="0.05"/>
<stop offset="1" stop-color="white" stop-opacity="0"/>
</linearGradient>
<linearGradient id="paint8_linear_806_6880" x1="973.5" y1="578.303" x2="973.5" y2="893.112" gradientUnits="userSpaceOnUse">
<stop stop-color="white"/>
<stop offset="0.25" stop-color="white" stop-opacity="0.7"/>
<stop offset="0.52" stop-color="white" stop-opacity="0.4"/>
<stop offset="0.75" stop-color="white" stop-opacity="0.18"/>
<stop offset="0.91" stop-color="white" stop-opacity="0.05"/>
<stop offset="1" stop-color="white" stop-opacity="0"/>
</linearGradient>
<linearGradient id="paint9_linear_806_6880" x1="278.79" y1="587.684" x2="94.6463" y2="816.203" gradientUnits="userSpaceOnUse">
<stop stop-color="white"/>
<stop offset="1" stop-color="white" stop-opacity="0"/>
</linearGradient>
<linearGradient id="paint10_linear_806_6880" x1="361.3" y1="508.23" x2="239.503" y2="530.167" gradientUnits="userSpaceOnUse">
<stop stop-color="#FF9A7A"/>
<stop offset="1" stop-color="#FF4E83"/>
</linearGradient>
<linearGradient id="paint11_linear_806_6880" x1="418.015" y1="620.159" x2="330.445" y2="707.607" gradientUnits="userSpaceOnUse">
<stop stop-color="#FF9A7A"/>
<stop offset="1" stop-color="#FF4E83"/>
</linearGradient>
<linearGradient id="paint12_linear_806_6880" x1="346.001" y1="587.377" x2="312.749" y2="604.564" gradientUnits="userSpaceOnUse">
<stop stop-color="#F66987"/>
<stop offset="1" stop-color="#C74F86"/>
</linearGradient>
<linearGradient id="paint13_linear_806_6880" x1="436.137" y1="563.96" x2="276.335" y2="592.742" gradientUnits="userSpaceOnUse">
<stop stop-color="#FF9A7A"/>
<stop offset="1" stop-color="#FF4E83"/>
</linearGradient>
<linearGradient id="paint14_linear_806_6880" x1="747.103" y1="403.269" x2="675.67" y2="416.134" gradientUnits="userSpaceOnUse">
<stop stop-color="#F66987"/>
<stop offset="1" stop-color="#C74F86"/>
</linearGradient>
<linearGradient id="paint15_linear_806_6880" x1="699.28" y1="417.275" x2="654.562" y2="425.329" gradientUnits="userSpaceOnUse">
<stop stop-color="#F66987"/>
<stop offset="1" stop-color="#C74F86"/>
</linearGradient>
<linearGradient id="paint16_linear_806_6880" x1="639.316" y1="456.483" x2="532.944" y2="475.641" gradientUnits="userSpaceOnUse">
<stop stop-color="#FF9A7A"/>
<stop offset="1" stop-color="#FF4E83"/>
</linearGradient>
<linearGradient id="paint17_linear_806_6880" x1="576.972" y1="169.958" x2="436.128" y2="216.187" gradientUnits="userSpaceOnUse">
<stop stop-color="#FF9A7A"/>
<stop offset="1" stop-color="#FF4E83"/>
</linearGradient>
</defs>
</svg>
