<svg width="968" height="639" viewBox="0 0 968 639" fill="none" xmlns="http://www.w3.org/2000/svg">
<path d="M575.033 206.38H558.211V332.903H575.033V206.38Z" fill="#E380A1"/>
<path d="M494.893 277.306H478.004V332.904H494.893V277.306Z" fill="#191753"/>
<path d="M535.922 247.878H518.944V332.903H535.922V247.878Z" fill="#EFC343"/>
<path d="M234.773 401.265H110.771V489.659H234.773V401.265Z" fill="#EFC343"/>
<path d="M135.67 414.494H124.849V425.315H135.67V414.494Z" fill="#E380A1"/>
<path d="M152.782 414.494H141.961V425.315H152.782V414.494Z" fill="#F8FAFB"/>
<path d="M169.873 414.494H159.052V425.315H169.873V414.494Z" fill="#F8FAFB"/>
<path d="M186.984 414.494H176.163V425.315H186.984V414.494Z" fill="#F8FAFB"/>
<path d="M204.096 414.494H193.275V425.315H204.096V414.494Z" fill="#F8FAFB"/>
<path d="M221.187 414.494H210.366V425.315H221.187V414.494Z" fill="#E380A1"/>
<path d="M135.67 431.449H124.849V442.27H135.67V431.449Z" fill="#F8FAFB"/>
<path d="M152.782 431.449H141.961V442.27H152.782V431.449Z" fill="#F8FAFB"/>
<path d="M169.873 431.449H159.052V442.27H169.873V431.449Z" fill="#F8FAFB"/>
<path d="M186.984 431.449H176.163V442.27H186.984V431.449Z" fill="#F8FAFB"/>
<path d="M204.096 431.449H193.275V442.27H204.096V431.449Z" fill="#F8FAFB"/>
<path d="M221.187 431.449H210.366V442.27H221.187V431.449Z" fill="#E380A1"/>
<path d="M135.67 448.405H124.849V459.226H135.67V448.405Z" fill="#F8FAFB"/>
<path d="M152.782 448.405H141.961V459.226H152.782V448.405Z" fill="#F8FAFB"/>
<path d="M169.873 448.405H159.052V459.226H169.873V448.405Z" fill="#E380A1"/>
<path d="M186.984 448.405H176.163V459.226H186.984V448.405Z" fill="#F8FAFB"/>
<path d="M204.096 448.405H193.275V459.226H204.096V448.405Z" fill="#F8FAFB"/>
<path d="M221.187 448.405H210.366V459.226H221.187V448.405Z" fill="#E380A1"/>
<path d="M135.67 465.362H124.849V476.183H135.67V465.362Z" fill="#F8FAFB"/>
<path d="M152.782 465.362H141.961V476.183H152.782V465.362Z" fill="#F8FAFB"/>
<path d="M169.873 465.362H159.052V476.183H169.873V465.362Z" fill="#F8FAFB"/>
<path d="M186.984 465.362H176.163V476.183H186.984V465.362Z" fill="#F8FAFB"/>
<path d="M204.096 465.362H193.275V476.183H204.096V465.362Z" fill="#F8FAFB"/>
<path d="M221.187 465.362H210.366V476.183H221.187V465.362Z" fill="#E380A1"/>
<path d="M129.557 406.551C128.062 406.551 126.812 405.324 126.812 403.807V398.185C126.812 396.69 128.04 395.44 129.557 395.44C131.052 395.44 132.301 396.668 132.301 398.185V403.807C132.301 405.302 131.074 406.551 129.557 406.551Z" fill="#191753"/>
<path d="M141.761 406.551C140.266 406.551 139.017 405.324 139.017 403.807V398.185C139.017 396.69 140.244 395.44 141.761 395.44C143.256 395.44 144.505 396.668 144.505 398.185V403.807C144.505 405.302 143.278 406.551 141.761 406.551Z" fill="#191753"/>
<path d="M153.964 406.551C152.47 406.551 151.22 405.324 151.22 403.807V398.185C151.22 396.69 152.447 395.44 153.964 395.44C155.459 395.44 156.709 396.668 156.709 398.185V403.807C156.709 405.302 155.482 406.551 153.964 406.551Z" fill="#191753"/>
<path d="M166.168 406.551C164.673 406.551 163.424 405.324 163.424 403.807V398.185C163.424 396.69 164.651 395.44 166.168 395.44C167.663 395.44 168.912 396.668 168.912 398.185V403.807C168.912 405.302 167.685 406.551 166.168 406.551Z" fill="#191753"/>
<path d="M178.372 406.551C176.877 406.551 175.627 405.324 175.627 403.807V398.185C175.627 396.69 176.855 395.44 178.372 395.44C179.866 395.44 181.116 396.668 181.116 398.185V403.807C181.116 405.302 179.889 406.551 178.372 406.551Z" fill="#191753"/>
<path d="M190.576 406.551C189.081 406.551 187.832 405.324 187.832 403.807V398.185C187.832 396.69 189.059 395.44 190.576 395.44C192.071 395.44 193.32 396.668 193.32 398.185V403.807C193.32 405.302 192.093 406.551 190.576 406.551Z" fill="#191753"/>
<path d="M202.758 406.551C201.263 406.551 200.014 405.324 200.014 403.807V398.185C200.014 396.69 201.241 395.44 202.758 395.44C204.253 395.44 205.502 396.668 205.502 398.185V403.807C205.502 405.302 204.275 406.551 202.758 406.551Z" fill="#191753"/>
<path d="M214.962 406.551C213.467 406.551 212.218 405.324 212.218 403.807V398.185C212.218 396.69 213.445 395.44 214.962 395.44C216.457 395.44 217.706 396.668 217.706 398.185V403.807C217.706 405.302 216.479 406.551 214.962 406.551Z" fill="#191753"/>
<path d="M421.246 300.864C421.246 300.864 483.046 373.998 487.062 377.456C491.078 380.892 460.691 437.673 460.691 437.673C460.691 437.673 390.725 430.801 396.459 371.723C402.192 312.644 421.246 300.864 421.246 300.864Z" fill="url(#paint0_linear_809_31544)"/>
<path d="M202.981 307.224C202.981 307.224 237.763 287.434 313.485 280.473C389.207 273.513 414.82 294.73 421.245 300.888C427.671 307.045 400.452 480.086 402.593 525.577C404.735 571.068 411.161 600.496 411.161 600.496H222.235C222.235 600.496 230.267 487.047 232.409 443.162C234.55 399.277 202.981 354.857 202.981 307.224Z" fill="url(#paint1_linear_809_31544)"/>
<path d="M350.298 274.181C350.298 282.236 334.011 289.799 313.909 291.093C293.808 292.365 277.521 286.876 277.521 278.822C277.521 270.768 293.808 263.205 313.909 261.911C334.011 260.639 350.298 266.127 350.298 274.181Z" fill="#191753"/>
<path d="M291.264 211.689C291.264 211.689 294.477 261.197 282.965 283.931L315.337 300.53L344.765 279.402L349.584 226.682L291.242 211.689H291.264Z" fill="url(#paint2_linear_809_31544)"/>
<path d="M349.585 226.682L291.243 211.689C291.243 211.689 294.456 261.197 282.943 283.931L290.484 287.791C301.573 275.208 297.624 250.331 302.42 256.154C322.656 280.808 344.208 285.404 346.015 265.726L348.536 238.127L349.585 226.682Z" fill="#C39A77"/>
<path d="M359.201 211.779C357.349 233.086 351.214 260.64 332.718 260.729C311.59 260.818 290.328 230.699 292.537 205.555C294.746 180.411 311.478 161.447 329.885 163.165C348.291 164.883 361.387 186.658 359.201 211.779Z" fill="url(#paint3_linear_809_31544)"/>
<path d="M296.887 216.442C297.846 222.823 295.548 228.49 291.755 229.07C287.963 229.672 284.125 224.965 283.188 218.584C282.229 212.203 284.527 206.536 288.32 205.956C292.112 205.354 295.95 210.061 296.887 216.442Z" fill="url(#paint4_linear_809_31544)"/>
<path d="M290.997 206.737C293.585 207.942 294.901 212.315 295.883 216.532C296.329 218.406 304.16 201.048 304.406 201.048C304.584 201.048 303.937 188.867 305.967 187.305C307.975 185.766 309.381 186.056 315.762 190.049C324.731 195.671 331.022 197.635 340.504 197.456C353.734 197.211 356.791 189.402 356.791 189.402C357.103 190.317 358.419 194.154 358.776 197.3C358.776 197.3 376.781 179.764 366.897 164.147C355.541 146.164 326.939 162.652 326.939 162.652C326.939 162.652 334.993 149.712 324.887 150.626C315.472 151.474 310.541 164.615 310.541 164.615C310.541 164.615 305.677 156.918 302.978 158.837C300.256 160.755 303.223 168.252 303.223 168.252C303.223 168.252 267.861 160.8 286.579 208.009C286.579 208.009 287.65 205.198 290.997 206.737Z" fill="#191753"/>
<path d="M294.322 317.487C294.322 317.487 297.713 314.765 298.404 308.652C299.074 302.539 301.796 297.385 303.982 297.385C306.168 297.385 315.338 300.531 315.338 300.531C315.338 300.531 292.381 289.108 282.966 283.932C273.55 278.756 280.489 271.014 287.963 268.962L288.32 265.303C288.32 265.303 277.031 267.69 275.268 274.874C273.506 282.058 263.288 284.624 263.288 288.149C263.288 297.408 278.972 313.114 294.322 317.465V317.487Z" fill="url(#paint5_linear_809_31544)"/>
<path d="M362.748 279.536C361.699 276.167 356.166 276.435 353.355 269.586C352.373 267.199 348.09 265.414 346.015 264.499C345.948 265.235 345.881 267.266 345.814 268.046C349.228 270.59 350.589 275.007 344.765 279.402C335.596 286.319 315.338 300.531 315.338 300.531C315.338 300.531 323.95 296.046 326.114 295.734C328.256 295.399 331.714 300.107 333.298 306.064C334.882 311.998 338.63 314.185 338.63 314.185C353.154 307.603 365.314 287.814 362.748 279.536Z" fill="url(#paint6_linear_809_31544)"/>
<path d="M322.522 231.835C322.21 231.925 317.748 233.419 315.249 235.472C305.968 231.478 304.071 195.402 304.071 195.402C304.071 195.402 290.462 192.725 292.515 200.154C294.567 207.584 294.946 227.44 294.946 227.44C303.402 257.716 322.143 271.838 333.99 271.994C343.829 272.128 354.426 253.811 355.743 242.478C357.059 231.144 340.17 226.838 322.522 231.858V231.835Z" fill="#191753"/>
<path d="M210.59 303.833C210.59 303.833 237.942 293.615 256.906 354.902C269.177 394.548 306.793 414.561 376.223 418.353L361.32 472.077H275.179C275.179 472.077 222.459 486.088 197.962 430.847C173.465 375.584 183.862 310.437 210.59 303.833Z" fill="url(#paint7_linear_809_31544)"/>
<path d="M324.775 221.171C325.835 221.171 326.694 219.672 326.694 217.824C326.694 215.976 325.835 214.478 324.775 214.478C323.715 214.478 322.856 215.976 322.856 217.824C322.856 219.672 323.715 221.171 324.775 221.171Z" fill="#191753"/>
<path d="M347.309 218.293C347.309 220.145 348.156 221.639 349.227 221.639C350.298 221.639 351.146 220.145 351.146 218.293C351.146 216.441 350.298 214.946 349.227 214.946C348.156 214.946 347.309 216.441 347.309 218.293Z" fill="#191753"/>
<path d="M335.105 249.173C333.967 249.173 332.896 248.861 331.914 248.258C328.501 246.139 327.363 241.097 327.318 240.873C327.207 240.383 327.519 239.869 328.032 239.758C328.546 239.646 329.036 239.959 329.148 240.472C329.148 240.516 330.174 244.979 332.896 246.674C333.945 247.321 335.083 247.477 336.421 247.143C336.912 247.009 337.425 247.321 337.559 247.812C337.693 248.303 337.38 248.816 336.89 248.95C336.287 249.106 335.685 249.173 335.127 249.173H335.105Z" fill="#D3AD89"/>
<path d="M392.889 339.643L325.757 473.908C324.128 477.187 326.493 481.047 330.174 481.047H548.706C550.58 481.047 552.298 479.976 553.124 478.303L623.112 337.211C624.741 333.931 622.331 330.072 618.672 330.094L406.811 331.009C400.899 331.031 395.522 334.377 392.889 339.665V339.643Z" fill="url(#paint8_linear_809_31544)"/>
<path d="M291.309 318.089C290.863 318.089 290.394 318.044 289.948 317.977C267.459 313.961 261.078 284.779 261.011 284.467C260.9 283.954 261.234 283.463 261.725 283.374C262.216 283.284 262.729 283.597 262.818 284.088C262.885 284.378 268.998 312.333 290.26 316.148C292.848 316.616 295.347 315.322 296.329 312.98C296.887 311.641 297.288 310.146 297.467 308.562C298.248 301.914 303.267 298.5 303.491 298.366C303.914 298.076 304.495 298.188 304.785 298.612C305.075 299.036 304.963 299.616 304.539 299.906C304.495 299.928 300.032 303.007 299.341 308.785C299.14 310.57 298.694 312.221 298.069 313.716C296.909 316.416 294.254 318.111 291.331 318.111L291.309 318.089Z" fill="#F8FAFB"/>
<path d="M341.062 316.973C340.281 316.973 339.478 316.749 338.674 316.348C335.952 314.92 333.677 311.239 332.383 306.286C330.598 299.459 327.385 298.098 327.363 298.076C326.894 297.897 326.649 297.339 326.827 296.871C327.006 296.402 327.541 296.157 328.01 296.335C328.166 296.402 332.115 297.942 334.168 305.817C335.305 310.212 337.313 313.514 339.544 314.697C340.37 315.121 341.129 315.232 341.82 314.987C344.252 314.117 362.881 292.676 361.788 279.625C361.743 279.112 362.123 278.665 362.636 278.621C363.149 278.576 363.595 278.955 363.64 279.469C364.755 293.056 345.836 315.522 342.445 316.749C341.999 316.906 341.53 316.995 341.039 316.995L341.062 316.973Z" fill="#F8FAFB"/>
<path d="M312.058 407.108L311.79 406.283C311.723 406.104 311.723 405.926 311.79 405.769C312.236 401.664 314.311 327.772 313.686 324.336C313.106 321.101 306.19 313.605 303.58 310.994C303.223 310.637 303.223 310.035 303.58 309.678C303.937 309.321 304.539 309.321 304.896 309.678C305.9 310.682 314.735 319.606 315.516 324.001C315.962 326.5 315.36 351.8 314.936 366.681C314.177 394.614 313.932 403.048 313.53 405.68C313.53 405.68 313.53 405.725 313.53 405.747H313.508C313.352 406.818 313.151 406.863 312.883 406.93L312.035 407.153L312.058 407.108Z" fill="#F8FAFB"/>
<path d="M343.025 412.307C342.601 412.307 342.2 411.994 342.11 411.57C333.855 371.568 323.994 323.801 323.994 323.288C323.994 322.774 324.418 322.351 324.931 322.351C325.422 322.351 325.801 322.708 325.846 323.176C326.114 324.872 337.782 381.429 343.917 411.169C344.029 411.682 343.694 412.173 343.204 412.262C343.137 412.262 343.07 412.262 343.025 412.262V412.307Z" fill="#F8FAFB"/>
<path d="M318.953 325.787C318.618 325.787 318.284 325.787 317.927 325.742C317.413 325.698 317.034 325.252 317.079 324.738C317.123 324.225 317.57 323.846 318.083 323.891C321.184 324.181 324.107 322.909 326.271 320.321C329.149 316.908 330.13 311.865 328.859 307.158C328.725 306.667 329.015 306.154 329.506 306.02C329.997 305.886 330.51 306.176 330.644 306.667C332.071 311.977 330.934 317.666 327.676 321.526C325.356 324.27 322.21 325.787 318.908 325.787H318.953Z" fill="#F8FAFB"/>
<path d="M486.593 422.011C483.96 422.011 481.64 421.096 480.212 419.244C477.133 415.273 479.275 408.468 484.964 404.051C490.654 399.633 497.793 399.276 500.872 403.248C502.411 405.233 502.724 407.933 501.742 410.855C500.827 413.644 498.819 416.344 496.12 418.441C493.085 420.806 489.627 421.988 486.593 421.988V422.011ZM481.685 418.106C484.139 421.252 490.096 420.761 494.982 416.968C497.391 415.094 499.176 412.707 499.979 410.275C500.738 407.955 500.537 405.858 499.399 404.385C496.945 401.217 490.988 401.73 486.102 405.523C481.216 409.294 479.231 414.961 481.685 418.106Z" fill="#F8FAFB"/>
<path d="M212.665 171.577C205.548 181.528 190.935 202.812 187.008 208.501C186.807 208.769 186.651 208.992 186.54 209.193C186.406 209.371 186.317 209.505 186.25 209.617C186.227 209.661 186.205 209.684 186.183 209.706L186.093 209.884L186.049 209.929V163.166C195.955 163.188 205.124 166.267 212.688 171.555L212.665 171.577Z" fill="#191753"/>
<path d="M232.7 209.951C232.7 235.787 211.772 256.737 185.914 256.737C160.056 256.737 139.151 235.809 139.151 209.951C139.151 184.093 160.079 163.188 185.914 163.188H186.004V209.951C186.004 209.951 186.004 209.929 186.048 209.907L186.137 209.728C186.137 209.728 186.182 209.684 186.204 209.639L186.494 209.215L186.963 208.524C190.89 202.812 205.481 181.528 212.62 171.6C212.665 171.622 212.709 171.666 212.776 171.733C224.802 180.167 232.677 194.156 232.677 209.974L232.7 209.951Z" fill="#EFC343"/>
<path d="M186.026 163.188V209.951H139.174C139.174 184.138 160.101 163.188 185.937 163.188H186.026Z" fill="#E380A1"/>
<path d="M967.073 637.823H210.032V638.135H0V514.178C15.3273 527.296 37.2586 537.247 68.4488 536.778C122.641 535.953 146.201 492.09 191.536 462.997C254.318 409.207 290.617 404.053 372.609 455.925C473.988 520.068 620.657 411.928 735.088 458.669C793.073 482.363 805.009 524.574 779.174 572.141C765.497 597.329 797.178 593.737 884.279 595.187C944.249 596.169 967.073 637.823 967.073 637.823Z" fill="url(#paint9_linear_809_31544)"/>
<path d="M672.306 637.644C672.306 637.644 741.357 557.415 681.319 538.406C589.154 509.224 517.493 633.003 428.027 599.069C338.54 565.134 210.053 637.8 210.053 637.8C210.053 637.8 710.345 637.621 672.328 637.621L672.306 637.644Z" fill="#F8FAFB"/>
<path d="M838.118 638.136H835.307C831.224 635.235 822.746 633.986 810.453 632.157C801.484 630.818 790.262 629.145 777.233 626.289C762.731 623.099 753.427 616.539 749.545 606.767C741.625 586.911 758.893 561.12 759.629 560.049C769.335 539.412 768.018 522.835 755.77 512.26C722.304 483.368 612.38 501.551 502.054 574.685C464.974 599.271 451.409 588.004 430.861 570.959C409.845 553.512 381.064 529.617 310.808 531.358C245.416 532.919 176.476 568.817 105.306 638.158H102.338C116.305 624.415 132.681 609.578 150.908 595.5C205.971 552.91 259.762 530.711 310.764 529.506C381.711 527.743 410.826 551.928 432.044 569.531C452.659 586.621 465.086 596.973 501.028 573.145C552.119 539.255 607.561 514.513 657.09 503.492C703.251 493.207 739.662 495.884 756.975 510.832C769.915 522.032 771.409 539.345 761.236 560.964C760.99 561.365 743.7 587.134 751.241 606.098C754.877 615.245 763.735 621.425 777.612 624.482C790.574 627.338 801.752 628.989 810.698 630.305C824.977 632.447 834.258 633.83 838.073 638.136H838.118Z" fill="#F8FAFB"/>
<path d="M414.91 244.463C414.397 244.463 413.995 244.061 413.973 243.548C413.973 243.035 414.374 242.611 414.887 242.611C415.467 242.611 466.782 241.451 485.389 217.846C481.239 216.485 477.759 214.187 475.171 211.064C470.24 205.085 469.861 198.436 474.144 193.238C478.138 188.396 485.032 186.455 489.516 188.932C492.439 190.538 496.723 195.268 492.35 208.81C491.457 211.599 490.163 214.254 488.468 216.775C492.84 217.757 497.883 217.757 503.326 216.731C526.976 212.291 556.849 189.489 570.347 148.55C570.503 148.059 571.039 147.791 571.53 147.97C572.021 148.126 572.288 148.661 572.11 149.152C558.367 190.806 527.823 214.031 503.661 218.582C497.637 219.72 492.082 219.631 487.285 218.426C480.123 227.886 467.228 235.159 449.29 239.711C431.62 244.195 415.066 244.507 414.91 244.507V244.463ZM485.009 189.668C481.73 189.668 478.049 191.408 475.572 194.398C473.81 196.54 470.374 202.318 476.598 209.859C479.075 212.871 482.488 215.013 486.571 216.262C488.267 213.808 489.628 211.153 490.565 208.23C493.465 199.261 492.751 192.814 488.624 190.538C487.553 189.958 486.326 189.69 485.032 189.69L485.009 189.668Z" fill="#191753"/>
<path d="M572.869 160.686C572.401 160.686 571.999 160.329 571.955 159.86L570.594 148.303C570.527 147.79 570.906 147.322 571.419 147.277C571.932 147.233 572.401 147.59 572.445 148.103L573.806 159.66C573.873 160.173 573.494 160.641 572.981 160.686C572.936 160.686 572.914 160.686 572.869 160.686Z" fill="#191753"/>
<path d="M563.075 157.921C562.785 157.921 562.517 157.787 562.339 157.541C562.026 157.14 562.116 156.537 562.517 156.247C563.075 155.823 567.916 150.692 570.839 147.568C571.196 147.189 571.776 147.167 572.155 147.524C572.535 147.881 572.557 148.461 572.2 148.84C570.906 150.223 564.391 157.162 563.633 157.72C563.477 157.854 563.276 157.898 563.075 157.898V157.921Z" fill="#191753"/>
<path d="M99.5062 341.493C81.39 341.493 66.665 326.768 66.665 308.652C66.665 290.536 81.39 275.811 99.5062 275.811C117.622 275.811 132.347 290.536 132.347 308.652C132.347 326.768 117.622 341.493 99.5062 341.493ZM99.5062 277.685C82.4163 277.685 68.5391 291.584 68.5391 308.652C68.5391 325.719 82.4386 339.619 99.5062 339.619C116.574 339.619 130.473 325.719 130.473 308.652C130.473 291.584 116.574 277.685 99.5062 277.685Z" fill="#191753"/>
<path d="M57.428 389.929C53.7468 389.929 50.7349 386.94 50.7349 383.236C50.7349 379.533 53.7245 376.543 57.428 376.543C61.1316 376.543 64.1212 379.555 64.1212 383.236C64.1212 386.917 61.1316 389.929 57.428 389.929ZM57.428 378.417C54.7731 378.417 52.6089 380.581 52.6089 383.236C52.6089 385.891 54.7731 388.055 57.428 388.055C60.083 388.055 62.2471 385.891 62.2471 383.236C62.2471 380.581 60.083 378.417 57.428 378.417Z" fill="#191753"/>
<path d="M275.111 104.734C270.649 104.734 266.589 104.087 264.38 102.703C262.774 101.677 262.528 100.584 262.64 99.8253C262.841 98.2635 264.692 96.9695 266.433 96.0771C265.295 95.7871 264.38 95.4078 263.755 94.9169C262.618 94.0022 262.194 93.0875 262.506 92.1951C262.707 91.615 263.309 89.897 271.118 89.8747C276.049 89.8524 284.058 90.6779 289.479 92.5297C290.372 92.2173 291.175 91.8604 291.844 91.5034C292.536 91.1242 293.696 90.3656 293.607 89.607C293.317 87.1305 289.1 86.5951 288.275 86.5059L287.851 86.6174L287.382 86.1043C286.914 85.5242 286.044 84.4533 295.905 65.4224C301.862 53.9101 301.706 41.8848 295.526 33.2729C290.216 25.8658 281.559 22.2961 272.39 23.7017C263.599 25.0626 256.772 30.2833 253.626 38.0473C250.012 46.9939 251.931 57.6583 258.736 66.5825C266.455 76.7115 269.065 86.4166 269.177 86.8182C269.311 87.309 269.021 87.8222 268.508 87.956C268.017 88.0899 267.504 87.7999 267.37 87.2867C267.347 87.1975 264.715 77.5147 257.241 67.6981C250.034 58.2384 248.026 46.8823 251.886 37.3334C255.277 28.9446 262.64 23.3001 272.077 21.8276C281.805 20.3328 291.354 24.2817 296.998 32.1351C303.602 41.3493 303.803 54.0886 297.534 66.2256C290.863 79.1211 289.368 83.3154 289.056 84.6541C290.863 84.9218 295.057 85.8811 295.459 89.317C295.615 90.7002 294.7 91.972 292.759 93.0429C292.514 93.1767 292.224 93.3106 291.934 93.4667C293.54 94.2699 294.656 95.207 295.057 96.3225C295.414 97.3265 295.436 98.8659 293.518 100.383C290.149 103.083 282.139 104.644 275.134 104.644L275.111 104.734ZM269.935 96.6349C267.682 97.3934 264.626 98.9775 264.492 100.071C264.447 100.472 265.027 100.918 265.384 101.142C270.337 104.265 287.472 102.926 292.358 99.0221C293.629 97.9958 293.384 97.2819 293.295 97.0364C292.982 96.1663 291.599 95.2962 289.457 94.5153C284.08 96.2332 275.848 97.1703 269.958 96.6572L269.935 96.6349ZM270.069 94.8054C274.621 95.1847 281.068 94.6715 286.111 93.4891C283.634 92.8867 280.689 92.3735 277.476 92.0612C269.132 91.2357 264.715 92.1504 264.269 92.7974C264.291 92.7974 264.402 93.0428 264.916 93.4444C265.763 94.1138 267.481 94.5376 269.668 94.7607C269.802 94.7607 269.935 94.7608 270.069 94.8054Z" fill="#191753"/>
<path d="M278.235 113.345C278.235 113.345 278.078 113.345 278.012 113.345C271.965 113.145 271.296 104.644 271.251 104.287C271.207 103.774 271.608 103.328 272.122 103.283C272.657 103.283 273.081 103.64 273.126 104.154C273.126 104.22 273.706 111.338 278.078 111.494C282.295 111.717 284.08 106.34 284.794 103.172H285.753L286.623 103.573C285.218 109.887 282.251 113.368 278.257 113.368L278.235 113.345Z" fill="#191753"/>
<path d="M241.065 46.838C240.954 46.838 240.82 46.8156 240.708 46.771C237.206 45.3208 230.267 45.5886 229.084 45.8786C228.594 46.0125 228.08 45.7001 227.947 45.2093C227.813 44.7184 228.125 44.2053 228.616 44.0714C230.021 43.7145 237.429 43.4021 241.422 45.0531C241.891 45.2539 242.114 45.7894 241.913 46.2802C241.757 46.6372 241.422 46.8603 241.065 46.8603V46.838Z" fill="#191753"/>
<path d="M250.769 22.0933C250.524 22.0933 250.256 21.9817 250.078 21.7809C246.731 18.1443 233.457 8.86313 233.323 8.77389C232.899 8.48385 232.787 7.90377 233.1 7.47987C233.39 7.05597 233.97 6.94442 234.394 7.25677C234.951 7.63605 247.981 16.7611 251.461 20.5315C251.818 20.9108 251.773 21.4909 251.394 21.8479C251.216 22.004 250.993 22.0933 250.769 22.0933Z" fill="#191753"/>
<path d="M270.18 14.2641C269.845 14.2641 269.511 14.0856 269.354 13.751C268.06 11.163 267.168 2.21645 267.079 1.21247C267.034 0.69933 267.413 0.253109 267.904 0.208488C268.395 0.141556 268.864 0.543152 268.908 1.03398C269.176 3.68894 270.046 10.9845 271.005 12.9255C271.229 13.394 271.05 13.9518 270.582 14.1749C270.448 14.2418 270.314 14.2641 270.158 14.2641H270.18Z" fill="#191753"/>
<path d="M296.484 19.9075C296.484 19.9075 296.328 19.9075 296.261 19.8852C295.77 19.7513 295.458 19.2605 295.592 18.7473C296.239 16.1147 302.575 8.306 303.289 7.41357C303.623 7.01198 304.203 6.94504 304.605 7.2797C305.007 7.61436 305.074 8.19444 304.739 8.59603C302.129 11.8088 297.823 17.5203 297.399 19.1935C297.287 19.6174 296.908 19.9075 296.506 19.9075H296.484Z" fill="#191753"/>
<path d="M310.585 44.6519C310.25 44.6519 309.916 44.4734 309.76 44.1388C309.536 43.6703 309.715 43.1125 310.183 42.8894C311.277 42.3539 323.19 37.7803 328.456 37.7803C328.969 37.7803 329.393 38.2042 329.393 38.7173C329.393 39.2305 328.969 39.6544 328.456 39.6544C323.726 39.6544 312.348 43.9157 311.031 44.5627C310.897 44.6296 310.764 44.6519 310.607 44.6519H310.585Z" fill="#191753"/>
<path d="M281.537 87.1307C281.537 87.1307 281.492 87.1307 281.47 87.1307C280.957 87.0861 280.578 86.6399 280.622 86.1267C281.358 77.0686 282.184 52.5716 277.231 47.8418C276.651 47.284 276.048 47.0609 275.335 47.1725C274.576 47.2617 273.951 47.6856 273.416 48.4442C268.463 55.6059 275.446 85.4574 275.513 85.7697C275.625 86.2606 275.312 86.7737 274.821 86.8853C274.331 86.9968 273.817 86.6845 273.706 86.1936C273.416 84.9219 266.455 55.2266 271.876 47.3956C272.702 46.1908 273.795 45.4992 275.089 45.343C276.361 45.1645 277.521 45.5661 278.503 46.5255C285.129 52.8394 282.585 84.9443 282.474 86.3052C282.429 86.796 282.028 87.153 281.559 87.153L281.537 87.1307Z" fill="#191753"/>
<path d="M236.425 75.2604C236.135 75.2604 235.845 75.1266 235.666 74.8812C235.354 74.4573 235.465 73.8772 235.867 73.5871L245.416 66.6263C245.84 66.3139 246.42 66.4255 246.71 66.827C247.022 67.2509 246.911 67.831 246.509 68.1211L236.96 75.082C236.804 75.1935 236.603 75.2604 236.425 75.2604Z" fill="#191753"/>
<path d="M320.937 73.075C320.781 73.075 320.647 73.0304 320.491 72.9635L306.368 65.3556C305.922 65.1102 305.744 64.5524 305.989 64.1062C306.235 63.66 306.792 63.4815 307.238 63.7269L321.361 71.3348C321.807 71.5802 321.986 72.138 321.74 72.5842C321.562 72.8965 321.25 73.075 320.915 73.075H320.937Z" fill="#191753"/>
<path d="M394.228 113.568C393.714 113.568 393.291 113.144 393.291 112.631V94.0015C393.291 93.4883 393.714 93.0645 394.228 93.0645C394.741 93.0645 395.165 93.4883 395.165 94.0015V112.631C395.165 113.144 394.741 113.568 394.228 113.568Z" fill="#191753"/>
<path d="M403.129 103.908H385.861C385.348 103.908 384.924 103.484 384.924 102.971C384.924 102.458 385.348 102.034 385.861 102.034H403.129C403.642 102.034 404.066 102.458 404.066 102.971C404.066 103.484 403.642 103.908 403.129 103.908Z" fill="#191753"/>
<path d="M429.211 130.258C428.14 130.258 427.047 129.789 426.311 128.897C425.017 127.313 425.24 124.948 426.846 123.654C428.43 122.36 430.795 122.583 432.089 124.167C433.383 125.751 433.16 128.116 431.554 129.41C430.862 129.968 430.014 130.258 429.189 130.258H429.211ZM429.211 124.658C428.787 124.658 428.363 124.792 428.029 125.082C427.225 125.729 427.114 126.911 427.761 127.714C428.408 128.518 429.59 128.629 430.393 127.982C431.197 127.335 431.308 126.153 430.661 125.349C430.282 124.903 429.746 124.658 429.211 124.658Z" fill="#191753"/>
<path d="M96.0024 314.141L96.2032 315.97H103.097L103.253 317.688H96.3594L96.8726 322.753H94.5969L94.0837 317.688H90.871L90.7148 315.97H93.9276L91.875 295.467H99.5944C102.004 295.467 104.057 296.136 105.752 297.497C107.448 298.858 108.608 300.754 109.233 303.186C110.125 306.667 109.947 309.366 108.653 311.263C107.381 313.181 105.194 314.118 102.071 314.118H95.9801L96.0024 314.141ZM95.757 311.62H101.491C103.945 311.62 105.663 310.928 106.622 309.545C107.582 308.161 107.738 306.131 107.046 303.476C106.578 301.691 105.752 300.33 104.547 299.393C103.343 298.456 101.848 297.988 100.041 297.988H94.3738L95.7347 311.62H95.757Z" fill="#191753"/>
<defs>
<linearGradient id="paint0_linear_809_31544" x1="441.771" y1="234.267" x2="441.771" y2="423.015" gradientUnits="userSpaceOnUse">
<stop stop-color="#4656AF"/>
<stop offset="1" stop-color="#191753"/>
</linearGradient>
<linearGradient id="paint1_linear_809_31544" x1="312.593" y1="122.626" x2="312.593" y2="566.071" gradientUnits="userSpaceOnUse">
<stop stop-color="#4656AF"/>
<stop offset="1" stop-color="#191753"/>
</linearGradient>
<linearGradient id="paint2_linear_809_31544" x1="399.649" y1="288.081" x2="315.918" y2="257.582" gradientUnits="userSpaceOnUse">
<stop stop-color="#EEEBE1"/>
<stop offset="1" stop-color="#D1A982"/>
</linearGradient>
<linearGradient id="paint3_linear_809_31544" x1="455.582" y1="334.621" x2="296.664" y2="179.764" gradientUnits="userSpaceOnUse">
<stop stop-color="#EEEBE1"/>
<stop offset="1" stop-color="#D1A982"/>
</linearGradient>
<linearGradient id="paint4_linear_809_31544" x1="432.423" y1="356.24" x2="279.373" y2="207.116" gradientUnits="userSpaceOnUse">
<stop stop-color="#EEEBE1"/>
<stop offset="1" stop-color="#D1A982"/>
</linearGradient>
<linearGradient id="paint5_linear_809_31544" x1="293.585" y1="237.058" x2="284.706" y2="356.084" gradientUnits="userSpaceOnUse">
<stop stop-color="#4656AF"/>
<stop offset="1" stop-color="#191753"/>
</linearGradient>
<linearGradient id="paint6_linear_809_31544" x1="342.891" y1="242.032" x2="334.168" y2="359.386" gradientUnits="userSpaceOnUse">
<stop stop-color="#4656AF"/>
<stop offset="1" stop-color="#191753"/>
</linearGradient>
<linearGradient id="paint7_linear_809_31544" x1="280.176" y1="220.213" x2="280.176" y2="455.411" gradientUnits="userSpaceOnUse">
<stop stop-color="#4656AF"/>
<stop offset="1" stop-color="#191753"/>
</linearGradient>
<linearGradient id="paint8_linear_809_31544" x1="474.434" y1="256.603" x2="474.434" y2="464.894" gradientUnits="userSpaceOnUse">
<stop stop-color="#BCC7FC"/>
<stop offset="1" stop-color="#574FD3"/>
</linearGradient>
<linearGradient id="paint9_linear_809_31544" x1="425.941" y1="473.019" x2="506.666" y2="987.679" gradientUnits="userSpaceOnUse">
<stop stop-color="#9D62F5"/>
<stop offset="1" stop-color="#6049CD"/>
</linearGradient>
</defs>
</svg>
