<svg width="1531" height="291" viewBox="0 0 1531 291" fill="none" xmlns="http://www.w3.org/2000/svg">
<path d="M1478.41 1.1582L1478.63 0.182864L1478.53 0.158203H1478.41V1.1582ZM1478.41 147.38V148.38H1478.44L1478.48 148.379L1478.41 147.38ZM50.9783 147.38V146.38H50.8645L50.7535 146.406L50.9783 147.38ZM50.9783 283.158L50.7535 284.133L50.8645 284.158H50.9783V283.158ZM111.891 283.865C112.282 283.475 112.282 282.842 111.891 282.451L105.527 276.087C105.137 275.697 104.504 275.697 104.113 276.087C103.722 276.478 103.722 277.111 104.113 277.501L109.77 283.158L104.113 288.815C103.722 289.206 103.722 289.839 104.113 290.229C104.504 290.62 105.137 290.62 105.527 290.229L111.891 283.865ZM107.421 282.158C106.869 282.158 106.421 282.606 106.421 283.158C106.421 283.71 106.869 284.158 107.421 284.158V282.158ZM99.8955 284.158C100.448 284.158 100.896 283.71 100.896 283.158C100.896 282.606 100.448 282.158 99.8955 282.158V284.158ZM92.3698 282.158C91.8175 282.158 91.3698 282.606 91.3698 283.158C91.3698 283.71 91.8175 284.158 92.3698 284.158V282.158ZM84.8441 284.158C85.3964 284.158 85.8441 283.71 85.8441 283.158C85.8441 282.606 85.3964 282.158 84.8441 282.158V284.158ZM77.3183 282.158C76.7661 282.158 76.3183 282.606 76.3183 283.158C76.3183 283.71 76.7661 284.158 77.3183 284.158V282.158ZM69.7926 284.158C70.3449 284.158 70.7926 283.71 70.7926 283.158C70.7926 282.606 70.3449 282.158 69.7926 282.158V284.158ZM62.2669 282.158C61.7146 282.158 61.2669 282.606 61.2669 283.158C61.2669 283.71 61.7146 284.158 62.2669 284.158V282.158ZM54.7412 284.158C55.2935 284.158 55.7412 283.71 55.7412 283.158C55.7412 282.606 55.2935 282.158 54.7412 282.158V284.158ZM47.6432 281.199C47.1171 281.031 46.5544 281.321 46.3862 281.847C46.2181 282.373 46.5083 282.936 47.0344 283.104L47.6432 281.199ZM39.8717 280.279C40.372 280.513 40.9672 280.297 41.2011 279.796C41.435 279.296 41.219 278.701 40.7187 278.467L39.8717 280.279ZM34.1588 274.935C33.6877 274.647 33.0721 274.795 32.7838 275.266C32.4955 275.737 32.6437 276.353 33.1148 276.641L34.1588 274.935ZM26.7954 272.283C27.2322 272.621 27.8603 272.541 28.1982 272.104C28.5361 271.667 28.4559 271.039 28.019 270.701L26.7954 272.283ZM22.3797 265.818C21.9829 265.434 21.3498 265.444 20.9656 265.841C20.5814 266.238 20.5916 266.871 20.9883 267.255L22.3797 265.818ZM15.7848 261.611C16.1354 262.038 16.7655 262.099 17.1923 261.749C17.6191 261.398 17.6809 260.768 17.3303 260.341L15.7848 261.611ZM12.9429 254.321C12.6441 253.856 12.0254 253.722 11.5609 254.021C11.0964 254.319 10.9621 254.938 11.2609 255.403L12.9429 254.321ZM7.48793 248.712C7.73089 249.208 8.32991 249.413 8.82588 249.17C9.32186 248.927 9.52696 248.328 9.284 247.832L7.48793 248.712ZM6.38981 240.956C6.20459 240.436 5.63265 240.164 5.11235 240.349C4.59205 240.535 4.32042 241.106 4.50564 241.627L6.38981 240.956ZM2.33075 234.272C2.4589 234.81 2.99828 235.141 3.5355 235.013C4.07271 234.885 4.40432 234.346 4.27617 233.808L2.33075 234.272ZM2.91535 226.469C2.84162 225.921 2.33815 225.537 1.79081 225.611C1.24347 225.685 0.859525 226.188 0.933251 226.736L2.91535 226.469ZM0.264548 219.102C0.287938 219.654 0.754213 220.082 1.306 220.059C1.85779 220.035 2.28614 219.569 2.26275 219.017L0.264548 219.102ZM2.26275 211.521C2.28614 210.97 1.85779 210.503 1.306 210.48C0.754212 210.457 0.287938 210.885 0.264548 211.437L2.26275 211.521ZM0.933251 203.803C0.859525 204.35 1.24347 204.854 1.79081 204.928C2.33815 205.001 2.84162 204.617 2.91535 204.07L0.933251 203.803ZM4.27617 196.73C4.40432 196.193 4.07271 195.654 3.5355 195.525C2.99829 195.397 2.4589 195.729 2.33076 196.266L4.27617 196.73ZM4.50564 188.912C4.32042 189.432 4.59205 190.004 5.11235 190.189C5.63265 190.375 6.20459 190.103 6.38981 189.583L4.50564 188.912ZM9.28401 182.707C9.52697 182.211 9.32186 181.612 8.82589 181.369C8.32991 181.126 7.73089 181.331 7.48793 181.827L9.28401 182.707ZM11.2609 175.136C10.9621 175.6 11.0964 176.219 11.5609 176.518C12.0254 176.817 12.6441 176.682 12.9429 176.218L11.2609 175.136ZM17.3303 170.197C17.6809 169.771 17.6191 169.14 17.1923 168.79C16.7655 168.439 16.1354 168.501 15.7848 168.928L17.3303 170.197ZM20.9883 163.284C20.5916 163.668 20.5814 164.301 20.9656 164.698C21.3498 165.094 21.9829 165.105 22.3797 164.72L20.9883 163.284ZM28.019 159.838C28.4559 159.5 28.5361 158.872 28.1982 158.435C27.8603 157.998 27.2322 157.918 26.7954 158.256L28.019 159.838ZM33.1148 153.897C32.6437 154.186 32.4955 154.801 32.7838 155.272C33.0721 155.743 33.6877 155.891 34.1588 155.603L33.1148 153.897ZM40.7187 152.072C41.219 151.838 41.435 151.243 41.2011 150.742C40.9672 150.242 40.372 150.026 39.8717 150.26L40.7187 152.072ZM47.0344 147.435C46.5083 147.603 46.2181 148.166 46.3863 148.692C46.5544 149.218 47.1171 149.508 47.6432 149.34L47.0344 147.435ZM54.988 148.38C55.5403 148.38 55.988 147.933 55.988 147.38C55.988 146.828 55.5403 146.38 54.988 146.38V148.38ZM63.0073 146.38C62.455 146.38 62.0073 146.828 62.0073 147.38C62.0073 147.933 62.455 148.38 63.0073 148.38V146.38ZM71.0266 148.38C71.5789 148.38 72.0266 147.933 72.0266 147.38C72.0266 146.828 71.5789 146.38 71.0266 146.38V148.38ZM79.0459 146.38C78.4936 146.38 78.0459 146.828 78.0459 147.38C78.0459 147.933 78.4936 148.38 79.0459 148.38V146.38ZM87.0652 148.38C87.6175 148.38 88.0652 147.933 88.0652 147.38C88.0652 146.828 87.6175 146.38 87.0652 146.38V148.38ZM95.0845 146.38C94.5322 146.38 94.0845 146.828 94.0845 147.38C94.0845 147.933 94.5322 148.38 95.0845 148.38V146.38ZM103.104 148.38C103.656 148.38 104.104 147.933 104.104 147.38C104.104 146.828 103.656 146.38 103.104 146.38V148.38ZM111.123 146.38C110.571 146.38 110.123 146.828 110.123 147.38C110.123 147.933 110.571 148.38 111.123 148.38V146.38ZM119.142 148.38C119.695 148.38 120.142 147.933 120.142 147.38C120.142 146.828 119.695 146.38 119.142 146.38V148.38ZM127.162 146.38C126.609 146.38 126.162 146.828 126.162 147.38C126.162 147.933 126.609 148.38 127.162 148.38V146.38ZM135.181 148.38C135.733 148.38 136.181 147.933 136.181 147.38C136.181 146.828 135.733 146.38 135.181 146.38V148.38ZM143.2 146.38C142.648 146.38 142.2 146.828 142.2 147.38C142.2 147.933 142.648 148.38 143.2 148.38V146.38ZM151.22 148.38C151.772 148.38 152.22 147.933 152.22 147.38C152.22 146.828 151.772 146.38 151.22 146.38V148.38ZM159.239 146.38C158.687 146.38 158.239 146.828 158.239 147.38C158.239 147.933 158.687 148.38 159.239 148.38V146.38ZM167.258 148.38C167.81 148.38 168.258 147.933 168.258 147.38C168.258 146.828 167.81 146.38 167.258 146.38V148.38ZM175.277 146.38C174.725 146.38 174.277 146.828 174.277 147.38C174.277 147.933 174.725 148.38 175.277 148.38V146.38ZM183.297 148.38C183.849 148.38 184.297 147.933 184.297 147.38C184.297 146.828 183.849 146.38 183.297 146.38V148.38ZM191.316 146.38C190.764 146.38 190.316 146.828 190.316 147.38C190.316 147.933 190.764 148.38 191.316 148.38V146.38ZM199.335 148.38C199.888 148.38 200.335 147.933 200.335 147.38C200.335 146.828 199.888 146.38 199.335 146.38V148.38ZM207.355 146.38C206.802 146.38 206.355 146.828 206.355 147.38C206.355 147.933 206.802 148.38 207.355 148.38V146.38ZM215.374 148.38C215.926 148.38 216.374 147.933 216.374 147.38C216.374 146.828 215.926 146.38 215.374 146.38V148.38ZM223.393 146.38C222.841 146.38 222.393 146.828 222.393 147.38C222.393 147.933 222.841 148.38 223.393 148.38V146.38ZM231.413 148.38C231.965 148.38 232.413 147.933 232.413 147.38C232.413 146.828 231.965 146.38 231.413 146.38V148.38ZM239.432 146.38C238.88 146.38 238.432 146.828 238.432 147.38C238.432 147.933 238.88 148.38 239.432 148.38V146.38ZM247.451 148.38C248.003 148.38 248.451 147.933 248.451 147.38C248.451 146.828 248.003 146.38 247.451 146.38V148.38ZM255.47 146.38C254.918 146.38 254.47 146.828 254.47 147.38C254.47 147.933 254.918 148.38 255.47 148.38V146.38ZM263.49 148.38C264.042 148.38 264.49 147.933 264.49 147.38C264.49 146.828 264.042 146.38 263.49 146.38V148.38ZM271.509 146.38C270.957 146.38 270.509 146.828 270.509 147.38C270.509 147.933 270.957 148.38 271.509 148.38V146.38ZM279.528 148.38C280.081 148.38 280.528 147.933 280.528 147.38C280.528 146.828 280.081 146.38 279.528 146.38V148.38ZM287.548 146.38C286.995 146.38 286.548 146.828 286.548 147.38C286.548 147.933 286.995 148.38 287.548 148.38V146.38ZM295.567 148.38C296.119 148.38 296.567 147.933 296.567 147.38C296.567 146.828 296.119 146.38 295.567 146.38V148.38ZM303.586 146.38C303.034 146.38 302.586 146.828 302.586 147.38C302.586 147.933 303.034 148.38 303.586 148.38V146.38ZM311.606 148.38C312.158 148.38 312.606 147.933 312.606 147.38C312.606 146.828 312.158 146.38 311.606 146.38V148.38ZM319.625 146.38C319.073 146.38 318.625 146.828 318.625 147.38C318.625 147.933 319.073 148.38 319.625 148.38V146.38ZM327.644 148.38C328.196 148.38 328.644 147.933 328.644 147.38C328.644 146.828 328.196 146.38 327.644 146.38V148.38ZM335.663 146.38C335.111 146.38 334.663 146.828 334.663 147.38C334.663 147.933 335.111 148.38 335.663 148.38V146.38ZM343.683 148.38C344.235 148.38 344.683 147.933 344.683 147.38C344.683 146.828 344.235 146.38 343.683 146.38V148.38ZM351.702 146.38C351.15 146.38 350.702 146.828 350.702 147.38C350.702 147.933 351.15 148.38 351.702 148.38V146.38ZM359.721 148.38C360.274 148.38 360.721 147.933 360.721 147.38C360.721 146.828 360.274 146.38 359.721 146.38V148.38ZM367.741 146.38C367.188 146.38 366.741 146.828 366.741 147.38C366.741 147.933 367.188 148.38 367.741 148.38V146.38ZM375.76 148.38C376.312 148.38 376.76 147.933 376.76 147.38C376.76 146.828 376.312 146.38 375.76 146.38V148.38ZM383.779 146.38C383.227 146.38 382.779 146.828 382.779 147.38C382.779 147.933 383.227 148.38 383.779 148.38V146.38ZM391.798 148.38C392.351 148.38 392.798 147.933 392.798 147.38C392.798 146.828 392.351 146.38 391.798 146.38V148.38ZM399.818 146.38C399.265 146.38 398.818 146.828 398.818 147.38C398.818 147.933 399.265 148.38 399.818 148.38V146.38ZM407.837 148.38C408.389 148.38 408.837 147.933 408.837 147.38C408.837 146.828 408.389 146.38 407.837 146.38V148.38ZM415.856 146.38C415.304 146.38 414.856 146.828 414.856 147.38C414.856 147.933 415.304 148.38 415.856 148.38V146.38ZM423.876 148.38C424.428 148.38 424.876 147.933 424.876 147.38C424.876 146.828 424.428 146.38 423.876 146.38V148.38ZM431.895 146.38C431.343 146.38 430.895 146.828 430.895 147.38C430.895 147.933 431.343 148.38 431.895 148.38V146.38ZM439.914 148.38C440.466 148.38 440.914 147.933 440.914 147.38C440.914 146.828 440.466 146.38 439.914 146.38V148.38ZM447.934 146.38C447.381 146.38 446.934 146.828 446.934 147.38C446.934 147.933 447.381 148.38 447.934 148.38V146.38ZM455.953 148.38C456.505 148.38 456.953 147.933 456.953 147.38C456.953 146.828 456.505 146.38 455.953 146.38V148.38ZM463.972 146.38C463.42 146.38 462.972 146.828 462.972 147.38C462.972 147.933 463.42 148.38 463.972 148.38V146.38ZM471.991 148.38C472.544 148.38 472.991 147.933 472.991 147.38C472.991 146.828 472.544 146.38 471.991 146.38V148.38ZM480.011 146.38C479.458 146.38 479.011 146.828 479.011 147.38C479.011 147.933 479.458 148.38 480.011 148.38V146.38ZM488.03 148.38C488.582 148.38 489.03 147.933 489.03 147.38C489.03 146.828 488.582 146.38 488.03 146.38V148.38ZM496.049 146.38C495.497 146.38 495.049 146.828 495.049 147.38C495.049 147.933 495.497 148.38 496.049 148.38V146.38ZM504.068 148.38C504.621 148.38 505.068 147.933 505.068 147.38C505.068 146.828 504.621 146.38 504.068 146.38V148.38ZM512.088 146.38C511.536 146.38 511.088 146.828 511.088 147.38C511.088 147.933 511.536 148.38 512.088 148.38V146.38ZM520.107 148.38C520.659 148.38 521.107 147.933 521.107 147.38C521.107 146.828 520.659 146.38 520.107 146.38V148.38ZM528.126 146.38C527.574 146.38 527.126 146.828 527.126 147.38C527.126 147.933 527.574 148.38 528.126 148.38V146.38ZM536.146 148.38C536.698 148.38 537.146 147.933 537.146 147.38C537.146 146.828 536.698 146.38 536.146 146.38V148.38ZM544.165 146.38C543.613 146.38 543.165 146.828 543.165 147.38C543.165 147.933 543.613 148.38 544.165 148.38V146.38ZM552.184 148.38C552.736 148.38 553.184 147.933 553.184 147.38C553.184 146.828 552.736 146.38 552.184 146.38V148.38ZM560.203 146.38C559.651 146.38 559.203 146.828 559.203 147.38C559.203 147.933 559.651 148.38 560.203 148.38V146.38ZM568.223 148.38C568.775 148.38 569.223 147.933 569.223 147.38C569.223 146.828 568.775 146.38 568.223 146.38V148.38ZM576.242 146.38C575.69 146.38 575.242 146.828 575.242 147.38C575.242 147.933 575.69 148.38 576.242 148.38V146.38ZM584.261 148.38C584.814 148.38 585.261 147.933 585.261 147.38C585.261 146.828 584.814 146.38 584.261 146.38V148.38ZM592.281 146.38C591.728 146.38 591.281 146.828 591.281 147.38C591.281 147.933 591.728 148.38 592.281 148.38V146.38ZM600.3 148.38C600.852 148.38 601.3 147.933 601.3 147.38C601.3 146.828 600.852 146.38 600.3 146.38V148.38ZM608.319 146.38C607.767 146.38 607.319 146.828 607.319 147.38C607.319 147.933 607.767 148.38 608.319 148.38V146.38ZM616.339 148.38C616.891 148.38 617.339 147.933 617.339 147.38C617.339 146.828 616.891 146.38 616.339 146.38V148.38ZM624.358 146.38C623.806 146.38 623.358 146.828 623.358 147.38C623.358 147.933 623.806 148.38 624.358 148.38V146.38ZM632.377 148.38C632.929 148.38 633.377 147.933 633.377 147.38C633.377 146.828 632.929 146.38 632.377 146.38V148.38ZM640.396 146.38C639.844 146.38 639.396 146.828 639.396 147.38C639.396 147.933 639.844 148.38 640.396 148.38V146.38ZM648.416 148.38C648.968 148.38 649.416 147.933 649.416 147.38C649.416 146.828 648.968 146.38 648.416 146.38V148.38ZM656.435 146.38C655.883 146.38 655.435 146.828 655.435 147.38C655.435 147.933 655.883 148.38 656.435 148.38V146.38ZM664.454 148.38C665.007 148.38 665.454 147.933 665.454 147.38C665.454 146.828 665.007 146.38 664.454 146.38V148.38ZM672.474 146.38C671.921 146.38 671.474 146.828 671.474 147.38C671.474 147.933 671.921 148.38 672.474 148.38V146.38ZM680.493 148.38C681.045 148.38 681.493 147.933 681.493 147.38C681.493 146.828 681.045 146.38 680.493 146.38V148.38ZM688.512 146.38C687.96 146.38 687.512 146.828 687.512 147.38C687.512 147.933 687.96 148.38 688.512 148.38V146.38ZM696.531 148.38C697.084 148.38 697.531 147.933 697.531 147.38C697.531 146.828 697.084 146.38 696.531 146.38V148.38ZM704.551 146.38C703.998 146.38 703.551 146.828 703.551 147.38C703.551 147.933 703.998 148.38 704.551 148.38V146.38ZM712.57 148.38C713.122 148.38 713.57 147.933 713.57 147.38C713.57 146.828 713.122 146.38 712.57 146.38V148.38ZM720.589 146.38C720.037 146.38 719.589 146.828 719.589 147.38C719.589 147.933 720.037 148.38 720.589 148.38V146.38ZM728.609 148.38C729.161 148.38 729.609 147.933 729.609 147.38C729.609 146.828 729.161 146.38 728.609 146.38V148.38ZM736.628 146.38C736.076 146.38 735.628 146.828 735.628 147.38C735.628 147.933 736.076 148.38 736.628 148.38V146.38ZM744.647 148.38C745.199 148.38 745.647 147.933 745.647 147.38C745.647 146.828 745.199 146.38 744.647 146.38V148.38ZM752.666 146.38C752.114 146.38 751.666 146.828 751.666 147.38C751.666 147.933 752.114 148.38 752.666 148.38V146.38ZM760.686 148.38C761.238 148.38 761.686 147.933 761.686 147.38C761.686 146.828 761.238 146.38 760.686 146.38V148.38ZM768.705 146.38C768.153 146.38 767.705 146.828 767.705 147.38C767.705 147.933 768.153 148.38 768.705 148.38V146.38ZM776.724 148.38C777.277 148.38 777.724 147.933 777.724 147.38C777.724 146.828 777.277 146.38 776.724 146.38V148.38ZM784.744 146.38C784.191 146.38 783.744 146.828 783.744 147.38C783.744 147.933 784.191 148.38 784.744 148.38V146.38ZM792.763 148.38C793.315 148.38 793.763 147.933 793.763 147.38C793.763 146.828 793.315 146.38 792.763 146.38V148.38ZM800.782 146.38C800.23 146.38 799.782 146.828 799.782 147.38C799.782 147.933 800.23 148.38 800.782 148.38V146.38ZM808.801 148.38C809.354 148.38 809.801 147.933 809.801 147.38C809.801 146.828 809.354 146.38 808.801 146.38V148.38ZM816.821 146.38C816.268 146.38 815.821 146.828 815.821 147.38C815.821 147.933 816.268 148.38 816.821 148.38V146.38ZM824.84 148.38C825.392 148.38 825.84 147.933 825.84 147.38C825.84 146.828 825.392 146.38 824.84 146.38V148.38ZM832.859 146.38C832.307 146.38 831.859 146.828 831.859 147.38C831.859 147.933 832.307 148.38 832.859 148.38V146.38ZM840.879 148.38C841.431 148.38 841.879 147.933 841.879 147.38C841.879 146.828 841.431 146.38 840.879 146.38V148.38ZM848.898 146.38C848.346 146.38 847.898 146.828 847.898 147.38C847.898 147.933 848.346 148.38 848.898 148.38V146.38ZM856.917 148.38C857.469 148.38 857.917 147.933 857.917 147.38C857.917 146.828 857.469 146.38 856.917 146.38V148.38ZM864.936 146.38C864.384 146.38 863.936 146.828 863.936 147.38C863.936 147.933 864.384 148.38 864.936 148.38V146.38ZM872.956 148.38C873.508 148.38 873.956 147.933 873.956 147.38C873.956 146.828 873.508 146.38 872.956 146.38V148.38ZM880.975 146.38C880.423 146.38 879.975 146.828 879.975 147.38C879.975 147.933 880.423 148.38 880.975 148.38V146.38ZM888.994 148.38C889.547 148.38 889.994 147.933 889.994 147.38C889.994 146.828 889.547 146.38 888.994 146.38V148.38ZM897.014 146.38C896.461 146.38 896.014 146.828 896.014 147.38C896.014 147.933 896.461 148.38 897.014 148.38V146.38ZM905.033 148.38C905.585 148.38 906.033 147.933 906.033 147.38C906.033 146.828 905.585 146.38 905.033 146.38V148.38ZM913.052 146.38C912.5 146.38 912.052 146.828 912.052 147.38C912.052 147.933 912.5 148.38 913.052 148.38V146.38ZM921.071 148.38C921.624 148.38 922.071 147.933 922.071 147.38C922.071 146.828 921.624 146.38 921.071 146.38V148.38ZM929.091 146.38C928.538 146.38 928.091 146.828 928.091 147.38C928.091 147.933 928.538 148.38 929.091 148.38V146.38ZM937.11 148.38C937.662 148.38 938.11 147.933 938.11 147.38C938.11 146.828 937.662 146.38 937.11 146.38V148.38ZM945.129 146.38C944.577 146.38 944.129 146.828 944.129 147.38C944.129 147.933 944.577 148.38 945.129 148.38V146.38ZM953.149 148.38C953.701 148.38 954.149 147.933 954.149 147.38C954.149 146.828 953.701 146.38 953.149 146.38V148.38ZM961.168 146.38C960.616 146.38 960.168 146.828 960.168 147.38C960.168 147.933 960.616 148.38 961.168 148.38V146.38ZM969.187 148.38C969.739 148.38 970.187 147.933 970.187 147.38C970.187 146.828 969.739 146.38 969.187 146.38V148.38ZM977.206 146.38C976.654 146.38 976.206 146.828 976.206 147.38C976.206 147.933 976.654 148.38 977.206 148.38V146.38ZM985.226 148.38C985.778 148.38 986.226 147.933 986.226 147.38C986.226 146.828 985.778 146.38 985.226 146.38V148.38ZM993.245 146.38C992.693 146.38 992.245 146.828 992.245 147.38C992.245 147.933 992.693 148.38 993.245 148.38V146.38ZM1001.26 148.38C1001.82 148.38 1002.26 147.933 1002.26 147.38C1002.26 146.828 1001.82 146.38 1001.26 146.38V148.38ZM1009.28 146.38C1008.73 146.38 1008.28 146.828 1008.28 147.38C1008.28 147.933 1008.73 148.38 1009.28 148.38V146.38ZM1017.3 148.38C1017.86 148.38 1018.3 147.933 1018.3 147.38C1018.3 146.828 1017.86 146.38 1017.3 146.38V148.38ZM1025.32 146.38C1024.77 146.38 1024.32 146.828 1024.32 147.38C1024.32 147.933 1024.77 148.38 1025.32 148.38V146.38ZM1033.34 148.38C1033.89 148.38 1034.34 147.933 1034.34 147.38C1034.34 146.828 1033.89 146.38 1033.34 146.38V148.38ZM1041.36 146.38C1040.81 146.38 1040.36 146.828 1040.36 147.38C1040.36 147.933 1040.81 148.38 1041.36 148.38V146.38ZM1049.38 148.38C1049.93 148.38 1050.38 147.933 1050.38 147.38C1050.38 146.828 1049.93 146.38 1049.38 146.38V148.38ZM1057.4 146.38C1056.85 146.38 1056.4 146.828 1056.4 147.38C1056.4 147.933 1056.85 148.38 1057.4 148.38V146.38ZM1065.42 148.38C1065.97 148.38 1066.42 147.933 1066.42 147.38C1066.42 146.828 1065.97 146.38 1065.42 146.38V148.38ZM1073.44 146.38C1072.89 146.38 1072.44 146.828 1072.44 147.38C1072.44 147.933 1072.89 148.38 1073.44 148.38V146.38ZM1081.46 148.38C1082.01 148.38 1082.46 147.933 1082.46 147.38C1082.46 146.828 1082.01 146.38 1081.46 146.38V148.38ZM1089.48 146.38C1088.92 146.38 1088.48 146.828 1088.48 147.38C1088.48 147.933 1088.92 148.38 1089.48 148.38V146.38ZM1097.5 148.38C1098.05 148.38 1098.5 147.933 1098.5 147.38C1098.5 146.828 1098.05 146.38 1097.5 146.38V148.38ZM1105.52 146.38C1104.96 146.38 1104.52 146.828 1104.52 147.38C1104.52 147.933 1104.96 148.38 1105.52 148.38V146.38ZM1113.53 148.38C1114.09 148.38 1114.53 147.933 1114.53 147.38C1114.53 146.828 1114.09 146.38 1113.53 146.38V148.38ZM1121.55 146.38C1121 146.38 1120.55 146.828 1120.55 147.38C1120.55 147.933 1121 148.38 1121.55 148.38V146.38ZM1129.57 148.38C1130.13 148.38 1130.57 147.933 1130.57 147.38C1130.57 146.828 1130.13 146.38 1129.57 146.38V148.38ZM1137.59 146.38C1137.04 146.38 1136.59 146.828 1136.59 147.38C1136.59 147.933 1137.04 148.38 1137.59 148.38V146.38ZM1145.61 148.38C1146.16 148.38 1146.61 147.933 1146.61 147.38C1146.61 146.828 1146.16 146.38 1145.61 146.38V148.38ZM1153.63 146.38C1153.08 146.38 1152.63 146.828 1152.63 147.38C1152.63 147.933 1153.08 148.38 1153.63 148.38V146.38ZM1161.65 148.38C1162.2 148.38 1162.65 147.933 1162.65 147.38C1162.65 146.828 1162.2 146.38 1161.65 146.38V148.38ZM1169.67 146.38C1169.12 146.38 1168.67 146.828 1168.67 147.38C1168.67 147.933 1169.12 148.38 1169.67 148.38V146.38ZM1177.69 148.38C1178.24 148.38 1178.69 147.933 1178.69 147.38C1178.69 146.828 1178.24 146.38 1177.69 146.38V148.38ZM1185.71 146.38C1185.16 146.38 1184.71 146.828 1184.71 147.38C1184.71 147.933 1185.16 148.38 1185.71 148.38V146.38ZM1193.73 148.38C1194.28 148.38 1194.73 147.933 1194.73 147.38C1194.73 146.828 1194.28 146.38 1193.73 146.38V148.38ZM1201.75 146.38C1201.19 146.38 1200.75 146.828 1200.75 147.38C1200.75 147.933 1201.19 148.38 1201.75 148.38V146.38ZM1209.77 148.38C1210.32 148.38 1210.77 147.933 1210.77 147.38C1210.77 146.828 1210.32 146.38 1209.77 146.38V148.38ZM1217.79 146.38C1217.23 146.38 1216.79 146.828 1216.79 147.38C1216.79 147.933 1217.23 148.38 1217.79 148.38V146.38ZM1225.8 148.38C1226.36 148.38 1226.8 147.933 1226.8 147.38C1226.8 146.828 1226.36 146.38 1225.8 146.38V148.38ZM1233.82 146.38C1233.27 146.38 1232.82 146.828 1232.82 147.38C1232.82 147.933 1233.27 148.38 1233.82 148.38V146.38ZM1241.84 148.38C1242.4 148.38 1242.84 147.933 1242.84 147.38C1242.84 146.828 1242.4 146.38 1241.84 146.38V148.38ZM1249.86 146.38C1249.31 146.38 1248.86 146.828 1248.86 147.38C1248.86 147.933 1249.31 148.38 1249.86 148.38V146.38ZM1257.88 148.38C1258.43 148.38 1258.88 147.933 1258.88 147.38C1258.88 146.828 1258.43 146.38 1257.88 146.38V148.38ZM1265.9 146.38C1265.35 146.38 1264.9 146.828 1264.9 147.38C1264.9 147.933 1265.35 148.38 1265.9 148.38V146.38ZM1273.92 148.38C1274.47 148.38 1274.92 147.933 1274.92 147.38C1274.92 146.828 1274.47 146.38 1273.92 146.38V148.38ZM1281.94 146.38C1281.39 146.38 1280.94 146.828 1280.94 147.38C1280.94 147.933 1281.39 148.38 1281.94 148.38V146.38ZM1289.96 148.38C1290.51 148.38 1290.96 147.933 1290.96 147.38C1290.96 146.828 1290.51 146.38 1289.96 146.38V148.38ZM1297.98 146.38C1297.43 146.38 1296.98 146.828 1296.98 147.38C1296.98 147.933 1297.43 148.38 1297.98 148.38V146.38ZM1306 148.38C1306.55 148.38 1307 147.933 1307 147.38C1307 146.828 1306.55 146.38 1306 146.38V148.38ZM1314.02 146.38C1313.46 146.38 1313.02 146.828 1313.02 147.38C1313.02 147.933 1313.46 148.38 1314.02 148.38V146.38ZM1322.04 148.38C1322.59 148.38 1323.04 147.933 1323.04 147.38C1323.04 146.828 1322.59 146.38 1322.04 146.38V148.38ZM1330.06 146.38C1329.5 146.38 1329.06 146.828 1329.06 147.38C1329.06 147.933 1329.5 148.38 1330.06 148.38V146.38ZM1338.07 148.38C1338.63 148.38 1339.07 147.933 1339.07 147.38C1339.07 146.828 1338.63 146.38 1338.07 146.38V148.38ZM1346.09 146.38C1345.54 146.38 1345.09 146.828 1345.09 147.38C1345.09 147.933 1345.54 148.38 1346.09 148.38V146.38ZM1354.11 148.38C1354.67 148.38 1355.11 147.933 1355.11 147.38C1355.11 146.828 1354.67 146.38 1354.11 146.38V148.38ZM1362.13 146.38C1361.58 146.38 1361.13 146.828 1361.13 147.38C1361.13 147.933 1361.58 148.38 1362.13 148.38V146.38ZM1370.15 148.38C1370.7 148.38 1371.15 147.933 1371.15 147.38C1371.15 146.828 1370.7 146.38 1370.15 146.38V148.38ZM1378.17 146.38C1377.62 146.38 1377.17 146.828 1377.17 147.38C1377.17 147.933 1377.62 148.38 1378.17 148.38V146.38ZM1386.19 148.38C1386.74 148.38 1387.19 147.933 1387.19 147.38C1387.19 146.828 1386.74 146.38 1386.19 146.38V148.38ZM1394.21 146.38C1393.66 146.38 1393.21 146.828 1393.21 147.38C1393.21 147.933 1393.66 148.38 1394.21 148.38V146.38ZM1402.23 148.38C1402.78 148.38 1403.23 147.933 1403.23 147.38C1403.23 146.828 1402.78 146.38 1402.23 146.38V148.38ZM1410.25 146.38C1409.7 146.38 1409.25 146.828 1409.25 147.38C1409.25 147.933 1409.7 148.38 1410.25 148.38V146.38ZM1418.27 148.38C1418.82 148.38 1419.27 147.933 1419.27 147.38C1419.27 146.828 1418.82 146.38 1418.27 146.38V148.38ZM1426.29 146.38C1425.73 146.38 1425.29 146.828 1425.29 147.38C1425.29 147.933 1425.73 148.38 1426.29 148.38V146.38ZM1434.31 148.38C1434.86 148.38 1435.31 147.933 1435.31 147.38C1435.31 146.828 1434.86 146.38 1434.31 146.38V148.38ZM1442.33 146.38C1441.77 146.38 1441.33 146.828 1441.33 147.38C1441.33 147.933 1441.77 148.38 1442.33 148.38V146.38ZM1450.34 148.38C1450.9 148.38 1451.34 147.933 1451.34 147.38C1451.34 146.828 1450.9 146.38 1450.34 146.38V148.38ZM1458.36 146.38C1457.81 146.38 1457.36 146.828 1457.36 147.38C1457.36 147.933 1457.81 148.38 1458.36 148.38V146.38ZM1466.38 148.38C1466.94 148.38 1467.38 147.933 1467.38 147.38C1467.38 146.828 1466.94 146.38 1466.38 146.38V148.38ZM1474.4 146.38C1473.85 146.38 1473.4 146.828 1473.4 147.38C1473.4 147.933 1473.85 148.38 1474.4 148.38V146.38ZM1482.48 147.912C1483.02 147.82 1483.39 147.304 1483.3 146.76C1483.21 146.215 1482.69 145.848 1482.15 145.939L1482.48 147.912ZM1489.6 144.011C1489.08 144.192 1488.8 144.762 1488.98 145.284C1489.17 145.806 1489.74 146.082 1490.26 145.9L1489.6 144.011ZM1497.61 142.706C1498.1 142.449 1498.29 141.845 1498.03 141.356C1497.77 140.867 1497.17 140.679 1496.68 140.936L1497.61 142.706ZM1503.24 136.85C1502.79 137.176 1502.69 137.801 1503.02 138.248C1503.34 138.694 1503.97 138.792 1504.41 138.466L1503.24 136.85ZM1510.53 133.29C1510.92 132.904 1510.93 132.27 1510.54 131.876C1510.16 131.481 1509.52 131.474 1509.13 131.861L1510.53 133.29ZM1514.25 126.082C1513.91 126.52 1514 127.148 1514.43 127.485C1514.87 127.821 1515.5 127.739 1515.84 127.301L1514.25 126.082ZM1520.28 120.638C1520.55 120.159 1520.39 119.548 1519.91 119.272C1519.43 118.997 1518.82 119.162 1518.54 119.641L1520.28 120.638ZM1521.97 112.707C1521.76 113.216 1522 113.802 1522.51 114.017C1523.02 114.232 1523.6 113.993 1523.82 113.484L1521.97 112.707ZM1526.5 105.971C1526.66 105.441 1526.36 104.884 1525.83 104.727C1525.3 104.57 1524.74 104.871 1524.58 105.4L1526.5 105.971ZM1526.43 97.8507C1526.32 98.3928 1526.67 98.9177 1527.22 99.0231C1527.76 99.1284 1528.28 98.7744 1528.39 98.2322L1526.43 97.8507ZM1529.57 90.3671C1529.63 89.818 1529.23 89.325 1528.68 89.2659C1528.13 89.2068 1527.64 89.6041 1527.58 90.1532L1529.57 90.3671ZM1528.12 82.366C1528.1 82.918 1528.53 83.3803 1529.09 83.3988C1529.64 83.4172 1530.1 82.9846 1530.12 82.4326L1528.12 82.366ZM1530.11 74.2503C1530.09 73.6983 1529.63 73.2665 1529.08 73.2857C1528.53 73.305 1528.09 73.768 1528.11 74.32L1530.11 74.2503ZM1527.52 66.1081C1527.58 66.6571 1528.08 67.0527 1528.62 66.9918C1529.17 66.9309 1529.57 66.4365 1529.51 65.8876L1527.52 66.1081ZM1528.24 57.5996C1528.13 57.0578 1527.61 56.705 1527.07 56.8117C1526.52 56.9184 1526.17 57.4441 1526.28 57.986L1528.24 57.5996ZM1524.33 50.0154C1524.49 50.5451 1525.04 50.8478 1525.57 50.6916C1526.1 50.5353 1526.4 49.9793 1526.25 49.4495L1524.33 50.0154ZM1523.48 41.5257C1523.27 41.0143 1522.68 40.7688 1522.17 40.9774C1521.66 41.186 1521.42 41.7697 1521.62 42.2811L1523.48 41.5257ZM1518.13 34.8736C1518.39 35.3597 1519 35.541 1519.49 35.2787C1519.97 35.0164 1520.15 34.4097 1519.89 33.9237L1518.13 34.8736ZM1515.48 26.7536C1515.17 26.3003 1514.55 26.1886 1514.09 26.5041C1513.64 26.8197 1513.53 27.4429 1513.84 27.8962L1515.48 26.7536ZM1508.79 21.4647C1509.15 21.8782 1509.79 21.9165 1510.2 21.5503C1510.61 21.1841 1510.65 20.5521 1510.28 20.1386L1508.79 21.4647ZM1504.34 14.182C1503.93 13.8151 1503.3 13.8522 1502.93 14.265C1502.56 14.6778 1502.6 15.3099 1503.01 15.6768L1504.34 14.182ZM1496.58 10.6248C1497.03 10.9386 1497.66 10.8246 1497.97 10.3701C1498.29 9.91566 1498.17 9.29284 1497.72 8.97903L1496.58 10.6248ZM1490.49 4.64124C1490 4.38871 1489.4 4.58216 1489.14 5.07332C1488.89 5.56449 1489.08 6.16738 1489.57 6.41991L1490.49 4.64124ZM1482.08 3.23099C1482.6 3.40629 1483.17 3.12384 1483.34 2.60012C1483.52 2.07639 1483.24 1.50972 1482.71 1.33442L1482.08 3.23099ZM1474.26 0.158203C1473.71 0.158203 1473.26 0.605918 1473.26 1.1582C1473.26 1.71049 1473.71 2.1582 1474.26 2.1582V0.158203ZM1465.96 2.1582C1466.52 2.1582 1466.96 1.71049 1466.96 1.1582C1466.96 0.605918 1466.52 0.158203 1465.96 0.158203V2.1582ZM1457.67 0.158203C1457.11 0.158203 1456.67 0.605918 1456.67 1.1582C1456.67 1.71049 1457.11 2.1582 1457.67 2.1582V0.158203ZM1449.37 2.1582C1449.92 2.1582 1450.37 1.71049 1450.37 1.1582C1450.37 0.605918 1449.92 0.158203 1449.37 0.158203V2.1582ZM1441.07 0.158203C1440.52 0.158203 1440.07 0.605918 1440.07 1.1582C1440.07 1.71049 1440.52 2.1582 1441.07 2.1582V0.158203ZM1432.77 2.1582C1433.32 2.1582 1433.77 1.71049 1433.77 1.1582C1433.77 0.605918 1433.32 0.158203 1432.77 0.158203V2.1582ZM1424.47 0.158203C1423.92 0.158203 1423.47 0.605918 1423.47 1.1582C1423.47 1.71049 1423.92 2.1582 1424.47 2.1582V0.158203ZM1416.17 2.1582C1416.72 2.1582 1417.17 1.71049 1417.17 1.1582C1417.17 0.605918 1416.72 0.158203 1416.17 0.158203V2.1582ZM111.184 282.158H107.421V284.158H111.184V282.158ZM99.8955 282.158H92.3698V284.158H99.8955V282.158ZM84.8441 282.158H77.3183V284.158H84.8441V282.158ZM69.7926 282.158H62.2669V284.158H69.7926V282.158ZM54.7412 282.158H50.9783V284.158H54.7412V282.158ZM51.2032 282.184C50.0914 281.927 48.8994 281.6 47.6432 281.199L47.0344 283.104C48.3396 283.521 49.5848 283.863 50.7535 284.133L51.2032 282.184ZM40.7187 278.467C38.5914 277.472 36.387 276.299 34.1588 274.935L33.1148 276.641C35.408 278.045 37.6783 279.253 39.8717 280.279L40.7187 278.467ZM28.019 270.701C26.1089 269.223 24.2179 267.598 22.3797 265.818L20.9883 267.255C22.8819 269.089 24.8291 270.762 26.7954 272.283L28.019 270.701ZM17.3303 260.341C15.7914 258.468 14.3208 256.463 12.9429 254.321L11.2609 255.403C12.6818 257.612 14.1983 259.679 15.7848 261.611L17.3303 260.341ZM9.284 247.832C8.21901 245.658 7.24824 243.367 6.38981 240.956L4.50564 241.627C5.38968 244.11 6.38994 246.471 7.48793 248.712L9.284 247.832ZM4.27617 233.808C3.7164 231.462 3.2585 229.016 2.91535 226.469L0.933251 226.736C1.28523 229.349 1.75531 231.86 2.33075 234.272L4.27617 233.808ZM2.26275 219.017C2.2107 217.789 2.18408 216.54 2.18408 215.269H0.184082C0.184082 216.568 0.211281 217.845 0.264548 219.102L2.26275 219.017ZM2.18408 215.269C2.18408 213.999 2.2107 212.75 2.26275 211.521L0.264548 211.437C0.21128 212.693 0.184082 213.971 0.184082 215.269H2.18408ZM2.91535 204.07C3.2585 201.522 3.7164 199.077 4.27617 196.73L2.33076 196.266C1.75531 198.678 1.28524 201.19 0.933251 203.803L2.91535 204.07ZM6.38981 189.583C7.24824 187.171 8.21901 184.881 9.28401 182.707L7.48793 181.827C6.38994 184.068 5.38968 186.429 4.50564 188.912L6.38981 189.583ZM12.9429 176.218C14.3208 174.076 15.7914 172.071 17.3303 170.197L15.7848 168.928C14.1983 170.859 12.6818 172.927 11.2609 175.136L12.9429 176.218ZM22.3797 164.72C24.2179 162.94 26.1089 161.315 28.019 159.838L26.7954 158.256C24.8291 159.777 22.8819 161.45 20.9883 163.284L22.3797 164.72ZM34.1588 155.603C36.387 154.239 38.5914 153.066 40.7187 152.072L39.8717 150.26C37.6783 151.285 35.408 152.494 33.1148 153.897L34.1588 155.603ZM47.6432 149.34C48.8994 148.938 50.0914 148.611 51.2032 148.355L50.7535 146.406C49.5848 146.676 48.3397 147.018 47.0344 147.435L47.6432 149.34ZM50.9783 148.38H54.988V146.38H50.9783V148.38ZM63.0073 148.38H71.0266V146.38H63.0073V148.38ZM79.0459 148.38H87.0652V146.38H79.0459V148.38ZM95.0845 148.38H103.104V146.38H95.0845V148.38ZM111.123 148.38H119.142V146.38H111.123V148.38ZM127.162 148.38H135.181V146.38H127.162V148.38ZM143.2 148.38H151.22V146.38H143.2V148.38ZM159.239 148.38H167.258V146.38H159.239V148.38ZM175.277 148.38H183.297V146.38H175.277V148.38ZM191.316 148.38H199.335V146.38H191.316V148.38ZM207.355 148.38H215.374V146.38H207.355V148.38ZM223.393 148.38H231.413V146.38H223.393V148.38ZM239.432 148.38H247.451V146.38H239.432V148.38ZM255.47 148.38H263.49V146.38H255.47V148.38ZM271.509 148.38H279.528V146.38H271.509V148.38ZM287.548 148.38H295.567V146.38H287.548V148.38ZM303.586 148.38H311.606V146.38H303.586V148.38ZM319.625 148.38H327.644V146.38H319.625V148.38ZM335.663 148.38H343.683V146.38H335.663V148.38ZM351.702 148.38H359.721V146.38H351.702V148.38ZM367.741 148.38H375.76V146.38H367.741V148.38ZM383.779 148.38H391.798V146.38H383.779V148.38ZM399.818 148.38H407.837V146.38H399.818V148.38ZM415.856 148.38H423.876V146.38H415.856V148.38ZM431.895 148.38H439.914V146.38H431.895V148.38ZM447.934 148.38H455.953V146.38H447.934V148.38ZM463.972 148.38H471.991V146.38H463.972V148.38ZM480.011 148.38H488.03V146.38H480.011V148.38ZM496.049 148.38H504.068V146.38H496.049V148.38ZM512.088 148.38H520.107V146.38H512.088V148.38ZM528.126 148.38H536.146V146.38H528.126V148.38ZM544.165 148.38H552.184V146.38H544.165V148.38ZM560.203 148.38H568.223V146.38H560.203V148.38ZM576.242 148.38H584.261V146.38H576.242V148.38ZM592.281 148.38H600.3V146.38H592.281V148.38ZM608.319 148.38H616.339V146.38H608.319V148.38ZM624.358 148.38H632.377V146.38H624.358V148.38ZM640.396 148.38H648.416V146.38H640.396V148.38ZM656.435 148.38H664.454V146.38H656.435V148.38ZM672.474 148.38H680.493V146.38H672.474V148.38ZM688.512 148.38H696.531V146.38H688.512V148.38ZM704.551 148.38H712.57V146.38H704.551V148.38ZM720.589 148.38H728.609V146.38H720.589V148.38ZM736.628 148.38H744.647V146.38H736.628V148.38ZM752.666 148.38H760.686V146.38H752.666V148.38ZM768.705 148.38H776.724V146.38H768.705V148.38ZM784.744 148.38H792.763V146.38H784.744V148.38ZM800.782 148.38H808.801V146.38H800.782V148.38ZM816.821 148.38H824.84V146.38H816.821V148.38ZM832.859 148.38H840.879V146.38H832.859V148.38ZM848.898 148.38H856.917V146.38H848.898V148.38ZM864.936 148.38H872.956V146.38H864.936V148.38ZM880.975 148.38H888.994V146.38H880.975V148.38ZM897.014 148.38H905.033V146.38H897.014V148.38ZM913.052 148.38H921.071V146.38H913.052V148.38ZM929.091 148.38H937.11V146.38H929.091V148.38ZM945.129 148.38H953.149V146.38H945.129V148.38ZM961.168 148.38H969.187V146.38H961.168V148.38ZM977.206 148.38H985.226V146.38H977.206V148.38ZM993.245 148.38H1001.26V146.38H993.245V148.38ZM1009.28 148.38H1017.3V146.38H1009.28V148.38ZM1025.32 148.38H1033.34V146.38H1025.32V148.38ZM1041.36 148.38H1049.38V146.38H1041.36V148.38ZM1057.4 148.38H1065.42V146.38H1057.4V148.38ZM1073.44 148.38H1081.46V146.38H1073.44V148.38ZM1089.48 148.38H1097.5V146.38H1089.48V148.38ZM1105.52 148.38H1113.53V146.38H1105.52V148.38ZM1121.55 148.38H1129.57V146.38H1121.55V148.38ZM1137.59 148.38H1145.61V146.38H1137.59V148.38ZM1153.63 148.38H1161.65V146.38H1153.63V148.38ZM1169.67 148.38H1177.69V146.38H1169.67V148.38ZM1185.71 148.38H1193.73V146.38H1185.71V148.38ZM1201.75 148.38H1209.77V146.38H1201.75V148.38ZM1217.79 148.38H1225.8V146.38H1217.79V148.38ZM1233.82 148.38H1241.84V146.38H1233.82V148.38ZM1249.86 148.38H1257.88V146.38H1249.86V148.38ZM1265.9 148.38H1273.92V146.38H1265.9V148.38ZM1281.94 148.38H1289.96V146.38H1281.94V148.38ZM1297.98 148.38H1306V146.38H1297.98V148.38ZM1314.02 148.38H1322.04V146.38H1314.02V148.38ZM1330.06 148.38H1338.07V146.38H1330.06V148.38ZM1346.09 148.38H1354.11V146.38H1346.09V148.38ZM1362.13 148.38H1370.15V146.38H1362.13V148.38ZM1378.17 148.38H1386.19V146.38H1378.17V148.38ZM1394.21 148.38H1402.23V146.38H1394.21V148.38ZM1410.25 148.38H1418.27V146.38H1410.25V148.38ZM1426.29 148.38H1434.31V146.38H1426.29V148.38ZM1442.33 148.38H1450.34V146.38H1442.33V148.38ZM1458.36 148.38H1466.38V146.38H1458.36V148.38ZM1474.4 148.38H1478.41V146.38H1474.4V148.38ZM1478.48 148.379C1479.73 148.301 1481.07 148.148 1482.48 147.912L1482.15 145.939C1480.8 146.165 1479.53 146.309 1478.35 146.382L1478.48 148.379ZM1490.26 145.9C1492.65 145.07 1495.12 144.016 1497.61 142.706L1496.68 140.936C1494.28 142.198 1491.9 143.213 1489.6 144.011L1490.26 145.9ZM1504.41 138.466C1506.5 136.948 1508.55 135.228 1510.53 133.29L1509.13 131.861C1507.22 133.73 1505.24 135.387 1503.24 136.85L1504.41 138.466ZM1515.84 127.301C1517.41 125.259 1518.89 123.042 1520.28 120.638L1518.54 119.641C1517.2 121.968 1515.77 124.111 1514.25 126.082L1515.84 127.301ZM1523.82 113.484C1524.81 111.125 1525.71 108.623 1526.5 105.971L1524.58 105.4C1523.81 107.984 1522.94 110.417 1521.97 112.707L1523.82 113.484ZM1528.39 98.2322C1528.88 95.7259 1529.27 93.1056 1529.57 90.3671L1527.58 90.1532C1527.29 92.8372 1526.9 95.4015 1526.43 97.8507L1528.39 98.2322ZM1530.12 82.4326C1530.16 81.128 1530.18 79.7996 1530.18 78.4471H1528.18C1528.18 79.7777 1528.16 81.0839 1528.12 82.366L1530.12 82.4326ZM1530.18 78.4471C1530.18 77.0255 1530.16 75.6267 1530.11 74.2503L1528.11 74.32C1528.16 75.6729 1528.18 77.0485 1528.18 78.4471H1530.18ZM1529.51 65.8876C1529.19 63.0165 1528.76 60.2549 1528.24 57.5996L1526.28 57.986C1526.79 60.5854 1527.21 63.2917 1527.52 66.1081L1529.51 65.8876ZM1526.25 49.4495C1525.43 46.675 1524.5 44.0353 1523.48 41.5257L1521.62 42.2811C1522.62 44.7283 1523.53 47.3048 1524.33 50.0154L1526.25 49.4495ZM1519.89 33.9237C1518.51 31.3723 1517.04 28.9846 1515.48 26.7536L1513.84 27.8962C1515.35 30.066 1516.79 32.3894 1518.13 34.8736L1519.89 33.9237ZM1510.28 20.1386C1508.36 17.961 1506.36 15.9789 1504.34 14.182L1503.01 15.6768C1504.98 17.4223 1506.91 19.3482 1508.79 21.4647L1510.28 20.1386ZM1497.72 8.97903C1495.27 7.29025 1492.84 5.8504 1490.49 4.64124L1489.57 6.41991C1491.85 7.5902 1494.21 8.98579 1496.58 10.6248L1497.72 8.97903ZM1482.71 1.33442C1481.28 0.854168 1479.91 0.472013 1478.63 0.182864L1478.19 2.13354C1479.4 2.40688 1480.7 2.77048 1482.08 3.23099L1482.71 1.33442ZM1478.41 0.158203H1474.26V2.1582H1478.41V0.158203ZM1465.96 0.158203H1457.67V2.1582H1465.96V0.158203ZM1449.37 0.158203H1441.07V2.1582H1449.37V0.158203ZM1432.77 0.158203H1424.47V2.1582H1432.77V0.158203ZM1416.17 0.158203H1412.02V2.1582H1416.17V0.158203Z" fill="#015458"/>
</svg>
