<svg width="192" height="237" viewBox="0 0 192 237" fill="none" xmlns="http://www.w3.org/2000/svg">
<g clip-path="url(#clip0_803_6711)">
<g style="mix-blend-mode:multiply" opacity="0.6">
<path d="M139.107 181.367L136.846 182.656L139.602 184.224L123.283 193.632L120.528 192.064L118.289 193.353L163.304 219.107L165.543 217.818L158.525 213.802L174.844 204.393L181.862 208.41L184.122 207.121L139.107 181.367ZM125.414 194.856L141.733 185.448L146.168 187.983L129.849 197.391L125.414 194.856ZM132.045 198.658L148.364 189.25L152.799 191.785L136.48 201.193L132.045 198.658ZM138.676 202.439L154.995 193.03L159.429 195.565L143.111 204.973L138.676 202.439ZM145.307 206.219L161.625 196.811L166.06 199.346L149.742 208.754L145.307 206.219ZM156.372 212.556L151.937 210.021L168.256 200.613L172.691 203.148L156.372 212.556Z" fill="#3A0155"/>
<path d="M172.734 165.643L51.0127 235.776C48.171 237.408 43.5854 237.408 40.7652 235.776L24.7265 226.539C21.8848 224.907 21.8848 222.265 24.7265 220.632L146.448 150.521C149.29 148.889 153.875 148.889 156.696 150.521L172.734 159.758C175.576 161.39 175.576 164.032 172.734 165.665V165.643Z" fill="#3A0155"/>
</g>
<path d="M150.043 46.7506C146.319 44.6026 141.26 44.8604 135.684 48.0824C134.715 48.6409 133.789 49.2638 132.864 49.9297L148.924 59.2306C149.85 58.5432 162.379 53.9035 166.104 56.0515L150.043 46.7506Z" fill="url(#paint0_linear_803_6711)"/>
<path d="M128.472 45.5693C124.123 43.0561 118.224 43.3568 111.701 47.1158C109.828 48.1898 108.02 49.5216 106.276 51.0037L122.336 60.3046C124.08 58.8225 140.205 52.357 144.532 54.8916L128.472 45.5907V45.5693Z" fill="url(#paint1_linear_803_6711)"/>
<path d="M102.013 47.3092C96.5236 44.1301 89.0532 44.5167 80.8078 49.2638C64.8768 58.4358 51.9167 80.5174 50.8618 99.6776L54.9737 106.616L66.922 108.979L118.073 56.61L102.013 47.3092Z" fill="url(#paint2_linear_803_6711)"/>
<path d="M58.6984 104.21L50.8621 99.6777C48.0634 99.5918 44.8987 100.451 41.5188 102.384C30.2594 108.871 21.2175 124.895 21.2821 138.213C21.3251 144.936 23.6933 149.683 27.4823 151.874L43.5424 161.175L66.9008 108.979L58.6769 104.21H58.6984Z" fill="url(#paint3_linear_803_6711)"/>
<path d="M151.745 57.3834C150.776 57.9419 149.85 58.5648 148.924 59.2307C144.855 52.6578 136.89 51.1542 127.762 56.4168C125.889 57.4908 124.081 58.8226 122.337 60.3047C116.89 53.5814 107.504 52.4645 96.8687 58.5863C80.9376 67.7583 67.9775 89.8398 66.9227 109C64.124 108.914 60.9593 109.773 57.5793 111.707C46.32 118.194 37.278 134.218 37.3426 147.535C37.4072 160.832 46.5998 166.352 57.8377 159.886L152.003 105.8C163.305 99.2911 172.412 83.181 172.326 69.8418C172.283 63.1615 169.958 58.4359 166.233 56.1805C162.509 53.9251 157.385 54.1614 151.723 57.4264L151.745 57.3834Z" fill="#FDC8CA"/>
<path style="mix-blend-mode:screen" opacity="0.4" d="M166.254 56.1375C162.53 53.8821 157.406 54.1184 151.744 57.3834C150.776 57.9419 149.85 58.5648 148.924 59.2307C144.855 52.6578 136.89 51.1542 127.762 56.4168C125.889 57.4908 124.08 58.8226 122.337 60.3047C120.42 57.9419 118.031 56.2879 115.254 55.3857L101.282 134.862L152.024 105.757C163.327 99.2481 172.433 83.138 172.347 69.7989C172.304 63.1186 169.979 58.393 166.254 56.1375Z" fill="url(#paint4_linear_803_6711)"/>
<path style="mix-blend-mode:screen" d="M165.587 55.7078C159.796 52.6147 154.048 55.1923 148.946 59.2305C151.788 57.7054 159.904 52.4858 166.255 56.1374C166.255 56.1374 166.018 55.987 165.587 55.7078Z" fill="url(#paint5_radial_803_6711)"/>
<path style="mix-blend-mode:screen" d="M37.3853 145.258C37.3853 146.698 37.3638 147.514 37.3638 147.514C37.3638 147.514 37.4068 146.698 37.5145 145.258C39.3659 125.475 56.4379 108.506 66.9438 108.978C55.2754 107.819 38.4617 126.184 37.4068 145.258H37.3853Z" fill="url(#paint6_radial_803_6711)"/>
<path style="mix-blend-mode:screen" d="M119.645 57.6196C104.619 44.9893 70.0009 70.5506 66.9224 108.979C71.0773 71.9039 103.757 45.7411 119.559 57.7056C120.528 58.4144 121.217 59.0803 121.648 59.5743C122.078 60.0469 122.315 60.3046 122.315 60.3046C122.315 60.3046 122.078 60.0469 121.669 59.5528C121.26 59.0588 120.571 58.3714 119.624 57.6196H119.645Z" fill="url(#paint7_radial_803_6711)"/>
<path style="mix-blend-mode:screen" d="M122.336 60.3046C130.302 53.8391 141.346 50.209 148.149 58.1996C148.666 58.8655 148.946 59.2521 148.946 59.2521C148.946 59.2521 148.687 58.844 148.257 58.1351C141.54 48.9631 129.096 53.4954 122.358 60.3046H122.336Z" fill="url(#paint8_radial_803_6711)"/>
<path d="M181.884 207.207L179.666 206.713L174.973 186.715L177.191 187.209L181.884 207.207Z" fill="#B76716"/>
<path d="M176.566 184.481L174.349 183.987L170.56 167.834L172.777 168.35L176.566 184.481Z" fill="#B76716"/>
<path d="M160.247 193.889L158.008 193.395L174.348 183.987L176.566 184.481L160.247 193.889Z" fill="#D88121"/>
<path d="M172.152 165.621L169.935 165.127L166.146 148.953L168.363 149.447L172.152 165.621Z" fill="#B76716"/>
<path d="M155.813 175.03L153.595 174.536L169.935 165.127L172.153 165.621L155.813 175.03Z" fill="#D88121"/>
<path d="M167.718 146.741L165.5 146.247L161.711 130.094L163.929 130.588L167.718 146.741Z" fill="#B76716"/>
<path d="M151.4 156.149L149.182 155.655L165.501 146.247L167.718 146.741L151.4 156.149Z" fill="#D88121"/>
<path d="M163.305 127.881L161.087 127.387L157.298 111.234L159.516 111.728L163.305 127.881Z" fill="#B76716"/>
<path d="M146.986 137.289L144.769 136.774L161.088 127.387L163.305 127.881L146.986 137.289Z" fill="#D88121"/>
<path d="M158.892 109.022L156.674 108.528L152.885 92.353L155.103 92.8471L158.892 109.022Z" fill="#B76716"/>
<path d="M154.457 90.119L152.239 89.625L149.613 78.4553L151.83 78.9494L154.457 90.119Z" fill="#B76716"/>
<path d="M151.83 78.9493L149.613 78.4553L151.873 77.145L154.091 77.6391L151.83 78.9493Z" fill="#D88121"/>
<path d="M142.551 118.408L140.333 117.914L156.674 108.527L158.891 109.021L142.551 118.408Z" fill="#D88121"/>
<path d="M138.138 99.5273L135.92 99.0333L152.239 89.625L154.456 90.119L138.138 99.5273Z" fill="#D88121"/>
<path d="M133.273 89.6464L131.055 89.1523L133.294 87.8635L135.512 88.3576L133.273 89.6464Z" fill="#D88121"/>
<path d="M163.326 217.904L161.109 217.41L131.055 89.1523L133.273 89.6464L163.326 217.904Z" fill="#B76716"/>
<path d="M151.83 78.9495L154.091 77.6606L184.145 205.918L181.884 207.207L177.191 187.188L160.872 196.596L165.566 216.615L163.327 217.904L133.273 89.6465L135.512 88.3577L138.138 99.5274L154.457 90.1191L151.83 78.9495ZM172.132 165.622L168.343 149.447L152.024 158.855L155.813 175.03L172.132 165.622ZM158.87 109L155.081 92.8256L138.763 102.234L142.552 118.408L158.87 109ZM176.545 184.481L172.756 168.328L156.438 177.736L160.227 193.889L176.545 184.481ZM163.284 127.86L159.495 111.707L143.176 121.115L146.965 137.268L163.284 127.86ZM167.697 146.719L163.908 130.566L147.589 139.974L151.378 156.127L167.697 146.719Z" fill="#FFAA3B"/>
</g>
<defs>
<linearGradient id="paint0_linear_803_6711" x1="152.347" y1="48.0609" x2="146.661" y2="57.9313" gradientUnits="userSpaceOnUse">
<stop stop-color="#FAA9E3"/>
<stop offset="1" stop-color="#ED9AD5"/>
</linearGradient>
<linearGradient id="paint1_linear_803_6711" x1="129.376" y1="46.0848" x2="121.48" y2="59.8044" gradientUnits="userSpaceOnUse">
<stop stop-color="#FAA9E3"/>
<stop offset="1" stop-color="#ED9AD5"/>
</linearGradient>
<linearGradient id="paint2_linear_803_6711" x1="99.4945" y1="45.8485" x2="62.1182" y2="110.727" gradientUnits="userSpaceOnUse">
<stop stop-color="#FAA9E3"/>
<stop offset="1" stop-color="#ED9AD5"/>
</linearGradient>
<linearGradient id="paint3_linear_803_6711" x1="56.5025" y1="102.921" x2="28.0734" y2="152.273" gradientUnits="userSpaceOnUse">
<stop stop-color="#FAA9E3"/>
<stop offset="1" stop-color="#ED9AD5"/>
</linearGradient>
<linearGradient id="paint4_linear_803_6711" x1="107.805" y1="60.004" x2="180.725" y2="158.346" gradientUnits="userSpaceOnUse">
<stop stop-color="#F5E33A"/>
<stop offset="0.05" stop-color="#C7B92F"/>
<stop offset="0.09" stop-color="#9C9125"/>
<stop offset="0.14" stop-color="#776E1C"/>
<stop offset="0.2" stop-color="#565014"/>
<stop offset="0.25" stop-color="#3B360E"/>
<stop offset="0.32" stop-color="#252208"/>
<stop offset="0.4" stop-color="#141204"/>
<stop offset="0.49" stop-color="#080802"/>
<stop offset="0.63" stop-color="#010100"/>
<stop offset="1"/>
</linearGradient>
<radialGradient id="paint5_radial_803_6711" cx="0" cy="0" r="1" gradientUnits="userSpaceOnUse" gradientTransform="translate(156.997 54.8701) scale(17.9116 17.8714)">
<stop stop-color="#FDC8CA"/>
<stop offset="0.08" stop-color="#D7AAAC"/>
<stop offset="0.22" stop-color="#9F7D7F"/>
<stop offset="0.36" stop-color="#6E5758"/>
<stop offset="0.5" stop-color="#463738"/>
<stop offset="0.63" stop-color="#271F1F"/>
<stop offset="0.76" stop-color="#110E0E"/>
<stop offset="0.89" stop-color="#040303"/>
<stop offset="1"/>
</radialGradient>
<radialGradient id="paint6_radial_803_6711" cx="0" cy="0" r="1" gradientUnits="userSpaceOnUse" gradientTransform="translate(48.0849 120.019) scale(52.8092 52.6907)">
<stop stop-color="#FDC8CA"/>
<stop offset="0.08" stop-color="#D7AAAC"/>
<stop offset="0.22" stop-color="#9F7D7F"/>
<stop offset="0.36" stop-color="#6E5758"/>
<stop offset="0.5" stop-color="#463738"/>
<stop offset="0.63" stop-color="#271F1F"/>
<stop offset="0.76" stop-color="#110E0E"/>
<stop offset="0.89" stop-color="#040303"/>
<stop offset="1"/>
</radialGradient>
<radialGradient id="paint7_radial_803_6711" cx="0" cy="0" r="1" gradientUnits="userSpaceOnUse" gradientTransform="translate(92.7564 61.4431) scale(54.7467 54.6239)">
<stop stop-color="#FDC8CA"/>
<stop offset="0.08" stop-color="#D7AAAC"/>
<stop offset="0.22" stop-color="#9F7D7F"/>
<stop offset="0.36" stop-color="#6E5758"/>
<stop offset="0.5" stop-color="#463738"/>
<stop offset="0.63" stop-color="#271F1F"/>
<stop offset="0.76" stop-color="#110E0E"/>
<stop offset="0.89" stop-color="#040303"/>
<stop offset="1"/>
</radialGradient>
<radialGradient id="paint8_radial_803_6711" cx="0" cy="0" r="1" gradientUnits="userSpaceOnUse" gradientTransform="translate(137.772 53.4525) scale(41.3991 41.3063)">
<stop stop-color="#FDC8CA"/>
<stop offset="0.08" stop-color="#D7AAAC"/>
<stop offset="0.22" stop-color="#9F7D7F"/>
<stop offset="0.36" stop-color="#6E5758"/>
<stop offset="0.5" stop-color="#463738"/>
<stop offset="0.63" stop-color="#271F1F"/>
<stop offset="0.76" stop-color="#110E0E"/>
<stop offset="0.89" stop-color="#040303"/>
<stop offset="1"/>
</radialGradient>
<clipPath id="clip0_803_6711">
<rect width="191" height="237" fill="white" transform="translate(0.184082)"/>
</clipPath>
</defs>
</svg>
