<svg width="167" height="221" viewBox="0 0 167 221" fill="none" xmlns="http://www.w3.org/2000/svg">
<path d="M13.4142 156.341V166.745C13.37 168.051 14.2328 169.357 15.9585 170.331L60.6057 196.119C64.0129 198.089 69.5219 198.089 72.9069 196.119L117.554 170.131C119.236 169.157 120.076 167.874 120.076 166.59V156.186L13.3921 156.319L13.4142 156.341Z" fill="url(#paint0_linear_803_6661)"/>
<path d="M117.577 152.622L72.9295 126.834C69.5223 124.863 63.9912 124.863 60.6282 126.834L15.981 152.821C12.596 154.791 12.596 157.979 16.0253 159.971L60.6725 185.759C64.0797 187.73 69.5887 187.73 72.9737 185.759L117.621 159.772C121.006 157.802 120.984 154.614 117.577 152.644V152.622Z" fill="#3B223A"/>
<path d="M53.769 185.914C53.769 185.914 53.6583 185.715 53.592 185.626C53.5256 185.56 53.4592 185.494 53.3929 185.449L48.1051 182.395C47.9724 182.306 47.8396 182.306 47.7732 182.35L43.7466 184.697C45.0519 187.419 46.9989 189.766 49.6981 191.647L53.7247 189.301C53.7247 189.301 53.8575 189.146 53.8575 188.991V186.268C53.8575 186.158 53.8353 186.025 53.7911 185.914H53.769Z" fill="url(#paint1_linear_803_6661)"/>
<path d="M49.3443 187.796L44.0566 184.741C43.7911 184.586 43.5698 184.719 43.5698 185.007V187.729C43.5698 188.039 43.7689 188.393 44.0344 188.548L49.3222 191.603C49.5877 191.758 49.7868 191.625 49.8089 191.337V188.615C49.8089 188.305 49.6098 187.929 49.3443 187.796Z" fill="#2A182A"/>
<path d="M144.436 203.623L115.121 186.689C113.55 185.781 111.581 185.781 109.988 186.689L68.1285 210.884C67.1329 211.459 65.8939 211.459 64.8762 210.884L41.2251 197.226C41.2251 197.226 41.0924 197.093 41.0924 196.982V193.883C41.0924 193.551 41.2694 193.263 41.557 193.086L47.0881 189.899C48.3934 189.146 46.8669 186.401 45.5173 187.176L39.9861 190.364C38.725 191.094 37.9507 192.422 37.9507 193.883V197.137C37.9507 198.266 38.548 199.306 39.5215 199.86L63.3053 213.584C64.3009 214.16 65.385 214.447 66.4913 214.447C67.5975 214.447 68.7037 214.16 69.6772 213.584L111.559 189.39C112.178 189.035 112.931 189.035 113.528 189.39L142.843 206.324C143.595 206.766 144.546 206.501 144.989 205.748C145.431 204.995 145.166 204.044 144.414 203.601L144.436 203.623Z" fill="#351D35"/>
<g style="mix-blend-mode:screen">
<path d="M42.3101 190.629C42.9074 190.275 45.0314 189.057 45.8057 188.615C46.0048 188.504 46.8234 188.172 46.4252 187.84C46.1597 187.619 45.8942 187.84 45.6508 187.973C45.2747 188.194 41.8897 190.142 41.4472 190.408C41.1375 190.585 40.4737 190.917 40.6728 191.205C40.9162 191.537 41.7569 190.983 42.3101 190.651V190.629Z" fill="#351D35"/>
</g>
<g style="mix-blend-mode:screen">
<path d="M143.773 203.911L114.458 186.977C113.263 186.291 111.781 186.291 110.586 186.977L68.8369 210.972C67.089 211.99 66.0049 211.747 64.7438 211.171C58.3056 208.227 42.9512 198.598 40.9158 197.624C40.7388 197.536 40.252 197.735 40.2963 197.934C40.2963 198.045 61.8677 210.684 64.1022 211.791C65.8943 212.677 67.62 212.522 69.036 211.703L110.918 187.508C111.913 186.933 113.174 186.933 114.148 187.508L143.463 204.442C143.463 204.442 143.573 204.486 143.618 204.486C143.662 204.486 143.817 204.486 143.883 204.331C143.972 204.176 143.927 203.977 143.773 203.911Z" fill="#351D35"/>
</g>
<path d="M79.6549 151.604L97.1554 141.488L92.2658 138.654L75.0309 148.615C69.9865 146.557 63.2828 146.49 58.1499 148.394L41.2689 138.654L36.3794 141.488L53.3489 151.294C50.2957 154.238 50.5169 157.979 53.9684 160.812L36.4015 170.973L41.291 173.806L59.1897 163.469C63.858 164.93 69.5219 164.863 74.1016 163.292L92.3101 173.806L97.1996 170.973L79.1239 160.525C82.1328 157.824 82.3319 154.415 79.6991 151.626L79.6549 151.604Z" fill="#2A182A"/>
<path d="M86.1818 139.119L83.4604 137.548L85.5402 143.746L88.2615 145.317L86.1818 139.119Z" fill="#D068E8"/>
<path d="M77.0001 107.908L74.2788 106.314V142.838L77.0001 144.432V107.908Z" fill="#5C3B53"/>
<path d="M96.0718 140.824L90.2752 119.794L77.0005 107.907V144.432L86.1821 139.119L88.2619 145.317L96.0718 140.824Z" fill="#D068E8"/>
<path d="M47.3527 139.119L50.074 137.548L47.9943 143.746L45.2729 145.317L47.3527 139.119Z" fill="#D068E8"/>
<path d="M56.5122 107.908L59.2556 106.314V142.838L56.5122 144.432V107.908Z" fill="#5C3B53"/>
<path d="M37.4634 140.824L43.26 119.794L56.5126 107.907V144.432L47.353 139.119L45.2733 145.317L37.4634 140.824Z" fill="#962DCC"/>
<path d="M53.2827 152.312L56.2253 156.164C56.7563 156.85 57.4864 157.514 58.4598 158.09C62.8847 160.746 70.2079 160.835 74.8098 158.245C75.9382 157.625 76.801 156.894 77.3984 156.097L80.3188 152.246L53.3048 152.312H53.2827Z" fill="#351D35"/>
<path d="M81.4693 41.2119L51.9331 41.3005L52.0216 148.881C52.0216 151.006 53.3933 153.131 56.1368 154.791C61.7785 158.2 71.1372 158.289 77.0223 155.013C80.0533 153.33 81.5799 151.073 81.5578 148.815L81.4693 41.234V41.2119Z" fill="url(#paint2_linear_803_6661)"/>
<path d="M70.0973 10.6864C69.7433 10.465 68.9247 10.0666 68.3273 9.84519C66.8008 9.2918 65.4512 9.38034 63.4821 10.4871C54.3668 15.6005 52.1544 30.0774 51.9331 41.3004C51.9331 43.4254 53.3048 45.5505 56.0483 47.2107C61.69 50.6196 71.0487 50.7081 76.9338 47.432C79.9648 45.7497 81.4914 43.4918 81.4693 41.234C81.3587 26.2479 77.332 15.4013 70.1194 10.7085L70.0973 10.6864Z" fill="url(#paint3_linear_803_6661)"/>
<path d="M87.4868 145.317L90.2081 143.746L96.0711 171.504L93.3498 173.098L87.4868 145.317Z" fill="#D068E8"/>
<path d="M74.3228 118.201L77.0441 116.607L90.2081 143.746L87.4868 145.317L74.3228 118.201Z" fill="#FFA1FB"/>
<path d="M87.4868 145.317L93.3498 173.098L85.5399 168.582L83.5044 160.015L74.3228 154.703V118.201L87.4868 145.317Z" fill="#962DCC"/>
<path d="M46.0477 145.317L43.3264 143.746L37.4634 171.504L40.1847 173.098L46.0477 145.317Z" fill="#962DCC"/>
<path d="M59.212 118.201L56.4686 116.607L43.3267 143.746L46.048 145.317L59.212 118.201Z" fill="#BD46F2"/>
<path d="M46.048 145.317L40.1851 173.098L47.995 168.582L50.0305 160.015L59.2121 154.703V118.201L46.048 145.317Z" fill="#D068E8"/>
<path d="M72.4418 14.0732C76.6012 18.8988 78.5703 25.3847 77.0658 31.5827C75.5835 37.6701 71.9108 39.5074 69.0346 21.2674C67.3531 10.6643 68.5036 9.49105 72.4418 14.0732Z" fill="url(#paint4_linear_803_6661)"/>
<path opacity="0.5" d="M54.2783 30.1881C53.9464 35.4786 55.7828 36.3197 60.9599 18.9651C65.1414 4.95308 54.8535 20.891 54.2783 30.1881Z" fill="url(#paint5_linear_803_6661)"/>
<path d="M77.022 112.512C76.2476 112.932 75.429 113.309 74.544 113.618V58.7877C75.4069 58.4778 76.2476 58.1015 77.022 57.6809C80.053 55.9986 81.5132 53.7407 81.5132 51.4828V50.863C81.5132 53.1209 80.053 55.3566 77.022 57.0611C71.1369 60.3372 61.8003 60.2487 56.1365 56.8397C53.393 55.1795 51.9771 53.0545 51.9771 50.9295V51.5714C51.9771 53.6964 53.4151 55.8215 56.1365 57.4817C60.8932 60.3594 68.2828 60.8464 74.0352 58.9648V113.796C68.3049 115.677 60.9153 115.168 56.1365 112.312C53.393 110.652 51.9771 108.527 51.9771 106.402V107.044C51.9771 109.169 53.4151 111.294 56.1365 112.954C61.7782 116.363 71.1369 116.452 77.022 113.176C80.053 111.493 81.5132 109.236 81.5132 106.978V106.358C81.5132 108.616 80.053 110.851 77.022 112.556V112.512Z" fill="url(#paint6_linear_803_6661)"/>
<path d="M64.4767 67.3323V67.1773C64.4767 67.1773 64.5431 67.0224 64.698 67.0224H65.5608C65.6936 67.0224 65.7821 67.0667 65.7821 67.1773C65.7821 67.443 65.8263 67.5758 65.9369 67.6422C66.0476 67.7086 66.2245 67.7529 66.49 67.7529H66.9768C67.2423 67.7529 67.4193 67.7086 67.5299 67.6422C67.6405 67.5758 67.6848 67.4208 67.6848 67.1995C67.6848 66.956 67.5963 66.8453 67.4414 66.7567C67.2865 66.6682 67.0874 66.6239 66.844 66.6018C66.6007 66.6018 66.3573 66.5575 66.0697 66.5133C65.7821 66.469 65.5387 66.4026 65.2953 66.3362C65.052 66.2698 64.8528 66.1369 64.698 65.9156C64.5431 65.6942 64.4546 65.4507 64.4546 65.1187V64.8531C64.4546 64.4546 64.6095 64.1447 64.8971 63.9234C65.2068 63.702 65.6051 63.5913 66.1361 63.5913H67.1538C67.6848 63.5913 68.1051 63.702 68.4149 63.9234C68.7246 64.1447 68.8574 64.4546 68.8574 64.8531V65.008C68.8574 65.008 68.791 65.163 68.6361 65.163H67.7733C67.6405 65.163 67.552 65.1187 67.552 65.008C67.552 64.7645 67.5078 64.6317 67.3971 64.5432C67.2865 64.4767 67.1095 64.4325 66.844 64.4325H66.4458C66.1582 64.4325 65.9812 64.4767 65.8706 64.5432C65.7599 64.6317 65.7157 64.7867 65.7157 65.008V65.163C65.7157 65.4065 66.0033 65.5393 66.5564 65.5835C67.1317 65.6278 67.6626 65.7164 68.1051 65.8492C68.3485 65.9156 68.5476 66.0705 68.7025 66.2698C68.8574 66.469 68.9459 66.7346 68.9459 67.0445V67.3101C68.9459 67.7086 68.791 68.0185 68.5034 68.2399C68.1936 68.4612 67.7954 68.5719 67.2644 68.5719H66.1582C65.6272 68.5719 65.2068 68.4612 64.9192 68.2399C64.6095 68.0185 64.4767 67.7086 64.4767 67.3101V67.3323Z" fill="#DD3131"/>
<path d="M67.9057 70.6084H68.7686C68.9234 70.6084 68.9898 70.6527 68.9898 70.7633V74.3272C68.9898 74.7257 68.8349 75.0356 68.5473 75.2569C68.2597 75.4783 67.8393 75.589 67.3083 75.589H66.18C65.649 75.589 65.2286 75.4783 64.941 75.2569C64.6534 75.0356 64.4985 74.7257 64.4985 74.3272V70.7633C64.4985 70.7633 64.5649 70.6084 64.7198 70.6084H65.5826C65.7154 70.6084 65.8039 70.6527 65.8039 70.7633V74.283C65.8039 74.4379 65.8481 74.5707 65.9366 74.6371C66.0251 74.7035 66.18 74.7478 66.4012 74.7478H67.1092C67.3305 74.7478 67.4853 74.7035 67.5738 74.6371C67.6623 74.5707 67.7066 74.4379 67.7066 74.283V70.7633C67.7066 70.7633 67.773 70.6084 67.9278 70.6084H67.9057Z" fill="#DD3131"/>
<path d="M67.3526 82.6061H66.2464C65.7154 82.6061 65.295 82.4954 65.0074 82.274C64.7198 82.0527 64.5649 81.7428 64.5649 81.3443V78.8872C64.5649 78.4888 64.7198 78.1568 65.0074 77.9575C65.295 77.7362 65.7154 77.6255 66.2464 77.6255H67.3526C67.8836 77.6255 68.304 77.7362 68.5916 77.9575C68.8792 78.1789 69.0341 78.4888 69.0341 78.8872V79.2636C69.0341 79.3742 68.9677 79.4406 68.8128 79.4406H67.95C67.8172 79.4406 67.7287 79.3742 67.7287 79.2636V78.9536C67.7287 78.7987 67.6845 78.6659 67.596 78.5995C67.5075 78.5331 67.3526 78.4888 67.1314 78.4888H66.4455C66.2243 78.4888 66.0915 78.5331 65.9809 78.5995C65.8924 78.6659 65.8482 78.7987 65.8482 78.9536V81.3222C65.8482 81.4771 65.8924 81.61 65.9809 81.6764C66.0694 81.7428 66.2243 81.787 66.4455 81.787H67.1314C67.3526 81.787 67.5075 81.7428 67.596 81.6764C67.6845 81.61 67.7287 81.4771 67.7287 81.3222V81.0123C67.7287 80.9016 67.7951 80.8352 67.95 80.8352H68.8128C68.9677 80.8352 69.0341 80.9016 69.0341 81.0123V81.3886C69.0341 81.787 68.8792 82.097 68.5916 82.3183C68.304 82.5397 67.8836 82.6503 67.3526 82.6503V82.6061Z" fill="#DD3131"/>
<path d="M67.3526 89.6009H66.2464C65.7154 89.6009 65.295 89.4903 65.0074 89.2689C64.7198 89.0475 64.5649 88.7376 64.5649 88.3392V85.8821C64.5649 85.4837 64.7198 85.1516 65.0074 84.9524C65.295 84.731 65.7154 84.6204 66.2464 84.6204H67.3526C67.8836 84.6204 68.304 84.731 68.5916 84.9524C68.8792 85.1738 69.0341 85.4837 69.0341 85.8821V86.2584C69.0341 86.3691 68.9677 86.4355 68.8128 86.4355H67.95C67.8172 86.4355 67.7287 86.3691 67.7287 86.2584V85.9485C67.7287 85.7936 67.6845 85.6608 67.596 85.5943C67.5075 85.5279 67.3526 85.4837 67.1314 85.4837H66.4455C66.2243 85.4837 66.0915 85.5279 65.9809 85.5943C65.8924 85.6608 65.8482 85.7936 65.8482 85.9485V88.3171C65.8482 88.472 65.8924 88.6048 65.9809 88.6712C66.0694 88.7376 66.2243 88.7819 66.4455 88.7819H67.1314C67.3526 88.7819 67.5075 88.7376 67.596 88.6712C67.6845 88.6048 67.7287 88.472 67.7287 88.3171V88.0072C67.7287 87.8965 67.7951 87.8301 67.95 87.8301H68.8128C68.9677 87.8301 69.0341 87.8965 69.0341 88.0072V88.3835C69.0341 88.7819 68.8792 89.0918 68.5916 89.3132C68.304 89.5345 67.8836 89.6452 67.3526 89.6452V89.6009Z" fill="#DD3131"/>
<path d="M68.5039 96.5738H65.1631C65.0304 96.5738 64.9419 96.5296 64.9419 96.4189V91.7482C64.9419 91.7482 65.0083 91.5933 65.1631 91.5933H68.5039C68.6367 91.5933 68.7031 91.6375 68.7031 91.7482V92.2795C68.7031 92.2795 68.6367 92.4344 68.5039 92.4344H66.3579C66.3579 92.4344 66.2251 92.4566 66.2251 92.523V93.5412C66.2251 93.5412 66.2694 93.6298 66.3579 93.6298H68.1057C68.2384 93.6298 68.3269 93.6962 68.3269 93.7847V94.316C68.3269 94.316 68.2606 94.4709 68.1057 94.4709H66.3579C66.3579 94.4709 66.2251 94.4931 66.2251 94.5595V95.6441C66.2251 95.6441 66.2694 95.7327 66.3579 95.7327H68.5039C68.6367 95.7327 68.7031 95.777 68.7031 95.8876V96.4189C68.7031 96.4189 68.6367 96.5738 68.5039 96.5738Z" fill="#DD3131"/>
<path d="M64.4767 102.307V102.152C64.4767 102.152 64.5431 101.997 64.698 101.997H65.5608C65.6936 101.997 65.7821 102.041 65.7821 102.152C65.7821 102.418 65.8263 102.551 65.9369 102.617C66.0476 102.683 66.2245 102.728 66.49 102.728H66.9768C67.2423 102.728 67.4193 102.683 67.5299 102.617C67.6405 102.551 67.6848 102.396 67.6848 102.174C67.6848 101.931 67.5963 101.82 67.4414 101.732C67.2865 101.643 67.0874 101.599 66.844 101.577C66.6007 101.577 66.3573 101.532 66.0697 101.488C65.7821 101.444 65.5387 101.377 65.2953 101.311C65.052 101.245 64.8528 101.112 64.698 100.89C64.5431 100.691 64.4546 100.426 64.4546 100.094V99.8279C64.4546 99.4295 64.6095 99.1196 64.8971 98.8982C65.2068 98.6768 65.6051 98.5662 66.1361 98.5662H67.1538C67.6848 98.5662 68.1051 98.6768 68.4149 98.8982C68.7246 99.1196 68.8574 99.4295 68.8574 99.8279V99.9829C68.8574 99.9829 68.791 100.138 68.6361 100.138H67.7733C67.6405 100.138 67.552 100.094 67.552 99.9829C67.552 99.7394 67.5078 99.6066 67.3971 99.518C67.2865 99.4516 67.1095 99.4073 66.844 99.4073H66.4458C66.1582 99.4073 65.9812 99.4516 65.8706 99.518C65.7599 99.6066 65.7157 99.7615 65.7157 99.9829V100.138C65.7157 100.381 66.0033 100.514 66.5564 100.558C67.1317 100.603 67.6626 100.691 68.1051 100.824C68.3485 100.89 68.5476 101.045 68.7025 101.245C68.8574 101.444 68.9459 101.709 68.9459 102.019V102.285C68.9459 102.683 68.791 102.993 68.5034 103.215C68.1936 103.436 67.7954 103.547 67.2644 103.547H66.1582C65.6272 103.547 65.2068 103.436 64.9192 103.215C64.6095 102.993 64.4767 102.683 64.4767 102.285V102.307Z" fill="#DD3131"/>
<path d="M64.4767 109.302V109.147C64.4767 109.147 64.5431 108.992 64.698 108.992H65.5608C65.6936 108.992 65.7821 109.036 65.7821 109.147C65.7821 109.413 65.8263 109.546 65.9369 109.612C66.0476 109.678 66.2245 109.723 66.49 109.723H66.9768C67.2423 109.723 67.4193 109.678 67.5299 109.612C67.6405 109.546 67.6848 109.391 67.6848 109.169C67.6848 108.926 67.5963 108.815 67.4414 108.726C67.2865 108.638 67.0874 108.594 66.844 108.572C66.6007 108.572 66.3573 108.527 66.0697 108.483C65.7821 108.439 65.5387 108.372 65.2953 108.306C65.052 108.239 64.8528 108.107 64.698 107.885C64.5431 107.664 64.4546 107.42 64.4546 107.088V106.823C64.4546 106.424 64.6095 106.114 64.8971 105.893C65.2068 105.672 65.6051 105.561 66.1361 105.561H67.1538C67.6848 105.561 68.1051 105.672 68.4149 105.893C68.7246 106.114 68.8574 106.424 68.8574 106.823V106.978C68.8574 106.978 68.791 107.133 68.6361 107.133H67.7733C67.6405 107.133 67.552 107.088 67.552 106.978C67.552 106.734 67.5078 106.601 67.3971 106.513C67.2865 106.446 67.1095 106.402 66.844 106.402H66.4458C66.1582 106.402 65.9812 106.446 65.8706 106.513C65.7599 106.601 65.7157 106.756 65.7157 106.978V107.133C65.7157 107.376 66.0033 107.509 66.5564 107.553C67.1317 107.598 67.6626 107.686 68.1051 107.819C68.3485 107.885 68.5476 108.04 68.7025 108.239C68.8574 108.439 68.9459 108.704 68.9459 109.014V109.28C68.9459 109.678 68.791 109.988 68.5034 110.21C68.1936 110.431 67.7954 110.542 67.2644 110.542H66.1582C65.6272 110.542 65.2068 110.431 64.9192 110.21C64.6095 109.988 64.4767 109.678 64.4767 109.28V109.302Z" fill="#DD3131"/>
<defs>
<linearGradient id="paint0_linear_803_6661" x1="55.3844" y1="176.905" x2="70.6281" y2="176.905" gradientUnits="userSpaceOnUse">
<stop stop-color="#ED9AD5"/>
<stop offset="0.26" stop-color="#EFA1D2"/>
<stop offset="0.63" stop-color="#F5B4CC"/>
<stop offset="1" stop-color="#FECFC4"/>
</linearGradient>
<linearGradient id="paint1_linear_803_6661" x1="50.0742" y1="187.663" x2="50.6941" y2="188.725" gradientUnits="userSpaceOnUse">
<stop stop-color="#40243F"/>
<stop offset="0.19" stop-color="#3D223C"/>
<stop offset="1" stop-color="#351D35"/>
</linearGradient>
<linearGradient id="paint2_linear_803_6661" x1="51.9331" y1="99.2966" x2="81.5578" y2="99.2966" gradientUnits="userSpaceOnUse">
<stop stop-color="#ED9AD5"/>
<stop offset="0.59" stop-color="#F7BCCA"/>
<stop offset="1" stop-color="#FECFC4"/>
</linearGradient>
<linearGradient id="paint3_linear_803_6661" x1="51.9331" y1="29.6569" x2="81.4693" y2="29.6569" gradientUnits="userSpaceOnUse">
<stop stop-color="#962DCC"/>
<stop offset="0.24" stop-color="#9D34CF"/>
<stop offset="0.59" stop-color="#B048D8"/>
<stop offset="1" stop-color="#D068E8"/>
</linearGradient>
<linearGradient id="paint4_linear_803_6661" x1="67.1761" y1="37.5152" x2="74.5946" y2="17.1083" gradientUnits="userSpaceOnUse">
<stop stop-color="#C55DE3"/>
<stop offset="0.13" stop-color="#CF6AE3"/>
<stop offset="0.49" stop-color="#E98AE4"/>
<stop offset="0.79" stop-color="#F99EE4"/>
<stop offset="1" stop-color="#FFA6E5"/>
</linearGradient>
<linearGradient id="paint5_linear_803_6661" x1="-20.9171" y1="76.1516" x2="-31.3151" y2="69.258" gradientUnits="userSpaceOnUse">
<stop stop-color="#C55DE3"/>
<stop offset="0.13" stop-color="#CF6AE3"/>
<stop offset="0.49" stop-color="#E98AE4"/>
<stop offset="0.79" stop-color="#F99EE4"/>
<stop offset="1" stop-color="#FFA6E5"/>
</linearGradient>
<linearGradient id="paint6_linear_803_6661" x1="51.9771" y1="83.2037" x2="81.4911" y2="83.2037" gradientUnits="userSpaceOnUse">
<stop stop-color="#CD76B4"/>
<stop offset="1" stop-color="#E596CF"/>
</linearGradient>
</defs>
</svg>
