<svg width="50" height="50" viewBox="0 0 50 50" fill="none" xmlns="http://www.w3.org/2000/svg">
<circle cx="25" cy="25" r="25" fill="url(#paint0_linear_927_1537)"/>
<path d="M31.25 35C31.25 32.9289 28.4518 31.25 25 31.25C21.5482 31.25 18.75 32.9289 18.75 35M36.25 31.2505C36.25 29.7127 34.7074 28.3912 32.5 27.8125M13.75 31.2505C13.75 29.7127 15.2926 28.3912 17.5 27.8125M32.5 22.7951C33.2672 22.1085 33.75 21.1106 33.75 20C33.75 17.9289 32.0711 16.25 30 16.25C29.0396 16.25 28.1634 16.6111 27.5 17.2049M17.5 22.7951C16.7328 22.1085 16.25 21.1106 16.25 20C16.25 17.9289 17.9289 16.25 20 16.25C20.9604 16.25 21.8366 16.6111 22.5 17.2049M25 27.5C22.9289 27.5 21.25 25.8211 21.25 23.75C21.25 21.6789 22.9289 20 25 20C27.0711 20 28.75 21.6789 28.75 23.75C28.75 25.8211 27.0711 27.5 25 27.5Z" stroke="white" stroke-width="2" stroke-linecap="round" stroke-linejoin="round"/>
<defs>
<linearGradient id="paint0_linear_927_1537" x1="-0.00511509" y1="24.9987" x2="50" y2="24.9987" gradientUnits="userSpaceOnUse">
<stop stop-color="#1BD6DF"/>
<stop offset="1" stop-color="#1499A0"/>
</linearGradient>
</defs>
</svg>
