<svg width="25" height="24" viewBox="0 0 25 24" fill="none" xmlns="http://www.w3.org/2000/svg">
<path d="M9.64648 9.07361C9.81728 8.54732 10.1302 8.07896 10.5508 7.71948C10.9714 7.36001 11.4838 7.12378 12.0303 7.03708C12.5768 6.95038 13.1362 7.0164 13.6475 7.22803C14.1587 7.43966 14.6014 7.78875 14.9268 8.23633C15.2521 8.68391 15.4469 9.21256 15.4904 9.76416C15.5339 10.3158 15.4238 10.8688 15.1727 11.3618C14.9215 11.8548 14.5394 12.2685 14.0676 12.5576C13.5958 12.8467 13.0533 12.9998 12.5 12.9998V14.0002M12.5 21C7.52944 21 3.5 16.9706 3.5 12C3.5 7.02944 7.52944 3 12.5 3C17.4706 3 21.5 7.02944 21.5 12C21.5 16.9706 17.4706 21 12.5 21ZM12.5498 17V17.1L12.4502 17.1002V17H12.5498Z" stroke="#BCBCBC" stroke-width="2" stroke-linecap="round" stroke-linejoin="round"/>
</svg>
