<svg width="36" height="36" viewBox="0 0 36 36" fill="none" xmlns="http://www.w3.org/2000/svg">
<circle cx="18" cy="18" r="18" fill="#252434" fill-opacity="0.75"/>
<path d="M21.9634 21.98V24H12.4034C12.4167 23.3733 12.5034 22.8 12.6634 22.28C12.8234 21.76 13.0034 21.32 13.2034 20.96C13.4167 20.5867 13.7234 20.2133 14.1234 19.84C14.5367 19.4533 14.9034 19.14 15.2234 18.9C15.5567 18.6467 16.01 18.3267 16.5834 17.94C16.6234 17.9133 16.8167 17.7867 17.1634 17.56C17.5234 17.32 17.7434 17.1733 17.8234 17.12C17.9034 17.0533 18.0834 16.9133 18.3634 16.7C18.6434 16.4733 18.8234 16.2933 18.9034 16.16C18.9967 16.0267 19.1167 15.8467 19.2634 15.62C19.4234 15.3933 19.53 15.1667 19.5834 14.94C19.6367 14.7 19.6634 14.4467 19.6634 14.18C19.6634 13.4467 19.4567 12.8733 19.0434 12.46C18.6434 12.0333 18.0967 11.82 17.4034 11.82C17.0034 11.82 16.6567 11.8867 16.3634 12.02C16.07 12.14 15.8367 12.3 15.6634 12.5C15.5034 12.7 15.37 12.96 15.2634 13.28C15.1567 13.5867 15.0834 13.88 15.0434 14.16C15.0167 14.44 14.9967 14.7667 14.9834 15.14H12.7634V14.78C12.7634 13.2733 13.1834 12.08 14.0234 11.2C14.8767 10.3067 16.0234 9.86 17.4634 9.86C18.8234 9.86 19.9167 10.2467 20.7434 11.02C21.57 11.78 21.9834 12.7933 21.9834 14.06C21.9834 14.5667 21.9034 15.0467 21.7434 15.5C21.5834 15.9533 21.41 16.32 21.2234 16.6C21.05 16.88 20.7434 17.2067 20.3034 17.58C19.8634 17.9533 19.5367 18.2133 19.3234 18.36C19.11 18.5067 18.7167 18.7733 18.1434 19.16C16.4767 20.24 15.4767 21.18 15.1434 21.98H21.9634Z" fill="white"/>
</svg>
