<svg width="70" height="71" viewBox="0 0 70 71" fill="none" xmlns="http://www.w3.org/2000/svg">
<path d="M35 70.1582C54.33 70.1582 70 54.4882 70 35.1582C70 15.8282 54.33 0.158203 35 0.158203C15.67 0.158203 0 15.8282 0 35.1582C0 54.4882 15.67 70.1582 35 70.1582Z" fill="url(#paint0_linear_809_31926)"/>
<path d="M34.9997 65.2973C51.645 65.2973 65.1386 51.8037 65.1386 35.1584C65.1386 18.5132 51.645 5.01953 34.9997 5.01953C18.3545 5.01953 4.86084 18.5132 4.86084 35.1584C4.86084 51.8037 18.3545 65.2973 34.9997 65.2973Z" fill="url(#paint1_linear_809_31926)"/>
<path d="M20.1065 35.1586C20.1065 43.389 26.7779 50.0604 35.0083 50.0604C37.9166 50.0604 40.6488 49.2223 42.9369 47.764L47.5131 55.0472C43.884 57.3353 39.6012 58.6512 34.9999 58.6512C22.0174 58.6512 11.5073 48.1327 11.5073 35.1586C11.5073 22.1845 22.0258 11.666 34.9999 11.666C44.0852 11.666 51.9635 16.8205 55.8692 24.3636L48.2255 28.3195C45.753 23.5338 40.7578 20.2652 34.9999 20.2652C26.7695 20.2652 20.0981 26.9366 20.0981 35.167L20.1065 35.1586Z" fill="url(#paint2_linear_809_31926)"/>
<path d="M58.4926 35.1593C58.4926 43.5321 54.1092 50.8825 47.5132 55.0479L42.937 47.7646C47.1192 45.1246 49.9018 40.4646 49.9018 35.1593C49.9018 32.6952 49.2984 30.3652 48.2339 28.3202L55.8776 24.3643C57.5539 27.5994 58.501 31.2704 58.501 35.1593H58.4926Z" fill="url(#paint3_linear_809_31926)"/>
<path d="M42.3662 44.1893C47.3501 40.1202 48.0917 32.7813 44.0226 27.7973C39.9535 22.8134 32.6145 22.0719 27.6306 26.141C22.6467 30.2101 21.9051 37.549 25.9743 42.533C30.0434 47.5169 37.3823 48.2585 42.3662 44.1893Z" fill="url(#paint4_linear_809_31926)"/>
<path d="M41.19 42.7543C45.3851 39.3365 46.0152 33.1651 42.5975 28.97C39.1797 24.7749 33.0083 24.1448 28.8132 27.5625C24.6181 30.9803 23.9879 37.1518 27.4057 41.3469C30.8235 45.5419 36.9949 46.1721 41.19 42.7543Z" fill="url(#paint5_linear_809_31926)"/>
<path d="M33.0566 40.3259V40.3885H33.1192H34.372H34.4346V40.3259V38.5005H36.6716H36.7342V38.4379V37.5341V37.4715H36.6716H34.4346V36.353H35.0967H35.1594H35.5441C36.3763 36.353 37.0742 36.2367 37.6379 35.9951C38.2106 35.7535 38.6491 35.4045 38.9443 34.9482C39.2396 34.4829 39.3917 33.9281 39.3917 33.2928C39.3917 32.3443 39.0965 31.6106 38.488 31.1006C37.8885 30.5905 36.9758 30.34 35.7499 30.34H33.1371L33.0745 30.3311V30.3937L33.0566 35.1719H31.9113H31.8486V35.2345V36.2904V36.353H31.9113H33.0566V37.4715H31.9113H31.8486V37.5341V38.4379V38.5005H31.9113H33.0566V40.3348V40.3259ZM35.1057 35.1808H34.4435L34.4525 31.5211H35.6426C36.4658 31.5211 37.0563 31.6822 37.4232 31.9775C37.7901 32.2728 37.978 32.7202 37.978 33.3376C37.978 33.8118 37.8706 34.1787 37.6648 34.4382C37.459 34.7066 37.1637 34.8945 36.7789 35.0108C36.3942 35.1271 35.9289 35.1898 35.3652 35.1808H35.1594H35.0967H35.1057Z" fill="#FFC431"/>
<defs>
<linearGradient id="paint0_linear_809_31926" x1="34.7988" y1="-3.03504" x2="35.1844" y2="68.9513" gradientUnits="userSpaceOnUse">
<stop stop-color="#9571CB"/>
<stop offset="1" stop-color="#6237C0"/>
</linearGradient>
<linearGradient id="paint1_linear_809_31926" x1="34.8321" y1="2.27049" x2="35.159" y2="64.258" gradientUnits="userSpaceOnUse">
<stop stop-color="#F5F0FF"/>
<stop offset="1" stop-color="#D2C1F7"/>
</linearGradient>
<linearGradient id="paint2_linear_809_31926" x1="33.2147" y1="11.7079" x2="34.4467" y2="58.6763" gradientUnits="userSpaceOnUse">
<stop stop-color="#FAAD1E"/>
<stop offset="1" stop-color="#F2830B"/>
</linearGradient>
<linearGradient id="paint3_linear_809_31926" x1="50.2706" y1="24.5151" x2="51.0752" y2="54.9557" gradientUnits="userSpaceOnUse">
<stop stop-color="#9571CB"/>
<stop offset="1" stop-color="#6237C0"/>
</linearGradient>
<linearGradient id="paint4_linear_809_31926" x1="41.1458" y1="14.0981" x2="32.9489" y2="42.2172" gradientUnits="userSpaceOnUse">
<stop stop-color="#FFE14D"/>
<stop offset="1" stop-color="#F7A523"/>
</linearGradient>
<linearGradient id="paint5_linear_809_31926" x1="40.1797" y1="17.4455" x2="33.2819" y2="41.089" gradientUnits="userSpaceOnUse">
<stop stop-color="#FAAD1E"/>
<stop offset="1" stop-color="#F2830B"/>
</linearGradient>
</defs>
</svg>
