<svg width="70" height="71" viewBox="0 0 70 71" fill="none" xmlns="http://www.w3.org/2000/svg">
<path d="M35 70.065C54.33 70.065 70 54.4158 70 35.1116C70 15.8074 54.33 0.158203 35 0.158203C15.67 0.158203 0 15.8074 0 35.1116C0 54.4158 15.67 70.065 35 70.065Z" fill="url(#paint0_linear_809_31844)"/>
<path d="M35 65.2088C51.6446 65.2088 65.1376 51.7336 65.1376 35.1112C65.1376 18.4888 51.6446 5.01367 35 5.01367C18.3554 5.01367 4.8623 18.4888 4.8623 35.1112C4.8623 51.7336 18.3554 65.2088 35 65.2088Z" fill="url(#paint1_linear_809_31844)"/>
<path d="M32.0827 20.1064H37.9262C41.0101 20.1064 43.5157 22.6087 43.5157 25.6885V34.4378H26.502V25.6885C26.502 22.6087 29.0076 20.1064 32.0914 20.1064H32.0827Z" fill="url(#paint2_linear_809_31844)"/>
<path d="M39.9846 18.2694C39.9846 19.433 39.5816 20.5004 38.907 21.3579C37.9958 22.504 36.5766 23.2477 34.9908 23.2477C33.4051 23.2477 31.9946 22.504 31.0835 21.3579C30.4089 20.5092 30.0059 19.433 30.0059 18.2694C30.0059 17.6919 30.1022 17.1494 30.2774 16.6332C30.4614 16.0995 30.733 15.6096 31.0747 15.1809C31.9858 14.0347 33.3963 13.291 34.9821 13.291C36.5678 13.291 37.9783 14.0347 38.8982 15.1809C39.2399 15.6183 39.5115 16.1083 39.6955 16.6332C39.8707 17.1407 39.9671 17.6919 39.9671 18.2694H39.9846Z" fill="url(#paint3_linear_809_31844)"/>
<path d="M16.3659 25.7061H22.2094C25.2933 25.7061 27.7989 28.2084 27.7989 31.2881V40.0374H10.7852V31.2881C10.7852 28.2084 13.2908 25.7061 16.3746 25.7061H16.3659Z" fill="url(#paint4_linear_809_31844)"/>
<path d="M24.2678 23.8602C24.2678 25.0238 23.8648 26.0912 23.1902 26.9487C22.279 28.0948 20.8598 28.8385 19.274 28.8385C17.6883 28.8385 16.2778 28.0948 15.3667 26.9487C14.6921 26.1 14.2891 25.0238 14.2891 23.8602C14.2891 23.2827 14.3854 22.7403 14.5606 22.2241C14.7446 21.6904 15.0162 21.2004 15.3579 20.7717C16.269 19.6255 17.6796 18.8818 19.2653 18.8818C20.851 18.8818 22.2615 19.6255 23.1814 20.7717C23.5231 21.2091 23.7947 21.6991 23.9787 22.2241C24.1539 22.7315 24.2503 23.2827 24.2503 23.8602H24.2678Z" fill="url(#paint5_linear_809_31844)"/>
<path d="M47.8083 25.7061H53.6518C56.7357 25.7061 59.2413 28.2084 59.2413 31.2881V40.0374H42.2275V31.2881C42.2275 28.2084 44.7332 25.7061 47.817 25.7061H47.8083Z" fill="url(#paint6_linear_809_31844)"/>
<path d="M55.7111 23.8602C55.7111 25.0238 55.3081 26.0912 54.6336 26.9487C53.7224 28.0948 52.3031 28.8385 50.7174 28.8385C49.1317 28.8385 47.7212 28.0948 46.81 26.9487C46.1354 26.1 45.7324 25.0238 45.7324 23.8602C45.7324 23.2827 45.8288 22.7403 46.004 22.2241C46.188 21.6904 46.4596 21.2004 46.8013 20.7717C47.7124 19.6255 49.1229 18.8818 50.7086 18.8818C52.2944 18.8818 53.7049 19.6255 54.6248 20.7717C54.9665 21.2091 55.2381 21.6991 55.422 22.2241C55.5973 22.7315 55.6936 23.2827 55.6936 23.8602H55.7111Z" fill="url(#paint7_linear_809_31844)"/>
<path d="M32.0827 30.8154H37.9262C41.0101 30.8154 43.5157 33.3177 43.5157 36.3975V45.1468H26.502V36.3975C26.502 33.3177 29.0076 30.8154 32.0914 30.8154H32.0827Z" fill="url(#paint8_linear_809_31844)"/>
<path d="M39.9846 28.9783C39.9846 30.142 39.5816 31.2094 38.907 32.0668C37.9958 33.213 36.5766 33.9567 34.9908 33.9567C33.4051 33.9567 31.9946 33.213 31.0835 32.0668C30.4089 31.2182 30.0059 30.142 30.0059 28.9783C30.0059 28.4009 30.1022 27.8584 30.2774 27.3422C30.4614 26.8085 30.733 26.3186 31.0747 25.8898C31.9858 24.7437 33.3963 24 34.9821 24C36.5678 24 37.9783 24.7437 38.8982 25.8898C39.2399 26.3273 39.5115 26.8173 39.6955 27.3422C39.8707 27.8497 39.9671 28.4009 39.9671 28.9783H39.9846Z" fill="url(#paint9_linear_809_31844)"/>
<path d="M16.3659 36.415H22.2094C25.2933 36.415 27.7989 38.9173 27.7989 41.9971V50.7464H10.7852V41.9971C10.7852 38.9173 13.2908 36.415 16.3746 36.415H16.3659Z" fill="url(#paint10_linear_809_31844)"/>
<path d="M24.2678 34.578C24.2678 35.7416 23.8648 36.809 23.1902 37.6664C22.279 38.8126 20.8598 39.5563 19.274 39.5563C17.6883 39.5563 16.2778 38.8126 15.3667 37.6664C14.6921 36.8178 14.2891 35.7416 14.2891 34.578C14.2891 34.0005 14.3854 33.458 14.5606 32.9418C14.7446 32.4081 15.0162 31.9182 15.3579 31.4895C16.269 30.3433 17.6796 29.5996 19.2653 29.5996C20.851 29.5996 22.2615 30.3433 23.1814 31.4895C23.5231 31.9269 23.7947 32.4169 23.9787 32.9418C24.1539 33.4493 24.2503 34.0005 24.2503 34.578H24.2678Z" fill="url(#paint11_linear_809_31844)"/>
<path d="M47.8083 36.415H53.6518C56.7357 36.415 59.2413 38.9173 59.2413 41.9971V50.7464H42.2275V41.9971C42.2275 38.9173 44.7332 36.415 47.817 36.415H47.8083Z" fill="url(#paint12_linear_809_31844)"/>
<path d="M55.7111 34.578C55.7111 35.7416 55.3081 36.809 54.6336 37.6664C53.7224 38.8126 52.3031 39.5563 50.7174 39.5563C49.1317 39.5563 47.7212 38.8126 46.81 37.6664C46.1354 36.8178 45.7324 35.7416 45.7324 34.578C45.7324 34.0005 45.8288 33.458 46.004 32.9418C46.188 32.4081 46.4596 31.9182 46.8013 31.4895C47.7124 30.3433 49.1229 29.5996 50.7086 29.5996C52.2944 29.5996 53.7049 30.3433 54.6248 31.4895C54.9665 31.9269 55.2381 32.4169 55.422 32.9418C55.5973 33.4493 55.6936 34.0005 55.6936 34.578H55.7111Z" fill="url(#paint13_linear_809_31844)"/>
<path d="M32.0827 41.5166H37.9262C41.0101 41.5166 43.5157 44.0189 43.5157 47.0986V55.8479H26.502V47.0986C26.502 44.0189 29.0076 41.5166 32.0914 41.5166H32.0827Z" fill="url(#paint14_linear_809_31844)"/>
<path d="M39.9846 39.6785C39.9846 40.8422 39.5816 41.9096 38.907 42.767C37.9958 43.9132 36.5766 44.6569 34.9908 44.6569C33.4051 44.6569 31.9946 43.9132 31.0835 42.767C30.4089 41.9184 30.0059 40.8422 30.0059 39.6785C30.0059 39.1011 30.1022 38.5586 30.2774 38.0424C30.4614 37.5087 30.733 37.0188 31.0747 36.59C31.9858 35.4439 33.3963 34.7002 34.9821 34.7002C36.5678 34.7002 37.9783 35.4439 38.8982 36.59C39.2399 37.0275 39.5115 37.5175 39.6955 38.0424C39.8707 38.5499 39.9671 39.1011 39.9671 39.6785H39.9846Z" fill="url(#paint15_linear_809_31844)"/>
<defs>
<linearGradient id="paint0_linear_809_31844" x1="34.7985" y1="-3.03529" x2="35.183" y2="68.8576" gradientUnits="userSpaceOnUse">
<stop stop-color="#9571CB"/>
<stop offset="1" stop-color="#6237C0"/>
</linearGradient>
<linearGradient id="paint1_linear_809_31844" x1="34.8335" y1="2.2664" x2="35.1568" y2="64.1676" gradientUnits="userSpaceOnUse">
<stop stop-color="#F5F0FF"/>
<stop offset="1" stop-color="#D2C1F7"/>
</linearGradient>
<linearGradient id="paint2_linear_809_31844" x1="35.8499" y1="35.3827" x2="33.7353" y2="21.5142" gradientUnits="userSpaceOnUse">
<stop stop-color="#263681"/>
<stop offset="1" stop-color="#1A1248"/>
</linearGradient>
<linearGradient id="paint3_linear_809_31844" x1="34.9996" y1="13.536" x2="34.9996" y2="26.0125" gradientUnits="userSpaceOnUse">
<stop stop-color="#FFC085"/>
<stop offset="1" stop-color="#FA976E"/>
</linearGradient>
<linearGradient id="paint4_linear_809_31844" x1="22.3321" y1="24.7349" x2="17.0535" y2="42.9809" gradientUnits="userSpaceOnUse">
<stop stop-color="#9571CB"/>
<stop offset="1" stop-color="#6237C0"/>
</linearGradient>
<linearGradient id="paint5_linear_809_31844" x1="19.2828" y1="19.1356" x2="19.2828" y2="31.612" gradientUnits="userSpaceOnUse">
<stop stop-color="#FFC085"/>
<stop offset="1" stop-color="#FA976E"/>
</linearGradient>
<linearGradient id="paint6_linear_809_31844" x1="49.7707" y1="25.6886" x2="51.2824" y2="41.2452" gradientUnits="userSpaceOnUse">
<stop stop-color="#F2830B"/>
<stop offset="1" stop-color="#FAAD1E"/>
</linearGradient>
<linearGradient id="paint7_linear_809_31844" x1="50.7262" y1="19.1356" x2="50.7262" y2="31.612" gradientUnits="userSpaceOnUse">
<stop stop-color="#FFC085"/>
<stop offset="1" stop-color="#FA976E"/>
</linearGradient>
<linearGradient id="paint8_linear_809_31844" x1="35.8499" y1="46.1004" x2="33.7353" y2="32.2232" gradientUnits="userSpaceOnUse">
<stop stop-color="#9571CB"/>
<stop offset="1" stop-color="#6237C0"/>
</linearGradient>
<linearGradient id="paint9_linear_809_31844" x1="34.9996" y1="24.245" x2="34.9996" y2="36.7215" gradientUnits="userSpaceOnUse">
<stop stop-color="#FFC085"/>
<stop offset="1" stop-color="#FA976E"/>
</linearGradient>
<linearGradient id="paint10_linear_809_31844" x1="22.3321" y1="35.4526" x2="17.0535" y2="53.6986" gradientUnits="userSpaceOnUse">
<stop stop-color="#F2830B"/>
<stop offset="1" stop-color="#FAAD1E"/>
</linearGradient>
<linearGradient id="paint11_linear_809_31844" x1="19.2828" y1="29.8446" x2="19.2828" y2="42.3211" gradientUnits="userSpaceOnUse">
<stop stop-color="#FFC085"/>
<stop offset="1" stop-color="#FA976E"/>
</linearGradient>
<linearGradient id="paint12_linear_809_31844" x1="49.7707" y1="36.3975" x2="51.2824" y2="51.9542" gradientUnits="userSpaceOnUse">
<stop stop-color="#9571CB"/>
<stop offset="1" stop-color="#6237C0"/>
</linearGradient>
<linearGradient id="paint13_linear_809_31844" x1="50.7262" y1="29.8446" x2="50.7262" y2="42.3211" gradientUnits="userSpaceOnUse">
<stop stop-color="#FFC085"/>
<stop offset="1" stop-color="#FA976E"/>
</linearGradient>
<linearGradient id="paint14_linear_809_31844" x1="35.8499" y1="56.7928" x2="33.7353" y2="42.9244" gradientUnits="userSpaceOnUse">
<stop stop-color="#263681"/>
<stop offset="1" stop-color="#1A1248"/>
</linearGradient>
<linearGradient id="paint15_linear_809_31844" x1="34.9996" y1="34.9452" x2="34.9996" y2="47.4217" gradientUnits="userSpaceOnUse">
<stop stop-color="#FFC085"/>
<stop offset="1" stop-color="#FA976E"/>
</linearGradient>
</defs>
</svg>
