<svg width="36" height="36" viewBox="0 0 36 36" fill="none" xmlns="http://www.w3.org/2000/svg">
<circle cx="18" cy="18" r="18" fill="#252434" fill-opacity="0.75"/>
<path d="M21.4834 10.08V12.06H15.9034L15.2634 15.66C15.89 14.9933 16.77 14.66 17.9034 14.66C19.1967 14.66 20.2434 15.08 21.0434 15.92C21.8434 16.76 22.2434 17.8667 22.2434 19.24C22.2434 20.72 21.7767 21.9267 20.8434 22.86C19.91 23.7933 18.71 24.26 17.2434 24.26C15.8567 24.26 14.73 23.88 13.8634 23.12C13.01 22.3467 12.5567 21.3133 12.5034 20.02H14.7634C14.8167 20.74 15.0767 21.3133 15.5434 21.74C16.01 22.1667 16.5967 22.38 17.3034 22.38C18.13 22.38 18.77 22.12 19.2234 21.6C19.6767 21.0667 19.9034 20.32 19.9034 19.36C19.9034 18.4267 19.67 17.7067 19.2034 17.2C18.7367 16.68 18.09 16.42 17.2634 16.42C16.2634 16.42 15.4834 16.84 14.9234 17.68L12.9234 17.62L14.2634 10.08H21.4834Z" fill="white"/>
</svg>
