<svg width="74" height="71" viewBox="0 0 74 71" fill="none" xmlns="http://www.w3.org/2000/svg">
<path d="M34.6818 70.1585C52.7951 70.1585 67.4788 55.4748 67.4788 37.3615C67.4788 19.2482 52.7951 4.56445 34.6818 4.56445C16.5685 4.56445 1.88477 19.2482 1.88477 37.3615C1.88477 55.4748 16.5685 70.1585 34.6818 70.1585Z" fill="url(#paint0_linear_809_31791)"/>
<path d="M34.6823 65.6029C50.2799 65.6029 62.9242 52.9586 62.9242 37.361C62.9242 21.7635 50.2799 9.11914 34.6823 9.11914C19.0848 9.11914 6.44043 21.7635 6.44043 37.361C6.44043 52.9586 19.0848 65.6029 34.6823 65.6029Z" fill="url(#paint1_linear_809_31791)"/>
<path d="M31.9406 23.2793H37.4146C40.3048 23.2793 42.6452 25.6276 42.6452 28.5099V36.717H26.7021V28.5099C26.7021 25.6197 29.0504 23.2793 31.9327 23.2793H31.9406Z" fill="url(#paint2_linear_809_31791)"/>
<path d="M39.3546 21.5597C39.3546 22.6513 38.9777 23.6566 38.3494 24.4577C37.4933 25.5336 36.166 26.2326 34.6817 26.2326C33.1973 26.2326 31.8701 25.5336 31.0219 24.4577C30.3936 23.6645 30.0166 22.6513 30.0166 21.5597C30.0166 21.0178 30.103 20.5073 30.2758 20.0282C30.4486 19.5334 30.6999 19.07 31.0219 18.6617C31.8701 17.5857 33.1973 16.8867 34.6817 16.8867C36.166 16.8867 37.4933 17.5857 38.3494 18.6617C38.6714 19.07 38.9227 19.5334 39.0955 20.0282C39.2604 20.5073 39.3546 21.0256 39.3546 21.5597Z" fill="url(#paint3_linear_809_31791)"/>
<path d="M17.215 28.5332H22.689C25.5792 28.5332 27.9196 30.8815 27.9196 33.7638V41.9709H11.9766V33.7638C11.9766 30.8736 14.3248 28.5332 17.2071 28.5332H17.215Z" fill="url(#paint4_linear_809_31791)"/>
<path d="M24.6213 26.8058C24.6213 27.8974 24.2443 28.9027 23.616 29.7038C22.7599 30.7797 21.4326 31.4787 19.9483 31.4787C18.464 31.4787 17.1367 30.7797 16.2885 29.7038C15.6602 28.9106 15.2832 27.8974 15.2832 26.8058C15.2832 26.2639 15.3696 25.7534 15.5424 25.2743C15.7152 24.7795 15.9665 24.3161 16.2885 23.9077C17.1367 22.8318 18.464 22.1328 19.9483 22.1328C21.4326 22.1328 22.7599 22.8318 23.616 23.9077C23.938 24.3161 24.1893 24.7795 24.3621 25.2743C24.527 25.7534 24.6213 26.2717 24.6213 26.8058Z" fill="url(#paint5_linear_809_31791)"/>
<path d="M46.674 28.5332H52.148C55.0382 28.5332 57.3786 30.8815 57.3786 33.7638V41.9709H41.4355V33.7638C41.4355 30.8736 43.7838 28.5332 46.6661 28.5332H46.674Z" fill="url(#paint6_linear_809_31791)"/>
<path d="M54.088 26.8058C54.088 27.8974 53.7111 28.9027 53.0828 29.7038C52.2267 30.7797 50.8994 31.4787 49.4151 31.4787C47.9307 31.4787 46.6035 30.7797 45.7553 29.7038C45.127 28.9106 44.75 27.8974 44.75 26.8058C44.75 26.2639 44.8364 25.7534 45.0092 25.2743C45.182 24.7795 45.4333 24.3161 45.7553 23.9077C46.6035 22.8318 47.9307 22.1328 49.4151 22.1328C50.8994 22.1328 52.2267 22.8318 53.0828 23.9077C53.4048 24.3161 53.6561 24.7795 53.8289 25.2743C53.9938 25.7534 54.088 26.2717 54.088 26.8058Z" fill="url(#paint7_linear_809_31791)"/>
<path d="M31.9406 33.332H37.4146C40.3048 33.332 42.6452 35.6803 42.6452 38.5626V46.7697H26.7021V38.5626C26.7021 35.6724 29.0504 33.332 31.9327 33.332H31.9406Z" fill="url(#paint8_linear_809_31791)"/>
<path d="M39.3546 31.6046C39.3546 32.6963 38.9777 33.7015 38.3494 34.5026C37.4933 35.5786 36.166 36.2775 34.6817 36.2775C33.1973 36.2775 31.8701 35.5786 31.0219 34.5026C30.3936 33.7094 30.0166 32.6963 30.0166 31.6046C30.0166 31.0627 30.103 30.5522 30.2758 30.0731C30.4486 29.5783 30.6999 29.115 31.0219 28.7066C31.8701 27.6306 33.1973 26.9316 34.6817 26.9316C36.166 26.9316 37.4933 27.6306 38.3494 28.7066C38.6714 29.115 38.9227 29.5783 39.0955 30.0731C39.2604 30.5522 39.3546 31.0705 39.3546 31.6046Z" fill="url(#paint9_linear_809_31791)"/>
<path d="M17.215 38.5859H22.689C25.5792 38.5859 27.9196 40.9342 27.9196 43.8165V52.0236H11.9766V43.8165C11.9766 40.9263 14.3248 38.5859 17.2071 38.5859H17.215Z" fill="url(#paint10_linear_809_31791)"/>
<path d="M24.6213 36.8585C24.6213 37.9502 24.2443 38.9554 23.616 39.7565C22.7599 40.8325 21.4326 41.5314 19.9483 41.5314C18.464 41.5314 17.1367 40.8325 16.2885 39.7565C15.6602 38.9633 15.2832 37.9502 15.2832 36.8585C15.2832 36.3166 15.3696 35.8061 15.5424 35.327C15.7152 34.8322 15.9665 34.3689 16.2885 33.9605C17.1367 32.8845 18.464 32.1855 19.9483 32.1855C21.4326 32.1855 22.7599 32.8845 23.616 33.9605C23.938 34.3689 24.1893 34.8322 24.3621 35.327C24.527 35.8061 24.6213 36.3244 24.6213 36.8585Z" fill="url(#paint11_linear_809_31791)"/>
<path d="M46.674 38.5859H52.148C55.0382 38.5859 57.3786 40.9342 57.3786 43.8165V52.0236H41.4355V43.8165C41.4355 40.9263 43.7838 38.5859 46.6661 38.5859H46.674Z" fill="url(#paint12_linear_809_31791)"/>
<path d="M54.088 36.8585C54.088 37.9502 53.7111 38.9554 53.0828 39.7565C52.2267 40.8325 50.8994 41.5314 49.4151 41.5314C47.9307 41.5314 46.6035 40.8325 45.7553 39.7565C45.127 38.9633 44.75 37.9502 44.75 36.8585C44.75 36.3166 44.8364 35.8061 45.0092 35.327C45.182 34.8322 45.4333 34.3689 45.7553 33.9605C46.6035 32.8845 47.9307 32.1855 49.4151 32.1855C50.8994 32.1855 52.2267 32.8845 53.0828 33.9605C53.4048 34.3689 53.6561 34.8322 53.8289 35.327C53.9938 35.8061 54.088 36.3244 54.088 36.8585Z" fill="url(#paint13_linear_809_31791)"/>
<path d="M31.9406 43.3691H37.4146C40.3048 43.3691 42.6452 45.7174 42.6452 48.5997V56.8068H26.7021V48.5997C26.7021 45.7095 29.0504 43.3691 31.9327 43.3691H31.9406Z" fill="url(#paint14_linear_809_31791)"/>
<path d="M39.3546 41.6417C39.3546 42.7334 38.9777 43.7386 38.3494 44.5397C37.4933 45.6157 36.166 46.3147 34.6817 46.3147C33.1973 46.3147 31.8701 45.6157 31.0219 44.5397C30.3936 43.7465 30.0166 42.7334 30.0166 41.6417C30.0166 41.0998 30.103 40.5893 30.2758 40.1102C30.4486 39.6154 30.6999 39.1521 31.0219 38.7437C31.8701 37.6677 33.1973 36.9688 34.6817 36.9688C36.166 36.9688 37.4933 37.6677 38.3494 38.7437C38.6714 39.1521 38.9227 39.6154 39.0955 40.1102C39.2604 40.5893 39.3546 41.1076 39.3546 41.6417Z" fill="url(#paint15_linear_809_31791)"/>
<path d="M73.7309 45.6077L60.1911 37.542L46.6514 45.6077V61.7864H73.7309V45.6077Z" fill="url(#paint16_linear_809_31791)"/>
<path d="M71.1391 42.2695H49.4629V56.1706H71.1391V42.2695Z" fill="url(#paint17_linear_809_31791)"/>
<path d="M73.7309 63.8753H46.6514V45.5762L60.1911 55.3776L73.7309 45.5762V63.8753Z" fill="url(#paint18_linear_809_31791)"/>
<path d="M26.7104 21.858L22.4616 16.8473H4.09963C1.83776 16.8473 0 15.0095 0 12.7477V4.25783C0 1.99597 1.83776 0.158203 4.09963 0.158203H22.6108C24.8727 0.158203 26.7104 1.99597 26.7104 4.25783V21.858Z" fill="url(#paint19_linear_809_31791)"/>
<g style="mix-blend-mode:multiply">
<path d="M21.7552 3.88889H4.95616C4.73626 3.88889 4.56348 3.7161 4.56348 3.4962C4.56348 3.2763 4.73626 3.10352 4.95616 3.10352H21.7552C21.9751 3.10352 22.1479 3.2763 22.1479 3.4962C22.1479 3.7161 21.9751 3.88889 21.7552 3.88889Z" fill="#F0EBFF"/>
</g>
<g style="mix-blend-mode:multiply">
<path d="M21.7552 7.28146H4.95616C4.73626 7.28146 4.56348 7.10868 4.56348 6.88878C4.56348 6.66888 4.73626 6.49609 4.95616 6.49609H21.7552C21.9751 6.49609 22.1479 6.66888 22.1479 6.88878C22.1479 7.10868 21.9751 7.28146 21.7552 7.28146Z" fill="#F0EBFF"/>
</g>
<g style="mix-blend-mode:multiply">
<path d="M21.7552 10.6662H4.95616C4.73626 10.6662 4.56348 10.4934 4.56348 10.2735C4.56348 10.0536 4.73626 9.88086 4.95616 9.88086H21.7552C21.9751 9.88086 22.1479 10.0536 22.1479 10.2735C22.1479 10.4934 21.9751 10.6662 21.7552 10.6662Z" fill="#F0EBFF"/>
</g>
<g style="mix-blend-mode:multiply">
<path d="M21.7552 14.0598H4.95616C4.73626 14.0598 4.56348 13.887 4.56348 13.6671C4.56348 13.4472 4.73626 13.2744 4.95616 13.2744H21.7552C21.9751 13.2744 22.1479 13.4472 22.1479 13.6671C22.1479 13.887 21.9751 14.0598 21.7552 14.0598Z" fill="#F0EBFF"/>
</g>
<path d="M9.86428 56.5478C14.4744 56.0374 16.43 51.8121 16.7206 49.6287C17.0111 47.4533 18.2599 45.9925 19.7835 46.8957C21.315 47.791 21.1579 53.375 20.0662 55.6996C24.158 55.3541 28.7917 55.6839 29.0273 57.7023C29.2629 59.7207 29.043 67.653 26.2 68.5483C23.3569 69.4515 15.7938 68.8075 13.7362 68.3441C11.6785 67.8886 10.147 64.8571 8.25427 64.8021C6.36153 64.7471 4.46094 64.7 4.46094 64.7L4.68084 56.595C4.68084 56.595 7.54744 56.7913 9.85643 56.5321L9.86428 56.5478Z" fill="url(#paint20_linear_809_31791)"/>
<path d="M24.3074 60.0428C23.8833 60.0428 23.4671 60.0428 23.043 60.0192C22.4068 59.9957 21.7471 59.9171 21.3152 59.4773C20.9775 59.1396 20.8518 58.6527 20.7811 58.2678C20.6319 57.4275 20.7497 56.8071 21.1424 56.4144C21.2209 56.3358 21.3387 56.3358 21.4173 56.4144C21.4958 56.4929 21.4958 56.6107 21.4173 56.6893C21.1267 56.9877 21.0403 57.4982 21.166 58.1972C21.2288 58.527 21.3309 58.9354 21.5901 59.2024C21.9513 59.5637 22.5325 59.6108 23.0587 59.6344C24.6451 59.6972 26.263 59.6187 27.818 59.5559C28.0693 59.548 28.3442 59.5323 28.5641 59.4145C28.949 59.2103 29.0825 58.6998 29.0432 58.315C28.9961 57.8673 28.7762 57.4511 28.517 57.0034C28.462 56.9092 28.4935 56.7914 28.5877 56.7364C28.6819 56.6814 28.7997 56.7128 28.8547 56.8071C29.1296 57.2783 29.3731 57.7495 29.428 58.2757C29.483 58.8098 29.2945 59.4695 28.7448 59.7679C28.4463 59.925 28.1086 59.9407 27.8337 59.9485C26.6792 59.9957 25.4855 60.0506 24.3074 60.0506V60.0428Z" fill="#E07E58"/>
<path d="M23.4356 63.0431C23.1293 63.0431 22.8309 63.0352 22.5246 63.0117C22.0455 62.9803 21.4958 62.9096 20.9931 62.6583C20.4434 62.3834 20.0664 61.9043 19.9722 61.3938C19.8936 60.9619 20.0193 60.4906 20.3099 60.0901C20.5455 59.7681 20.891 59.4932 21.3309 59.2812C21.4251 59.2341 21.5429 59.2812 21.59 59.3754C21.6371 59.4697 21.59 59.5875 21.5036 59.6346C21.1188 59.8231 20.8204 60.0587 20.624 60.3257C20.3963 60.632 20.302 61.0011 20.357 61.3231C20.4277 61.7158 20.7261 62.0849 21.1659 62.3049C21.5979 62.5248 22.1084 62.5876 22.5482 62.619C24.3467 62.7447 26.1609 62.4462 27.9122 62.1478C28.1636 62.1085 28.3756 62.0614 28.5248 61.9357C28.7683 61.7315 28.7997 61.3153 28.8076 60.954C28.8076 60.4907 28.7997 60.0194 28.517 59.7367C28.4384 59.6582 28.4384 59.5404 28.517 59.4618C28.5955 59.3833 28.7212 59.3833 28.7919 59.4618C29.1845 59.8467 29.2081 60.4121 29.2003 60.9619C29.2003 61.4174 29.1531 61.9279 28.784 62.242C28.5405 62.4462 28.2185 62.5012 27.9829 62.5405C26.4986 62.7918 24.975 63.0431 23.4356 63.0431Z" fill="#E07E58"/>
<path d="M23.4589 66.2865C22.8777 66.2865 22.1945 66.2394 21.5426 66.0588C20.9457 65.8938 20.553 65.6425 20.3488 65.2812C20.0661 64.7864 20.1918 64.1817 20.3253 63.6634C20.3803 63.4435 20.4509 63.2 20.5845 62.9801C20.7572 62.7131 21.0007 62.5481 21.2677 62.5167C21.3698 62.5089 21.4719 62.5874 21.4798 62.6895C21.4876 62.7995 21.4091 62.8937 21.307 62.9016C21.1656 62.9173 21.0164 63.0194 20.9143 63.1843C20.8044 63.3571 20.7494 63.5613 20.7023 63.7576C20.5766 64.221 20.4745 64.7079 20.6866 65.077C20.8358 65.3441 21.1499 65.5326 21.6447 65.6661C22.595 65.9174 23.5924 65.8938 24.2678 65.8467C25.3124 65.776 26.3569 65.6189 27.3622 65.3598C27.5585 65.3126 27.7392 65.2577 27.8963 65.1791C28.124 65.0535 28.3125 64.8571 28.4224 64.6215C28.556 64.3309 28.5717 63.9618 28.4696 63.577C28.3675 63.1921 28.1633 62.8466 27.9826 62.556C27.9277 62.4618 27.9512 62.3439 28.0455 62.289C28.1397 62.234 28.2575 62.2576 28.3125 62.3518C28.5167 62.666 28.7366 63.0508 28.8465 63.4906C28.9722 63.954 28.9408 64.4173 28.7759 64.7943C28.6345 65.1085 28.3832 65.3755 28.0769 65.5404C27.8805 65.6425 27.6685 65.7053 27.4486 65.7603C26.4198 66.0195 25.3517 66.1844 24.2835 66.2551C24.0401 66.2708 23.7574 66.2865 23.4511 66.2865H23.4589Z" fill="#E07E58"/>
<path d="M23.8985 69.043C23.5294 69.043 23.1524 69.0116 22.7675 68.9488C22.3984 68.886 21.9665 68.7917 21.6131 68.5325C21.134 68.187 20.8748 67.5822 20.9533 66.9932C21.024 66.4513 21.3931 66.0272 21.9822 65.7916C22.0843 65.7523 22.1942 65.7995 22.2335 65.9016C22.2728 66.0036 22.2256 66.1136 22.1235 66.1529C21.8015 66.2785 21.4089 66.5377 21.3382 67.0403C21.2832 67.4801 21.4795 67.9514 21.8408 68.2105C22.1314 68.4226 22.5005 68.509 22.8304 68.5561C24.4954 68.8231 26.0975 68.4619 27.2284 67.5587C27.362 67.4487 27.5112 67.3231 27.5897 67.1581C27.6683 66.9932 27.6761 66.7969 27.6761 66.6241C27.6761 66.3021 27.6447 65.9801 27.574 65.6659C27.5504 65.556 27.6211 65.4539 27.7232 65.4303C27.8253 65.4068 27.9353 65.4775 27.9588 65.5796C28.0295 65.9251 28.0688 66.2707 28.0688 66.6241C28.0688 66.844 28.0531 67.0953 27.9431 67.3231C27.8332 67.5587 27.6447 67.7236 27.4719 67.865C26.5216 68.6268 25.2572 69.0273 23.8985 69.0273V69.043Z" fill="#E07E58"/>
<path d="M7.626 56.6267C7.74381 56.9801 7.92444 64.3626 7.37468 64.8024C6.82492 65.2422 3.61276 64.6296 3.61276 64.6296C3.61276 64.6296 3.44783 57.043 3.68345 56.5168C3.91906 55.9906 7.21761 56.4068 7.626 56.6267Z" fill="url(#paint21_linear_809_31791)"/>
<path d="M6.39293 56.0608C6.53429 56.4613 6.55785 64.9669 5.87458 65.4852C5.19131 66.0036 1.30373 65.3831 1.30373 65.3831C1.30373 65.3831 1.29588 56.6498 1.59432 56.0372C1.89276 55.4246 5.89814 55.8252 6.39293 56.0608Z" fill="url(#paint22_linear_809_31791)"/>
<defs>
<linearGradient id="paint0_linear_809_31791" x1="34.4933" y1="1.56434" x2="34.8467" y2="69.0276" gradientUnits="userSpaceOnUse">
<stop stop-color="#9571CB"/>
<stop offset="1" stop-color="#6237C0"/>
</linearGradient>
<linearGradient id="paint1_linear_809_31791" x1="34.5174" y1="6.54313" x2="34.8237" y2="64.6212" gradientUnits="userSpaceOnUse">
<stop stop-color="#F5F0FF"/>
<stop offset="1" stop-color="#D2C1F7"/>
</linearGradient>
<linearGradient id="paint2_linear_809_31791" x1="35.4747" y1="37.6201" x2="33.4877" y2="24.6066" gradientUnits="userSpaceOnUse">
<stop stop-color="#263681"/>
<stop offset="1" stop-color="#1A1248"/>
</linearGradient>
<linearGradient id="paint3_linear_809_31791" x1="34.6817" y1="17.1145" x2="34.6817" y2="28.8243" gradientUnits="userSpaceOnUse">
<stop stop-color="#FFC085"/>
<stop offset="1" stop-color="#FA976E"/>
</linearGradient>
<linearGradient id="paint4_linear_809_31791" x1="22.8068" y1="27.63" x2="17.8511" y2="44.7432" gradientUnits="userSpaceOnUse">
<stop stop-color="#9571CB"/>
<stop offset="1" stop-color="#6237C0"/>
</linearGradient>
<linearGradient id="paint5_linear_809_31791" x1="19.9483" y1="22.3684" x2="19.9483" y2="34.0783" gradientUnits="userSpaceOnUse">
<stop stop-color="#FFC085"/>
<stop offset="1" stop-color="#FA976E"/>
</linearGradient>
<linearGradient id="paint6_linear_809_31791" x1="48.5196" y1="28.5175" x2="49.9332" y2="43.1175" gradientUnits="userSpaceOnUse">
<stop stop-color="#F2830B"/>
<stop offset="1" stop-color="#FAAD1E"/>
</linearGradient>
<linearGradient id="paint7_linear_809_31791" x1="49.4151" y1="22.3684" x2="49.4151" y2="34.0783" gradientUnits="userSpaceOnUse">
<stop stop-color="#FFC085"/>
<stop offset="1" stop-color="#FA976E"/>
</linearGradient>
<linearGradient id="paint8_linear_809_31791" x1="35.4747" y1="47.6729" x2="33.4877" y2="34.6515" gradientUnits="userSpaceOnUse">
<stop stop-color="#9571CB"/>
<stop offset="1" stop-color="#6237C0"/>
</linearGradient>
<linearGradient id="paint9_linear_809_31791" x1="-0.000229754" y1="27.1673" x2="0.78514" y2="38.8771" gradientUnits="userSpaceOnUse">
<stop stop-color="#FFC085"/>
<stop offset="1" stop-color="#FA976E"/>
</linearGradient>
<linearGradient id="paint10_linear_809_31791" x1="22.8068" y1="37.6749" x2="17.8511" y2="54.796" gradientUnits="userSpaceOnUse">
<stop stop-color="#F2830B"/>
<stop offset="1" stop-color="#FAAD1E"/>
</linearGradient>
<linearGradient id="paint11_linear_809_31791" x1="19.9483" y1="32.4212" x2="19.9483" y2="44.131" gradientUnits="userSpaceOnUse">
<stop stop-color="#FFC085"/>
<stop offset="1" stop-color="#FA976E"/>
</linearGradient>
<linearGradient id="paint12_linear_809_31791" x1="48.5196" y1="38.5702" x2="49.9332" y2="53.1624" gradientUnits="userSpaceOnUse">
<stop stop-color="#9571CB"/>
<stop offset="1" stop-color="#6237C0"/>
</linearGradient>
<linearGradient id="paint13_linear_809_31791" x1="49.4151" y1="32.4212" x2="49.4151" y2="44.131" gradientUnits="userSpaceOnUse">
<stop stop-color="#FFC085"/>
<stop offset="1" stop-color="#FA976E"/>
</linearGradient>
<linearGradient id="paint14_linear_809_31791" x1="35.4747" y1="57.71" x2="33.4877" y2="44.6964" gradientUnits="userSpaceOnUse">
<stop stop-color="#263681"/>
<stop offset="1" stop-color="#1A1248"/>
</linearGradient>
<linearGradient id="paint15_linear_809_31791" x1="-0.000229754" y1="37.2044" x2="0.78514" y2="48.9142" gradientUnits="userSpaceOnUse">
<stop stop-color="#FFC085"/>
<stop offset="1" stop-color="#FA976E"/>
</linearGradient>
<linearGradient id="paint16_linear_809_31791" x1="60.8273" y1="25.8871" x2="60.0184" y2="61.4094" gradientUnits="userSpaceOnUse">
<stop stop-color="#FFE14D"/>
<stop offset="1" stop-color="#F7A523"/>
</linearGradient>
<linearGradient id="paint17_linear_809_31791" x1="60.1753" y1="41.8297" x2="60.3717" y2="53.2569" gradientUnits="userSpaceOnUse">
<stop stop-color="white"/>
<stop offset="1" stop-color="#F5F0FF"/>
</linearGradient>
<linearGradient id="paint18_linear_809_31791" x1="60.5917" y1="35.0679" x2="60.0105" y2="63.781" gradientUnits="userSpaceOnUse">
<stop stop-color="#FFE14D"/>
<stop offset="1" stop-color="#F7A523"/>
</linearGradient>
<linearGradient id="paint19_linear_809_31791" x1="9.18883" y1="-0.744972" x2="19.9405" y2="23.1303" gradientUnits="userSpaceOnUse">
<stop stop-color="#FAAD1E"/>
<stop offset="1" stop-color="#F2830B"/>
</linearGradient>
<linearGradient id="paint20_linear_809_31791" x1="29.0404" y1="57.9338" x2="4.56156" y2="57.2714" gradientUnits="userSpaceOnUse">
<stop stop-color="#FFC085"/>
<stop offset="1" stop-color="#FA976E"/>
</linearGradient>
<linearGradient id="paint21_linear_809_31791" x1="5.62384" y1="56.8077" x2="5.69106" y2="65.8228" gradientUnits="userSpaceOnUse">
<stop stop-color="#F5F0FF"/>
<stop offset="1" stop-color="#D2C1F7"/>
</linearGradient>
<linearGradient id="paint22_linear_809_31791" x1="3.97611" y1="55.9796" x2="3.77905" y2="65.6258" gradientUnits="userSpaceOnUse">
<stop stop-color="#263681"/>
<stop offset="1" stop-color="#1A1248"/>
</linearGradient>
</defs>
</svg>
