<svg width="397" height="325" viewBox="0 0 397 325" fill="none" xmlns="http://www.w3.org/2000/svg">
<path d="M117.037 3.87328C102.166 2.45304 86.7695 8.6589 77.0439 20.0003C69.9633 28.2542 65.9393 38.7414 59.1262 47.2217C46.1999 63.3178 24.6389 70.594 11.7538 86.721C-1.53272 103.363 -3.12793 127.517 4.81722 147.267C12.7624 167.016 29.1364 182.557 47.7745 192.838C54.3097 196.44 61.3183 199.589 66.4333 205.034C74.5637 213.699 76.3647 226.646 75.1812 238.461C73.9976 250.286 70.2823 261.73 68.965 273.545C68.0388 281.923 68.5533 291.072 73.7506 297.71C78.5259 303.813 86.3476 306.633 93.9222 308.249C116.595 313.106 140.965 309.648 161.394 298.667C177.912 289.785 191.765 276.272 208.9 268.636C229.463 259.466 252.959 259.569 275.281 262.482C288.949 264.262 302.565 267.051 316.345 266.989C330.126 266.938 344.441 263.737 355.021 254.897C365.169 246.427 370.829 233.716 374.339 220.965C382.911 189.802 380.287 155.675 367.052 126.189C362.956 117.061 357.759 108.231 350.328 101.541C342.64 94.6147 332.987 90.3334 323.518 86.1755C294.023 73.2081 261.336 52.6454 228.887 49.4858C219.295 48.5493 209.569 50.0004 200.132 47.6642C185.641 44.0724 173.26 34.4189 161.487 25.7327C148.2 15.9351 134.008 5.48907 117.027 3.86299L117.037 3.87328Z" fill="url(#paint0_linear_809_31929)"/>
<path d="M277.988 245.975C277.216 245.975 276.444 245.975 275.683 245.954C275.395 245.954 275.168 245.717 275.179 245.429C275.179 245.141 275.426 244.914 275.704 244.925C277.072 244.945 278.431 244.945 279.81 244.925C280.057 244.904 280.324 245.151 280.335 245.429C280.335 245.717 280.108 245.944 279.83 245.954C279.223 245.954 278.616 245.964 278.009 245.964L277.988 245.975ZM285.975 245.758C285.707 245.758 285.47 245.542 285.46 245.275C285.45 244.986 285.666 244.75 285.944 244.729C287.312 244.657 288.671 244.565 290.04 244.451C290.318 244.431 290.575 244.637 290.595 244.925C290.616 245.213 290.41 245.46 290.122 245.48C288.753 245.594 287.374 245.686 286.005 245.758C286.005 245.758 285.985 245.758 285.975 245.758ZM269.518 245.727C269.518 245.727 269.498 245.727 269.487 245.727C268.108 245.645 266.739 245.553 265.371 245.439C265.083 245.419 264.877 245.172 264.897 244.884C264.918 244.595 265.175 244.4 265.453 244.41C266.812 244.523 268.18 244.626 269.549 244.698C269.837 244.719 270.053 244.956 270.033 245.244C270.023 245.522 269.786 245.727 269.518 245.727ZM296.225 244.863C295.968 244.863 295.752 244.667 295.71 244.41C295.68 244.132 295.875 243.875 296.163 243.834C297.522 243.669 298.88 243.484 300.228 243.288C300.506 243.247 300.774 243.443 300.815 243.721C300.856 243.999 300.661 244.266 300.383 244.307C299.024 244.513 297.656 244.698 296.287 244.863C296.266 244.863 296.246 244.863 296.225 244.863ZM259.278 244.781C259.278 244.781 259.237 244.781 259.216 244.781C257.847 244.606 256.489 244.41 255.131 244.194C254.853 244.153 254.657 243.885 254.698 243.607C254.739 243.33 255.007 243.134 255.285 243.175C256.633 243.391 257.992 243.577 259.34 243.752C259.618 243.793 259.823 244.05 259.782 244.328C259.751 244.585 259.525 244.781 259.268 244.781H259.278ZM306.393 243.278C306.146 243.278 305.94 243.103 305.889 242.856C305.837 242.578 306.023 242.311 306.301 242.259C307.649 242.002 308.987 241.734 310.325 241.436C310.613 241.374 310.88 241.549 310.932 241.827C310.994 242.105 310.819 242.383 310.541 242.434C309.192 242.733 307.844 243 306.496 243.258C306.465 243.258 306.434 243.258 306.403 243.258L306.393 243.278ZM316.438 241.014C316.211 241.014 316.006 240.86 315.944 240.633C315.872 240.355 316.036 240.077 316.314 240.005C317.642 239.655 318.959 239.295 320.266 238.914C320.544 238.832 320.822 238.997 320.904 239.264C320.987 239.542 320.822 239.82 320.554 239.902C319.227 240.283 317.899 240.654 316.572 240.993C316.53 241.004 316.489 241.014 316.438 241.014ZM326.297 238.081C326.081 238.081 325.886 237.947 325.813 237.731C325.721 237.463 325.865 237.165 326.143 237.083C327.44 236.65 328.726 236.197 330.012 235.734C330.28 235.642 330.579 235.775 330.671 236.043C330.764 236.311 330.63 236.609 330.362 236.702C329.066 237.175 327.769 237.628 326.462 238.06C326.41 238.081 326.349 238.091 326.297 238.091V238.081ZM335.94 234.489C335.735 234.489 335.549 234.366 335.467 234.17C335.364 233.902 335.488 233.604 335.745 233.501C337.011 232.986 338.266 232.441 339.522 231.885C339.779 231.772 340.088 231.885 340.201 232.143C340.314 232.4 340.201 232.709 339.944 232.822C338.688 233.378 337.422 233.923 336.146 234.448C336.085 234.479 336.012 234.489 335.951 234.489H335.94ZM345.316 230.249C345.131 230.249 344.946 230.146 344.853 229.961C344.73 229.703 344.832 229.395 345.09 229.271C346.314 228.664 347.529 228.046 348.743 227.398C349.001 227.264 349.309 227.357 349.443 227.614C349.577 227.861 349.484 228.18 349.227 228.314C348.013 228.962 346.788 229.59 345.553 230.197C345.481 230.239 345.398 230.249 345.326 230.249H345.316ZM354.373 225.371C354.198 225.371 354.023 225.278 353.93 225.113C353.786 224.866 353.868 224.558 354.115 224.414C355.299 223.724 356.462 223.014 357.625 222.293C357.872 222.149 358.181 222.221 358.335 222.458C358.489 222.695 358.407 223.014 358.17 223.168C356.997 223.899 355.824 224.609 354.63 225.299C354.548 225.35 354.455 225.371 354.373 225.371ZM363.069 219.865C362.905 219.865 362.74 219.782 362.647 219.638C362.483 219.401 362.544 219.082 362.781 218.918C363.903 218.146 365.025 217.364 366.126 216.551C366.352 216.386 366.682 216.427 366.846 216.664C367.011 216.89 366.97 217.22 366.733 217.384C365.622 218.197 364.5 219 363.357 219.772C363.265 219.834 363.172 219.865 363.069 219.865ZM371.292 213.69C371.148 213.69 370.994 213.628 370.901 213.504C370.716 213.288 370.747 212.959 370.963 212.784C372.033 211.889 373.062 210.983 374.03 210.088C374.236 209.892 374.565 209.902 374.761 210.118C374.956 210.324 374.946 210.654 374.73 210.849C373.752 211.755 372.702 212.681 371.622 213.587C371.529 213.669 371.405 213.71 371.292 213.71V213.69ZM378.713 206.568C378.589 206.568 378.466 206.527 378.373 206.434C378.157 206.249 378.146 205.919 378.332 205.703C378.939 205.014 379.536 204.314 380.112 203.604C380.39 203.264 380.668 202.914 380.936 202.564C381.11 202.338 381.43 202.297 381.656 202.472C381.882 202.647 381.924 202.966 381.749 203.192C381.471 203.552 381.193 203.902 380.915 204.252C380.328 204.983 379.721 205.693 379.104 206.393C379.001 206.506 378.857 206.568 378.723 206.568H378.713ZM384.836 198.314C384.743 198.314 384.651 198.293 384.568 198.242C384.321 198.098 384.249 197.779 384.393 197.532C385.093 196.389 385.773 195.196 386.411 193.981C386.544 193.734 386.853 193.631 387.111 193.765C387.358 193.899 387.46 194.208 387.327 194.465C386.678 195.7 385.989 196.914 385.279 198.077C385.186 198.232 385.011 198.324 384.836 198.324V198.314ZM389.467 189.144C389.406 189.144 389.333 189.134 389.272 189.103C389.014 188.99 388.881 188.691 388.994 188.434C389.498 187.199 389.992 185.912 390.435 184.616C390.527 184.348 390.816 184.204 391.093 184.297C391.361 184.389 391.505 184.688 391.412 184.955C390.949 186.273 390.466 187.58 389.951 188.835C389.869 189.031 389.673 189.154 389.478 189.154L389.467 189.144ZM392.719 179.388C392.719 179.388 392.637 179.388 392.586 179.367C392.308 179.295 392.143 179.017 392.215 178.739C392.555 177.453 392.874 176.105 393.172 174.756C393.234 174.478 393.512 174.304 393.779 174.365C394.057 174.427 394.232 174.695 394.171 174.972C393.872 176.341 393.553 177.689 393.203 178.997C393.141 179.223 392.936 179.377 392.709 179.377L392.719 179.388ZM394.809 169.312C394.809 169.312 394.757 169.312 394.726 169.312C394.448 169.271 394.253 169.003 394.294 168.725C394.5 167.398 394.695 166.029 394.86 164.66C394.891 164.382 395.159 164.177 395.436 164.207C395.714 164.238 395.92 164.496 395.889 164.784C395.725 166.163 395.529 167.532 395.323 168.88C395.282 169.137 395.066 169.312 394.819 169.312H394.809ZM395.982 159.082C395.982 159.082 395.951 159.082 395.941 159.082C395.653 159.062 395.447 158.815 395.467 158.526C395.57 157.168 395.653 155.799 395.725 154.43C395.735 154.142 395.951 153.926 396.26 153.947C396.548 153.957 396.764 154.204 396.743 154.482C396.671 155.861 396.589 157.23 396.486 158.598C396.466 158.866 396.239 159.072 395.972 159.072L395.982 159.082ZM302.03 150.211C301.762 150.211 301.536 150.005 301.515 149.737C301.494 149.449 301.7 149.202 301.988 149.182C303.254 149.079 304.561 148.883 305.992 148.585C306.259 148.523 306.548 148.708 306.599 148.986C306.661 149.264 306.475 149.542 306.198 149.593C304.726 149.902 303.378 150.098 302.06 150.2C302.05 150.2 302.03 150.2 302.019 150.2L302.03 150.211ZM295.885 149.861C295.885 149.861 295.813 149.861 295.772 149.851C295.556 149.799 295.35 149.758 295.134 149.696C293.981 149.398 292.849 148.966 291.779 148.41C291.522 148.276 291.429 147.967 291.563 147.72C291.697 147.463 292.005 147.37 292.252 147.494C293.251 148.008 294.311 148.42 295.391 148.698C295.587 148.749 295.793 148.801 295.988 148.842C296.266 148.904 296.441 149.182 296.379 149.46C296.328 149.696 296.112 149.861 295.875 149.861H295.885ZM396.445 148.811C396.157 148.811 395.93 148.574 395.941 148.286C395.972 146.917 395.982 145.549 395.982 144.18C395.982 143.892 396.208 143.665 396.496 143.665C396.785 143.665 397.011 143.892 397.011 144.18C397.011 145.549 397.001 146.928 396.97 148.307C396.97 148.585 396.733 148.811 396.455 148.811H396.445ZM312.043 147.988C311.827 147.988 311.621 147.854 311.56 147.638C311.467 147.37 311.621 147.082 311.889 146.99C313.134 146.578 314.421 146.104 315.728 145.59C315.995 145.487 316.294 145.61 316.397 145.878C316.5 146.146 316.376 146.444 316.108 146.547C314.781 147.072 313.474 147.556 312.218 147.967C312.167 147.988 312.105 147.998 312.054 147.998L312.043 147.988ZM287.158 144.715C287.024 144.715 286.88 144.664 286.777 144.55C285.851 143.542 284.997 142.399 284.256 141.175C284.112 140.928 284.184 140.619 284.431 140.465C284.678 140.321 284.987 140.393 285.141 140.64C285.851 141.813 286.654 142.893 287.539 143.851C287.734 144.056 287.714 144.386 287.508 144.581C287.405 144.674 287.282 144.715 287.158 144.715ZM321.573 144.108C321.378 144.108 321.193 143.995 321.11 143.809C320.987 143.552 321.1 143.243 321.357 143.12C322.592 142.533 323.817 141.936 325.042 141.319C325.299 141.185 325.608 141.288 325.731 141.545C325.855 141.803 325.762 142.111 325.505 142.235C324.28 142.852 323.035 143.459 321.8 144.046C321.728 144.077 321.656 144.098 321.584 144.098L321.573 144.108ZM330.753 139.456C330.568 139.456 330.393 139.353 330.301 139.178C330.167 138.931 330.259 138.612 330.517 138.478C331.721 137.84 332.935 137.192 334.139 136.533C334.386 136.399 334.705 136.492 334.839 136.739C334.973 136.986 334.88 137.305 334.633 137.439C333.429 138.098 332.215 138.746 331 139.384C330.928 139.425 330.846 139.446 330.764 139.446L330.753 139.456ZM396.424 138.519C396.147 138.519 395.92 138.293 395.91 138.015C395.879 136.646 395.848 135.278 395.797 133.909C395.797 133.621 396.013 133.384 396.291 133.374C396.569 133.353 396.816 133.59 396.826 133.868C396.877 135.247 396.908 136.616 396.939 137.995C396.939 138.283 396.723 138.509 396.435 138.519H396.424ZM282.249 135.782C282.023 135.782 281.817 135.638 281.755 135.411C281.364 134.074 281.086 132.684 280.921 131.295C280.89 131.017 281.086 130.76 281.374 130.718C281.652 130.677 281.909 130.883 281.94 131.171C282.095 132.499 282.372 133.837 282.743 135.123C282.825 135.401 282.661 135.679 282.393 135.761C282.342 135.772 282.3 135.782 282.249 135.782ZM339.779 134.506C339.604 134.506 339.429 134.413 339.337 134.248C339.193 134.001 339.285 133.682 339.522 133.549C340.705 132.869 341.889 132.17 343.062 131.47C343.299 131.326 343.618 131.398 343.772 131.645C343.916 131.892 343.844 132.2 343.597 132.355C342.424 133.065 341.23 133.765 340.037 134.454C339.954 134.495 339.872 134.526 339.779 134.526V134.506ZM348.558 129.134C348.393 129.134 348.229 129.051 348.126 128.897C347.971 128.66 348.033 128.341 348.27 128.187C349.412 127.435 350.544 126.674 351.666 125.892C351.903 125.727 352.222 125.789 352.386 126.015C352.551 126.252 352.489 126.571 352.263 126.736C351.131 127.528 349.999 128.3 348.836 129.051C348.754 129.113 348.651 129.134 348.558 129.134ZM396.002 128.238C395.735 128.238 395.508 128.032 395.488 127.754C395.395 126.386 395.282 125.027 395.138 123.669C395.107 123.391 395.313 123.133 395.601 123.103C395.858 123.082 396.136 123.278 396.167 123.566C396.301 124.935 396.424 126.314 396.517 127.682C396.538 127.971 396.322 128.207 396.044 128.228C396.033 128.228 396.023 128.228 396.002 128.228V128.238ZM281.498 125.593C281.498 125.593 281.446 125.593 281.426 125.593C281.148 125.552 280.952 125.295 280.993 125.007C281.189 123.638 281.487 122.269 281.878 120.921C281.961 120.653 282.239 120.489 282.517 120.571C282.784 120.653 282.949 120.931 282.866 121.209C282.486 122.516 282.198 123.844 282.012 125.161C281.971 125.418 281.755 125.603 281.508 125.603L281.498 125.593ZM356.935 123.164C356.781 123.164 356.627 123.092 356.534 122.969C356.359 122.742 356.4 122.423 356.627 122.248C357.707 121.404 358.778 120.53 359.807 119.665C360.023 119.48 360.352 119.511 360.537 119.727C360.723 119.943 360.692 120.272 360.476 120.458C359.436 121.332 358.356 122.207 357.265 123.061C357.172 123.133 357.059 123.175 356.946 123.175L356.935 123.164ZM394.86 118.019C394.613 118.019 394.397 117.844 394.356 117.586C394.14 116.218 393.882 114.869 393.615 113.562C393.553 113.284 393.738 113.007 394.016 112.955C394.294 112.893 394.562 113.079 394.623 113.356C394.901 114.674 395.159 116.053 395.375 117.432C395.416 117.71 395.231 117.977 394.953 118.019C394.922 118.019 394.901 118.019 394.87 118.019H394.86ZM364.706 116.423C364.572 116.423 364.438 116.372 364.335 116.269C364.14 116.063 364.14 115.744 364.345 115.538C365.333 114.581 366.301 113.593 367.206 112.615C367.402 112.41 367.721 112.399 367.937 112.595C368.143 112.79 368.153 113.109 367.968 113.326C367.042 114.314 366.064 115.312 365.066 116.279C364.963 116.372 364.839 116.423 364.706 116.423ZM284.626 115.837C284.544 115.837 284.472 115.816 284.4 115.785C284.143 115.662 284.04 115.353 284.174 115.096C284.77 113.892 285.47 112.677 286.222 111.473C286.376 111.236 286.695 111.164 286.932 111.308C287.168 111.463 287.24 111.782 287.096 112.019C286.355 113.192 285.686 114.386 285.089 115.559C284.997 115.744 284.822 115.847 284.626 115.847V115.837ZM371.611 108.797C371.498 108.797 371.385 108.766 371.292 108.684C371.066 108.509 371.035 108.19 371.21 107.964L371.622 107.439C372.311 106.554 372.99 105.627 373.639 104.681C373.803 104.444 374.122 104.382 374.359 104.547C374.596 104.711 374.658 105.03 374.493 105.257C373.834 106.214 373.145 107.161 372.445 108.067L372.033 108.602C371.93 108.735 371.776 108.797 371.632 108.797H371.611ZM392.596 107.974C392.38 107.974 392.174 107.83 392.102 107.603C391.886 106.893 391.67 106.193 391.433 105.494C391.237 104.907 391.021 104.32 390.805 103.734C390.702 103.466 390.836 103.168 391.104 103.075C391.371 102.972 391.67 103.106 391.762 103.374C391.989 103.97 392.195 104.567 392.4 105.164C392.637 105.874 392.864 106.585 393.08 107.305C393.162 107.573 393.008 107.861 392.73 107.943C392.678 107.953 392.627 107.964 392.586 107.964L392.596 107.974ZM290.276 107.253C290.163 107.253 290.05 107.212 289.947 107.14C289.731 106.955 289.69 106.636 289.875 106.42C290.719 105.38 291.645 104.331 292.613 103.301C292.808 103.096 293.138 103.085 293.343 103.281C293.549 103.476 293.559 103.796 293.364 104.012C292.417 105.03 291.511 106.07 290.678 107.079C290.575 107.202 290.431 107.264 290.276 107.264V107.253ZM377.282 100.224C377.2 100.224 377.117 100.204 377.035 100.163C376.788 100.029 376.695 99.7097 376.829 99.4627C377.478 98.2689 378.095 97.0442 378.661 95.8195C378.785 95.5622 379.093 95.449 379.34 95.5725C379.598 95.696 379.711 95.9944 379.598 96.2517C379.021 97.5073 378.393 98.7526 377.735 99.9567C377.642 100.132 377.467 100.224 377.282 100.224ZM297.378 99.8229C297.244 99.8229 297.1 99.7715 296.997 99.6583C296.801 99.4524 296.822 99.1231 297.028 98.9276C298.036 98.0013 299.086 97.0751 300.136 96.19C300.352 96.0047 300.681 96.0356 300.856 96.2517C301.042 96.4679 301.011 96.7972 300.795 96.9721C299.755 97.8469 298.726 98.7629 297.717 99.6788C297.614 99.7715 297.491 99.8126 297.367 99.8126L297.378 99.8229ZM388.798 98.4233C388.613 98.4233 388.428 98.3203 388.335 98.1454C387.718 96.9207 387.049 95.7269 386.349 94.5845C386.205 94.3375 386.277 94.0287 386.524 93.8744C386.771 93.7303 387.08 93.8023 387.234 94.0493C387.944 95.2123 388.623 96.437 389.251 97.6823C389.375 97.9396 389.282 98.2483 389.025 98.3718C388.953 98.413 388.87 98.4233 388.788 98.4233H388.798ZM305.302 93.2672C305.148 93.2672 304.994 93.1951 304.891 93.0613C304.716 92.8349 304.767 92.5056 304.994 92.3409C306.095 91.5279 307.227 90.7148 308.369 89.9429C308.606 89.7886 308.925 89.84 309.079 90.0767C309.244 90.3135 309.182 90.6325 308.945 90.7869C307.813 91.5587 306.692 92.3512 305.611 93.1642C305.518 93.2363 305.415 93.2672 305.302 93.2672ZM381.409 90.8177C381.357 90.8177 381.296 90.8177 381.244 90.7869C380.977 90.6942 380.833 90.4061 380.925 90.1385C381.162 89.4592 381.378 88.7594 381.584 88.0699C381.121 87.545 380.647 87.0304 380.164 86.5364C379.968 86.3306 379.968 86.0115 380.164 85.8057C380.369 85.6102 380.689 85.6102 380.894 85.8057C381.234 86.1556 381.574 86.5158 381.913 86.8863C381.975 86.6599 382.037 86.4438 382.088 86.2174C382.16 85.9395 382.438 85.7748 382.716 85.8469C382.994 85.9189 383.159 86.1968 383.086 86.4747C382.973 86.9172 382.85 87.3598 382.726 87.8023C383.045 88.1728 383.354 88.5433 383.663 88.9241C383.838 89.1505 383.807 89.4695 383.58 89.6445C383.354 89.8194 383.035 89.7886 382.86 89.5622C382.706 89.3666 382.541 89.1711 382.376 88.9755C382.222 89.4695 382.068 89.9635 381.903 90.4472C381.831 90.6634 381.625 90.7972 381.419 90.7972L381.409 90.8177ZM313.865 87.5656C313.69 87.5656 313.515 87.473 313.422 87.3186C313.278 87.0716 313.361 86.7628 313.597 86.6085C314.771 85.9086 315.985 85.2191 317.199 84.5707C317.446 84.4369 317.765 84.5295 317.899 84.7766C318.033 85.0235 317.94 85.3426 317.693 85.4764C316.489 86.1248 315.295 86.804 314.132 87.4935C314.05 87.545 313.958 87.5656 313.865 87.5656ZM322.963 82.7697C322.767 82.7697 322.582 82.6565 322.5 82.4712C322.376 82.2139 322.5 81.9052 322.747 81.792C323.992 81.2156 325.268 80.6599 326.534 80.135C326.801 80.0321 327.1 80.1556 327.203 80.4129C327.316 80.6702 327.182 80.9789 326.925 81.0818C325.669 81.5964 324.404 82.1522 323.169 82.7182C323.097 82.7491 323.024 82.7697 322.952 82.7697H322.963ZM375.882 82.6256C375.779 82.6256 375.666 82.5947 375.574 82.5227C374.483 81.7096 373.34 80.9686 372.188 80.2997C371.941 80.1556 371.858 79.8469 372.002 79.5999C372.146 79.3529 372.455 79.2705 372.702 79.4146C373.896 80.1041 375.069 80.876 376.191 81.7096C376.417 81.8743 376.469 82.2036 376.294 82.4301C376.191 82.5638 376.037 82.6359 375.882 82.6359V82.6256ZM383.776 80.8143C383.776 80.8143 383.735 80.8143 383.704 80.8143C383.426 80.7731 383.231 80.5158 383.261 80.2379C383.447 78.8794 383.57 77.5209 383.642 76.183C383.652 75.8949 383.91 75.6787 384.177 75.689C384.466 75.6993 384.682 75.9463 384.661 76.2242C384.589 77.593 384.466 78.9824 384.28 80.3614C384.249 80.6187 384.023 80.804 383.776 80.804V80.8143ZM254.554 80.2894C254.441 80.2894 254.338 80.2585 254.245 80.1865C254.019 80.0115 253.978 79.6925 254.153 79.4661C254.966 78.3957 255.861 77.3151 256.798 76.2654C256.983 76.0492 257.312 76.0287 257.528 76.2242C257.745 76.4094 257.765 76.7388 257.57 76.9549C256.654 77.9944 255.779 79.0544 254.976 80.1041C254.873 80.2379 254.719 80.31 254.564 80.31L254.554 80.2894ZM332.513 78.9515C332.297 78.9515 332.102 78.8177 332.03 78.6016C331.937 78.334 332.081 78.0458 332.359 77.9532C333.687 77.5106 335.014 77.1093 336.321 76.7491C336.599 76.677 336.877 76.8314 336.959 77.1093C337.031 77.3871 336.877 77.665 336.599 77.7371C335.302 78.087 333.995 78.4884 332.688 78.9309C332.637 78.9515 332.575 78.9618 332.524 78.9618L332.513 78.9515ZM366.846 77.7679C366.785 77.7679 366.733 77.7679 366.671 77.7371C365.426 77.2842 364.119 76.8932 362.781 76.5741C362.503 76.5021 362.339 76.2242 362.4 75.9566C362.462 75.6787 362.73 75.5141 363.018 75.5758C364.387 75.9052 365.724 76.3065 367.011 76.7697C367.278 76.8623 367.412 77.1607 367.32 77.4283C367.248 77.6342 367.042 77.7679 366.836 77.7679H366.846ZM342.465 76.3786C342.218 76.3786 342.002 76.2036 341.961 75.9566C341.91 75.6787 342.095 75.4112 342.373 75.3597C343.752 75.1127 345.131 74.9069 346.479 74.7525C346.757 74.7113 347.014 74.9172 347.045 75.2053C347.076 75.4832 346.87 75.7405 346.592 75.7714C345.265 75.9257 343.906 76.1213 342.558 76.3683C342.527 76.3683 342.496 76.3683 342.465 76.3683V76.3786ZM356.812 75.6067C356.812 75.6067 356.781 75.6067 356.771 75.6067C355.453 75.4935 354.085 75.4317 352.706 75.4317C352.417 75.4317 352.191 75.2053 352.191 74.9172C352.191 74.629 352.417 74.4026 352.706 74.4026C354.115 74.4026 355.515 74.4643 356.863 74.5878C357.152 74.6084 357.357 74.8657 357.326 75.1436C357.306 75.4112 357.079 75.617 356.812 75.617V75.6067ZM261.46 72.6839C261.326 72.6839 261.192 72.6324 261.089 72.5192C260.894 72.3134 260.904 71.984 261.11 71.7885C262.067 70.8725 263.107 69.9463 264.187 69.0098C264.403 68.8245 264.722 68.8451 264.918 69.0612C265.103 69.2773 265.083 69.5964 264.866 69.7919C263.796 70.7079 262.777 71.6341 261.83 72.5295C261.727 72.6221 261.604 72.6736 261.48 72.6736L261.46 72.6839ZM384.023 70.5432C383.755 70.5432 383.539 70.3374 383.508 70.0698C383.385 68.7113 383.2 67.3631 382.942 66.0458C382.891 65.7679 383.076 65.5003 383.354 65.4386C383.632 65.3871 383.899 65.5621 383.961 65.8502C384.219 67.1984 384.414 68.5878 384.538 69.9772C384.558 70.255 384.352 70.5123 384.074 70.5329C384.054 70.5329 384.044 70.5329 384.023 70.5329V70.5432ZM269.292 66.0149C269.137 66.0149 268.983 65.9428 268.89 65.8193C268.715 65.5929 268.757 65.2739 268.983 65.0989C270.064 64.255 271.165 63.4214 272.266 62.5981C272.492 62.4334 272.812 62.4746 272.987 62.701C273.151 62.9274 273.11 63.2464 272.884 63.4214C271.782 64.2344 270.691 65.0681 269.611 65.9017C269.518 65.9737 269.405 66.0149 269.292 66.0149ZM381.81 60.5192C381.604 60.5192 381.399 60.3854 381.327 60.1795C380.977 59.2121 380.575 58.2447 380.143 57.3082C380.009 57.02 379.875 56.7318 379.731 56.454C379.608 56.1967 379.711 55.8879 379.958 55.7644C380.215 55.6409 380.524 55.7438 380.647 56.0011C380.791 56.2893 380.936 56.5877 381.069 56.8862C381.512 57.8433 381.924 58.8416 382.294 59.8399C382.387 60.1075 382.253 60.4059 381.985 60.4986C381.924 60.5192 381.872 60.5294 381.81 60.5294V60.5192ZM277.566 59.8811C277.402 59.8811 277.247 59.809 277.144 59.6649C276.98 59.4385 277.031 59.1092 277.258 58.9445L280.602 56.5363C280.829 56.3716 281.158 56.4231 281.323 56.6598C281.487 56.8862 281.436 57.2155 281.199 57.3802L277.854 59.7884C277.762 59.8502 277.659 59.8811 277.556 59.8811H277.566ZM285.964 53.9325C285.8 53.9325 285.635 53.8502 285.542 53.7061C285.378 53.4694 285.439 53.1503 285.676 52.996C286.818 52.2241 287.961 51.4625 289.124 50.7215C289.36 50.5671 289.68 50.6392 289.834 50.8759C289.988 51.1126 289.916 51.4316 289.68 51.586C288.527 52.3167 287.385 53.0783 286.252 53.8502C286.16 53.9119 286.067 53.9428 285.964 53.9428V53.9325ZM376.881 51.5448C376.737 51.5448 376.582 51.4831 376.479 51.3596C375.594 50.2893 374.647 49.3321 373.649 48.5294C373.433 48.3544 373.392 48.0251 373.577 47.809C373.752 47.5826 374.081 47.5517 374.297 47.7266C375.347 48.5809 376.356 49.5791 377.282 50.7009C377.457 50.9171 377.426 51.2464 377.21 51.4213C377.117 51.5037 377.004 51.5345 376.881 51.5345V51.5448ZM294.702 48.5088C294.517 48.5088 294.342 48.4162 294.249 48.2412C294.115 47.9942 294.198 47.6752 294.455 47.5414C295.7 46.8519 296.935 46.2138 298.139 45.6374C298.397 45.5139 298.705 45.6271 298.829 45.8741C298.952 46.1314 298.849 46.4402 298.592 46.5637C297.409 47.1297 296.184 47.7678 294.959 48.4368C294.877 48.4779 294.794 48.4985 294.712 48.4985L294.702 48.5088ZM368.647 45.5551C368.586 45.5551 368.514 45.5448 368.452 45.5139C367.32 45.0405 366.064 44.598 364.623 44.1657C364.356 44.0834 364.201 43.7952 364.284 43.5277C364.366 43.2601 364.654 43.1057 364.922 43.188C366.404 43.6306 367.68 44.0834 368.853 44.5774C369.11 44.6906 369.234 44.9891 369.131 45.2464C369.049 45.4419 368.853 45.5654 368.658 45.5654L368.647 45.5551ZM304.036 44.2069C303.831 44.2069 303.635 44.0834 303.553 43.8673C303.45 43.5997 303.594 43.3012 303.851 43.2086C305.127 42.7352 306.455 42.2824 307.772 41.8707C308.05 41.7884 308.328 41.9427 308.41 42.2103C308.493 42.4779 308.338 42.7661 308.071 42.8484C306.764 43.2498 305.457 43.6923 304.201 44.1657C304.139 44.1863 304.078 44.1966 304.026 44.1966L304.036 44.2069ZM358.798 42.6117C358.798 42.6117 358.716 42.6117 358.685 42.6014C357.357 42.2927 356.019 41.9942 354.682 41.7266C354.404 41.6649 354.218 41.3973 354.28 41.1194C354.332 40.8415 354.609 40.6666 354.887 40.718C356.236 40.9959 357.584 41.2841 358.922 41.6031C359.2 41.6649 359.375 41.9427 359.302 42.2206C359.251 42.4573 359.035 42.622 358.798 42.622V42.6117ZM313.906 41.315C313.669 41.315 313.453 41.1503 313.402 40.9136C313.34 40.6357 313.515 40.3578 313.793 40.2961C315.131 40.0079 316.5 39.7403 317.858 39.5139C318.136 39.4625 318.404 39.658 318.445 39.9359C318.486 40.2138 318.301 40.4813 318.023 40.5225C316.675 40.7386 315.326 41.0062 314.009 41.2944C313.968 41.2944 313.937 41.3047 313.896 41.3047L313.906 41.315ZM348.702 40.6563C348.702 40.6563 348.651 40.6563 348.62 40.6563C347.261 40.4505 345.892 40.2652 344.555 40.1108C344.277 40.08 344.071 39.8227 344.102 39.5448C344.133 39.2669 344.4 39.0508 344.668 39.092C346.016 39.2463 347.395 39.4316 348.764 39.6374C349.042 39.6786 349.237 39.9462 349.196 40.224C349.155 40.4813 348.939 40.6666 348.692 40.6666L348.702 40.6563ZM324.074 39.7609C323.807 39.7609 323.591 39.5551 323.56 39.2875C323.539 39.0096 323.745 38.7523 324.023 38.7318C325.381 38.6083 326.771 38.5156 328.15 38.4539C328.458 38.423 328.675 38.6597 328.685 38.9479C328.695 39.236 328.479 39.4727 328.191 39.483C326.822 39.5448 325.443 39.6374 324.105 39.7609C324.085 39.7609 324.074 39.7609 324.054 39.7609H324.074ZM338.472 39.5757C338.472 39.5757 338.452 39.5757 338.441 39.5757C337.073 39.4933 335.693 39.4419 334.345 39.411C334.057 39.411 333.831 39.1743 333.841 38.8861C333.841 38.598 334.047 38.3921 334.366 38.3818C335.724 38.4127 337.124 38.4642 338.503 38.5465C338.791 38.5671 339.007 38.8038 338.987 39.092C338.966 39.3698 338.74 39.5757 338.472 39.5757Z" fill="#50448C"/>
<path d="M256.881 36.4775H124.026C119.121 36.4775 115.144 40.454 115.144 45.3592V306.324C115.144 311.23 119.121 315.206 124.026 315.206H256.881C261.786 315.206 265.762 311.23 265.762 306.324V45.3592C265.762 40.454 261.786 36.4775 256.881 36.4775Z" fill="url(#paint1_linear_809_31929)"/>
<path d="M259.587 45.3693V306.324C259.587 307.816 258.372 309.031 256.88 309.031H124.025C122.533 309.031 121.319 307.816 121.319 306.324L121.319 45.359C121.319 43.8668 122.533 42.6523 124.025 42.6523L256.87 42.6523C258.362 42.6523 259.577 43.8668 259.577 45.359L259.587 45.3693Z" fill="url(#paint2_linear_809_31929)"/>
<path d="M88.056 260.022C87.984 260.022 87.9017 260.002 87.8296 259.971C86.5946 259.364 85.3699 258.695 84.1761 257.995C83.9291 257.851 83.8468 257.532 83.9909 257.285C84.1349 257.038 84.454 256.966 84.6907 257.099C85.8639 257.789 87.0681 258.448 88.2722 259.044C88.5295 259.168 88.6324 259.477 88.5089 259.734C88.4163 259.919 88.2413 260.022 88.0458 260.022H88.056ZM79.3082 254.64C79.2052 254.64 79.092 254.609 78.9994 254.537C77.8982 253.713 76.8073 252.839 75.7678 251.933C75.5517 251.748 75.5311 251.418 75.7164 251.202C75.9016 250.986 76.231 250.966 76.4471 251.151C77.4762 252.036 78.5466 252.9 79.6272 253.703C79.8536 253.878 79.9051 254.197 79.7301 254.424C79.6272 254.557 79.4728 254.629 79.3184 254.629L79.3082 254.64ZM71.6512 247.785C71.5174 247.785 71.3733 247.734 71.2807 247.621C70.3338 246.612 69.4179 245.562 68.5431 244.492C68.3681 244.276 68.399 243.947 68.6151 243.772C68.8313 243.597 69.1606 243.628 69.3356 243.844C70.1898 244.893 71.0954 245.923 72.0217 246.911C72.2172 247.116 72.2069 247.446 72.0011 247.641C71.8982 247.734 71.7747 247.785 71.6512 247.785ZM65.3012 239.706C65.1366 239.706 64.9719 239.624 64.869 239.47C64.1074 238.307 63.387 237.113 62.718 235.919C62.5842 235.672 62.6666 235.353 62.9136 235.219C63.1606 235.075 63.4796 235.168 63.6134 235.415C64.2721 236.588 64.9822 237.772 65.7232 238.904C65.8776 239.14 65.8158 239.46 65.5688 239.614C65.4865 239.665 65.3836 239.696 65.2909 239.696L65.3012 239.706ZM60.4745 230.629C60.2789 230.629 60.0834 230.506 60.001 230.31C59.7335 229.682 59.4762 229.044 59.2395 228.396C58.9925 227.748 58.7558 227.089 58.5293 226.42C58.4367 226.152 58.5808 225.864 58.8484 225.772C59.116 225.679 59.4144 225.823 59.4968 226.091C59.7129 226.739 59.9496 227.387 60.1863 228.025C60.423 228.653 60.67 229.281 60.9376 229.899C61.0508 230.156 60.9273 230.465 60.6597 230.568C60.598 230.598 60.5259 230.609 60.4642 230.609L60.4745 230.629ZM57.3252 220.842C57.0885 220.842 56.8827 220.688 56.8209 220.451C56.5122 219.154 56.224 217.785 55.977 216.396C55.9256 216.118 56.1108 215.85 56.3887 215.799C56.6666 215.758 56.9341 215.933 56.9856 216.211C57.2326 217.579 57.5208 218.928 57.8192 220.214C57.881 220.492 57.7163 220.77 57.4384 220.832C57.3973 220.832 57.3561 220.842 57.3149 220.842H57.3252ZM55.5859 210.705C55.3286 210.705 55.1022 210.509 55.0713 210.252C54.917 208.945 54.7832 207.555 54.67 206.135C54.6494 205.847 54.8552 205.6 55.1434 205.579C55.4316 205.559 55.6786 205.765 55.6991 206.053C55.8123 207.463 55.9461 208.832 56.1005 210.128C56.1314 210.406 55.9358 210.663 55.6477 210.694C55.6271 210.694 55.6065 210.694 55.5859 210.694V210.705ZM54.7935 200.444C54.5156 200.444 54.2892 200.228 54.2789 199.95C54.2171 198.571 54.1657 197.202 54.1245 195.823C54.1245 195.535 54.3406 195.298 54.6288 195.298C54.8964 195.298 55.1537 195.514 55.1537 195.802C55.1948 197.171 55.2463 198.54 55.3081 199.909C55.3183 200.197 55.1022 200.434 54.8141 200.444H54.7935ZM54.5156 190.152C54.2377 190.152 54.001 189.926 54.001 189.638C54.001 188.948 53.9907 188.259 53.9907 187.569C53.9907 186.88 53.9907 186.19 54.001 185.511C54.001 185.223 54.2377 184.945 54.5259 185.006C54.8141 185.006 55.0405 185.243 55.0302 185.531C55.0302 186.211 55.0199 186.9 55.0199 187.579C55.0199 188.259 55.0199 188.948 55.0302 189.638C55.0302 189.926 54.8038 190.152 54.5156 190.152ZM54.7111 179.861C54.7111 179.861 54.6906 179.861 54.6803 179.861C54.3921 179.84 54.176 179.603 54.1966 179.315C54.2789 177.895 54.3818 176.506 54.5053 175.188C54.5362 174.91 54.7832 174.704 55.0611 174.725C55.3389 174.756 55.5551 175.003 55.5242 175.281C55.4007 176.588 55.2978 177.967 55.2257 179.367C55.2154 179.645 54.9787 179.85 54.7111 179.85V179.861ZM55.8021 169.631C55.8021 169.631 55.7506 169.631 55.7197 169.631C55.4418 169.59 55.2463 169.322 55.2978 169.034C55.5242 167.655 55.7918 166.286 56.0902 164.969C56.152 164.691 56.4298 164.526 56.7077 164.578C56.9856 164.639 57.1605 164.917 57.0988 165.195C56.8106 166.492 56.543 167.84 56.3269 169.209C56.2858 169.466 56.0696 169.641 55.8226 169.641L55.8021 169.631ZM58.2103 159.638C58.1588 159.638 58.1074 159.638 58.0456 159.617C57.778 159.524 57.634 159.236 57.7163 158.969C58.1485 157.651 58.6425 156.344 59.1674 155.078C59.2806 154.811 59.5791 154.687 59.8364 154.8C60.0937 154.914 60.2275 155.212 60.1142 155.469C59.5997 156.715 59.116 158.001 58.694 159.288C58.622 159.504 58.4264 159.638 58.2103 159.638ZM112.087 157.157C112.087 157.157 112.056 157.157 112.046 157.157C110.677 157.044 109.288 156.807 107.909 156.457C107.631 156.385 107.466 156.108 107.538 155.83C107.61 155.552 107.888 155.387 108.166 155.459C109.494 155.799 110.821 156.025 112.138 156.128C112.427 156.149 112.632 156.396 112.612 156.684C112.591 156.951 112.365 157.157 112.097 157.157H112.087ZM118.221 156.787C117.994 156.787 117.778 156.632 117.727 156.396C117.655 156.118 117.83 155.84 118.097 155.768C118.849 155.583 119.456 155.315 119.95 154.975C120.413 154.656 120.804 154.245 121.133 153.761C121.288 153.524 121.607 153.463 121.844 153.617C122.08 153.771 122.142 154.09 121.988 154.327C121.586 154.924 121.103 155.428 120.536 155.819C119.929 156.241 119.219 156.55 118.344 156.766C118.303 156.776 118.262 156.787 118.221 156.787ZM102.259 154.306C102.176 154.306 102.104 154.286 102.032 154.255C100.807 153.638 99.593 152.927 98.43 152.145C98.1933 151.991 98.1316 151.672 98.2859 151.435C98.4403 151.198 98.7594 151.137 98.9961 151.291C100.128 152.053 101.312 152.742 102.495 153.339C102.753 153.463 102.855 153.771 102.722 154.029C102.629 154.204 102.454 154.317 102.259 154.317V154.306ZM62.3372 150.231C62.2549 150.231 62.1623 150.21 62.08 150.169C61.833 150.025 61.7403 149.716 61.8844 149.469C62.574 148.255 63.3149 147.061 64.0868 145.939C64.2515 145.703 64.5705 145.641 64.7969 145.806C65.0337 145.97 65.0954 146.289 64.9307 146.516C64.1794 147.617 63.4487 148.78 62.7798 149.974C62.6872 150.138 62.5122 150.231 62.327 150.231H62.3372ZM122.605 148.605C122.348 148.605 122.132 148.42 122.09 148.162C121.916 146.845 121.576 145.559 121.072 144.324C120.969 144.056 121.092 143.758 121.35 143.655C121.607 143.541 121.916 143.675 122.018 143.932C122.554 145.25 122.924 146.619 123.109 148.029C123.151 148.306 122.945 148.564 122.667 148.605C122.646 148.605 122.626 148.605 122.595 148.605H122.605ZM93.912 148.348C93.7885 148.348 93.6547 148.296 93.5518 148.204C93.2327 147.895 92.924 147.586 92.6152 147.267C91.9669 146.598 91.3288 145.888 90.7113 145.157C90.526 144.941 90.5569 144.612 90.773 144.426C90.9892 144.241 91.3185 144.272 91.5038 144.488C92.111 145.198 92.7387 145.888 93.3665 146.547C93.665 146.855 93.9635 147.154 94.2825 147.452C94.4883 147.648 94.4986 147.977 94.2928 148.183C94.1899 148.286 94.0561 148.337 93.9223 148.337L93.912 148.348ZM68.3476 141.905C68.2241 141.905 68.1006 141.864 67.9976 141.771C67.7918 141.576 67.7712 141.257 67.9668 141.041C68.9239 140.011 69.9222 139.034 70.9513 138.128C71.1675 137.943 71.4865 137.963 71.6718 138.179C71.857 138.396 71.8364 138.715 71.6203 138.91C70.622 139.785 69.6443 140.732 68.7078 141.74C68.6049 141.854 68.4711 141.905 68.327 141.905H68.3476ZM87.4077 140.392C87.243 140.392 87.0783 140.31 86.9754 140.166C86.2447 139.065 85.514 137.871 84.8039 136.636C84.6598 136.389 84.7421 136.08 84.9891 135.936C85.2361 135.792 85.5449 135.874 85.689 136.121C86.3888 137.346 87.1092 138.509 87.8296 139.6C87.984 139.836 87.9223 140.155 87.6855 140.31C87.6032 140.372 87.5003 140.392 87.3974 140.392H87.4077ZM118.241 139.456C118.097 139.456 117.964 139.394 117.861 139.281C116.996 138.313 115.998 137.408 114.907 136.564C114.681 136.389 114.639 136.07 114.814 135.843C114.989 135.617 115.308 135.576 115.535 135.751C116.677 136.636 117.717 137.593 118.622 138.601C118.807 138.818 118.797 139.137 118.581 139.332C118.478 139.425 118.365 139.466 118.241 139.466V139.456ZM76.2721 135.401C76.0972 135.401 75.9222 135.308 75.8296 135.154C75.6855 134.907 75.7575 134.598 76.0045 134.444C76.5397 134.125 77.0749 133.816 77.6306 133.528C78.3099 133.167 79.0097 132.828 79.7198 132.519C79.9771 132.406 80.2859 132.519 80.3991 132.787C80.5123 133.044 80.3991 133.353 80.1315 133.466C79.4419 133.775 78.7627 134.104 78.104 134.444C77.5689 134.721 77.044 135.02 76.5294 135.329C76.4471 135.38 76.3545 135.401 76.2618 135.401H76.2721ZM109.936 133.497C109.864 133.497 109.792 133.476 109.72 133.445C108.516 132.879 107.24 132.396 105.943 131.984C105.675 131.902 105.521 131.613 105.603 131.336C105.686 131.068 105.974 130.914 106.252 130.996C107.59 131.418 108.897 131.932 110.152 132.509C110.409 132.632 110.523 132.931 110.399 133.188C110.317 133.373 110.121 133.486 109.936 133.486V133.497ZM85.761 131.531C85.5346 131.531 85.3185 131.377 85.267 131.14C85.195 130.862 85.3699 130.584 85.6478 130.522C86.9754 130.193 88.3545 129.936 89.7439 129.751C90.0218 129.709 90.2893 129.915 90.3202 130.193C90.3614 130.471 90.1555 130.739 89.8777 130.77C88.5295 130.955 87.1813 131.202 85.8845 131.521C85.8433 131.531 85.8022 131.531 85.761 131.531ZM82.3545 131.438C82.1692 131.438 81.984 131.336 81.8914 131.15C81.2842 129.915 80.6975 128.67 80.1212 127.414C80.008 127.157 80.1212 126.848 80.3785 126.735C80.6358 126.612 80.9445 126.735 81.0577 126.992C81.6238 128.238 82.2104 129.473 82.8176 130.697C82.9411 130.955 82.8382 131.263 82.5809 131.387C82.5089 131.418 82.4265 131.438 82.3545 131.438ZM100.077 130.697C100.077 130.697 100.036 130.697 100.015 130.697L99.84 130.677C98.5535 130.533 97.2362 130.44 95.96 130.42C95.6719 130.42 95.4454 130.183 95.4557 129.895C95.4557 129.607 95.6719 129.36 95.9806 129.39C97.2979 129.411 98.6359 129.504 99.9635 129.648L100.138 129.668C100.416 129.699 100.622 129.956 100.591 130.234C100.56 130.502 100.334 130.687 100.077 130.687V130.697ZM78.0937 122.073C77.8982 122.073 77.7027 121.96 77.6203 121.764C77.0749 120.498 76.55 119.233 76.0354 117.946C75.9325 117.679 76.056 117.38 76.3236 117.277C76.5912 117.174 76.8896 117.298 76.9925 117.565C77.4968 118.841 78.0217 120.097 78.5672 121.353C78.6804 121.61 78.5672 121.919 78.2996 122.032C78.2378 122.063 78.1658 122.073 78.0937 122.073ZM74.4196 112.461C74.2035 112.461 73.9977 112.317 73.9256 112.1C73.4934 110.742 73.1023 109.394 72.7833 108.107C72.7112 107.829 72.8862 107.552 73.1538 107.48C73.4316 107.407 73.7095 107.582 73.7815 107.85C74.1006 109.116 74.4711 110.433 74.9033 111.771C74.9857 112.039 74.8416 112.327 74.574 112.42C74.5225 112.44 74.4711 112.44 74.4196 112.44V112.461ZM72.1555 102.437C71.8982 102.437 71.6718 102.241 71.6409 101.984C71.4762 100.584 71.3733 99.1845 71.3527 97.826C71.3527 97.5378 71.5791 97.3114 71.857 97.3011C72.1452 97.2599 72.3716 97.5275 72.3819 97.8054C72.4025 99.1227 72.4951 100.491 72.6598 101.86C72.6906 102.138 72.4951 102.395 72.2069 102.437C72.1863 102.437 72.1658 102.437 72.1452 102.437H72.1555Z" fill="#50448C"/>
<mask id="mask0_809_31929" style="mask-type:luminance" maskUnits="userSpaceOnUse" x="58" y="16" width="202" height="309">
<path d="M72.9166 303.957L58.7656 20.2579C113.538 4.95427 256.869 42.6525 256.869 42.6525C258.362 42.6525 259.576 43.867 259.576 45.3592V306.314C259.576 307.806 258.362 309.021 256.869 309.021C256.869 309.021 151.113 346.843 72.9063 303.947L72.9166 303.957Z" fill="white"/>
</mask>
<g mask="url(#mask0_809_31929)">
<path d="M237.036 199.826L217.976 248.67C215.187 255.833 219.325 263.809 226.786 265.651C232.899 267.164 239.198 263.974 241.606 258.159L263.455 205.301C263.455 205.301 243.963 191.655 237.036 199.826Z" fill="url(#paint3_linear_809_31929)"/>
<path d="M145.318 76.5533L185.63 114.282C208.539 135.72 236.563 150.931 267.027 158.444L274.55 160.307C277.545 176.207 273.49 192.622 263.445 205.302L255.922 203.439C225.459 195.916 193.575 196.338 163.328 204.653L110.089 219.288L145.328 76.543L145.318 76.5533Z" fill="url(#paint4_linear_809_31929)"/>
<path d="M141.395 151.323C151.128 111.906 152.889 78.4399 145.329 76.5732C137.769 74.7065 123.751 105.147 114.018 144.563C104.285 183.979 102.524 217.446 110.084 219.313C117.644 221.179 131.662 190.739 141.395 151.323Z" fill="url(#paint5_linear_809_31929)"/>
<mask id="mask1_809_31929" style="mask-type:luminance" maskUnits="userSpaceOnUse" x="105" y="76" width="46" height="144">
<path d="M141.395 151.323C151.128 111.906 152.889 78.4399 145.329 76.5732C137.769 74.7065 123.751 105.147 114.018 144.563C104.285 183.979 102.524 217.446 110.084 219.313C117.644 221.179 131.662 190.739 141.395 151.323Z" fill="white"/>
</mask>
<g mask="url(#mask1_809_31929)">
<path d="M130.487 165.36L138.041 167.222C146.758 169.373 155.557 164.053 157.708 155.336C159.859 146.619 154.538 137.819 145.821 135.668L138.267 133.805C129.55 131.655 120.751 136.975 118.6 145.692C116.449 154.409 121.77 163.209 130.487 165.36Z" fill="url(#paint6_radial_809_31929)"/>
</g>
</g>
<path d="M201.913 80.6392C201.645 80.6392 201.408 80.4231 201.398 80.1453C201.326 78.7868 201.233 77.4077 201.11 76.0595C201.079 75.7816 201.295 75.5243 201.573 75.5037C201.851 75.4728 202.108 75.689 202.129 75.9669C202.252 77.3356 202.355 78.7147 202.427 80.0938C202.437 80.382 202.221 80.6187 201.943 80.629C201.943 80.629 201.923 80.629 201.913 80.629V80.6392ZM200.853 70.4094C200.606 70.4094 200.389 70.2241 200.348 69.9771C200.132 68.6186 199.885 67.2601 199.618 65.9531C199.556 65.6752 199.741 65.3973 200.019 65.3459C200.287 65.2944 200.575 65.4694 200.626 65.7472C200.904 67.0749 201.151 68.4437 201.367 69.8227C201.408 70.1006 201.223 70.3682 200.935 70.4094C200.904 70.4094 200.883 70.4094 200.853 70.4094ZM74.8623 61.188C74.8623 61.188 74.7799 61.1881 74.7491 61.1778C74.4712 61.116 74.2962 60.8381 74.3683 60.5603C74.4403 60.2618 74.5124 59.9531 74.5844 59.6546C74.6565 59.3767 74.9343 59.2121 75.2122 59.2841C75.4901 59.3561 75.6547 59.634 75.5827 59.9119C75.5107 60.2001 75.4386 60.4985 75.3666 60.797C75.3151 61.0337 75.099 61.1983 74.8623 61.1983V61.188ZM198.671 60.3544C198.444 60.3544 198.238 60.2103 198.177 59.9736C197.806 58.6563 197.405 57.339 196.973 56.0628C196.88 55.7952 197.024 55.5071 197.302 55.4144C197.57 55.3218 197.858 55.4659 197.95 55.7438C198.383 57.0405 198.794 58.3681 199.165 59.7061C199.237 59.9839 199.082 60.2618 198.805 60.3441C198.763 60.3544 198.712 60.3647 198.66 60.3647L198.671 60.3544ZM76.9721 54.4264C76.9103 54.4264 76.8486 54.4162 76.7868 54.3956C76.5192 54.2927 76.3957 53.9942 76.4884 53.7266C76.9824 52.4504 77.5381 51.164 78.1453 49.9187C78.2688 49.6614 78.5776 49.5585 78.8349 49.682C79.0921 49.8055 79.1951 50.1143 79.0716 50.3715C78.4849 51.5962 77.9395 52.8518 77.4455 54.1074C77.3632 54.3132 77.1676 54.4367 76.9618 54.4367L76.9721 54.4264ZM195.274 50.6494C195.079 50.6494 194.883 50.5362 194.801 50.3407C194.266 49.0851 193.69 47.8398 193.082 46.6357C192.959 46.3784 193.062 46.0696 193.309 45.9461C193.566 45.8226 193.875 45.9255 193.998 46.1725C194.606 47.3973 195.192 48.6631 195.738 49.9393C195.851 50.1966 195.738 50.5053 195.47 50.6185C195.408 50.6494 195.336 50.6597 195.264 50.6597L195.274 50.6494ZM81.593 45.2463C81.5004 45.2463 81.4078 45.2257 81.3151 45.164C81.0784 45.0096 81.0064 44.6906 81.1505 44.4538C81.8812 43.2909 82.6634 42.1382 83.4867 41.0164C83.6513 40.79 83.9807 40.7386 84.2071 40.9032C84.4335 41.0679 84.485 41.3972 84.3203 41.6236C83.5176 42.7249 82.7457 43.8569 82.0253 44.9993C81.9223 45.1537 81.7577 45.236 81.593 45.236V45.2463ZM190.53 41.5207C190.355 41.5207 190.19 41.4384 190.098 41.2737C189.377 40.1108 188.605 38.9787 187.823 37.8878C187.659 37.6614 187.71 37.332 187.937 37.1674C188.163 37.0027 188.492 37.0542 188.657 37.2806C189.46 38.3818 190.242 39.5447 190.973 40.7283C191.127 40.965 191.055 41.284 190.808 41.4384C190.726 41.4899 190.633 41.5207 190.54 41.5207H190.53ZM87.8092 37.0542C87.6857 37.0542 87.5622 37.013 87.4593 36.9204C87.2431 36.7248 87.2328 36.4058 87.4181 36.1897C88.334 35.1708 89.3117 34.1725 90.31 33.2051C90.5159 33.0095 90.8452 33.0095 91.0407 33.2154C91.2363 33.4212 91.2363 33.7505 91.0304 33.9461C90.0527 34.8929 89.0956 35.8809 88.19 36.8792C88.087 36.9924 87.9533 37.0439 87.8092 37.0439V37.0542ZM184.334 33.3183C184.19 33.3183 184.057 33.2668 183.954 33.1536C183.027 32.145 182.07 31.1776 181.082 30.2617C180.876 30.0661 180.866 29.7471 181.051 29.531C181.247 29.3251 181.566 29.3046 181.782 29.5001C182.78 30.4263 183.768 31.4246 184.715 32.4538C184.911 32.6596 184.89 32.989 184.684 33.1845C184.581 33.2771 184.458 33.3183 184.334 33.3183ZM95.3221 30.0456C95.1677 30.0456 95.0236 29.9735 94.9207 29.85C94.7457 29.6236 94.7869 29.3046 95.003 29.1296C96.0836 28.2754 97.2054 27.4521 98.3478 26.6699C98.5845 26.5052 98.9036 26.567 99.0682 26.8037C99.2329 27.0404 99.1711 27.3594 98.9344 27.5241C97.8126 28.296 96.7114 29.109 95.6411 29.9426C95.5485 30.0147 95.4353 30.0558 95.3221 30.0558V30.0456ZM176.657 26.5052C176.554 26.5052 176.451 26.4744 176.358 26.4126C175.257 25.6304 174.105 24.8791 172.942 24.1999C172.695 24.0558 172.612 23.7368 172.756 23.5001C172.9 23.2531 173.209 23.1707 173.456 23.3148C174.64 24.0147 175.823 24.7762 176.945 25.579C177.182 25.7436 177.233 26.0627 177.069 26.2994C176.966 26.4435 176.811 26.5155 176.647 26.5155L176.657 26.5052ZM103.905 24.3749C103.72 24.3749 103.545 24.2822 103.452 24.1073C103.319 23.8603 103.411 23.5412 103.658 23.4074C104.08 23.1707 104.513 22.9443 104.945 22.7282C105.747 22.3165 106.55 21.9254 107.363 21.5447C107.621 21.4212 107.929 21.5447 108.043 21.7917C108.166 22.0489 108.043 22.3577 107.796 22.4709C106.993 22.8414 106.2 23.2325 105.418 23.6339C104.996 23.85 104.574 24.0764 104.152 24.3028C104.07 24.344 103.988 24.3646 103.905 24.3646V24.3749ZM167.693 21.5035C167.621 21.5035 167.559 21.4932 167.487 21.4623C166.262 20.9375 164.986 20.4537 163.679 20.0009C163.412 19.9083 163.267 19.6201 163.36 19.3422C163.453 19.0747 163.741 18.9306 164.019 19.0232C165.346 19.476 166.653 19.9803 167.899 20.5052C168.156 20.6184 168.28 20.9169 168.166 21.1845C168.084 21.38 167.888 21.4932 167.693 21.4932V21.5035ZM113.291 20.1862C113.075 20.1862 112.88 20.0524 112.808 19.8465C112.715 19.579 112.849 19.2805 113.116 19.1879C114.403 18.7247 115.73 18.3028 117.058 17.9117C117.336 17.8294 117.614 17.994 117.696 18.2616C117.778 18.5395 117.614 18.8174 117.346 18.8997C116.039 19.2805 114.732 19.7025 113.456 20.1553C113.394 20.1759 113.343 20.1862 113.281 20.1862H113.291ZM157.916 18.3028C157.916 18.3028 157.834 18.3028 157.792 18.2925C156.506 17.9838 155.158 17.6956 153.789 17.4383C153.511 17.3868 153.326 17.1193 153.377 16.8414C153.429 16.5635 153.696 16.3783 153.974 16.4297C155.353 16.687 156.722 16.9855 158.029 17.2942C158.307 17.356 158.472 17.6441 158.41 17.9117C158.348 18.1484 158.142 18.3028 157.906 18.3028H157.916ZM123.202 17.4589C122.965 17.4589 122.749 17.2942 122.698 17.0472C122.646 16.7693 122.821 16.5018 123.099 16.44C124.437 16.1724 125.816 15.9357 127.185 15.7402C127.463 15.699 127.73 15.8945 127.772 16.1724C127.813 16.4503 127.617 16.7179 127.339 16.759C125.991 16.9546 124.633 17.181 123.305 17.4486C123.274 17.4486 123.233 17.4486 123.202 17.4486V17.4589ZM147.789 16.5223C147.789 16.5223 147.748 16.5223 147.727 16.5223C146.369 16.368 145 16.2445 143.652 16.1621C143.363 16.1415 143.158 15.8945 143.168 15.6167C143.188 15.3285 143.425 15.1227 143.713 15.133C145.082 15.2256 146.472 15.3491 147.84 15.5035C148.118 15.5343 148.324 15.7916 148.293 16.0695C148.262 16.3268 148.036 16.5223 147.779 16.5223H147.789ZM133.401 16.1415C133.134 16.1415 132.907 15.9357 132.887 15.6578C132.866 15.3697 133.082 15.133 133.37 15.1124C134.739 15.03 136.128 14.9786 137.508 14.958C137.775 14.9683 138.022 15.1844 138.032 15.4623C138.032 15.7505 137.806 15.9769 137.528 15.9872C136.17 15.9975 134.791 16.0489 133.442 16.1313C133.432 16.1313 133.422 16.1313 133.411 16.1313L133.401 16.1415Z" fill="#50448C"/>
<path d="M280.87 97.5491C283.168 83.5033 273.644 70.2543 259.598 67.9568C245.552 65.6592 232.303 75.183 230.006 89.2289C227.708 103.275 237.232 116.524 251.278 118.821C265.324 121.119 278.573 111.595 280.87 97.5491Z" fill="url(#paint7_linear_809_31929)"/>
<path d="M263.354 112.768C274.062 108.395 279.199 96.1701 274.827 85.4615C270.454 74.7529 258.229 69.6163 247.52 73.9886C236.812 78.3609 231.675 90.5863 236.048 101.295C240.42 112.003 252.645 117.14 263.354 112.768Z" fill="url(#paint8_linear_809_31929)"/>
<path d="M255.439 82.2441L259.062 89.5821L267.161 90.7553L261.295 96.4672L262.684 104.536L255.439 100.728L248.194 104.536L249.583 96.4672L243.717 90.7553L251.816 89.5821L255.439 82.2441Z" fill="url(#paint9_linear_809_31929)"/>
<path d="M209.851 91.691C215.068 86.4742 215.068 78.016 209.851 72.7992C204.635 67.5824 196.176 67.5824 190.96 72.7992C185.743 78.016 185.743 86.4742 190.96 91.691C196.176 96.9079 204.635 96.9079 209.851 91.691Z" fill="url(#paint10_linear_809_31929)"/>
<path d="M200.398 84.6838C199.379 84.6838 198.545 83.8604 198.545 82.8313V75.833C198.545 74.8141 199.369 73.9805 200.398 73.9805C201.417 73.9805 202.25 74.8038 202.25 75.833V82.8313C202.25 83.8501 201.427 84.6838 200.398 84.6838Z" fill="url(#paint11_linear_809_31929)"/>
<path d="M202.25 88.6464C202.25 89.6653 201.427 90.4989 200.398 90.4989C199.369 90.4989 198.545 89.6756 198.545 88.6464C198.545 87.6173 199.369 86.7939 200.398 86.7939C201.427 86.7939 202.25 87.6173 202.25 88.6464Z" fill="url(#paint12_linear_809_31929)"/>
<path d="M327.298 241.132C328.766 232.129 322.657 223.639 313.654 222.171C304.65 220.704 296.161 226.813 294.693 235.816C293.225 244.82 299.334 253.309 308.337 254.777C317.341 256.245 325.83 250.136 327.298 241.132Z" fill="url(#paint13_linear_809_31929)"/>
<path d="M311.025 252.375C318.692 252.375 324.908 246.159 324.908 238.492C324.908 230.824 318.692 224.608 311.025 224.608C303.357 224.608 297.141 230.824 297.141 238.492C297.141 246.159 303.357 252.375 311.025 252.375Z" fill="url(#paint14_linear_809_31929)"/>
<path d="M312.352 246.18V248.527H310.252V246.242C308.173 246.119 306.187 245.47 305.034 244.565L306.187 242.002C307.237 242.774 308.749 243.34 310.252 243.494V239.995C307.926 239.429 305.322 238.657 305.322 235.652C305.322 233.429 306.938 231.525 310.252 231.144V228.818H312.352V231.103C313.926 231.227 315.449 231.649 316.602 232.379L315.552 234.962C314.482 234.355 313.391 233.995 312.341 233.872V237.432C314.667 237.978 317.23 238.75 317.23 241.714C317.23 243.896 315.635 245.779 312.341 246.18H312.352ZM310.252 236.918V233.944C309.141 234.191 308.698 234.798 308.698 235.498C308.698 236.228 309.326 236.63 310.252 236.918ZM313.854 241.971C313.854 241.24 313.247 240.839 312.341 240.52V243.412C313.391 243.185 313.854 242.64 313.854 241.961V241.971Z" fill="#FFC431"/>
<path d="M366.41 135.294C375.429 126.275 375.429 111.653 366.41 102.634C357.391 93.6147 342.768 93.6147 333.749 102.634C324.73 111.653 324.73 126.275 333.749 135.294C342.768 144.313 357.391 144.313 366.41 135.294Z" fill="url(#paint15_linear_809_31929)"/>
<path d="M363.811 132.696C371.395 125.112 371.395 112.816 363.811 105.232C356.227 97.6475 343.931 97.6475 336.346 105.232C328.762 112.816 328.762 125.112 336.347 132.696C343.931 140.28 356.227 140.28 363.811 132.696Z" fill="url(#paint16_linear_809_31929)"/>
<path d="M357.059 122.65L360.074 125.46C358.139 127.837 355.206 129.124 351.635 129.124C346.448 129.124 342.342 126.191 340.994 121.765H337.68V119.305H340.551C340.52 119.038 340.52 118.781 340.52 118.513C340.52 118.245 340.52 117.988 340.551 117.721H337.68V115.261H340.994C342.342 110.835 346.448 107.902 351.635 107.902C355.217 107.902 358.139 109.189 360.074 111.535L357.059 114.345C355.649 112.76 353.92 111.937 351.872 111.937C349.258 111.937 347.148 113.192 346.067 115.251H353.488V117.71H345.337C345.306 117.978 345.306 118.235 345.306 118.503C345.306 118.77 345.306 119.028 345.337 119.295H353.488V121.755H346.067C347.148 123.803 349.268 125.069 351.872 125.069C353.92 125.069 355.659 124.245 357.059 122.64V122.65Z" fill="#FFC431"/>
<path d="M69.8227 210.83C78.8417 201.811 78.8417 187.189 69.8227 178.17C60.8038 169.151 46.1812 169.151 37.1623 178.17C28.1433 187.189 28.1433 201.811 37.1623 210.83C46.1812 219.849 60.8038 219.849 69.8227 210.83Z" fill="url(#paint17_linear_809_31929)"/>
<path d="M53.4975 213.927C64.223 213.927 72.9178 205.232 72.9178 194.506C72.9178 183.781 64.223 175.086 53.4975 175.086C42.7719 175.086 34.0771 183.781 34.0771 194.506C34.0771 205.232 42.7719 213.927 53.4975 213.927Z" fill="url(#paint18_linear_809_31929)"/>
<path d="M41.0024 189.216C41.0024 185.758 43.1122 183.556 46.1071 183.556C49.102 183.556 51.1809 185.727 51.1809 189.216C51.1809 192.705 49.102 194.876 46.1071 194.876C43.1122 194.876 41.0024 192.674 41.0024 189.216ZM48.2478 189.216C48.2478 187.014 47.3935 185.964 46.1071 185.964C44.8206 185.964 43.9664 187.045 43.9664 189.216C43.9664 191.388 44.8412 192.468 46.1071 192.468C47.373 192.468 48.2478 191.408 48.2478 189.216ZM58.3336 183.792H61.8224L47.8052 204.314H44.3164L58.3336 183.792ZM54.9579 198.89C54.9579 195.432 57.0677 193.23 60.0317 193.23C62.9957 193.23 65.1363 195.432 65.1363 198.89C65.1363 202.348 63.0266 204.551 60.0317 204.551C57.0368 204.551 54.9579 202.348 54.9579 198.89ZM62.1723 198.89C62.1723 196.719 61.3181 195.638 60.0317 195.638C58.7452 195.638 57.891 196.698 57.891 198.89C57.891 201.082 58.7658 202.142 60.0317 202.142C61.2976 202.142 62.1723 201.062 62.1723 198.89Z" fill="#FFC431"/>
<path d="M308.194 52.2959C309.357 58.5738 314.266 63.4829 320.544 64.6459C314.266 65.8088 309.357 70.7179 308.194 76.9958C307.031 70.7179 302.122 65.8088 295.844 64.6459C302.122 63.4829 307.031 58.5738 308.194 52.2959Z" fill="url(#paint19_linear_809_31929)"/>
<path d="M46.4154 121.99C47.5784 128.268 52.4875 133.177 58.7654 134.34C52.4875 135.503 47.5784 140.412 46.4154 146.69C45.2524 140.412 40.3433 135.503 34.0654 134.34C40.3433 133.177 45.2524 128.268 46.4154 121.99Z" fill="url(#paint20_linear_809_31929)"/>
<path d="M288.731 283.106C289.524 287.377 292.858 290.712 297.129 291.504C292.858 292.297 289.524 295.631 288.731 299.902C287.939 295.631 284.605 292.297 280.333 291.504C284.605 290.712 287.939 287.377 288.731 283.106Z" fill="url(#paint21_linear_809_31929)"/>
<path d="M93.4585 0.158203C94.251 4.42923 97.5855 7.76372 101.857 8.55618C97.5855 9.34864 94.251 12.6831 93.4585 16.9542C92.6661 12.6831 89.3316 9.34864 85.0605 8.55618C89.3316 7.76372 92.6661 4.42923 93.4585 0.158203Z" fill="url(#paint22_linear_809_31929)"/>
<path d="M316.592 175.785C317.385 180.056 320.719 183.391 324.99 184.183C320.719 184.976 317.385 188.31 316.592 192.581C315.8 188.31 312.465 184.976 308.194 184.183C312.465 183.391 315.8 180.056 316.592 175.785Z" fill="url(#paint23_linear_809_31929)"/>
<path d="M128.276 121.99L113.672 104.772H50.5326C42.7521 104.772 36.4434 98.4637 36.4434 90.6832V61.4652C36.4434 53.6848 42.7521 47.376 50.5326 47.376H114.186C121.967 47.376 128.276 53.6848 128.276 61.4652V121.99Z" fill="url(#paint24_linear_809_31929)"/>
<g style="mix-blend-mode:multiply">
<path d="M111.232 60.4049H53.4964C52.6422 60.4049 51.9526 59.7153 51.9526 58.8611C51.9526 58.0069 52.6422 57.3174 53.4964 57.3174H111.232C112.087 57.3174 112.776 58.0069 112.776 58.8611C112.776 59.7153 112.087 60.4049 111.232 60.4049Z" fill="#F0EBFF"/>
</g>
<g style="mix-blend-mode:multiply">
<path d="M111.232 72.0553H53.4964C52.6422 72.0553 51.9526 71.3657 51.9526 70.5115C51.9526 69.6573 52.6422 68.9678 53.4964 68.9678H111.232C112.087 68.9678 112.776 69.6573 112.776 70.5115C112.776 71.3657 112.087 72.0553 111.232 72.0553Z" fill="#F0EBFF"/>
</g>
<g style="mix-blend-mode:multiply">
<path d="M111.232 83.7047H53.4964C52.6422 83.7047 51.9526 83.0151 51.9526 82.1609C51.9526 81.3067 52.6422 80.6172 53.4964 80.6172H111.232C112.087 80.6172 112.776 81.3067 112.776 82.1609C112.776 83.0151 112.087 83.7047 111.232 83.7047Z" fill="#F0EBFF"/>
</g>
<g style="mix-blend-mode:multiply">
<path d="M111.232 95.3551H53.4964C52.6422 95.3551 51.9526 94.6655 51.9526 93.8113C51.9526 92.9571 52.6422 92.2676 53.4964 92.2676H111.232C112.087 92.2676 112.776 92.9571 112.776 93.8113C112.776 94.6655 112.087 95.3551 111.232 95.3551Z" fill="#F0EBFF"/>
</g>
<path d="M154.949 270.478C158.218 250.451 144.633 231.567 124.606 228.298C104.58 225.03 85.695 238.614 82.4263 258.641C79.1576 278.668 92.7426 297.552 112.769 300.821C132.796 304.09 151.68 290.505 154.949 270.478Z" fill="url(#paint25_linear_809_31929)"/>
<path d="M129.517 292.375C144.874 286.387 152.47 269.084 146.482 253.727C140.495 238.369 123.191 230.773 107.834 236.761C92.4765 242.749 84.8808 260.052 90.8684 275.41C96.856 290.767 114.159 298.363 129.517 292.375Z" fill="url(#paint26_linear_809_31929)"/>
<path d="M127.866 261.071C120.116 259.672 117.018 254.083 116.782 250.358C116.545 246.632 115.114 243.936 112.418 245.274C109.721 246.612 109.083 254.361 110.679 258.437C103.783 257.366 97.3509 258.179 96.7231 261.576C103.464 267.524 101.118 274.327 98.6065 277.662C101.879 279.967 116.38 281.161 119.92 280.615C123.461 280.08 126.404 275.119 129.626 275.253C132.847 275.387 136.068 275.521 136.068 275.521L136.644 261.761C136.644 261.761 131.756 261.761 127.876 261.051L127.866 261.071Z" fill="url(#paint27_linear_809_31929)"/>
<g style="mix-blend-mode:multiply">
<path d="M120.898 270.581C117.275 269.47 114.311 265.466 113.684 263.912C113.714 267.205 117.913 270.653 120.898 270.581Z" fill="#F9E6E1"/>
</g>
<g style="mix-blend-mode:multiply">
<path d="M102.939 279.123C107.848 279.761 111.162 279.02 112.407 277.26C113.653 275.5 112.623 273.967 111.224 272.979L102.939 279.123Z" fill="#F9E6E1"/>
</g>
<path d="M110.535 273.443C112.171 273.834 113.406 276.726 110.103 278.064C106.799 279.402 101.365 279.823 98.3188 277.611C96.9706 276.633 96.6207 274.194 100.531 273.299C104.442 272.403 108.23 272.887 110.535 273.432V273.443Z" fill="url(#paint28_linear_809_31929)"/>
<g style="mix-blend-mode:multiply">
<path d="M99.4399 274.698C102.63 275.572 109.011 276.282 111.543 274.049C114.075 271.816 110.606 268.749 110.606 268.749L99.4399 274.698Z" fill="#F9E6E1"/>
</g>
<path d="M109.763 268.831C111.399 269.222 113.345 272.845 110.041 274.182C106.727 275.52 97.8556 275.15 96.9602 273.75C96.0649 272.351 96.034 269.829 99.9448 268.934C103.856 268.049 107.458 268.275 109.763 268.821V268.831Z" fill="url(#paint29_linear_809_31929)"/>
<g style="mix-blend-mode:multiply">
<path d="M110.575 263.882C112.778 266.053 112.428 268.091 111.831 268.935C111.234 269.779 109.402 271.405 101.004 270.242C101.549 270.17 110.575 263.882 110.575 263.882Z" fill="#F9E6E1"/>
</g>
<path d="M109.423 263.933C111.183 264.355 113.406 268.626 109.721 269.696C106.356 270.663 96.8464 270.612 95.879 269.109C94.9116 267.607 94.891 264.88 99.09 263.933C103.299 262.976 106.932 263.346 109.413 263.933H109.423Z" fill="url(#paint30_linear_809_31929)"/>
<g style="mix-blend-mode:multiply">
<path d="M111.213 260.228C112.427 261.977 112.5 263.315 111.831 264.221C111.162 265.126 103.577 265.785 99.8511 264.756L111.213 260.228Z" fill="#F9E6E1"/>
</g>
<path d="M108.074 258.056C111.254 258.519 113.755 263.5 109.916 264.344C106.458 265.105 97.7721 265.291 96.8047 263.788C95.8373 262.286 95.3227 259.435 99.532 258.478C103.741 257.521 105.933 257.747 108.064 258.056H108.074Z" fill="url(#paint31_linear_809_31929)"/>
<path d="M131.643 261.463C131.396 262.049 130.233 274.543 131.108 275.346C131.983 276.159 137.499 275.49 137.499 275.49C137.499 275.49 138.672 262.656 138.332 261.73C137.993 260.804 132.353 261.133 131.643 261.452V261.463Z" fill="url(#paint32_linear_809_31929)"/>
<path d="M133.804 260.66C133.526 261.329 132.486 275.737 133.577 276.694C134.668 277.651 141.337 277.055 141.337 277.055C141.337 277.055 142.377 262.255 141.934 261.175C141.502 260.094 134.668 260.31 133.804 260.65V260.66Z" fill="url(#paint33_linear_809_31929)"/>
<defs>
<linearGradient id="paint0_linear_809_31929" x1="262.901" y1="-92.3947" x2="157.38" y2="269.243" gradientUnits="userSpaceOnUse">
<stop stop-color="#F5F0FF"/>
<stop offset="1" stop-color="#D2C1F7"/>
</linearGradient>
<linearGradient id="paint1_linear_809_31929" x1="186.856" y1="33.987" x2="193.844" y2="309.443" gradientUnits="userSpaceOnUse">
<stop stop-color="#263681"/>
<stop offset="1" stop-color="#1A1248"/>
</linearGradient>
<linearGradient id="paint2_linear_809_31929" x1="99.4181" y1="122.474" x2="239.559" y2="204.632" gradientUnits="userSpaceOnUse">
<stop stop-color="#9571CB"/>
<stop offset="0.24" stop-color="#8E69C9"/>
<stop offset="0.62" stop-color="#7B53C5"/>
<stop offset="1" stop-color="#6237C0"/>
</linearGradient>
<linearGradient id="paint3_linear_809_31929" x1="249.181" y1="236.331" x2="228.237" y2="228.077" gradientUnits="userSpaceOnUse">
<stop stop-color="#F5F0FF"/>
<stop offset="0.7" stop-color="#D2C1F7"/>
<stop offset="1" stop-color="#DCCEF9"/>
</linearGradient>
<linearGradient id="paint4_linear_809_31929" x1="211.291" y1="126.885" x2="178.592" y2="211.983" gradientUnits="userSpaceOnUse">
<stop stop-color="#F59513"/>
<stop offset="0.37" stop-color="#FAAD1E"/>
<stop offset="1" stop-color="#F2830B"/>
</linearGradient>
<linearGradient id="paint5_linear_809_31929" x1="112.621" y1="143.995" x2="140.757" y2="150.943" gradientUnits="userSpaceOnUse">
<stop stop-color="#E6971C"/>
<stop offset="1" stop-color="#DE6D0A"/>
</linearGradient>
<radialGradient id="paint6_radial_809_31929" cx="0" cy="0" r="1" gradientUnits="userSpaceOnUse" gradientTransform="translate(124.279 148.983) rotate(-166.14) scale(23.7531 23.7531)">
<stop stop-color="#FFD042"/>
<stop offset="1" stop-color="#F2830B"/>
</radialGradient>
<linearGradient id="paint7_linear_809_31929" x1="246.029" y1="72.4808" x2="264.853" y2="114.316" gradientUnits="userSpaceOnUse">
<stop stop-color="#9571CB"/>
<stop offset="1" stop-color="#6237C0"/>
</linearGradient>
<linearGradient id="paint8_linear_809_31929" x1="247.786" y1="76.3984" x2="263.079" y2="110.392" gradientUnits="userSpaceOnUse">
<stop stop-color="#F5F0FF"/>
<stop offset="1" stop-color="#D2C1F7"/>
</linearGradient>
<linearGradient id="paint9_linear_809_31929" x1="252.063" y1="85.167" x2="260.574" y2="104.083" gradientUnits="userSpaceOnUse">
<stop stop-color="#FAAD1E"/>
<stop offset="1" stop-color="#F2830B"/>
</linearGradient>
<linearGradient id="paint10_linear_809_31929" x1="195.524" y1="71.4063" x2="205.281" y2="93.0805" gradientUnits="userSpaceOnUse">
<stop stop-color="#F5F0FF"/>
<stop offset="1" stop-color="#D2C1F7"/>
</linearGradient>
<linearGradient id="paint11_linear_809_31929" x1="198.556" y1="75.2463" x2="202.24" y2="83.4282" gradientUnits="userSpaceOnUse">
<stop stop-color="#FAAD1E"/>
<stop offset="1" stop-color="#F2830B"/>
</linearGradient>
<linearGradient id="paint12_linear_809_31929" x1="199.729" y1="87.1439" x2="201.077" y2="90.149" gradientUnits="userSpaceOnUse">
<stop stop-color="#FAAD1E"/>
<stop offset="1" stop-color="#F2830B"/>
</linearGradient>
<linearGradient id="paint13_linear_809_31929" x1="319.695" y1="208.63" x2="308.065" y2="248.5" gradientUnits="userSpaceOnUse">
<stop stop-color="#FFE14D"/>
<stop offset="1" stop-color="#F7A523"/>
</linearGradient>
<linearGradient id="paint14_linear_809_31929" x1="318.352" y1="213.38" x2="308.565" y2="246.9" gradientUnits="userSpaceOnUse">
<stop stop-color="#FAAD1E"/>
<stop offset="1" stop-color="#F2830B"/>
</linearGradient>
<linearGradient id="paint15_linear_809_31929" x1="362.264" y1="77.1981" x2="346.003" y2="132.948" gradientUnits="userSpaceOnUse">
<stop stop-color="#FFE14D"/>
<stop offset="1" stop-color="#F7A523"/>
</linearGradient>
<linearGradient id="paint16_linear_809_31929" x1="360.328" y1="83.8465" x2="346.651" y2="130.725" gradientUnits="userSpaceOnUse">
<stop stop-color="#FAAD1E"/>
<stop offset="1" stop-color="#F2830B"/>
</linearGradient>
<linearGradient id="paint17_linear_809_31929" x1="65.6784" y1="152.734" x2="49.4073" y2="208.483" gradientUnits="userSpaceOnUse">
<stop stop-color="#FFE14D"/>
<stop offset="1" stop-color="#F7A523"/>
</linearGradient>
<linearGradient id="paint18_linear_809_31929" x1="63.7377" y1="159.381" x2="50.0601" y2="206.259" gradientUnits="userSpaceOnUse">
<stop stop-color="#FAAD1E"/>
<stop offset="1" stop-color="#F2830B"/>
</linearGradient>
<linearGradient id="paint19_linear_809_31929" x1="304.088" y1="55.5069" x2="312.311" y2="73.7848" gradientUnits="userSpaceOnUse">
<stop stop-color="#9571CB"/>
<stop offset="1" stop-color="#6237C0"/>
</linearGradient>
<linearGradient id="paint20_linear_809_31929" x1="42.309" y1="125.201" x2="50.5321" y2="143.479" gradientUnits="userSpaceOnUse">
<stop stop-color="#9571CB"/>
<stop offset="1" stop-color="#6237C0"/>
</linearGradient>
<linearGradient id="paint21_linear_809_31929" x1="285.932" y1="285.288" x2="291.531" y2="297.721" gradientUnits="userSpaceOnUse">
<stop stop-color="#263681"/>
<stop offset="1" stop-color="#1A1248"/>
</linearGradient>
<linearGradient id="paint22_linear_809_31929" x1="90.6695" y1="2.34003" x2="96.2579" y2="14.7826" gradientUnits="userSpaceOnUse">
<stop stop-color="#263681"/>
<stop offset="1" stop-color="#1A1248"/>
</linearGradient>
<linearGradient id="paint23_linear_809_31929" x1="313.803" y1="177.977" x2="319.392" y2="190.41" gradientUnits="userSpaceOnUse">
<stop stop-color="#263681"/>
<stop offset="1" stop-color="#1A1248"/>
</linearGradient>
<linearGradient id="paint24_linear_809_31929" x1="68.049" y1="44.2679" x2="104.996" y2="126.364" gradientUnits="userSpaceOnUse">
<stop stop-color="white"/>
<stop offset="1" stop-color="#F5F0FF"/>
</linearGradient>
<linearGradient id="paint25_linear_809_31929" x1="105.285" y1="234.753" x2="133.217" y2="296.832" gradientUnits="userSpaceOnUse">
<stop stop-color="#9571CB"/>
<stop offset="0.1" stop-color="#8964C8"/>
<stop offset="0.32" stop-color="#734BC3"/>
<stop offset="0.53" stop-color="#663CC0"/>
<stop offset="0.69" stop-color="#6237C0"/>
</linearGradient>
<linearGradient id="paint26_linear_809_31929" x1="107.797" y1="240.339" x2="129.605" y2="288.792" gradientUnits="userSpaceOnUse">
<stop stop-color="#F5F0FF"/>
<stop offset="1" stop-color="#D2C1F7"/>
</linearGradient>
<linearGradient id="paint27_linear_809_31929" x1="119.893" y1="247.425" x2="114.493" y2="280.157" gradientUnits="userSpaceOnUse">
<stop stop-color="#FFC085"/>
<stop offset="1" stop-color="#FA976E"/>
</linearGradient>
<linearGradient id="paint28_linear_809_31929" x1="102.339" y1="279.902" x2="106.469" y2="273.034" gradientUnits="userSpaceOnUse">
<stop stop-color="#FFC085"/>
<stop offset="1" stop-color="#FA976E"/>
</linearGradient>
<linearGradient id="paint29_linear_809_31929" x1="101.483" y1="276.408" x2="106.03" y2="268.845" gradientUnits="userSpaceOnUse">
<stop stop-color="#FFC085"/>
<stop offset="1" stop-color="#FA976E"/>
</linearGradient>
<linearGradient id="paint30_linear_809_31929" x1="100.746" y1="271.949" x2="105.535" y2="263.975" gradientUnits="userSpaceOnUse">
<stop stop-color="#FFC085"/>
<stop offset="1" stop-color="#FA976E"/>
</linearGradient>
<linearGradient id="paint31_linear_809_31929" x1="97.1736" y1="258.698" x2="111.074" y2="264.59" gradientUnits="userSpaceOnUse">
<stop stop-color="#FFC085"/>
<stop offset="1" stop-color="#FA976E"/>
</linearGradient>
<linearGradient id="paint32_linear_809_31929" x1="135.018" y1="262.007" x2="133.852" y2="277.285" gradientUnits="userSpaceOnUse">
<stop stop-color="#F5F0FF"/>
<stop offset="1" stop-color="#D2C1F7"/>
</linearGradient>
<linearGradient id="paint33_linear_809_31929" x1="137.917" y1="260.81" x2="137.115" y2="277.181" gradientUnits="userSpaceOnUse">
<stop stop-color="#263681"/>
<stop offset="1" stop-color="#1A1248"/>
</linearGradient>
</defs>
</svg>
