<svg width="905" height="484" viewBox="0 0 905 484" fill="none" xmlns="http://www.w3.org/2000/svg">
<path opacity="0.5" d="M878.044 480.247C877.973 480.376 877.905 480.499 877.834 480.622C877.336 481.512 876.822 482.415 876.296 483.322L70.7601 483.079C70.7601 483.079 69.9755 482.207 68.5723 480.532C68.4923 480.437 68.4122 480.342 68.3292 480.241C64.7319 475.928 57.4883 466.854 49.0106 454.06C49.0106 454.057 49.0075 454.054 49.0045 454.048C26.5102 420.086 -4.66162 359.941 0.58498 293.186C2.0651 274.344 6.44394 254.973 14.74 235.517C39.9021 176.505 114.973 136.726 182.6 135.927C208.775 135.614 233.842 141.146 254.459 153.663C258.117 155.881 262.715 157.595 268.063 158.759C272.571 159.745 277.611 160.344 283.083 160.535C327.003 162.08 398.437 137.371 440.804 75.2107C463.301 42.2015 497.839 20.5917 537.538 9.33679C539.387 8.81459 541.252 8.31082 543.12 7.8347C552.148 5.52166 561.42 3.72775 570.861 2.44376C572.559 2.21338 574.267 1.99835 575.978 1.80483C617.868 -3.04855 662.736 1.97071 703.887 15.8458C709.306 17.6705 714.664 19.6518 719.941 21.7866C797.385 53.094 857.636 117.02 852.337 206.283C852.128 209.812 851.817 213.382 851.395 216.991C850.604 223.865 849.423 230.881 847.844 238.038C846.912 242.256 845.841 246.523 844.622 250.832C812.703 363.987 940.307 369.095 878.044 480.247Z" fill="#EDF8E7"/>
<path d="M878.044 480.247L251.037 480.318L256.444 293.26V242.434H279.895V202.741H326.68V236.432H340.968V174.121H344.076V169.766H344.633V174.121H355.917V169.766H356.477V174.121H372.45V169.766H373.011V174.121H383.067V169.766H383.621V174.121H387.75V232.288H403.542V222.88L422.165 222.962V207.717H425.91V204.704H426.409V207.717H440.792V207.723H443.669V204.701H444.164V207.723H447.632V238.036H469.803V249.192H482.13V242.714H493.562V216.994H499.264V204.996H500.126V216.994H513.785V194.506H515.127V216.994H524.165V216.681H524.149V213.827H524.165V211.127H524.149V206.63H524.165V203.761H524.149V199.264H524.165V196.395H524.149V191.898H524.165V188.795H524.149V184.304H524.165V180.354H524.149V175.863H524.165V172.884H526.857V169.52H527.288V172.884H547.241V169.52H547.668V172.884H551.312V196.395L553.872 196.41V196.395H553.85V191.898H553.872V188.795H553.85V184.304H553.872V181.214H553.85V176.717H553.872V176.705H578.065V176.717H582.222C582.434 176.837 582.653 176.957 582.871 177.077V207.06H587.324V202.738H638.39V236.429H653.985V174.118H657.373V169.763H657.985V174.118H670.297V169.763H670.906V174.118H688.345V169.763H688.954V174.118H699.93V169.763H700.537V174.118H705.048V232.285H722.283V222.876L742.608 222.959V207.717H746.701V204.701H747.245V207.717H762.936L766.078 207.72V204.698H766.616V207.72H770.401V238.036H794.597V249.189H808.053V242.711H820.531V216.988H826.753V204.993H827.695V216.988H842.607V194.503H844.069V216.988H851.402C850.611 223.863 849.429 230.878 847.851 238.036C846.918 242.253 845.847 246.52 844.629 250.829C812.709 363.984 940.314 369.092 878.05 480.244L878.044 480.247Z" fill="#E8F4E6"/>
<path d="M719.94 21.7898V480.244H703.887V15.849C709.309 17.6736 714.663 19.6549 719.94 21.7928V21.7898Z" fill="#4A8F50" fill-opacity="0.5"/>
<path d="M268.066 158.76V480.536H68.5723C68.4923 480.44 68.4122 480.345 68.3292 480.244C64.7319 475.931 57.4883 466.857 49.0106 454.063C49.0106 454.06 49.0075 454.057 49.0045 454.051C26.5102 420.086 -4.66162 359.941 0.58498 293.186C2.0651 274.344 6.44394 254.973 14.74 235.517C39.9021 176.505 114.973 136.726 182.6 135.927C208.532 136.213 233.248 141.8 253.773 153.663C257.613 155.881 262.444 157.595 268.063 158.76H268.066Z" fill="#E0F5D4"/>
<path d="M575.981 1.8074V58.2664C575.981 62.6682 574.904 66.2591 573.594 66.2591H573.252C571.938 66.2591 570.867 62.6682 570.867 58.2664V2.44633C572.566 2.21595 574.274 2.00092 575.985 1.8074H575.981Z" fill="#01483F"/>
<path d="M572.089 52.6761C553.447 52.6761 538.338 68.6247 538.338 88.3024H605.84C605.84 68.6278 590.727 52.6761 572.089 52.6761Z" fill="#FF9843"/>
<path d="M574.779 53.1095C573.809 52.8975 572.818 52.787 571.815 52.787C559.67 52.787 549.826 68.6864 549.826 88.2996H555.755C555.755 70.3114 564.039 55.4471 574.782 53.1095H574.779Z" fill="#FFC48A"/>
<path d="M794.364 427.698C794.364 427.698 785.381 417.239 793.81 410.595C793.81 410.595 799.967 406.875 804.986 407.176C804.986 407.176 797.872 419.082 800.173 420.268C802.475 421.454 807.14 406.43 807.14 406.43C807.14 406.43 821.15 405.072 825.655 407.237C825.655 407.237 813.679 417.021 816.202 417.605C818.726 418.188 831.662 408.583 831.662 408.583C831.662 408.583 844.7 410.798 844.005 418.738C843.309 426.679 838.817 429.13 836.841 428.918C834.866 428.706 823.314 424.304 823.065 425.92C822.812 427.536 829.767 432.813 834.635 433.062C834.635 433.062 825.443 443.183 819.332 440.262C813.224 437.341 812.701 432.712 808.894 430.976C805.085 429.24 801.835 429.244 803.407 431.016C804.98 432.788 811.873 434.509 814.051 438.354C816.23 442.2 818.184 444.793 811.864 443.844C805.543 442.894 795.268 438.278 794.816 432.991L794.364 427.705V427.698Z" fill="#2D7756"/>
<path d="M837.598 418.952C837.598 418.952 802.182 417.588 794.363 427.7C794.363 427.7 792.634 432.87 787.31 437.579L786.479 439.837C786.479 439.837 792.615 433.377 794.812 432.987C794.812 432.987 791.378 420.46 837.598 418.952Z" fill="#2D7756"/>
<path d="M787.31 437.579C787.31 437.579 779.709 443.191 779.18 453.217L780.559 453.34C780.559 453.34 782.987 442.973 787.375 438.918C791.763 434.863 787.31 437.579 787.31 437.579Z" fill="#2D7756"/>
<path d="M762.957 414.546C762.957 414.546 777.245 406.559 770.577 395.719C770.577 395.719 765.244 389.062 759.526 387.351C759.526 387.351 762.576 403.515 759.526 403.896C756.477 404.277 757.431 385.641 757.431 385.641C757.431 385.641 742.38 378.413 736.475 378.984C736.475 378.984 745.811 394.767 742.762 394.389C739.712 394.008 729.235 378.035 729.235 378.035C729.235 378.035 713.803 375.181 711.329 384.31C708.851 393.44 712.852 398.001 715.138 398.573C717.424 399.144 732.093 398.954 731.712 400.855C731.33 402.756 721.425 405.8 715.901 404.09C715.901 404.09 721.997 419.114 729.998 418.352C737.998 417.59 740.476 412.647 745.43 412.267C750.384 411.886 754.003 413.219 751.526 414.549C749.049 415.879 740.666 414.985 736.666 418.379C732.666 421.774 729.425 423.865 736.857 425.389C744.288 426.91 757.622 425.96 760.29 420.253L762.957 414.549V414.546Z" fill="#2D7756"/>
<path d="M718.382 387.161C718.382 387.161 758.388 400.093 762.961 414.546C762.961 414.546 762.77 421.012 766.771 428.427V431.281C766.771 431.281 762.579 421.583 760.293 420.25C760.293 420.25 769.248 407.699 718.382 387.161Z" fill="#2D7756"/>
<path d="M766.77 428.427C766.77 428.427 772.94 437.78 769.423 449.164L767.835 448.737C767.835 448.737 769.377 436.199 766.149 429.892C762.921 423.586 766.77 428.427 766.77 428.427Z" fill="#2D7756"/>
<path d="M785.688 403.53C785.688 403.53 766.853 393 775.644 378.714C775.644 378.714 782.675 369.941 790.208 367.683C790.208 367.683 786.19 388.992 790.208 389.493C794.227 389.993 792.972 365.428 792.972 365.428C792.972 365.428 812.81 355.903 820.596 356.655C820.596 356.655 808.29 377.46 812.309 376.96C816.328 376.459 830.138 355.402 830.138 355.402C830.138 355.402 850.478 351.642 853.743 363.674C857.008 375.706 851.734 381.724 848.721 382.477C845.708 383.229 826.371 382.977 826.873 385.484C827.375 387.99 840.434 392.002 847.715 389.744C847.715 389.744 839.68 409.548 829.132 408.547C818.583 407.545 815.321 401.027 808.792 400.526C802.262 400.026 797.492 401.78 800.757 403.534C804.022 405.288 815.072 404.108 820.343 408.584C825.614 413.059 829.886 415.817 820.091 417.823C810.296 419.829 792.719 418.576 789.202 411.056L785.688 403.537V403.53Z" fill="#01483F"/>
<path d="M844.453 367.432C844.453 367.432 791.716 384.477 785.691 403.531C785.691 403.531 785.943 412.055 780.669 421.829V425.589C780.669 425.589 786.192 412.805 789.208 411.051C789.208 411.051 777.404 394.506 844.456 367.432H844.453Z" fill="#01483F"/>
<path d="M780.666 421.83C780.666 421.83 772.533 434.157 777.171 449.165L779.263 448.603C779.263 448.603 777.232 432.074 781.488 423.762C785.744 415.45 780.666 421.83 780.666 421.83Z" fill="#01483F"/>
<path d="M785.055 481.707C805.429 481.707 821.947 465.218 821.947 444.88H748.16C748.16 465.218 764.678 481.707 785.052 481.707H785.055Z" fill="#01483F"/>
<path d="M794.133 481.424C792.631 481.612 791.102 481.707 789.548 481.707C769.174 481.707 752.655 465.218 752.655 444.88H761.822C761.822 463.669 775.919 479.173 794.133 481.427V481.424Z" fill="#4A8F50" fill-opacity="0.5"/>
<path d="M822.787 444.88H746.95V446.01H822.787V444.88Z" fill="#01483F"/>
<path d="M613.301 479.897L577.048 329.694L579.581 323.781L615.495 479.879C615.587 480.278 615.282 480.659 614.87 480.659H614.27C613.808 480.659 613.405 480.343 613.298 479.894L613.301 479.897Z" fill="#2D7756"/>
<path d="M449.689 480.662C448.945 480.662 448.379 479.995 448.499 479.261L459.176 414.656H463.752L451.019 479.571C450.896 480.204 450.339 480.662 449.689 480.662Z" fill="#2D7756"/>
<path d="M552.117 480.662C551.372 480.662 550.806 479.995 550.926 479.261L561.604 414.656H566.18L553.446 479.571C553.323 480.204 552.766 480.662 552.117 480.662Z" fill="#2D7756"/>
<path d="M576.953 414.791H449.435L475.852 249.454H603.374L576.953 414.791Z" fill="#F5FBFF"/>
<path d="M586.495 413.529H440.04V418.393H586.495V413.529Z" fill="#2D7756"/>
<path d="M526.356 284.048C526.26 285.356 526.066 286.644 525.783 287.897C523.124 299.714 512.585 308.766 500.673 308.788C487.494 308.809 477.628 297.772 478.635 284.131C479.641 270.489 491.137 259.415 504.317 259.394C507.08 259.388 509.696 259.87 512.099 260.764C513.179 261.163 514.219 261.646 515.207 262.202C517.339 263.409 519.238 264.966 520.841 266.809C521.734 267.832 522.534 268.947 523.229 270.133C523.635 270.821 524.005 271.534 524.337 272.268C525.263 274.313 525.903 276.534 526.211 278.878C526.368 280.052 526.436 281.262 526.42 282.494C526.414 283.007 526.392 283.526 526.352 284.048H526.356Z" fill="#5E9851"/>
<path d="M524.337 272.268L502.499 284.088C502.499 284.088 511.509 268.247 515.207 262.198C517.34 263.406 519.238 264.963 520.842 266.806C521.734 267.829 522.534 268.944 523.23 270.13C523.636 270.818 524.005 271.53 524.337 272.264V272.268Z" fill="white"/>
<path d="M526.605 269.276L506.656 280.073C506.656 280.073 514.887 265.602 518.266 260.079C520.214 261.182 521.949 262.604 523.411 264.287C524.226 265.224 524.956 266.241 525.593 267.325C525.962 267.952 526.3 268.603 526.605 269.276Z" fill="#01483F"/>
<path d="M566.798 402.221L461.839 402.215L472.464 341.763L577.424 341.769L566.798 402.221ZM462.688 401.604L566.168 401.61L576.581 342.374L473.101 342.368L462.688 401.604Z" fill="#5E9851"/>
<path d="M560.54 393.935L467.452 393.929C467.452 393.929 483.964 385.088 488.493 385.552C493.023 386.016 499.534 389.594 503.719 389.733C507.904 389.871 512.44 377.326 517.099 377.919C521.758 378.508 523.512 389.607 525.924 388.522C528.337 387.438 535.584 386.968 539.756 388.522C543.929 390.077 550.009 383.583 553.677 383.786C557.345 383.988 560.536 393.932 560.536 393.932L560.54 393.935Z" fill="#01483F"/>
<path d="M489.837 376.165H472.057L472.223 375.225H490L489.837 376.165Z" fill="#01483F"/>
<path d="M489.484 378.177H471.704L471.87 377.234L489.65 377.237L489.484 378.177Z" fill="#01483F"/>
<path d="M472.781 363.625L565.869 363.631C565.869 363.631 552.465 354.79 547.772 355.251C543.079 355.715 535.313 359.29 531.078 359.429C526.844 359.567 526.721 347.022 521.853 347.612C516.985 348.201 511.332 359.3 509.298 358.215C507.267 357.131 500.187 356.661 495.466 358.215C490.749 359.77 486.949 353.276 483.21 353.479C479.468 353.681 472.781 363.625 472.781 363.625Z" fill="#5E9851"/>
<path d="M494.86 347.591H477.08L477.246 346.648L495.026 346.651L494.86 347.591Z" fill="#5E9851"/>
<path d="M494.506 349.603L476.726 349.6L476.892 348.66H494.672L494.506 349.603Z" fill="#5E9851"/>
<path d="M478.816 333.331H474.733L478.281 314.231H482.364L478.816 333.331Z" fill="#5E9851"/>
<path d="M484.376 333.331H480.293L483.041 318.538H487.124L484.376 333.331Z" fill="#5E9851"/>
<path d="M489.941 333.331H485.857L488.722 317.902H492.806L489.941 333.331Z" fill="#5E9851"/>
<path d="M495.5 333.331H491.417L493.599 321.594H497.682L495.5 333.331Z" fill="#5E9851"/>
<path d="M501.064 333.331H496.981L499.32 320.739H503.403L501.064 333.331Z" fill="#5E9851"/>
<path d="M506.625 333.331H502.542L504.357 323.566H508.437L506.625 333.331Z" fill="#5E9851"/>
<path d="M533.432 333.331H529.349L532.897 314.231H536.98L533.432 333.331Z" fill="#01483F"/>
<path d="M538.992 333.331H534.912L537.66 318.538H541.74L538.992 333.331Z" fill="#01483F"/>
<path d="M544.557 333.331H540.473L543.338 317.902H547.421L544.557 333.331Z" fill="#01483F"/>
<path d="M550.117 333.331H546.033L548.215 321.594H552.298L550.117 333.331Z" fill="#01483F"/>
<path d="M555.681 333.331H551.597L553.936 320.739H558.019L555.681 333.331Z" fill="#01483F"/>
<path d="M561.241 333.331H557.158L558.973 323.566H563.057L561.241 333.331Z" fill="#01483F"/>
<path d="M553.089 270.987H539.799L540.14 269.168H553.431L553.089 270.987Z" fill="#5E9851"/>
<path d="M569.391 270.987H554.716L555.061 269.168H569.736L569.391 270.987Z" fill="#5E9851"/>
<path d="M579.854 270.987H570.497L570.838 269.168H580.196L579.854 270.987Z" fill="#5E9851"/>
<path d="M588.587 270.987H581.368L581.71 269.168H588.929L588.587 270.987Z" fill="#5E9851"/>
<path d="M551.631 278.741H538.34L538.682 276.925H551.972L551.631 278.741Z" fill="#5E9851"/>
<path d="M567.933 278.741H553.258L553.6 276.925H568.278L567.933 278.741Z" fill="#5E9851"/>
<path d="M578.397 278.741H569.039L569.381 276.925H578.738L578.397 278.741Z" fill="#5E9851"/>
<path d="M587.129 278.741H579.91L580.252 276.925H587.471L587.129 278.741Z" fill="#5E9851"/>
<path d="M560.988 266.746H540.596L540.937 264.93H561.33L560.988 266.746Z" fill="#5E9851"/>
<path d="M574.685 266.746H562.93L563.272 264.93H575.027L574.685 266.746Z" fill="#5E9851"/>
<path d="M589.397 266.746H576.343L576.685 264.93H589.738L589.397 266.746Z" fill="#5E9851"/>
<path d="M559.438 274.993H539.046L539.387 273.174H559.78L559.438 274.993Z" fill="#5E9851"/>
<path d="M573.134 274.993H561.379L561.721 273.174H573.476L573.134 274.993Z" fill="#5E9851"/>
<path d="M587.847 274.993H574.793L575.135 273.174H588.188L587.847 274.993Z" fill="#5E9851"/>
<path d="M550.172 286.498H536.882L537.223 284.679H550.514L550.172 286.498Z" fill="#5E9851"/>
<path d="M566.474 286.498H551.799L552.141 284.679H566.816L566.474 286.498Z" fill="#5E9851"/>
<path d="M576.938 286.498H567.58L567.922 284.679H577.279L576.938 286.498Z" fill="#5E9851"/>
<path d="M585.67 286.498H578.451L578.792 284.679H586.011L585.67 286.498Z" fill="#5E9851"/>
<path d="M557.979 282.746H537.586L537.928 280.927H558.32L557.979 282.746Z" fill="#5E9851"/>
<path d="M571.676 282.746H559.921L560.262 280.927H572.017L571.676 282.746Z" fill="#5E9851"/>
<path d="M586.385 282.746H573.332L573.676 280.927H586.73L586.385 282.746Z" fill="#5E9851"/>
<path d="M548.806 293.765H535.513L535.854 291.949H549.148L548.806 293.765Z" fill="#5E9851"/>
<path d="M565.108 293.765H550.433L550.775 291.949H565.45L565.108 293.765Z" fill="#5E9851"/>
<path d="M575.568 293.765H566.214L566.555 291.949H575.91L575.568 293.765Z" fill="#5E9851"/>
<path d="M584.304 293.765H577.085L577.427 291.949H584.646L584.304 293.765Z" fill="#5E9851"/>
<path d="M556.61 290.017H536.221L536.562 288.198H556.952L556.61 290.017Z" fill="#5E9851"/>
<path d="M570.307 290.017H558.552L558.896 288.198H570.648L570.307 290.017Z" fill="#5E9851"/>
<path d="M585.019 290.017H571.965L572.307 288.198H585.36L585.019 290.017Z" fill="#5E9851"/>
<path d="M518.558 317.073H512.053L512.222 316.185H518.727L518.558 317.073Z" fill="#5E9851"/>
<path d="M526.54 317.073H519.357L519.524 316.185H526.706L526.54 317.073Z" fill="#5E9851"/>
<path d="M517.844 320.871H511.338L511.508 319.98H518.013L517.844 320.871Z" fill="#5E9851"/>
<path d="M525.827 320.871H518.645L518.811 319.98H525.993L525.827 320.871Z" fill="#5E9851"/>
<path d="M522.425 314.997H512.443L512.612 314.109H522.591L522.425 314.997Z" fill="#5E9851"/>
<path d="M529.128 314.997H523.377L523.543 314.109H529.297L529.128 314.997Z" fill="#5E9851"/>
<path d="M521.665 319.033H511.686L511.852 318.145H521.832L521.665 319.033Z" fill="#5E9851"/>
<path d="M528.371 319.033H522.617L522.783 318.145H528.537L528.371 319.033Z" fill="#5E9851"/>
<path d="M570.67 317.073H564.165L564.334 316.185H570.839L570.67 317.073Z" fill="#5E9851"/>
<path d="M578.652 317.073H571.467L571.636 316.185H578.818L578.652 317.073Z" fill="#5E9851"/>
<path d="M569.956 320.871H563.451L563.62 319.98H570.125L569.956 320.871Z" fill="#5E9851"/>
<path d="M577.938 320.871H570.753L570.922 319.98H578.104L577.938 320.871Z" fill="#5E9851"/>
<path d="M574.538 314.997H564.555L564.724 314.109H574.704L574.538 314.997Z" fill="#5E9851"/>
<path d="M581.24 314.997H575.489L575.655 314.109H581.41L581.24 314.997Z" fill="#5E9851"/>
<path d="M573.778 319.033H563.795L563.965 318.145H573.944L573.778 319.033Z" fill="#5E9851"/>
<path d="M580.483 319.033H574.729L574.895 318.145H580.649L580.483 319.033Z" fill="#5E9851"/>
<path d="M605.282 478.21C605.054 481.318 600.66 481.352 595.678 480.775C590.693 480.197 592.019 481.457 585.04 481.555C578.061 481.653 575.655 479.349 575.316 478.354C575.015 477.469 578.378 476.726 581.972 475.854C582.425 475.746 582.88 475.633 583.332 475.516C587.388 474.487 590.071 471.458 593.542 468.813C596.829 466.307 601.066 457.239 601.066 457.239L610.599 456.809C610.599 456.809 606.583 464.937 605.076 468.442C604.189 470.503 604.565 473.037 604.953 474.978C605.159 476.035 605.365 477.116 605.282 478.21Z" fill="#FFB27D"/>
<path d="M595.675 480.775C590.69 480.197 592.016 481.457 585.037 481.555C578.058 481.653 575.652 479.349 575.313 478.354C575.012 477.47 578.375 476.726 581.969 475.854L582.012 475.918C582.012 475.918 586.505 478.327 592.253 477.749C596.937 477.279 601.719 475.328 604.95 474.978C605.156 476.035 605.362 477.116 605.279 478.21C605.051 481.318 600.657 481.352 595.675 480.775Z" fill="#45391D"/>
<path d="M671.128 478.855C670.904 481.964 666.509 482.001 661.524 481.43C656.539 480.858 657.865 482.115 650.886 482.219C643.907 482.323 641.498 480.023 641.159 479.027C640.858 478.143 644.218 477.396 647.812 476.521C648.265 476.413 648.717 476.297 649.172 476.183C653.225 475.151 655.908 472.119 659.373 469.468C662.657 466.959 659.373 452.107 659.373 452.107L669.86 451.087C669.86 451.087 669.359 463.592 669.365 469.281C669.365 471.523 670.402 473.683 670.79 475.624C670.996 476.681 671.205 477.762 671.122 478.855H671.128Z" fill="#FFB27D"/>
<path d="M661.524 481.427C656.539 480.855 657.865 482.112 650.886 482.216C643.907 482.321 641.498 480.02 641.159 479.025C640.858 478.14 644.218 477.394 647.812 476.518L647.855 476.583C647.855 476.583 652.351 478.985 658.099 478.404C662.783 477.931 667.562 475.974 670.793 475.621C670.999 476.678 671.208 477.759 671.125 478.853C670.9 481.961 666.506 481.998 661.521 481.427H661.524Z" fill="#45391D"/>
<path d="M640.525 222.129C638.718 214.717 641.337 211.264 643.697 209.428C644.817 206.7 646.094 204.734 647.402 203.991C649.787 202.639 652.643 202.491 654.64 202.608C654.126 202.077 653.113 201.886 653.113 201.886C654.353 201.702 657.117 202.928 657.117 202.928C674.349 196.299 677.057 221.625 676.694 227.511C676.334 233.393 676.383 240.323 685.347 244.959C702.453 253.805 679.663 287.137 679.663 287.137C680.097 282.382 658.12 257.289 646.654 249.775C643.863 245.674 642.872 238.425 642.796 237.857C643.279 243.604 644.263 246.826 645.143 248.642C639.918 243.84 639.143 232.309 640.528 222.126L640.525 222.129Z" fill="#A9453D"/>
<path d="M647.332 250.153C647.273 250.178 652.867 253.078 657.077 251.929C661.034 250.851 663.622 245.73 663.567 245.718C661.89 245.386 661.407 243.085 661.444 233.207L660.687 233.354L647.947 235.873C647.947 235.873 648.236 239.875 648.245 243.644C648.255 246.811 648.061 249.812 647.335 250.15L647.332 250.153Z" fill="#FFB27D"/>
<path d="M647.941 235.873C647.941 235.873 648.23 239.875 648.239 243.644C655.369 243.444 659.136 236.951 660.681 233.354L647.941 235.873Z" fill="#ED975D"/>
<path d="M596.106 462.274C595.482 464.227 596.885 466.242 598.94 466.338L603.916 466.571L609.181 466.731C610.498 466.771 611.757 466.196 612.591 465.176C616.794 460.028 629.734 442.872 637.581 417.945C637.802 417.245 638.033 416.538 638.282 415.822C643.464 400.734 654.21 381.797 659.875 364.656C660.776 361.925 661.586 359.357 662.312 356.924C662.543 356.144 662.77 355.379 662.986 354.627C667.158 340.153 668.368 330.649 669.482 320.496L628.592 320.822C628.592 320.822 619.985 387.611 596.109 462.274H596.106Z" fill="#FD9C28"/>
<path d="M634.316 297.369C634.42 316.791 631.46 325.125 631.46 325.125C631.46 325.125 648.966 334.005 669.774 327.469C670.02 327.392 684.661 323.254 684.661 323.254C684.314 322.468 681.421 309.471 681.08 308.749C676.685 299.331 675.488 295.378 674.968 292.481C674.002 287.075 673.981 281.484 674.464 276.207C675.735 262.243 679.51 250.653 679.51 250.653C673.842 249.366 668.531 247.102 662.629 244.894C661.272 246.58 657.124 248.346 653.523 248.266C649.378 248.174 648.034 246.405 648.249 244.47C643.833 246.924 640.307 249.24 640.307 249.24C636.553 255.749 628.94 262.071 628.389 272.054C628.254 274.508 634.309 296.822 634.313 297.365L634.316 297.369Z" fill="white"/>
<path d="M669.481 299.535C671.269 302.059 674.697 317.409 683.22 319.338C678.826 308.4 675.491 303.602 674.97 300.238C674.004 293.959 673.983 287.462 674.466 281.334C671.613 276.34 669.481 272.918 669.481 272.918C669.256 272.11 664.945 258.803 663.563 270.697C662.185 282.594 667.484 296.705 669.481 299.531V299.535Z" fill="#5F9AA8"/>
<path d="M645.562 239.445C645.562 239.445 662.431 239.722 662.44 229.235C662.452 218.748 664.637 211.72 653.867 211.099C643.097 210.479 641.001 214.478 640.143 217.977C639.287 221.475 641.17 239.104 645.559 239.445H645.562Z" fill="#FFB27D"/>
<path d="M646.187 210.838C646.187 210.838 650.805 223.143 657.892 224.962C664.979 226.78 668.053 224.885 668.053 224.885C668.053 224.885 662.616 220.575 661.489 213.049C661.489 213.049 649.67 204.983 646.187 210.838Z" fill="#A9453D"/>
<path d="M647.331 211.839C647.331 211.839 643.882 214.585 643.042 217.258C642.201 219.927 641.823 225.425 640.217 225.241C640.217 225.241 636.736 216.877 640.647 212.146C644.792 207.13 647.331 211.842 647.331 211.842V211.839Z" fill="#A9453D"/>
<path d="M619.022 310.851L611.055 335.097L615.597 336.915L628.771 315.496L619.022 310.851Z" fill="#FFB27D"/>
<path d="M640.5 247.815C640.5 247.815 631.106 251.535 628.389 257.338C625.668 263.14 621.554 302.053 619.914 306.049C618.274 310.046 617.043 313.21 617.043 313.21C617.043 313.21 621.779 317.194 626.542 317.486C631.306 317.777 640.503 247.815 640.503 247.815H640.5Z" fill="#01483F"/>
<path d="M648.249 244.47C648.249 244.47 638.491 268.537 638.202 273.406C637.916 278.278 637.054 353.053 637.054 353.053C637.054 353.053 637.63 356.491 631.026 355.059C624.425 353.628 622.702 352.193 622.702 352.193C622.702 352.193 629.017 306.068 627.293 290.024C625.57 273.98 640.494 247.812 640.494 247.812L648.246 244.47H648.249Z" fill="#01483F"/>
<path d="M603.916 466.571L609.633 466.746C610.655 466.777 611.633 466.338 612.285 465.551C616.129 460.907 629.533 443.511 637.583 417.948C637.805 417.248 638.035 416.541 638.285 415.825C643.467 400.737 654.212 381.8 659.877 364.659C660.779 361.928 661.588 359.36 662.314 356.928C662.545 356.147 662.773 355.382 662.988 354.63L656.966 350.068C656.966 350.068 638.888 379.29 633.29 406.791C628.428 430.681 608.959 459.423 603.919 466.574L603.916 466.571Z" fill="#E65924"/>
<path d="M656.335 409.353C656.237 422.006 656.837 450.204 658.382 463.99C658.523 465.253 659.591 466.205 660.865 466.205H665.13C666.927 466.205 668.275 466.193 669.167 466.177C669.94 466.165 670.601 465.612 670.749 464.854C674.992 443.302 678.03 425.397 680.251 409.924C682.11 396.974 683.766 385.872 685.036 376.316C686.316 366.698 687.206 358.644 687.526 351.84C687.575 350.768 687.612 349.727 687.63 348.713C687.652 347.697 687.655 346.707 687.649 345.749L652.32 342.312C652.766 365.746 656.394 401.581 656.339 409.353H656.335Z" fill="#FD9C28"/>
<path d="M665.13 466.202C666.746 466.202 667.995 466.192 668.881 466.18C669.82 466.168 670.623 465.495 670.805 464.577C675.02 443.148 678.039 425.332 680.252 409.927C682.11 396.977 683.766 385.875 685.037 376.319C686.317 366.701 687.206 358.647 687.526 351.843L674.562 359.455C674.562 359.455 682.836 362.37 679.679 384.428C676.522 406.49 669.525 463.081 665.13 466.205V466.202Z" fill="#E65924"/>
<path d="M663.459 351.622C663.459 351.622 665.949 360.598 674.559 359.452C683.168 358.306 695.413 353.149 695.413 353.149C695.413 353.149 691.732 341.544 687.157 326.296C681.618 307.837 674.762 284.04 671.531 269.029C670.623 264.823 670.004 261.309 669.774 258.794L662.631 244.958C662.631 244.958 651.981 268.82 651.406 274.837C650.83 280.855 663.459 351.619 663.459 351.619V351.622Z" fill="#01483F"/>
<path d="M672.058 273.944L662.629 244.962C662.654 244.974 674.538 248.491 680.514 251.504C680.514 251.504 684.249 256.312 686.56 267.404C686.56 267.404 689.004 294.036 683.551 303.777C683.551 303.777 666.331 307.214 638.778 297.759V291.456C638.778 291.456 668.913 293.032 675.086 293.747L672.058 273.941V273.944Z" fill="#FFB27D"/>
<path d="M663.841 287.448C664.226 297.188 666.521 316.098 686.994 326.219C687.049 326.244 687.102 326.275 687.157 326.296C681.618 307.838 674.762 284.041 671.531 269.029C667.771 274.638 663.632 282.081 663.841 287.445V287.448Z" fill="#002822"/>
<path d="M662.632 244.962C662.632 244.962 680.11 246.19 684.317 255.55C688.526 264.91 689.865 296.042 684.508 305.211C684.508 305.211 677.132 307.309 664.087 304.873C663.927 304.842 663.767 304.812 663.604 304.781C663.604 304.781 659.444 294.61 663.173 292.605C663.173 292.605 674.174 293.179 673.027 289.548C671.879 285.92 662.629 244.962 662.629 244.962H662.632Z" fill="#01483F"/>
<path d="M618.812 295.35L619.326 297.003L648.003 288.098C648.003 288.098 648.384 287.662 648.197 287.084C647.987 286.445 647.489 286.445 647.489 286.445L618.812 295.35Z" fill="#A9453D"/>
<path d="M616.738 296.91L618.812 295.35L619.326 297.003L616.738 296.91Z" fill="#A9453D"/>
<path d="M612.188 334.433C612.188 334.433 604.913 338.445 603.956 341.505C602.999 344.564 603.658 350.966 604.812 350.87C605.965 350.775 607.689 343.99 608.646 343.514C609.603 343.034 610.944 341.603 610.944 342.653C610.944 343.704 609.987 345.615 610.464 345.903C610.944 346.189 612.474 343.228 613.526 342.653C614.579 342.079 615.022 337.355 616.043 336.086C617.068 334.817 612.185 334.437 612.185 334.437L612.188 334.433Z" fill="#FFB27D"/>
<path d="M638.778 291.459C638.778 291.459 632.272 287.459 629.543 288.074C626.814 288.688 619.859 293.717 623.204 294.807C626.549 295.894 629.26 294.755 630.546 295.544C631.832 296.337 632.783 297.781 638.778 297.762C644.775 297.744 638.778 291.459 638.778 291.459Z" fill="#FFB27D"/>
<g opacity="0.6">
<path d="M323.693 480.651H323.585C322.951 480.651 322.443 480.132 322.459 479.5L324.167 405.593L329.198 405.006L324.908 479.506C324.871 480.148 324.339 480.651 323.693 480.651Z" fill="#2D7756"/>
<path d="M294.37 480.651H294.262C293.628 480.651 293.121 480.132 293.136 479.5L294.844 405.593L299.875 405.006L295.586 479.506C295.549 480.148 295.016 480.651 294.37 480.651Z" fill="#2D7756"/>
<path d="M375.281 480.651H375.389C376.023 480.651 376.531 480.132 376.515 479.5L374.808 405.593L369.776 405.006L374.066 479.506C374.103 480.148 374.635 480.651 375.281 480.651Z" fill="#2D7756"/>
<path d="M291.035 401.011V350.367C291.035 341.455 298.272 334.231 307.199 334.231H343.753C352.68 334.231 359.917 341.455 359.917 350.367V402.946L291.038 401.011H291.035Z" fill="#2D7756"/>
<path d="M291.035 401.011H366.466V409.007H295.887C293.21 409.007 291.035 406.835 291.035 404.162V401.011Z" fill="#2D7756"/>
<path d="M321.529 401.011H374.925C376.906 401.011 378.513 402.617 378.513 404.592V405.422C378.513 407.4 376.903 409.003 374.925 409.003H321.529C319.548 409.003 317.941 407.397 317.941 405.422V404.592C317.941 402.614 319.551 401.011 321.529 401.011Z" fill="#2D7756"/>
</g>
<path d="M414.869 451.181C415.38 453.727 419.014 453.3 423.076 452.311C427.138 451.322 426.171 452.498 431.95 451.86C437.729 451.221 439.48 449.07 439.659 448.21C439.816 447.449 436.96 447.181 433.898 446.828C433.514 446.785 433.126 446.739 432.738 446.69C429.279 446.257 426.747 444.03 423.605 442.199C420.629 440.466 416.189 433.404 416.189 433.404L408.262 434.031C408.262 434.031 412.423 440.337 414.032 443.08C414.98 444.693 414.927 446.825 414.81 448.471C414.749 449.365 414.69 450.281 414.872 451.178L414.869 451.181Z" fill="#FFB27D"/>
<path d="M423.076 452.311C427.138 451.322 426.171 452.499 431.95 451.86C437.729 451.221 439.48 449.07 439.659 448.21C439.816 447.449 436.96 447.181 433.898 446.828L433.87 446.886C433.87 446.886 430.406 449.341 425.593 449.454C421.673 449.55 417.518 448.428 414.81 448.471C414.749 449.365 414.69 450.281 414.872 451.178C415.383 453.724 419.017 453.297 423.079 452.308L423.076 452.311Z" fill="#45391D"/>
<path d="M346.753 462.568C345.178 464.636 347.901 467.075 351.332 469.458C354.763 471.842 353.24 471.9 357.542 475.805C361.844 479.709 364.619 479.595 365.379 479.162C366.056 478.778 364.367 476.462 362.607 473.934C362.385 473.618 362.164 473.295 361.945 472.976C359.982 470.1 359.982 466.731 359.277 463.167C358.61 459.795 364.13 447.394 364.13 447.394L355.262 446.279C355.262 446.279 354.105 453.768 353.107 456.784C352.523 458.56 350.058 459.73 348.744 460.732C348.03 461.278 347.304 461.84 346.75 462.568H346.753Z" fill="#FFB27D"/>
<path d="M351.332 469.459C354.763 471.842 353.239 471.901 357.541 475.805C361.843 479.709 364.619 479.595 365.379 479.162C366.056 478.778 364.367 476.462 362.606 473.934L362.542 473.953C362.542 473.953 358.406 472.982 355.138 469.456C352.473 466.583 350.568 462.731 348.744 460.735C348.03 461.282 347.304 461.844 346.75 462.572C345.174 464.639 347.897 467.078 351.329 469.462L351.332 469.459Z" fill="#45391D"/>
<path d="M382.965 399.176L374.866 420.93L364.293 449.335C364.293 449.335 361.425 449.611 358.677 448.822C356.147 448.091 353.246 446.183 353.246 446.183C353.246 446.183 356.181 415.684 361.659 398.178C363.062 393.684 364.634 390.05 366.37 388.004C374.86 377.987 382.965 399.179 382.965 399.179V399.176Z" fill="#E65924"/>
<path d="M374.731 364.628C369.426 362.92 353.437 363.94 338.236 366.911L335.909 362.844L303.076 360.285C303.076 360.285 292.241 384.269 298.174 399.551C299.045 401.797 300.777 403.237 303.731 403.286C303.731 403.286 304.208 403.286 304.211 403.286C304.211 403.286 323.754 403.274 330.099 403.274C346.427 403.274 364.656 392.068 367.013 391.598C370.872 390.827 372.417 398.534 376.276 406.625C380.134 414.716 412.556 442.458 412.556 442.458C412.556 442.458 417.538 442.507 419.596 441.736C421.809 440.906 422.621 439.831 422.621 439.831C422.621 439.831 386.695 368.483 374.731 364.628Z" fill="#FD9C28"/>
<path d="M324.41 263.632C319.788 262.532 313.514 263.822 312.471 263.945C300.002 265.398 297.214 284.732 298.14 290.141C299.848 300.109 295.054 302.917 289.33 310.888C277.856 326.873 285.782 340.033 295.122 343.295C300.725 345.252 308.363 339.922 308.363 339.922C308.504 339.974 328.189 321.215 337.925 312.101C354.293 305.368 336.184 266.433 324.407 263.632H324.41Z" fill="#45391D"/>
<path d="M327.08 309.219C327.139 309.238 322.003 312.586 317.818 311.883C313.882 311.222 309.716 306.095 309.768 306.08C311.359 305.595 312.765 303.742 311.771 294.18L312.519 294.251L325.099 295.455C325.099 295.455 325.206 299.359 325.566 303.008C325.865 306.074 326.345 308.961 327.08 309.219Z" fill="#FFB27D"/>
<path d="M325.102 295.452C325.102 295.452 325.21 299.356 325.57 303.005C318.647 303.503 314.369 297.581 312.523 294.245L325.102 295.449V295.452Z" fill="#ED975D"/>
<path d="M327.751 298.677C327.751 298.677 311.448 300.579 310.417 290.426C309.387 280.271 306.589 273.679 316.956 272.036C327.323 270.392 329.742 274.063 330.911 277.368C332.081 280.674 331.967 297.922 327.754 298.68L327.751 298.677Z" fill="#FFB27D"/>
<path d="M328.967 272.152C328.967 272.152 321.093 283.404 314.409 285.852C307.722 288.3 304.562 286.761 304.562 286.761C304.562 286.761 307.75 282.378 308.802 276.345C309.113 274.567 310.35 273.086 312.055 272.49C316.849 270.819 326.09 268.26 328.967 272.149V272.152Z" fill="#45391D"/>
<path d="M322.458 272.983C322.458 272.983 326.668 275.382 328.348 277.529C329.97 279.599 331.702 285.101 331.453 287.524C331.453 287.524 334.106 275.974 329.859 271.772C325.357 267.315 322.458 272.986 322.458 272.986V272.983Z" fill="#45391D"/>
<path d="M339.618 336.159C339.125 369.036 339.482 362.164 335.879 365.285C335.011 366.038 332.571 366.483 329.358 366.695C319.259 367.365 301.507 365.703 300.833 363.842C298.503 357.394 300.147 355.394 298.205 345.525C298.002 344.474 297.753 343.338 297.457 342.103C295.835 335.323 294.26 333.02 300.008 322.13C305.221 312.267 310.852 304.388 311.338 304.676C325.093 312.826 325.989 305.85 325.989 305.85C325.989 305.85 339.858 320.127 339.618 336.165V336.159Z" fill="white"/>
<path d="M374.866 420.931L364.053 450.518C364.053 450.518 360.169 451.78 357.338 451.372C354.455 450.954 352.876 449.384 352.876 449.384C352.876 449.384 356.181 415.687 361.656 398.181L374.866 420.934V420.931Z" fill="#FD9C28"/>
<path d="M325.988 305.844C325.988 305.844 340.14 308.24 341.802 314.322C343.464 320.404 355.618 353.924 355.618 353.924C355.618 353.924 346.052 357.453 342.725 354.135C339.402 350.818 331.161 323.353 331.161 323.353L325.988 305.844Z" fill="white"/>
<path d="M329.357 366.696C319.258 367.365 301.506 365.703 300.832 363.842C298.503 357.394 300.146 355.395 298.204 345.525L302.94 334.759C302.94 334.759 302.269 347.079 306.774 351.088C311.273 355.097 325.216 358.829 327.407 362.18C328.462 363.787 329.157 365.399 329.361 366.696H329.357Z" fill="#E8F4E6"/>
<path d="M330.183 359.68C330.183 359.68 333.189 362.27 334.048 362.479C334.903 362.688 335.389 362.494 335.389 362.494L333.198 359.932L330.186 359.68H330.183Z" fill="#FFB27D"/>
<path d="M328.988 356.63L336.604 358.593C336.604 358.593 336.407 359.134 335.546 359.269C334.684 359.401 332.37 359.051 332.37 359.051L328.988 356.633V356.63Z" fill="#FFB27D"/>
<path d="M316.077 360.82C316.077 360.82 326.948 355.991 328.989 356.63C331.029 357.269 336.263 360.033 337.085 361.198C337.906 362.362 332.798 361.053 331.204 360.952C330.17 360.887 327.773 362.304 326.582 362.985C321.573 365.858 318.092 365.603 318.092 365.603L316.077 360.82Z" fill="#FFB27D"/>
<path d="M311.338 304.671C311.338 304.671 295.958 307.552 293.109 311.806C286.893 321.092 273.658 359.563 281.071 364.72C289.416 370.529 319.059 366.241 319.059 366.241C319.059 366.241 320.046 361.639 318.674 359.412C317.301 357.185 295.001 353.588 293.97 352.562C292.942 351.536 304.137 336.678 302.946 333.834C299.125 324.723 311.344 304.668 311.344 304.668L311.338 304.671Z" fill="white"/>
<path d="M372.139 359.179C372.139 359.179 382.903 362.081 384.008 363.749C385.116 365.417 387.282 370.517 387.19 371.847C387.098 373.177 384.159 369.214 383.057 368.2C382.343 367.543 379.762 367.159 378.494 366.953C375.293 366.434 373.752 364.972 372.552 364.247C371.749 363.759 370.77 363.851 370.77 363.851L372.136 359.182L372.139 359.179Z" fill="#FFB27D"/>
<path d="M383.07 366.671C383.07 366.671 383.722 370.33 384.224 370.984C384.722 371.642 385.19 371.789 385.19 371.789L385.113 368.631L383.07 366.671Z" fill="#FFB27D"/>
<path d="M384.008 363.746L388.384 369.666C388.384 369.666 387.919 369.942 387.215 369.53C386.51 369.119 385.036 367.5 385.036 367.5L384.008 363.746Z" fill="#FFB27D"/>
<path d="M372.554 364.243C372.554 364.243 373.551 366.661 375.545 367.528C377.536 368.394 379.001 369.697 379.321 369.23C379.641 368.763 377.813 366.299 377.813 366.299L372.557 364.247L372.554 364.243Z" fill="#FFB27D"/>
<path d="M352.76 345.995L375.396 360.282C375.396 360.282 373.017 363.458 372.223 363.747C368.032 365.283 349.178 363.811 342.722 354.135L352.757 345.995H352.76Z" fill="white"/>
<path d="M343.79 361.523C345.125 361.523 358.412 360.604 358.412 360.604C358.412 360.604 358.028 362.954 358.849 364.214L345.901 366.686L343.239 365.906L343.786 361.523H343.79Z" fill="#847D3D"/>
<path d="M321.628 363.653L343.79 361.521C343.79 361.521 343.011 365.613 345.904 366.682L321.471 368.467C321.471 368.467 319.504 365.699 321.628 363.653Z" fill="#01483F"/>
<path d="M358.376 360.895L343.399 362.047C343.399 362.047 343.513 361.531 343.79 361.525C344.07 361.518 358.668 360.458 358.668 360.458L358.616 360.867L358.373 360.898L358.376 360.895Z" fill="#01483F"/>
<path d="M345.901 366.685L359.093 364.181L358.97 363.84L344.913 366.529L345.901 366.685Z" fill="#01483F"/>
<path d="M192.407 480.536H192.287C191.586 480.536 191.02 479.955 191.038 479.252L192.934 396.726L198.519 396.072L193.755 479.258C193.715 479.977 193.121 480.536 192.407 480.536Z" fill="#2D7756"/>
<path d="M159.857 480.536H159.737C159.035 480.536 158.469 479.955 158.487 479.252L160.383 396.726L165.968 396.072L161.204 479.258C161.164 479.977 160.571 480.536 159.857 480.536Z" fill="#2D7756"/>
<path d="M249.676 480.536H249.796C250.498 480.536 251.064 479.955 251.046 479.252L249.15 396.726L243.565 396.072L248.328 479.258C248.368 479.977 248.962 480.536 249.676 480.536Z" fill="#2D7756"/>
<path d="M156.154 391.609V335.058C156.154 325.108 164.189 317.042 174.097 317.042H214.676C224.588 317.042 232.619 325.108 232.619 335.058V393.768L156.154 391.609Z" fill="#2D7756"/>
<path d="M156.154 391.608H239.891V400.535H161.558C158.576 400.535 156.154 398.117 156.154 395.141V391.608Z" fill="#2D7756"/>
<path d="M249.266 391.608H190.015C187.809 391.608 186.021 393.393 186.021 395.595V396.548C186.021 398.75 187.809 400.535 190.015 400.535H249.266C251.472 400.535 253.261 398.75 253.261 396.548V395.595C253.261 393.393 251.472 391.608 249.266 391.608Z" fill="#2D7756"/>
<path d="M217.406 296.152C217.406 296.152 214.009 299.037 213.273 306.516C212.713 312.196 216.661 356.288 219.631 359.793C227.985 369.653 238.46 365.488 242.562 366.984L246.433 363.513C246.433 363.513 232.826 353.487 231.792 350.218C227.807 337.627 230.278 300.91 217.409 296.155L217.406 296.152Z" fill="white"/>
<path d="M214.965 260.189C214.965 260.189 215.196 252.101 204.512 250.516C193.828 248.928 190.877 251.422 189.062 254.144C187.246 256.862 183.84 267.97 184.181 272.39C184.523 276.81 196.708 282.275 196.508 284.855C196.308 287.435 214.968 260.192 214.968 260.192L214.965 260.189Z" fill="#015458"/>
<path d="M264.517 473.556C264.169 476.29 267.905 477.091 272.247 477.472C276.589 477.853 275.244 478.71 281.167 480.025C287.091 481.343 289.541 479.77 289.999 478.968C290.408 478.255 287.679 477.018 284.768 475.626C284.402 475.451 284.035 475.273 283.669 475.095C280.398 473.488 278.638 470.389 276.146 467.486C273.785 464.737 271.757 456.13 271.757 456.13L263.717 454.075C263.717 454.075 265.72 461.825 266.394 465.127C266.791 467.068 266.028 469.197 265.36 470.813C265 471.691 264.637 472.591 264.517 473.556Z" fill="#FFB27D"/>
<path d="M272.247 477.476C276.589 477.857 275.245 478.714 281.168 480.028C287.092 481.346 289.541 479.773 290 478.972C290.409 478.259 287.68 477.021 284.769 475.63L284.719 475.679C284.719 475.679 280.476 476.972 275.685 475.458C271.78 474.226 268.05 471.689 265.361 470.816C265.001 471.695 264.638 472.595 264.518 473.559C264.17 476.293 267.906 477.095 272.247 477.476Z" fill="#45391D"/>
<path d="M204.318 362.146C204.318 362.146 258.071 367.712 266.933 375.926C275.792 384.14 274.213 460.666 274.213 460.666C272.835 462.095 271.816 462.061 269.638 461.892C267.545 461.729 263.283 459.932 263.283 459.932C263.283 459.932 251.772 422.355 251.627 413.656C251.482 404.954 249.664 390.191 246.005 389.322C242.349 388.452 198.832 393.321 194.062 379.6C189.292 365.878 197.213 354.589 197.213 354.589L204.318 362.146Z" fill="#002822"/>
<path d="M179.208 375.948C181.529 377.499 185.674 379.889 192.634 380.135C205.088 380.586 220.624 379.106 223.683 376.221C224.477 375.478 224.865 374.243 224.975 372.68C225.314 367.909 223.031 360.064 221.498 353.57C220.504 349.35 219.827 345.706 220.381 343.842C222.071 338.171 227.32 326.615 227.773 322.816C228.225 319.019 223.686 298.669 217.409 296.15C211.128 293.628 186.901 296.15 186.901 296.15C177.436 298.067 177.039 318.211 180.181 335.358C180.264 335.8 180.344 336.239 180.43 336.672C183.837 354.083 172.74 371.617 179.212 375.945L179.208 375.948Z" fill="white"/>
<path d="M210.51 299.857C210.341 300.963 207.31 302.754 200.835 301.049C194.629 299.415 193.884 297.4 193.887 296.067C193.887 294.491 196.583 292.365 196.549 282.665L197.294 282.812L209.805 285.285C209.805 285.285 209.519 289.214 209.513 292.918C209.504 296.027 210.796 298.02 210.513 299.86L210.51 299.857Z" fill="#FFB27D"/>
<path d="M209.802 285.285C209.802 285.285 209.516 289.214 209.51 292.918C202.509 292.721 198.808 286.344 197.291 282.812L209.802 285.285Z" fill="#ED975D"/>
<path d="M212.141 288.79C212.141 288.79 195.577 289.063 195.564 278.764C195.552 268.464 193.407 261.562 203.984 260.953C214.56 260.345 216.618 264.271 217.459 267.708C218.299 271.146 216.449 288.455 212.141 288.79Z" fill="#FFB27D"/>
<path d="M211.525 260.698C211.525 260.698 206.99 272.782 200.029 274.567C193.069 276.355 190.05 274.493 190.05 274.493C190.05 274.493 195.389 270.26 196.497 262.87C196.497 262.87 208.104 254.948 211.525 260.698Z" fill="#015458"/>
<path d="M210.402 261.682C210.402 261.682 213.79 264.379 214.615 267.002C215.439 269.625 215.812 275.025 217.387 274.841C217.387 274.841 220.803 266.627 216.965 261.983C212.894 257.056 210.402 261.682 210.402 261.682Z" fill="#015458"/>
<path d="M224.148 475.802C224.108 478.557 227.908 478.926 232.265 478.806C236.623 478.683 235.38 479.691 241.414 480.317C247.445 480.944 249.704 479.101 250.073 478.25C250.402 477.494 247.55 476.579 244.503 475.531C244.119 475.402 243.737 475.264 243.352 475.129C239.921 473.91 237.829 471.031 235.029 468.433C232.376 465.972 238.232 454.063 238.232 454.063L230.558 450.272C230.558 450.272 229.102 458.775 227.228 466.212C226.745 468.135 225.166 471.299 224.683 472.982C224.425 473.897 224.163 474.834 224.151 475.805L224.148 475.802Z" fill="#FFB27D"/>
<path d="M179.541 373.902C181.861 375.453 185.677 379.889 192.634 380.137C204.118 377.529 217.193 374.494 224.973 372.682C225.311 367.912 223.028 360.066 221.495 353.573C212.424 356.337 198.927 346.919 194.391 343.196C189.622 339.286 189.773 326.259 189.773 326.259L180.178 335.363C180.261 335.806 180.341 336.245 180.427 336.678C183.834 354.089 173.07 369.577 179.541 373.905V373.902Z" fill="#E8F4E6"/>
<path d="M232.262 478.805C236.619 478.682 235.376 479.69 241.41 480.317C247.442 480.943 249.7 479.1 250.07 478.249C250.399 477.494 247.546 476.578 244.5 475.531L244.457 475.586C244.457 475.586 240.383 477.359 235.453 476.406C231.434 475.632 227.446 473.54 224.677 472.981C224.418 473.897 224.157 474.834 224.144 475.804C224.104 478.56 227.905 478.928 232.262 478.808V478.805Z" fill="#45391D"/>
<path d="M192.72 365.418C206.367 365.031 247.128 368.278 254.959 374.172C264.597 381.428 237.062 459.874 237.062 459.874C237.062 459.874 233.865 460.185 232.853 460.068C228.48 459.573 226.698 458.243 226.698 458.243C226.698 458.243 226.806 412.069 230.022 403.237C232.994 395.076 234.816 392.188 231.093 391.703C227.369 391.218 180.885 397.134 177.005 383.127C173.974 372.185 178.451 362.057 178.451 362.057C178.451 362.057 180.128 365.774 192.717 365.415L192.72 365.418Z" fill="#01483F"/>
<path d="M186.898 296.15C186.898 296.15 177.417 296.955 176.679 304.434C176.119 310.114 171.995 350.4 174.965 353.902C183.32 363.762 211.183 365.851 215.285 367.347L216.415 362.684C216.415 362.684 186.671 347.725 187.123 344.324C187.578 340.924 195.988 294.801 186.895 296.15H186.898Z" fill="white"/>
<path d="M194.219 254.582C194.219 254.582 194.899 250.267 188.905 249.155C182.91 248.043 182.799 260.75 182.156 263.816C181.513 266.882 183.116 268.716 185.4 268.903C187.686 269.09 194.219 254.582 194.219 254.582Z" fill="#015458"/>
<path d="M216.74 362.481C216.74 362.481 225.212 360.088 227.23 360.647C229.249 361.206 236.16 365.777 235.191 367.018C234.219 368.259 228.129 366.274 225.326 366.649C222.522 367.024 220.356 368.406 218.337 368.108C216.319 367.81 214.211 367.018 214.211 367.018L216.743 362.481H216.74Z" fill="#FFB27D"/>
<path d="M216.74 362.481C216.74 362.481 220.885 360.355 222.063 359.145C222.211 358.991 222.463 359.025 222.577 359.203C222.894 359.701 223.19 360.663 221.734 361.615C219.642 362.988 216.737 362.478 216.737 362.478L216.74 362.481Z" fill="#FFB27D"/>
<path d="M246.43 363.51C246.43 363.51 255.221 363.989 256.948 365.172C258.674 366.354 263.73 372.915 262.406 373.776C261.083 374.636 255.969 370.784 253.193 370.234C250.421 369.681 247.922 370.286 246.11 369.349C244.297 368.412 242.559 366.981 242.559 366.981L246.43 363.51Z" fill="#FFB27D"/>
<path d="M186.04 481.253H150.271C148.55 479.158 149.184 471.423 149.446 468.898C149.498 468.388 149.535 468.093 149.535 468.093C149.535 468.093 161.748 458.34 163.425 465.808C163.478 466.041 163.539 466.272 163.607 466.496C165.721 473.481 175.202 476.654 180.676 477.539C184.236 478.116 185.55 479.962 186.037 481.25L186.04 481.253Z" fill="#002822"/>
<path d="M88.4441 365.236C89.7365 365.236 149.714 376.478 159.635 388.735C164.592 394.86 165.327 465.584 165.327 465.584C165.327 465.584 159.195 473.174 145.954 468.766C145.954 468.766 136.245 420.377 136.962 405.7C137.159 401.642 95.9831 405.113 88.4471 403.166C80.9111 401.218 62.4972 384.852 66.553 376.878C70.6118 368.903 88.4471 365.232 88.4471 365.232L88.4441 365.236Z" fill="#45391D"/>
<path d="M131.869 361.916C131.869 361.916 135.706 365.221 139.645 366.158C141.892 366.692 144.064 367.297 145.36 367.89C148.92 369.521 155.677 376.807 155.05 377.529C153.034 379.852 144.923 373.803 143.369 374.23C141.818 374.657 145.913 378.171 144.289 379.127C143.439 379.624 141.839 376.589 140.344 376.162C138.319 375.585 136.974 372.532 136.368 372.323C135.186 371.917 130.26 367.506 130.26 367.506L131.872 361.916H131.869Z" fill="#FFB27D"/>
<path d="M201.847 481.253H166.078C164.358 479.158 164.992 471.423 165.253 468.898C165.306 468.388 165.343 468.093 165.343 468.093C165.343 468.093 177.556 458.34 179.233 465.808C179.285 466.041 179.347 466.272 179.415 466.496C181.529 473.481 191.009 476.654 196.484 477.539C200.044 478.116 201.358 479.962 201.844 481.25L201.847 481.253Z" fill="#01483F"/>
<path d="M106.116 365.236C107.409 365.236 167.386 376.478 177.307 388.735C182.264 394.86 183 465.584 183 465.584C183 465.584 176.867 473.174 163.626 468.766C163.626 468.766 153.917 420.377 154.634 405.7C154.831 401.642 113.656 405.113 106.119 403.166C98.5835 401.218 80.1696 384.852 84.2253 376.878C88.2841 368.903 106.119 365.232 106.119 365.232L106.116 365.236Z" fill="#847D3D"/>
<path d="M102.362 292.481C98.0479 292.125 93.5244 290.979 89.6133 289.71C84.7268 288.128 80.7849 285.812 83.3236 281.355C85.6622 277.245 89.4502 268.064 89.1948 260.458L98.291 267.775L104.47 272.745C104.47 272.745 104.445 275.675 103.768 280.808C103.645 281.745 103.501 282.756 103.331 283.834C103.193 284.706 103.596 285.576 104.347 286.043C104.393 286.07 104.439 286.101 104.485 286.129C107.556 288.055 105.978 292.779 102.362 292.481Z" fill="#FFB27D"/>
<path d="M104.47 271.531C104.47 271.531 104.787 272.594 104.242 276.523C98.7341 275.626 93.5859 271.24 93.5859 271.24C96.3893 270.472 97.4109 267.446 99.4972 267.729L104.467 271.531H104.47Z" fill="#ED975D"/>
<path d="M109.562 272.428C109.562 272.428 88.3761 275.943 86.3882 262.737C84.4004 249.535 80.3262 241.093 93.7673 238.292C107.208 235.491 110.603 240.135 112.341 244.38C114.08 248.625 115.021 271.172 109.562 272.428Z" fill="#FFB27D"/>
<path d="M115.458 238.538C116.369 241.717 113.932 245.591 109.846 246.865C103.777 248.758 105.119 256.188 102.389 256.087C99.66 255.985 98.5584 251.817 96.1213 255.147C94.0411 257.988 97.8537 261.355 97.5891 262.915C97.1398 265.591 92.9425 271.062 89.1576 270.788C85.3757 270.515 78.2982 252.57 79.7137 247.019C81.1292 241.468 86.7913 235.614 92.1517 234.806C97.5122 233.998 104.953 236.308 106.673 236.308C108.393 236.308 114.969 236.824 115.458 238.541V238.538Z" fill="#E65924"/>
<path d="M120.715 361.276C120.361 364.323 119.718 366.396 118.708 367.069C115.551 369.179 111.363 371.806 106.689 374.405C90.1183 383.629 67.4302 392.531 62.8145 376.942C57.3925 358.631 60.9559 324.249 66.2701 302.894C69.3289 290.592 77.7942 277.681 83.5178 277.696C93.2694 277.712 107.286 280.283 112.945 294.219C115.136 299.619 118.358 318.326 120.001 335.467C120.982 345.677 121.401 355.329 120.715 361.276Z" fill="white"/>
<path d="M82.5329 277.816L84.7392 272.852C84.7392 272.852 104.313 274.842 107.633 286.07C107.633 286.07 92.5029 278.058 82.5298 277.819L82.5329 277.816Z" fill="#E8F4E6"/>
<path d="M120.715 361.276C120.361 364.323 119.718 366.397 118.709 367.069C115.551 369.18 111.363 371.806 106.689 374.405C101.812 371.447 91.7985 364.385 89.4568 356.06C86.3981 345.177 88.5429 331.787 88.5429 331.787L120.715 361.27V361.276Z" fill="#E8F4E6"/>
<path d="M86.5024 294.564C86.5024 294.564 88.2011 341.331 90.8659 350.58C95.4078 366.348 136.845 371.963 136.845 371.963C136.845 371.963 139.288 369.198 138.196 364.612C138.196 364.612 113.425 345.122 112.699 341.411C111.975 337.7 118.096 312.555 111.098 303.413C104.101 294.269 91.2013 286.347 86.5024 294.564Z" fill="white"/>
<path d="M34.556 480.812H34.4206C33.3035 480.787 32.4419 479.878 32.5496 478.831L39.9933 404.62L46.4893 405.197L35.7991 479.807C35.716 480.391 35.1806 480.821 34.556 480.812Z" fill="#2D7756"/>
<path d="M72.8709 480.812H72.7355C71.6185 480.787 70.7569 479.878 70.8646 478.831L78.3083 404.62L84.8042 405.197L74.1141 479.807C74.031 480.391 73.4956 480.821 72.8709 480.812Z" fill="#2D7756"/>
<path d="M144.8 480.812H144.935C146.052 480.787 146.914 479.878 146.806 478.831L139.362 404.62L132.866 405.197L143.556 479.807C143.639 480.391 144.175 480.821 144.796 480.812H144.8Z" fill="#2D7756"/>
<path d="M36.6586 394.105L29.5934 332.123C28.6671 323.19 31.6612 314.445 44.5731 313.769L67.2889 312.387C80.7515 311.831 86.8321 323.018 88.5368 331.628L102.021 399.763L36.6586 394.105Z" fill="#2D7756"/>
<path d="M141.277 405.704H40.4557C38.4217 405.704 36.7724 404.057 36.7724 402.027V393.822H141.277C143.311 393.822 144.96 395.469 144.96 397.499V402.027C144.96 404.057 143.311 405.704 141.277 405.704Z" fill="#2D7756"/>
<path d="M99.1618 405.704H39.6306C38.052 405.704 36.7719 404.426 36.7719 402.85V393.825H99.1618C100.74 393.825 102.021 395.103 102.021 396.679V402.847C102.021 404.423 100.74 405.701 99.1618 405.701V405.704Z" fill="#2D7756"/>
<path d="M6.27171 480.317H903.732C904.431 480.317 905 480.885 905 481.583V482.735C905 483.432 904.431 484.001 903.732 484.001H6.27171C5.57318 484.001 5.00391 483.432 5.00391 482.735V481.583C5.00391 480.885 5.57318 480.317 6.27171 480.317Z" fill="#01483F"/>
<path d="M196.42 166.384H161.518C159.909 166.384 158.604 167.686 158.604 169.293V202.919C158.604 204.526 159.909 205.828 161.518 205.828H196.42C198.029 205.828 199.334 204.526 199.334 202.919V169.293C199.334 167.686 198.029 166.384 196.42 166.384Z" fill="#2D7756"/>
<path d="M163.032 168.092H194.909C196.377 168.092 197.571 169.28 197.571 170.749V201.463C197.571 202.928 196.38 204.12 194.909 204.12H163.032C161.565 204.12 160.371 202.932 160.371 201.463V170.749C160.371 169.283 161.561 168.092 163.032 168.092Z" fill="#E8F4E6"/>
<path d="M178.968 172.534C179.434 172.534 179.811 172.157 179.811 171.692C179.811 171.227 179.434 170.85 178.968 170.85C178.502 170.85 178.125 171.227 178.125 171.692C178.125 172.157 178.502 172.534 178.968 172.534Z" fill="#2D7756"/>
<path d="M184.932 172.883C185.16 172.477 185.671 172.33 186.08 172.557C186.486 172.785 186.634 173.295 186.406 173.703C186.179 174.109 185.668 174.256 185.258 174.029C184.852 173.802 184.705 173.292 184.932 172.883Z" fill="#2D7756"/>
<path d="M190.766 177.507C191.157 177.255 191.68 177.368 191.932 177.759C192.185 178.149 192.071 178.671 191.68 178.923C191.289 179.175 190.766 179.061 190.514 178.671C190.261 178.281 190.375 177.759 190.766 177.507Z" fill="#2D7756"/>
<path d="M193.656 184.667C194.121 184.667 194.499 185.045 194.499 185.509C194.499 185.973 194.121 186.351 193.656 186.351C193.191 186.351 192.813 185.973 192.813 185.509C192.813 185.045 193.191 184.667 193.656 184.667Z" fill="#2D7756"/>
<path d="M191.582 194.414C192.048 194.414 192.425 194.037 192.425 193.572C192.425 193.107 192.048 192.73 191.582 192.73C191.116 192.73 190.739 193.107 190.739 193.572C190.739 194.037 191.116 194.414 191.582 194.414Z" fill="#2D7756"/>
<path d="M186.88 198.278C187.209 198.606 187.209 199.141 186.88 199.47C186.551 199.798 186.015 199.798 185.686 199.47C185.357 199.141 185.357 198.606 185.686 198.278C186.015 197.949 186.551 197.949 186.88 198.278Z" fill="#2D7756"/>
<path d="M178.968 201.854C179.434 201.854 179.811 201.477 179.811 201.012C179.811 200.547 179.434 200.171 178.968 200.171C178.502 200.171 178.125 200.547 178.125 201.012C178.125 201.477 178.502 201.854 178.968 201.854Z" fill="#2D7756"/>
<path d="M172.977 172.884C172.749 172.478 172.238 172.331 171.829 172.558C171.423 172.785 171.275 173.295 171.503 173.704C171.73 174.11 172.241 174.257 172.65 174.03C173.057 173.802 173.204 173.292 172.977 172.884Z" fill="#2D7756"/>
<path d="M167.146 177.507C166.755 177.255 166.232 177.369 165.98 177.759C165.727 178.149 165.838 178.671 166.232 178.923C166.623 179.175 167.146 179.062 167.398 178.671C167.651 178.281 167.54 177.759 167.146 177.507Z" fill="#2D7756"/>
<path d="M164.257 184.668C163.792 184.668 163.414 185.046 163.414 185.51C163.414 185.974 163.792 186.351 164.257 186.351C164.721 186.351 165.1 185.974 165.1 185.51C165.1 185.046 164.721 184.668 164.257 184.668Z" fill="#2D7756"/>
<path d="M166.328 194.415C166.793 194.415 167.171 194.038 167.171 193.573C167.171 193.108 166.793 192.731 166.328 192.731C165.862 192.731 165.484 193.108 165.484 193.573C165.484 194.038 165.862 194.415 166.328 194.415Z" fill="#2D7756"/>
<path d="M171.03 198.278C170.7 198.607 170.7 199.141 171.03 199.47C171.359 199.799 171.894 199.799 172.224 199.47C172.553 199.141 172.553 198.607 172.224 198.278C171.894 197.949 171.359 197.949 171.03 198.278Z" fill="#2D7756"/>
<path d="M178.741 185.508C178.741 185.045 179.119 184.667 179.584 184.667C180.049 184.667 180.427 185.045 180.427 185.508C180.427 185.972 180.049 186.35 179.584 186.35C179.119 186.35 178.741 185.972 178.741 185.508Z" fill="#2D7756"/>
<path d="M179.701 174.987H179.47V185.508H179.701V174.987Z" fill="#2D7756"/>
<path d="M184.852 180.844L179.265 185.222L179.692 185.766L185.279 181.388L184.852 180.844Z" fill="#2D7756"/>
</svg>
