<svg width="130" height="46" viewBox="0 0 130 46" fill="none" xmlns="http://www.w3.org/2000/svg">
<path opacity="0.9" d="M126.597 26.4338C127.352 26.4338 127.946 26.3467 128.381 26.1654C128.824 25.9841 129.143 25.8173 129.353 25.665H129.745L129.317 27.5796H119.222V27.1953C119.374 26.9922 119.548 26.6731 119.729 26.238C119.911 25.8028 120.005 25.2154 120.005 24.4756V3.84987C120.005 3.11012 119.925 2.50818 119.773 2.05128C119.621 1.56537 119.439 1.26077 119.229 1.13022V0.74585H128.157L128.584 2.66048H128.193C127.983 2.50818 127.663 2.34137 127.221 2.16006C126.779 1.97875 126.184 1.89173 125.437 1.89173H123.885V8.41161H123.965C124.719 8.41161 125.314 8.32458 125.749 8.14327C126.191 7.96196 126.51 7.79516 126.721 7.64286H127.112V10.1377H126.764C126.554 9.98538 126.235 9.81857 125.792 9.63727C125.35 9.45596 124.755 9.36893 124.008 9.36893H123.892V26.4265H126.597V26.4338Z" fill="#252434"/>
<path opacity="0.9" d="M100.264 3.85716V8.80328C101.635 8.80328 102.817 9.10063 103.796 9.68808C104.782 10.2538 105.594 10.9935 106.24 11.9146C106.885 12.8066 107.357 13.8219 107.64 14.946C107.951 16.0484 108.104 17.1218 108.104 18.1661C108.104 19.2395 107.951 20.3418 107.64 21.4659C107.357 22.5683 106.885 23.5764 106.24 24.4974C105.594 25.3895 104.775 26.1365 103.796 26.7239C102.81 27.3113 101.635 27.6087 100.264 27.6087H95.6079V27.2243C95.7602 27.0213 95.9343 26.7022 96.1156 26.267C96.2969 25.8319 96.3839 25.2444 96.3839 24.5047V3.87892C96.3839 3.13918 96.2969 2.55173 96.1156 2.11659C95.9343 1.68145 95.7675 1.36234 95.6079 1.15928V0.774902H101.047V1.15928C100.895 1.36234 100.721 1.68145 100.54 2.11659C100.351 2.52272 100.264 3.11742 100.264 3.85716ZM100.264 9.94916V26.4338C101.091 26.4338 101.743 26.1945 102.208 25.7086C102.701 25.2227 103.063 24.599 103.295 23.8302C103.527 23.0397 103.673 22.1404 103.723 21.1468C103.774 20.1533 103.803 19.1524 103.803 18.1589C103.803 17.1653 103.774 16.179 103.723 15.2071C103.673 14.2136 103.527 13.3288 103.295 12.56C103.063 11.7913 102.701 11.1676 102.208 10.6816C101.736 10.1957 101.091 9.94916 100.264 9.94916Z" fill="#252434"/>
<path opacity="0.9" d="M74.6051 1.89922C73.8508 1.89922 73.2561 1.98625 72.821 2.16756C72.3786 2.34887 72.0595 2.51567 71.8491 2.66797H71.4575L71.8854 0.753418H84.3087L84.7366 2.66797H84.345C84.1347 2.51567 83.8156 2.34887 83.3732 2.16756C82.9308 1.98625 82.3361 1.89922 81.5891 1.89922H80.0371V24.4757C80.0371 25.2155 80.1241 25.8029 80.3127 26.2381C80.494 26.6732 80.6608 26.9923 80.8203 27.1954V27.5797H75.3811V27.1954C75.5334 26.9923 75.7074 26.6732 75.8887 26.2381C76.07 25.8029 76.1643 25.2155 76.1643 24.4757V1.89922H74.6051Z" fill="#252434"/>
<path opacity="0.9" d="M51.6657 9.56474V24.4756C51.6657 25.2154 51.7528 25.8028 51.9341 26.238C52.1154 26.6731 52.2822 26.9922 52.4417 27.1953V27.5796H47.0024V27.1953C47.1547 26.9922 47.3288 26.6731 47.5101 26.238C47.6914 25.8028 47.7784 25.2154 47.7784 24.4756V3.84987C47.7784 3.11012 47.6914 2.52268 47.5101 2.08754C47.3288 1.6524 47.162 1.33329 47.0024 1.13022V0.74585H52.4417V1.13022C52.2894 1.33329 52.1154 1.6524 51.9341 2.08754C51.7528 2.52268 51.6657 3.11012 51.6657 3.84987V8.41161H55.9374V3.84987C55.9374 3.11012 55.8503 2.52268 55.669 2.08754C55.4877 1.6524 55.3209 1.33329 55.1614 1.13022V0.74585H60.6006V1.13022C60.4483 1.33329 60.2743 1.6524 60.093 2.08754C59.9117 2.52268 59.8246 3.11012 59.8246 3.84987V24.4756C59.8246 25.2154 59.9117 25.8028 60.093 26.238C60.2743 26.6731 60.4411 26.9922 60.6006 27.1953V27.5796H55.1614V27.1953C55.3137 26.9922 55.4877 26.6731 55.669 26.238C55.8503 25.8028 55.9374 25.2154 55.9374 24.4756V9.56474H51.6657Z" fill="#252434"/>
<path opacity="0.9" d="M21.271 27.2025C21.5828 27.072 21.8512 26.9487 22.0833 26.8181C22.3443 26.6876 22.5474 26.499 22.707 26.2452C22.8883 25.9914 23.0406 25.6433 23.1711 25.2081C23.3234 24.773 23.454 24.2 23.5627 23.4821L26.7465 3.39297C26.8263 2.80553 26.7103 2.33412 26.3984 1.9715C26.0866 1.61614 25.753 1.39856 25.3903 1.31879V0.74585H30.3582L34.2818 23.4748C34.4341 24.142 34.5791 24.6859 34.7097 25.1211C34.8402 25.5562 34.9707 25.9116 35.1013 26.1944C35.2318 26.4483 35.3696 26.6513 35.5292 26.8109C35.6815 26.9632 35.8918 27.0937 36.1529 27.1953V27.5796H29.7853V27.1953C29.8651 27.0937 29.9666 26.9777 30.0971 26.8472C30.2277 26.7166 30.3292 26.5498 30.409 26.3467C30.5105 26.1147 30.5758 25.8463 30.6048 25.5417C30.6556 25.2371 30.6193 24.8528 30.4888 24.3886L29.4009 17.9847H25.6369L24.5853 24.4611C24.4838 25.0268 24.4693 25.4692 24.5491 25.8028C24.6506 26.1364 24.7957 26.3903 24.977 26.5716C25.1583 26.7239 25.3541 26.8544 25.5572 26.9559C25.7892 27.0357 25.985 27.1082 26.1373 27.188V27.5724H21.2855V27.2025H21.271ZM29.1906 16.8534L27.5225 7.15695H27.3702L25.8182 16.8534H29.1906Z" fill="#252434"/>
<path opacity="0.9" d="M4.66327 24.4756C4.66327 25.2154 4.7503 25.8028 4.93161 26.238C5.11292 26.6731 5.27973 26.9922 5.43928 27.1953V27.5796H0V27.1953C0.1523 26.9922 0.326355 26.6731 0.507666 26.238C0.688976 25.8028 0.775997 25.2154 0.775997 24.4756V3.84987C0.775997 3.11012 0.688976 2.52268 0.507666 2.08754C0.326355 1.6524 0.159552 1.33329 0 1.13022V0.74585H4.65603C6.02673 0.74585 7.20887 0.999681 8.18794 1.5146C9.17426 2.00051 9.98653 2.65323 10.632 3.47274C11.2775 4.29226 11.7416 5.22057 12.0317 6.27216C12.3436 7.29475 12.4959 8.33909 12.4959 9.41244C12.4959 10.4568 12.3436 11.5084 12.0317 12.5527C11.7489 13.5753 11.2775 14.4964 10.632 15.3159C9.98653 16.1064 9.16701 16.7591 8.18794 17.274C7.20162 17.7599 6.02673 17.9993 4.65603 17.9993V24.4756H4.66327ZM4.66327 16.8534C5.49004 16.8534 6.13551 16.6648 6.60692 16.2804C7.10008 15.8743 7.4627 15.3231 7.69478 14.6342C7.92686 13.9452 8.0719 13.1547 8.12267 12.2554C8.17344 11.3633 8.20245 10.4133 8.20245 9.41969C8.20245 8.42612 8.17344 7.47606 8.12267 6.58402C8.0719 5.66296 7.92686 4.85795 7.69478 4.16897C7.4627 3.48 7.10008 2.92881 6.60692 2.52268C6.14276 2.11655 5.49729 1.90623 4.66327 1.90623V16.8534Z" fill="#252434"/>
<g opacity="0.9">
<path opacity="0.9" d="M17.2678 35.5867C18.1308 35.5867 18.7908 35.797 19.2404 36.2031C19.6973 36.6093 19.9221 37.1822 19.9221 37.9147C19.9221 38.6399 19.6901 39.2056 19.2404 39.6117C18.7908 40.0179 18.1308 40.2209 17.2678 40.2209H15.3314V43.2017H14.5264V35.5867H17.2678ZM17.2315 39.503C17.848 39.503 18.3121 39.3724 18.624 39.1041C18.9431 38.8285 19.1026 38.4296 19.1026 37.9147C19.1026 37.3853 18.9431 36.9791 18.624 36.7035C18.3121 36.428 17.848 36.2902 17.2315 36.2902H15.3314V39.4957H17.2315V39.503ZM25.7385 42.3822C25.7385 42.6215 25.8473 42.7375 26.0649 42.7303V43.2089C25.9996 43.2452 25.8981 43.2669 25.7603 43.2669C25.5282 43.2669 25.3469 43.2089 25.2091 43.1001C25.0786 42.9913 25.0133 42.8318 25.0133 42.6215V42.2226H24.9843C24.919 42.3531 24.7957 42.5054 24.6289 42.665C24.4621 42.8318 24.2228 42.9768 23.9109 43.1146C23.6063 43.2452 23.2437 43.3105 22.8231 43.3105C22.2574 43.3105 21.8078 43.1872 21.4741 42.9333C21.1405 42.6722 20.9737 42.2879 20.9737 41.7875C20.9737 41.3233 21.126 40.9679 21.4451 40.7141C21.7642 40.4603 22.2429 40.2862 22.8811 40.1992L24.1213 40.0324C24.6942 39.9526 24.977 39.8293 24.977 39.6625V39.3579C24.977 38.8793 24.8538 38.5384 24.6072 38.3353C24.3678 38.1323 23.998 38.0307 23.5048 38.0307C23.0189 38.0307 22.6563 38.1177 22.417 38.3063C22.1776 38.4876 22.0616 38.7632 22.0616 39.1331V39.2564H21.3218V39.0823C21.3218 38.5311 21.5104 38.1178 21.8948 37.8494C22.2792 37.5738 22.8303 37.436 23.5411 37.436C24.2881 37.436 24.8392 37.5883 25.2019 37.8929C25.5645 38.1975 25.7458 38.6907 25.7458 39.3579V42.3822H25.7385ZM24.9625 40.2862C24.9408 40.424 24.6724 40.5255 24.1648 40.5908L23.0262 40.7576C22.5475 40.8229 22.2139 40.9389 22.0108 41.1057C21.8223 41.2653 21.728 41.4829 21.728 41.7512C21.728 42.0775 21.8368 42.3169 22.0543 42.4692C22.2792 42.6215 22.5765 42.7013 22.9464 42.7013C23.3743 42.7013 23.7441 42.6142 24.0487 42.4402C24.3533 42.2661 24.5782 42.063 24.7305 41.831C24.8828 41.5989 24.9625 41.3958 24.9625 41.229V40.2862ZM29.6911 43.296C28.9368 43.296 28.3567 43.1219 27.9505 42.7665C27.5444 42.4039 27.3413 41.918 27.3413 41.3015H28.0521C28.0521 41.7149 28.1971 42.0558 28.4872 42.3096C28.7845 42.5707 29.1979 42.7013 29.7201 42.7013C30.177 42.7013 30.5469 42.5997 30.8297 42.3967C31.1126 42.1863 31.2503 41.9107 31.2503 41.5699C31.2503 41.2 31.0908 40.9172 30.7572 40.7359C30.4308 40.54 29.9957 40.4458 29.4445 40.453V39.9889C29.9594 39.9816 30.3438 39.8873 30.6049 39.7133C30.8732 39.5392 31.0038 39.3071 31.0038 39.0171C31.0038 38.7342 30.8805 38.5021 30.6339 38.3281C30.3873 38.1468 30.0755 38.0525 29.6911 38.0525C29.2632 38.0525 28.9223 38.1613 28.6685 38.3788C28.4147 38.5892 28.2841 38.8647 28.2841 39.1911H27.5661C27.5661 38.6689 27.7547 38.2555 28.1173 37.9437C28.4944 37.6246 29.0166 37.465 29.6838 37.465C30.3075 37.465 30.8007 37.6028 31.1633 37.8784C31.5332 38.154 31.7145 38.5094 31.7145 38.9445C31.7145 39.2564 31.613 39.5247 31.4099 39.7423C31.2141 39.9526 30.9385 40.0977 30.5831 40.1774C30.9675 40.2354 31.3011 40.3877 31.5767 40.6343C31.8595 40.8737 31.9973 41.2073 31.9973 41.6207C31.9973 42.1356 31.7798 42.549 31.3446 42.8536C30.9312 43.1509 30.3728 43.296 29.6911 43.296ZM36.4213 37.5448C37.0015 37.5448 37.4511 37.6681 37.7702 37.9147C38.0893 38.154 38.2489 38.4876 38.2489 38.9155C38.2489 39.4885 37.9733 39.8801 37.4366 40.0832C37.8573 40.1919 38.1691 40.3732 38.3722 40.6343C38.5752 40.8954 38.6768 41.2145 38.6768 41.5771C38.6768 42.0993 38.481 42.5054 38.1038 42.7883C37.7195 43.0639 37.161 43.2017 36.4285 43.2017H33.7234V37.5448H36.4213ZM36.3343 39.8946C37.132 39.8946 37.5309 39.6117 37.5309 39.0461C37.5309 38.4876 37.132 38.212 36.327 38.212H34.4849V39.9018H36.3343V39.8946ZM36.3343 42.5344C36.9145 42.5344 37.3206 42.4474 37.5527 42.2589C37.792 42.0703 37.908 41.8165 37.908 41.4974C37.908 41.171 37.7847 40.9027 37.5527 40.6996C37.3133 40.4965 36.9072 40.395 36.3415 40.395H34.4777V42.5272H36.3343V42.5344ZM40.3158 37.5448H41.0918V42.1863H41.1281L44.4642 37.5448H45.32V43.2017H44.544V38.5747H44.5222L41.2006 43.2017H40.3086V37.5448H40.3158ZM49.947 37.5448C50.5272 37.5448 50.9768 37.6681 51.2959 37.9147C51.615 38.154 51.7746 38.4876 51.7746 38.9155C51.7746 39.4885 51.499 39.8801 50.9623 40.0832C51.3829 40.1919 51.6948 40.3732 51.8979 40.6343C52.1009 40.8954 52.2025 41.2145 52.2025 41.5771C52.2025 42.0993 52.0139 42.5054 51.6295 42.7883C51.2452 43.0639 50.6867 43.2017 49.9542 43.2017H47.2418V37.5448H49.947ZM49.86 39.8946C50.6577 39.8946 51.0566 39.6117 51.0566 39.0461C51.0566 38.4876 50.6505 38.212 49.8454 38.212H48.0033V39.9018H49.86V39.8946ZM49.86 42.5344C50.4401 42.5344 50.8463 42.4474 51.0784 42.2589C51.3177 42.0703 51.4337 41.8165 51.4337 41.4974C51.4337 41.171 51.3104 40.9027 51.0784 40.6996C50.839 40.4965 50.4329 40.395 49.8672 40.395H48.0033V42.5272H49.86V42.5344ZM58.3452 42.3822C58.3452 42.6215 58.454 42.7375 58.6716 42.7303V43.2089C58.6063 43.2452 58.5048 43.2669 58.367 43.2669C58.1349 43.2669 57.9464 43.2089 57.8086 43.1001C57.678 42.9913 57.6127 42.8318 57.6127 42.6215V42.2226H57.5765C57.5112 42.3531 57.3879 42.5054 57.2211 42.665C57.0543 42.8318 56.815 42.9768 56.5031 43.1146C56.1985 43.2452 55.8359 43.3105 55.4153 43.3105C54.8496 43.3105 54.3999 43.1872 54.0663 42.9333C53.7327 42.6722 53.5659 42.2879 53.5659 41.7875C53.5659 41.3233 53.7182 40.9679 54.0301 40.7141C54.3492 40.4603 54.8278 40.2862 55.466 40.1992L56.7062 40.0324C57.2791 39.9526 57.562 39.8293 57.562 39.6625V39.3579C57.562 38.8793 57.4387 38.5384 57.1921 38.3353C56.9528 38.1323 56.5902 38.0307 56.097 38.0307C55.6111 38.0307 55.2485 38.1177 55.0091 38.3063C54.7698 38.4876 54.6538 38.7632 54.6538 39.1331V39.2564H53.914V39.0823C53.914 38.5311 54.1098 38.1178 54.4942 37.8494C54.8786 37.5738 55.4298 37.436 56.1333 37.436C56.8802 37.436 57.4387 37.5883 57.8013 37.8929C58.1639 38.1975 58.3452 38.6907 58.3452 39.3579V42.3822ZM57.5692 40.2862C57.5475 40.424 57.2864 40.5255 56.7715 40.5908L55.6256 40.7576C55.1469 40.8229 54.8133 40.9389 54.6175 41.1057C54.4289 41.2653 54.3347 41.4829 54.3347 41.7512C54.3347 42.0775 54.4435 42.3169 54.661 42.4692C54.8858 42.6215 55.1832 42.7013 55.5531 42.7013C55.981 42.7013 56.3508 42.6142 56.6482 42.4402C56.9528 42.2661 57.1848 42.063 57.3372 41.831C57.4894 41.5989 57.5692 41.3958 57.5692 41.229V40.2862ZM65.0174 40.2064C65.0174 40.366 65.0029 40.4965 64.9812 40.5981H60.6442C60.6732 41.2943 60.8545 41.8165 61.1882 42.1718C61.5218 42.5199 61.9932 42.694 62.6024 42.694C63.4364 42.694 63.9803 42.3459 64.2342 41.6497H64.9449C64.7636 42.2371 64.459 42.6577 64.0456 42.9261C63.6322 43.1872 63.1463 43.3177 62.5806 43.3177C61.7683 43.3177 61.1156 43.0711 60.637 42.578C60.1511 42.0775 59.9045 41.3451 59.9045 40.395C59.9045 39.735 60.0205 39.1839 60.2526 38.7415C60.4847 38.2991 60.7965 37.9727 61.1882 37.7624C61.587 37.5448 62.0367 37.436 62.5299 37.436C63.2841 37.436 63.8933 37.6754 64.3502 38.154C64.7926 38.6254 65.0174 39.3071 65.0174 40.2064ZM64.2777 40.0324C64.2704 39.3942 64.1109 38.9083 63.7918 38.5674C63.4799 38.2265 63.052 38.0597 62.5081 38.0597C61.9787 38.0597 61.5435 38.2265 61.2027 38.5674C60.8691 38.901 60.6877 39.3942 60.6587 40.0324H64.2777ZM66.6637 37.5448H67.5195L69.8039 42.3314L72.0884 37.5448H72.9442V43.2017H72.1682V38.9373H72.1247L70.123 43.2017H69.4703L67.4687 38.9373H67.4252V43.2017H66.6492V37.5448H66.6637ZM78.0281 37.5448H81.5963V38.1758H78.7969V43.2017H78.0209V37.5448H78.0281ZM85.411 43.3105C84.9251 43.3105 84.4755 43.2017 84.0621 42.9841C83.656 42.7665 83.3296 42.4402 83.0758 41.9978C82.8292 41.5554 82.7059 41.0114 82.7059 40.3805C82.7059 39.7423 82.8292 39.2056 83.0758 38.756C83.3296 38.3136 83.656 37.98 84.0621 37.7696C84.4755 37.5521 84.9251 37.4433 85.411 37.4433C85.8897 37.4433 86.3321 37.5521 86.7382 37.7696C87.1516 37.9872 87.4852 38.3208 87.7318 38.756C87.9856 39.1984 88.1089 39.7423 88.1089 40.3805C88.1089 41.0187 87.9856 41.5554 87.7318 41.9978C87.4852 42.4402 87.1516 42.7738 86.7382 42.9841C86.3321 43.2017 85.8897 43.3105 85.411 43.3105ZM85.411 42.6577C85.7591 42.6577 86.0782 42.5707 86.3756 42.4039C86.6729 42.2371 86.9123 41.9833 87.0936 41.6424C87.2749 41.2943 87.3692 40.8737 87.3692 40.3732C87.3692 39.8728 87.2821 39.4522 87.0936 39.1113C86.9123 38.7632 86.6729 38.5094 86.3756 38.3353C86.0782 38.1685 85.7591 38.0815 85.411 38.0815C85.0557 38.0815 84.7293 38.1685 84.432 38.3353C84.1346 38.5021 83.8953 38.7632 83.714 39.1113C83.5399 39.4522 83.4529 39.8728 83.4529 40.3732C83.4529 40.8737 83.5399 41.2943 83.714 41.6424C83.8953 41.9833 84.1346 42.2371 84.432 42.4039C84.7293 42.5707 85.0557 42.6577 85.411 42.6577ZM92.5836 37.436C93.0478 37.436 93.4757 37.5448 93.86 37.7624C94.2444 37.9727 94.549 38.2991 94.7811 38.7415C95.0204 39.1839 95.1365 39.7278 95.1365 40.3732C95.1365 41.0187 95.0204 41.5626 94.7811 42.005C94.549 42.4474 94.2444 42.781 93.86 42.9914C93.4757 43.2017 93.055 43.3032 92.5836 43.3032C92.1485 43.3032 91.7496 43.2162 91.387 43.0276C91.0244 42.8391 90.7415 42.5707 90.5385 42.2226V45.2541H89.7625V37.5303H90.5385V38.5021C90.7415 38.154 91.0244 37.8857 91.387 37.7044C91.7496 37.5303 92.1485 37.436 92.5836 37.436ZM92.4603 42.6577C92.8085 42.6577 93.1276 42.5707 93.4176 42.4039C93.715 42.2299 93.9543 41.9688 94.1356 41.6279C94.3169 41.2798 94.4112 40.8592 94.4112 40.366C94.4112 39.8728 94.3242 39.4522 94.1356 39.1113C93.9543 38.7632 93.715 38.5094 93.4176 38.3353C93.1276 38.1613 92.8085 38.0742 92.4603 38.0742C92.1195 38.0742 91.8004 38.1613 91.4958 38.3353C91.1984 38.5021 90.9591 38.756 90.7778 39.1113C90.5965 39.4522 90.5022 39.8656 90.5022 40.366C90.5022 40.8592 90.5892 41.2798 90.7778 41.6279C90.9591 41.9688 91.1984 42.2299 91.4958 42.4039C91.8004 42.5707 92.1195 42.6577 92.4603 42.6577ZM99.2848 43.3105C98.7989 43.3105 98.3493 43.2017 97.9359 42.9841C97.5298 42.7665 97.1961 42.4402 96.9423 41.9978C96.6957 41.5554 96.5724 41.0114 96.5724 40.3805C96.5724 39.7423 96.6957 39.2056 96.9423 38.756C97.1961 38.3136 97.5298 37.98 97.9359 37.7696C98.3493 37.5521 98.7989 37.4433 99.2848 37.4433C99.7635 37.4433 100.206 37.5521 100.612 37.7696C101.025 37.9872 101.352 38.3208 101.598 38.756C101.852 39.1984 101.975 39.7423 101.975 40.3805C101.975 41.0187 101.845 41.5554 101.598 41.9978C101.352 42.4402 101.018 42.7738 100.612 42.9841C100.206 43.2017 99.7635 43.3105 99.2848 43.3105ZM99.2848 42.6577C99.6329 42.6577 99.952 42.5707 100.257 42.4039C100.554 42.2371 100.793 41.9833 100.975 41.6424C101.156 41.2943 101.25 40.8737 101.25 40.3732C101.25 39.8728 101.163 39.4522 100.975 39.1113C100.793 38.7632 100.554 38.5094 100.257 38.3353C99.9593 38.1685 99.6329 38.0815 99.2848 38.0815C98.9295 38.0815 98.6031 38.1685 98.3058 38.3353C98.0084 38.5021 97.7691 38.7632 97.5878 39.1113C97.4137 39.4522 97.3267 39.8728 97.3267 40.3732C97.3267 40.8737 97.4137 41.2943 97.5878 41.6424C97.7691 41.9833 98.0084 42.2371 98.3058 42.4039C98.6031 42.5707 98.9295 42.6577 99.2848 42.6577ZM108.851 42.5707V43.9197H108.147V43.2017H103.752V43.9197H103.042V42.5707H103.397C103.556 42.3822 103.673 42.1283 103.745 41.8092C103.818 41.4829 103.861 41.0985 103.876 40.6561C103.897 40.2137 103.905 39.5755 103.905 38.7415V37.5448H108.474V42.5707H108.851ZM107.712 42.5707V38.1758H104.688V38.7415C104.688 39.5755 104.673 40.2137 104.659 40.6561C104.644 41.0985 104.601 41.4829 104.528 41.8092C104.456 42.1283 104.34 42.3822 104.173 42.5707H107.712ZM114.892 42.3822C114.892 42.6215 115.001 42.7375 115.218 42.7303V43.2089C115.153 43.2452 115.051 43.2669 114.914 43.2669C114.682 43.2669 114.493 43.2089 114.355 43.1001C114.225 42.9913 114.159 42.8318 114.159 42.6215V42.2226H114.123C114.058 42.3531 113.935 42.5054 113.761 42.665C113.594 42.8318 113.354 42.9768 113.043 43.1146C112.738 43.2452 112.375 43.3105 111.955 43.3105C111.389 43.3105 110.939 43.1872 110.606 42.9333C110.272 42.6722 110.105 42.2879 110.105 41.7875C110.105 41.3233 110.258 40.9679 110.577 40.7141C110.896 40.4603 111.375 40.2862 112.013 40.1992L113.253 40.0324C113.826 39.9526 114.116 39.8293 114.116 39.6625V39.3579C114.116 38.8793 113.993 38.5384 113.746 38.3353C113.507 38.1323 113.137 38.0307 112.644 38.0307C112.158 38.0307 111.795 38.1177 111.556 38.3063C111.317 38.4949 111.2 38.7632 111.2 39.1331V39.2564H110.461V39.0823C110.461 38.5311 110.657 38.1178 111.041 37.8494C111.425 37.5738 111.976 37.436 112.68 37.436C113.427 37.436 113.985 37.5883 114.348 37.8929C114.711 38.1975 114.892 38.6907 114.892 39.3579V42.3822ZM114.123 40.2862C114.101 40.424 113.833 40.5255 113.325 40.5908L112.18 40.7576C111.701 40.8229 111.367 40.9389 111.171 41.1057C110.983 41.2653 110.889 41.4829 110.889 41.7512C110.889 42.0775 110.997 42.3169 111.215 42.4692C111.44 42.6215 111.737 42.7013 112.107 42.7013C112.535 42.7013 112.905 42.6142 113.209 42.4402C113.514 42.2661 113.739 42.063 113.898 41.831C114.051 41.5989 114.13 41.3958 114.13 41.229V40.2862H114.123Z" fill="#9D62F5"/>
</g>
</svg>
