<svg width="130" height="28" viewBox="0 0 130 28" fill="none" xmlns="http://www.w3.org/2000/svg">
<path opacity="0.9" d="M126.597 26.4338C127.352 26.4338 127.946 26.3467 128.381 26.1654C128.824 25.9841 129.143 25.8173 129.353 25.665H129.745L129.317 27.5796H119.222V27.1953C119.374 26.9922 119.548 26.6731 119.729 26.238C119.911 25.8028 120.005 25.2154 120.005 24.4756V3.84987C120.005 3.11012 119.925 2.50818 119.773 2.05128C119.621 1.56537 119.439 1.26077 119.229 1.13022V0.74585H128.157L128.584 2.66048H128.193C127.983 2.50818 127.663 2.34137 127.221 2.16006C126.779 1.97875 126.184 1.89173 125.437 1.89173H123.885V8.41161H123.965C124.719 8.41161 125.314 8.32458 125.749 8.14327C126.191 7.96196 126.51 7.79516 126.721 7.64286H127.112V10.1377H126.764C126.554 9.98538 126.235 9.81857 125.792 9.63727C125.35 9.45596 124.755 9.36893 124.008 9.36893H123.892V26.4265H126.597V26.4338Z" fill="#252434"/>
<path opacity="0.9" d="M100.264 3.85716V8.80328C101.635 8.80328 102.817 9.10063 103.796 9.68808C104.782 10.2538 105.594 10.9935 106.24 11.9146C106.885 12.8066 107.357 13.8219 107.64 14.946C107.951 16.0484 108.104 17.1218 108.104 18.1661C108.104 19.2395 107.951 20.3418 107.64 21.4659C107.357 22.5683 106.885 23.5764 106.24 24.4974C105.594 25.3895 104.775 26.1365 103.796 26.7239C102.81 27.3113 101.635 27.6087 100.264 27.6087H95.6079V27.2243C95.7602 27.0213 95.9343 26.7022 96.1156 26.267C96.2969 25.8319 96.3839 25.2444 96.3839 24.5047V3.87892C96.3839 3.13918 96.2969 2.55173 96.1156 2.11659C95.9343 1.68145 95.7675 1.36234 95.6079 1.15928V0.774902H101.047V1.15928C100.895 1.36234 100.721 1.68145 100.54 2.11659C100.351 2.52272 100.264 3.11742 100.264 3.85716ZM100.264 9.94916V26.4338C101.091 26.4338 101.743 26.1945 102.208 25.7086C102.701 25.2227 103.063 24.599 103.295 23.8302C103.527 23.0397 103.673 22.1404 103.723 21.1468C103.774 20.1533 103.803 19.1524 103.803 18.1589C103.803 17.1653 103.774 16.179 103.723 15.2071C103.673 14.2136 103.527 13.3288 103.295 12.56C103.063 11.7913 102.701 11.1676 102.208 10.6816C101.736 10.1957 101.091 9.94916 100.264 9.94916Z" fill="#252434"/>
<path opacity="0.9" d="M74.6051 1.89922C73.8508 1.89922 73.2561 1.98625 72.821 2.16756C72.3786 2.34887 72.0595 2.51567 71.8491 2.66797H71.4575L71.8854 0.753418H84.3087L84.7366 2.66797H84.345C84.1347 2.51567 83.8156 2.34887 83.3732 2.16756C82.9308 1.98625 82.3361 1.89922 81.5891 1.89922H80.0371V24.4757C80.0371 25.2155 80.1241 25.8029 80.3127 26.2381C80.494 26.6732 80.6608 26.9923 80.8203 27.1954V27.5797H75.3811V27.1954C75.5334 26.9923 75.7074 26.6732 75.8887 26.2381C76.07 25.8029 76.1643 25.2155 76.1643 24.4757V1.89922H74.6051Z" fill="#252434"/>
<path opacity="0.9" d="M51.6657 9.56474V24.4756C51.6657 25.2154 51.7528 25.8028 51.9341 26.238C52.1154 26.6731 52.2822 26.9922 52.4417 27.1953V27.5796H47.0024V27.1953C47.1547 26.9922 47.3288 26.6731 47.5101 26.238C47.6914 25.8028 47.7784 25.2154 47.7784 24.4756V3.84987C47.7784 3.11012 47.6914 2.52268 47.5101 2.08754C47.3288 1.6524 47.162 1.33329 47.0024 1.13022V0.74585H52.4417V1.13022C52.2894 1.33329 52.1154 1.6524 51.9341 2.08754C51.7528 2.52268 51.6657 3.11012 51.6657 3.84987V8.41161H55.9374V3.84987C55.9374 3.11012 55.8503 2.52268 55.669 2.08754C55.4877 1.6524 55.3209 1.33329 55.1614 1.13022V0.74585H60.6006V1.13022C60.4483 1.33329 60.2743 1.6524 60.093 2.08754C59.9117 2.52268 59.8246 3.11012 59.8246 3.84987V24.4756C59.8246 25.2154 59.9117 25.8028 60.093 26.238C60.2743 26.6731 60.4411 26.9922 60.6006 27.1953V27.5796H55.1614V27.1953C55.3137 26.9922 55.4877 26.6731 55.669 26.238C55.8503 25.8028 55.9374 25.2154 55.9374 24.4756V9.56474H51.6657Z" fill="#252434"/>
<path opacity="0.9" d="M21.271 27.2025C21.5828 27.072 21.8512 26.9487 22.0833 26.8181C22.3443 26.6876 22.5474 26.499 22.707 26.2452C22.8883 25.9914 23.0406 25.6433 23.1711 25.2081C23.3234 24.773 23.454 24.2 23.5627 23.4821L26.7465 3.39297C26.8263 2.80553 26.7103 2.33412 26.3984 1.9715C26.0866 1.61614 25.753 1.39856 25.3903 1.31879V0.74585H30.3582L34.2818 23.4748C34.4341 24.142 34.5791 24.6859 34.7097 25.1211C34.8402 25.5562 34.9707 25.9116 35.1013 26.1944C35.2318 26.4483 35.3696 26.6513 35.5292 26.8109C35.6815 26.9632 35.8918 27.0937 36.1529 27.1953V27.5796H29.7853V27.1953C29.8651 27.0937 29.9666 26.9777 30.0971 26.8472C30.2277 26.7166 30.3292 26.5498 30.409 26.3467C30.5105 26.1147 30.5758 25.8463 30.6048 25.5417C30.6556 25.2371 30.6193 24.8528 30.4888 24.3886L29.4009 17.9847H25.6369L24.5853 24.4611C24.4838 25.0268 24.4693 25.4692 24.5491 25.8028C24.6506 26.1364 24.7957 26.3903 24.977 26.5716C25.1583 26.7239 25.3541 26.8544 25.5572 26.9559C25.7892 27.0357 25.985 27.1082 26.1373 27.188V27.5724H21.2855V27.2025H21.271ZM29.1906 16.8534L27.5225 7.15695H27.3702L25.8182 16.8534H29.1906Z" fill="#252434"/>
<path opacity="0.9" d="M4.66327 24.4756C4.66327 25.2154 4.7503 25.8028 4.93161 26.238C5.11292 26.6731 5.27973 26.9922 5.43928 27.1953V27.5796H0V27.1953C0.1523 26.9922 0.326355 26.6731 0.507666 26.238C0.688976 25.8028 0.775997 25.2154 0.775997 24.4756V3.84987C0.775997 3.11012 0.688976 2.52268 0.507666 2.08754C0.326355 1.6524 0.159552 1.33329 0 1.13022V0.74585H4.65603C6.02673 0.74585 7.20887 0.999681 8.18794 1.5146C9.17426 2.00051 9.98653 2.65323 10.632 3.47274C11.2775 4.29226 11.7416 5.22057 12.0317 6.27216C12.3436 7.29475 12.4959 8.33909 12.4959 9.41244C12.4959 10.4568 12.3436 11.5084 12.0317 12.5527C11.7489 13.5753 11.2775 14.4964 10.632 15.3159C9.98653 16.1064 9.16701 16.7591 8.18794 17.274C7.20162 17.7599 6.02673 17.9993 4.65603 17.9993V24.4756H4.66327ZM4.66327 16.8534C5.49004 16.8534 6.13551 16.6648 6.60692 16.2804C7.10008 15.8743 7.4627 15.3231 7.69478 14.6342C7.92686 13.9452 8.0719 13.1547 8.12267 12.2554C8.17344 11.3633 8.20245 10.4133 8.20245 9.41969C8.20245 8.42612 8.17344 7.47606 8.12267 6.58402C8.0719 5.66296 7.92686 4.85795 7.69478 4.16897C7.4627 3.48 7.10008 2.92881 6.60692 2.52268C6.14276 2.11655 5.49729 1.90623 4.66327 1.90623V16.8534Z" fill="#252434"/>
</svg>
