<svg width="199" height="234" viewBox="0 0 199 234" fill="none" xmlns="http://www.w3.org/2000/svg">
<g style="mix-blend-mode:multiply" opacity="0.6">
<path d="M171.539 185.393L168.003 183.353C167.105 182.839 165.671 182.839 164.792 183.353L160.606 185.755L99.2701 173.518L70.5038 156.953L73.3135 155.333C74.9 154.418 74.9 152.931 73.3135 152.016L54.6776 141.285C45.9043 136.233 31.6645 136.233 22.8722 141.285L10.9452 148.147C2.17192 153.198 2.17192 161.395 10.9452 166.446L29.5811 177.178C31.1676 178.092 33.7479 178.092 35.3344 177.178L38.5646 175.31L66.9104 191.626L88.3943 227.271L84.2084 229.673C83.3101 230.188 83.3101 231.007 84.2084 231.522L87.7445 233.562C88.6428 234.076 90.0764 234.076 90.9556 233.562L171.501 187.185C172.4 186.67 172.4 185.851 171.501 185.336L171.539 185.393Z" fill="#3A0155"/>
</g>
<path d="M34.4172 110.023V155.104C34.398 157.506 36.0801 160.403 38.1635 161.604L45.981 166.103C47.0323 166.713 47.9688 166.77 48.6569 166.369C49.345 165.988 50.4345 165.15 50.4536 163.949L53.4736 117.076L34.4172 110.004V110.023Z" fill="url(#paint0_linear_803_6561)"/>
<path d="M49.804 118.887V163.968C49.7849 165.15 49.3644 165.988 48.6763 166.389L59.0933 160.346C59.7623 159.946 60.1828 159.126 60.2019 157.925V112.845L49.8231 118.887H49.804Z" fill="#FDC8CA"/>
<path d="M52.3457 120.488L58.099 117.152L62.8201 128.494L57.0668 131.849L52.3457 120.488Z" fill="#D870EC"/>
<path d="M52.3458 120.488L57.067 131.849L52.3076 132.059L52.3458 120.488Z" fill="#9930CE"/>
<path d="M148.89 76.2463L102.252 84.6334C109.63 83.3944 114.982 88.2932 115.135 97.6905C115.268 104.591 112.573 112.406 108.254 119.04C105.195 123.729 101.334 127.808 97.0912 130.553C96.8236 130.724 96.5369 130.896 96.2502 131.067C87.6872 136.176 80.3092 134.155 77.6333 126.855L92.5421 171.268C98.4674 187.471 115.077 192.865 134.115 181.523C134.745 181.161 136.236 180.666 136.848 180.265C146.29 174.185 155.637 165.016 162.403 154.608C171.979 139.893 178.573 121.174 178.287 105.849C177.904 84.9765 165.232 73.5014 148.851 76.2653L148.89 76.2463Z" fill="url(#paint1_linear_803_6561)"/>
<path d="M75.1869 56.9372C70.5804 54.2685 64.1773 54.726 57.1434 58.9005C45.2737 65.9724 35.5448 81.3551 33.3658 95.4606C33.0409 97.5955 32.8689 99.7114 32.9071 101.77C33.0409 109.299 35.7742 114.598 40.113 117.115C41.5848 117.896 44.6621 119.516 49.517 119.097C54.2572 118.678 58.3285 116.581 60.3163 115.361C73.7916 107.145 83.8263 89.38 83.6543 74.0354C83.4823 70.3565 83.0618 61.7216 75.1869 56.9372Z" fill="url(#paint2_linear_803_6561)"/>
<path d="M53.8366 44.5851C53.4543 44.3754 53.072 44.1848 52.6706 43.9942C48.695 42.0689 44.7766 41.0777 38.6984 41.8783C34.1876 42.4692 28.2814 45.176 24.3248 48.4546C22.3179 50.1129 16.2015 55.1833 11.9391 63.7991C9.62632 68.4883 6.89304 75.6745 7.12241 83.242C7.50468 95.5176 13.6593 101.713 18.7627 104.743L40.1129 117.076C35.774 114.56 33.0407 109.28 32.9069 101.732C32.6202 86.1965 43.4769 67.0205 57.1433 58.8813C64.1771 54.6877 70.5803 54.2493 75.1867 56.9179L53.8366 44.5851Z" fill="url(#paint3_linear_803_6561)"/>
<path d="M76.0467 62.4456C72.0137 60.12 66.4133 60.5203 60.2587 64.1802C48.2934 71.3092 38.7939 88.1025 39.0424 101.712C39.157 108.308 41.5463 112.921 45.3499 115.132L73.237 131.353L103.991 78.5907L76.0467 62.4456Z" fill="url(#paint4_linear_803_6561)"/>
<path d="M109.465 117.048C117.007 104.105 117.031 90.0831 109.52 85.7301C102.008 81.3771 89.8048 88.3411 82.263 101.285C74.7212 114.228 74.6969 128.249 82.2086 132.602C89.7203 136.955 101.924 129.991 109.465 117.048Z" fill="#D26AE9"/>
<path d="M135.976 132.422C142.848 120.551 142.846 107.72 135.971 103.761C129.097 99.8031 117.952 106.217 111.08 118.087C104.208 129.958 104.21 142.789 111.085 146.748C117.96 150.706 129.104 144.292 135.976 132.422Z" fill="#D26AE9"/>
<path d="M114.676 130.362C114.676 136.005 118.632 138.273 123.525 135.471C128.419 132.65 132.375 125.807 132.375 120.164C132.375 114.522 128.419 112.254 123.525 115.056C118.632 117.877 114.676 124.72 114.676 130.362Z" fill="#9930CE"/>
<path d="M136.083 103.828L111.35 89.5895C108.158 87.6833 103.704 87.9121 98.7922 90.7522C89.0824 96.3373 81.2075 109.947 81.2075 121.136C81.2075 126.664 83.138 130.572 86.2536 132.421L110.987 146.66C107.871 144.792 105.941 140.903 105.941 135.375C105.941 124.186 113.816 110.576 123.526 104.991C128.438 102.151 132.891 101.922 136.083 103.828Z" fill="#9930CE"/>
<path d="M68.2484 125.196L86.1963 171.249C84.4952 166.903 83.5395 161.738 83.4248 155.828C82.9087 127.064 102.997 91.5147 128.323 76.4179C134.248 72.8915 139.925 70.7947 145.162 70.0132L96.1546 77.2566C93.6698 77.6188 90.9939 78.61 88.1841 80.2874C76.1998 87.4355 66.6811 104.248 66.9296 117.877C66.9869 120.679 67.4456 123.119 68.2484 125.177V125.196Z" fill="url(#paint5_linear_803_6561)"/>
<path d="M135.089 184.249C109.362 199.575 88.0884 188.31 87.5533 159.088C87.0181 129.867 107.432 93.7641 133.159 78.4386C158.886 63.113 180.16 74.3784 180.695 103.6C181.23 132.821 160.817 168.924 135.089 184.249ZM176.949 105.83C176.452 78.9723 156.898 68.6218 133.235 82.7083C109.572 96.7949 90.8217 130 91.2996 156.858C91.7965 183.716 111.35 194.066 135.013 179.98C158.657 165.893 177.426 132.688 176.949 105.83Z" fill="#D26AE9"/>
<path d="M134.841 184.821C151.241 174.814 161.887 159.946 167.946 149.233C174.044 138.425 181.288 121.651 181.077 103.047C181.077 103.237 180.963 103.447 180.695 103.6C181.23 132.821 160.817 168.924 135.09 184.249C109.362 199.575 88.0887 188.309 87.5535 159.088C87.0183 129.866 107.432 93.7639 133.159 78.4383C158.886 63.1128 180.16 74.3782 180.695 103.6C180.963 103.447 181.077 103.237 181.077 103.047C180.752 96.4706 180.007 81.0688 166.857 73.1011C158.026 67.9735 145.717 68.8504 132.223 76.8944C105.998 92.5249 85.1834 129.333 85.7186 159.126C85.9862 173.594 91.2234 183.735 99.557 188.557C101.64 189.663 107.203 192.579 115.097 191.759C121.825 191.054 128.476 188.729 134.841 184.84V184.821Z" fill="url(#paint6_linear_803_6561)"/>
<path d="M163.818 71.3285C162.403 70.5089 160.874 69.8608 159.288 69.3461C159.23 69.3271 159.173 69.308 159.116 69.2889C158.848 69.2127 158.6 69.1174 158.332 69.0411C153.401 67.5734 147.017 67.3065 137.918 70.5089C134.612 71.6716 129.107 74.3784 124.978 77.3139C117.352 82.7464 114.064 86.1775 110.28 90.1614C95.8489 105.296 81.6091 133.05 82.3163 156.82C82.5457 164.597 83.6734 169.743 86.4831 175.786C87.5726 178.15 88.987 180.094 90.3823 181.676C88.9488 179.98 87.6873 177.959 86.6169 175.729C88.0505 178.664 89.828 181.18 91.9306 183.239C91.4145 182.763 90.8984 182.248 90.3823 181.657C92.0644 183.658 93.9948 185.298 96.1165 186.518C96.0018 186.441 95.8298 186.327 95.696 186.232C95.9827 186.403 96.2503 186.594 96.537 186.765L99.5761 188.538C91.2425 183.716 86.0053 173.556 85.7377 159.107C85.2025 129.314 106.017 92.4869 132.242 76.8754C145.736 68.8315 158.045 67.9737 166.876 73.0822L163.837 71.3095L163.818 71.3285Z" fill="url(#paint7_linear_803_6561)"/>
<path d="M26.9817 101.369L13.4492 93.5732C11.9392 92.6964 10.6968 90.7712 10.6968 89.2653C10.6968 87.7594 11.9201 87.2448 13.4492 88.1025L26.9817 95.8987C28.4917 96.7756 29.7341 98.7008 29.7341 100.207C29.7341 101.713 28.5109 102.227 26.9817 101.369Z" fill="#9930CE"/>
<path d="M74.5752 56.5749C74.1738 56.3461 73.543 56.003 72.7211 55.7171C71.0774 55.1262 68.4779 54.6687 65.4388 55.1834C62.4188 55.679 58.9974 56.9561 55.8054 59.0338C55.0026 59.5104 54.219 60.0631 53.4162 60.654C52.5943 61.2259 51.8489 61.8549 51.0843 62.503C49.5552 63.7801 48.1025 65.2098 46.7263 66.6966C44.0313 69.7083 41.6994 73.025 39.8071 76.3036C38.8515 77.9429 38.0487 79.5822 37.3415 81.1643C36.6534 82.7464 36.0226 84.2523 35.5448 85.701C35.0287 87.1115 34.6846 88.4649 34.3788 89.6467C34.0921 90.8285 33.901 91.8769 33.7098 92.7347C33.4805 94.4693 33.3467 95.4605 33.3467 95.4605C33.3467 95.4605 33.576 94.4883 33.9965 92.7919C34.4744 91.1145 35.1816 88.7318 36.3093 85.9869C36.8445 84.5954 37.5326 83.1467 38.278 81.6218C39.0426 80.0969 39.9218 78.5529 40.8584 76.9517C42.7698 73.7684 45.1017 70.5661 47.7776 67.6687C49.0965 66.201 50.4727 64.7904 51.9444 63.5323C52.6707 62.8843 53.3971 62.2552 54.1616 61.7215C54.8879 61.1306 55.6525 60.5969 56.4553 60.1013C59.5135 58.0426 62.6864 56.5939 65.5535 56.003C68.4205 55.374 70.9436 55.5265 72.6065 56.003C73.4475 56.2318 74.0782 56.4605 74.5178 56.6511C74.9383 56.8417 75.1677 56.9561 75.1677 56.9561C75.1677 56.9561 74.9575 56.8227 74.5561 56.5939L74.5752 56.5749Z" fill="url(#paint8_linear_803_6561)"/>
<defs>
<linearGradient id="paint0_linear_803_6561" x1="43.9741" y1="113.054" x2="38.7464" y2="224.566" gradientUnits="userSpaceOnUse">
<stop stop-color="#ED9AD5"/>
<stop offset="1" stop-color="#FAA9E3"/>
</linearGradient>
<linearGradient id="paint1_linear_803_6561" x1="134.268" y1="119.592" x2="81.5527" y2="168.991" gradientUnits="userSpaceOnUse">
<stop stop-color="#FAA9E3"/>
<stop offset="0.28" stop-color="#FAB2DB"/>
<stop offset="0.76" stop-color="#FDCCC5"/>
<stop offset="1" stop-color="#FFDCB9"/>
</linearGradient>
<linearGradient id="paint2_linear_803_6561" x1="46.6499" y1="116.047" x2="68.5091" y2="62.7279" gradientUnits="userSpaceOnUse">
<stop stop-color="#9930CE"/>
<stop offset="1" stop-color="#D26AE9"/>
</linearGradient>
<linearGradient id="paint3_linear_803_6561" x1="52.9382" y1="44.0704" x2="18.1604" y2="104.464" gradientUnits="userSpaceOnUse">
<stop stop-color="#FFAFF5"/>
<stop offset="0.07" stop-color="#FFA6F8"/>
<stop offset="0.22" stop-color="#FF9BFD"/>
<stop offset="0.38" stop-color="#FF98FF"/>
<stop offset="0.48" stop-color="#F790FB"/>
<stop offset="0.63" stop-color="#E37CF1"/>
<stop offset="0.8" stop-color="#C35AE1"/>
<stop offset="1" stop-color="#962DCC"/>
</linearGradient>
<linearGradient id="paint4_linear_803_6561" x1="82.3352" y1="66.0673" x2="51.8403" y2="119.035" gradientUnits="userSpaceOnUse">
<stop stop-color="#FFDCB9"/>
<stop offset="0.65" stop-color="#FBB7D7"/>
<stop offset="1" stop-color="#FAA9E3"/>
</linearGradient>
<linearGradient id="paint5_linear_803_6561" x1="76.238" y1="138.883" x2="129.324" y2="58.2139" gradientUnits="userSpaceOnUse">
<stop stop-color="#ED9AD5"/>
<stop offset="1" stop-color="#FAA9E3"/>
</linearGradient>
<linearGradient id="paint6_linear_803_6561" x1="167.87" y1="81.126" x2="102.248" y2="176.64" gradientUnits="userSpaceOnUse">
<stop stop-color="#FFAAF7"/>
<stop offset="0.24" stop-color="#FAA2F5"/>
<stop offset="0.6" stop-color="#EC8EF1"/>
<stop offset="1" stop-color="#D870EC"/>
</linearGradient>
<linearGradient id="paint7_linear_803_6561" x1="148.24" y1="62.3505" x2="81.5586" y2="178.174" gradientUnits="userSpaceOnUse">
<stop stop-color="#FF98FF"/>
<stop offset="0.16" stop-color="#F790FB"/>
<stop offset="0.39" stop-color="#E37CF1"/>
<stop offset="0.68" stop-color="#C35AE1"/>
<stop offset="1" stop-color="#962DCC"/>
</linearGradient>
<linearGradient id="paint8_linear_803_6561" x1="61.7498" y1="56.7655" x2="31.193" y2="125.564" gradientUnits="userSpaceOnUse">
<stop stop-color="#FFC2F9"/>
<stop offset="0.19" stop-color="#FBBAF7"/>
<stop offset="0.47" stop-color="#F1A6F4"/>
<stop offset="0.81" stop-color="#E285EF"/>
<stop offset="1" stop-color="#D870EC"/>
</linearGradient>
</defs>
</svg>
