<svg width="320" height="651" viewBox="0 0 320 651" fill="none" xmlns="http://www.w3.org/2000/svg">
<mask id="mask0_937_4321" style="mask-type:alpha" maskUnits="userSpaceOnUse" x="0" y="0" width="320" height="651">
<rect width="320" height="651" fill="#D9D9D9"/>
</mask>
<g mask="url(#mask0_937_4321)">
<path d="M0 0H668V651H0V0Z" fill="url(#paint0_linear_937_4321)"/>
<path d="M0 397.288V407.168L668.213 431.394V412.352L0 397.288Z" fill="url(#paint1_linear_937_4321)"/>
<path d="M-3.05176e-05 415.385V428.672L428.422 434.179L-3.05176e-05 415.385Z" fill="url(#paint2_linear_937_4321)"/>
<path d="M0 361.986V387.73L668.213 406.336V361.093L0 361.986Z" fill="url(#paint3_linear_937_4321)"/>
<g style="mix-blend-mode:screen" opacity="0.3">
<path d="M152.091 619.019C151.659 620.183 150.732 621.071 149.592 621.629C148.154 622.328 145.521 622.808 144.774 620.914C144.381 619.923 144.9 618.792 145.607 617.99C146.77 616.662 148.5 615.86 150.26 615.781C151.808 615.711 152.539 616.835 152.288 618.273C152.241 618.532 152.178 618.784 152.084 619.019H152.091Z" fill="#F0EEF4"/>
</g>
<g style="mix-blend-mode:screen" opacity="0.3">
<path d="M37.1299 541.76C35.0628 541.524 33.2551 540.377 31.9032 538.75C30.1898 536.691 28.3664 532.611 31.1409 530.647C32.5949 529.617 34.6384 530.002 36.2182 530.827C38.8354 532.187 40.8318 534.671 41.657 537.5C42.388 539.976 40.8632 541.618 38.4189 541.784C37.9787 541.815 37.5464 541.807 37.122 541.752L37.1299 541.76Z" fill="#F0EEF4"/>
</g>
<g style="mix-blend-mode:screen" opacity="0.3">
<path d="M166.262 622.494C164.635 622.753 163.008 622.266 161.625 621.315C159.872 620.112 157.609 617.385 159.314 615.286C160.203 614.186 161.845 614.045 163.236 614.343C165.524 614.823 167.583 616.293 168.825 618.273C169.909 620.01 169.1 621.59 167.268 622.242C166.938 622.36 166.608 622.447 166.27 622.494H166.262Z" fill="#F0EEF4"/>
</g>
<g style="mix-blend-mode:screen" opacity="0.3">
<path d="M47.7082 612.095C46.7258 612.252 45.7433 611.962 44.9102 611.38C43.857 610.649 42.4894 609.006 43.5112 607.741C44.0535 607.081 45.0438 606.994 45.8769 607.167C47.2602 607.458 48.502 608.346 49.2487 609.541C49.901 610.594 49.4138 611.545 48.3056 611.938C48.1091 612.009 47.9047 612.064 47.7082 612.095Z" fill="#F0EEF4"/>
</g>
<g style="mix-blend-mode:screen" opacity="0.3">
<path d="M34.2918 605.674C33.0186 604.629 32.3033 603.08 32.1068 601.414C31.8553 599.308 32.3976 595.802 35.0935 595.692C36.5082 595.637 37.7029 596.769 38.3945 598.003C39.5499 600.039 39.8092 602.554 39.1412 604.794C38.5596 606.759 36.8383 607.191 35.1407 606.256C34.8341 606.083 34.5512 605.894 34.2918 605.682V605.674Z" fill="#F0EEF4"/>
</g>
<path d="M0.157257 538.003V650.985H194.321C182.468 635.171 162.104 625.519 142.369 628.019C138.25 618.878 125.298 615.168 116.951 620.717C119.804 605.226 113.217 588.375 100.611 578.936C88.0117 569.481 69.9897 567.893 55.921 574.99C56.6441 570.518 54.1133 565.724 50.0263 563.775C45.9315 561.841 40.6184 562.918 37.6239 566.305C29.3163 552.559 15.5149 542.593 0.157257 538.003Z" fill="url(#paint4_linear_937_4321)"/>
<path d="M148.492 650.992H373.402C364.214 638.236 348.927 629.81 333.129 629.63C332.783 622.1 327.478 615.027 320.349 612.59C313.205 610.138 304.693 612.472 299.797 618.218C299.647 612.071 290.664 608.448 286.294 612.779C281.806 595.566 263.98 582.897 246.249 584.319C228.526 585.742 212.925 601.076 211.219 618.776C209.616 614.579 204.601 612.001 200.255 613.148C195.908 614.296 192.804 618.988 193.472 623.436C180.378 622.603 167.017 627.72 157.813 637.081C153.875 641.089 150.732 645.844 148.499 651L148.492 650.992Z" fill="url(#paint5_linear_937_4321)"/>
<path d="M249.187 650.994H428.422C421.1 640.824 408.917 634.107 396.328 633.962C396.052 627.96 391.824 622.32 386.143 620.378C380.45 618.423 373.667 620.284 369.765 624.864C369.646 619.964 362.486 617.075 359.004 620.528C355.428 606.805 341.222 596.704 327.092 597.839C312.968 598.973 300.535 611.198 299.176 625.309C297.898 621.963 293.902 619.908 290.438 620.822C286.975 621.737 284.5 625.478 285.033 629.025C274.598 628.361 263.95 632.44 256.616 639.903C253.478 643.098 250.972 646.889 249.194 651L249.187 650.994Z" fill="url(#paint6_linear_937_4321)"/>
<path d="M0.156517 565.622V650.993H108.839C103.872 643.841 97.1517 637.899 89.3707 634C76.6224 627.603 61.2098 626.746 47.8328 631.69C49.1139 626.667 47.5813 621.024 43.9423 617.33C40.3111 613.636 34.6994 612.017 29.6457 613.22C30.9268 597.406 23.6174 581.145 10.932 571.611C7.63882 569.127 3.99986 567.123 0.148651 565.622H0.156517Z" fill="url(#paint7_linear_937_4321)"/>
<g style="mix-blend-mode:screen" opacity="0.3">
<path d="M0.156174 548.213V650.993H227.008C221.608 642.74 212.884 636.633 203.201 634.629C191.183 632.161 178.034 636.067 169.342 644.721C166.237 638.394 156.067 637.341 151.728 642.882C148.247 636.963 141.975 632.79 135.184 631.87C128.385 630.943 121.225 633.293 116.305 638.064C115.158 624.781 102.307 613.597 88.9853 614.32C92.2549 611.09 92.75 605.981 92.1763 601.415C91.5946 596.856 90.1485 592.384 90.2899 587.794C90.5965 577.938 103.746 570.416 113.586 569.89C112.43 564.144 107.282 555.978 103.989 551.145C100.547 559.098 88.7337 560.71 80.269 558.894C71.8042 557.086 63.9289 552.646 55.299 551.899C43.4075 550.87 31.2094 557.77 25.9828 568.506C18.9642 559.971 10.0671 553.102 0.164047 548.229L0.156174 548.213Z" fill="#F0EEF4"/>
</g>
<path d="M124.943 523.51C124.943 523.51 113.453 521.412 111.393 522.001C109.334 522.59 84.1285 539.889 84.3171 540.935C84.5057 541.98 84.9301 542.852 86.1484 543.285C87.3588 543.717 107.047 539.441 107.047 539.441L123.882 532.195L124.951 523.518L124.943 523.51Z" fill="url(#paint8_linear_937_4321)"/>
<path d="M148.537 570.094C148.537 570.094 143.695 580.728 142.037 582.08C140.379 583.432 111.778 594.246 111.031 593.492C110.277 592.737 109.813 591.889 110.151 590.655C110.489 589.413 125.32 575.658 125.32 575.658L140.811 566.023L148.537 570.102V570.094Z" fill="url(#paint9_linear_937_4321)"/>
<path d="M113.752 543.78L125.981 568.019C126.72 569.489 126.296 571.273 124.967 572.248L114.868 579.652L97.7968 545.816L109.751 542.091C111.323 541.603 113.013 542.319 113.752 543.788V543.78Z" fill="url(#paint10_linear_937_4321)"/>
<path d="M107.039 539.434L108.556 542.46H108.572L123.458 571.965L123.599 572.248L125.313 575.651C125.313 575.651 125.894 575.627 127.042 575.51C127.058 575.517 127.065 575.517 127.081 575.51C129.698 575.203 135.232 574.393 143.641 572.161C144.915 571.816 146.259 571.446 147.665 571.037C148.255 570.865 148.86 570.692 149.473 570.503C152.758 569.521 156.39 568.334 160.335 566.935C161.349 566.581 162.394 566.204 163.455 565.803C165.224 565.158 167.055 564.467 168.941 563.728C170.301 563.201 171.7 562.636 173.131 562.054C181.226 558.753 190.335 554.65 200.443 549.541C215.407 541.996 226.733 533.131 235.268 524.43C236.495 523.18 237.673 521.931 238.774 520.697C240.409 518.913 241.894 517.128 243.293 515.384C252.929 503.256 257.322 492.552 258.973 487.757C259.24 487.011 259.162 486.217 258.839 485.564H258.824V485.557C258.501 484.904 257.912 484.393 257.157 484.158C252.3 482.633 241.1 479.811 225.617 480.353C223.377 480.448 221.066 480.574 218.653 480.817C216.995 480.974 215.289 481.179 213.56 481.422C201.488 483.12 187.624 486.979 172.675 494.524C123.081 519.557 107.024 539.458 107.024 539.458L107.039 539.434Z" fill="#F1EDF9"/>
<path d="M150.542 540.409C150.542 540.409 143.225 535.976 137.676 538.774C134.021 540.621 112.619 554.949 98.4642 564.498C96.7901 565.63 98.3227 568.656 100.225 567.988C116.313 562.274 140.56 553.574 144.215 551.734C149.764 548.936 150.55 540.409 150.55 540.409H150.542Z" fill="url(#paint11_linear_937_4321)"/>
<path d="M236.911 496.607C234.278 491.388 232.894 485.792 232.863 480.314C244.605 480.683 253.109 482.852 257.157 484.134C258.682 484.605 259.507 486.24 258.98 487.749C257.605 491.765 254.296 499.892 247.615 509.559C243.23 506.282 239.544 501.849 236.911 496.615V496.607Z" fill="url(#paint12_linear_937_4321)"/>
<path d="M243.3 515.368C237.838 512.004 233.012 506.832 229.695 500.254C226.378 493.691 225.089 486.735 225.624 480.338C227.243 480.283 228.807 480.267 230.308 480.275C230.324 486.177 231.802 492.166 234.623 497.762C237.453 503.374 241.398 508.129 246.13 511.635C245.241 512.853 244.298 514.102 243.292 515.368H243.3Z" fill="url(#paint13_linear_937_4321)"/>
<g style="mix-blend-mode:screen" opacity="0.4">
<path d="M107.039 539.434L108.556 542.46H108.572C189.769 477.453 258.847 485.549 258.847 485.549H258.831C258.509 484.881 257.919 484.378 257.165 484.142C252.308 482.617 241.108 479.796 225.624 480.338C223.384 480.432 221.074 480.558 218.661 480.802C217.002 480.959 215.297 481.163 213.568 481.407C201.495 483.104 187.631 486.963 172.682 494.509C123.088 519.541 107.031 539.442 107.031 539.442L107.039 539.434Z" fill="#F0EEF4"/>
</g>
<g style="mix-blend-mode:multiply">
<path d="M123.458 571.965L123.599 572.248L125.313 575.651C125.313 575.651 125.894 575.628 127.042 575.51C127.057 575.518 127.065 575.518 127.081 575.51C129.714 575.219 135.263 574.402 143.641 572.162C144.914 571.816 146.258 571.446 147.665 571.038C148.255 570.865 148.86 570.692 149.473 570.503C152.758 569.521 156.389 568.334 160.335 566.935C161.349 566.581 162.394 566.204 163.455 565.803C165.224 565.159 167.055 564.467 168.941 563.728C170.301 563.202 171.7 562.636 173.13 562.054C181.226 558.753 190.335 554.651 200.442 549.542C215.407 541.997 226.733 533.131 235.268 524.43C236.494 523.181 237.673 521.931 238.774 520.697C240.408 518.913 241.894 517.129 243.293 515.384C252.929 503.257 257.322 492.552 258.973 487.758C259.24 487.011 259.161 486.217 258.839 485.565H258.823C258.823 485.565 230.372 544.582 123.45 571.981L123.458 571.965Z" fill="#D4D1DB"/>
</g>
<path d="M212.452 530.018C203.177 534.702 191.867 530.977 187.199 521.711C182.923 513.246 185.658 503.107 193.204 497.841C193.927 497.33 194.697 496.866 195.522 496.45C204.789 491.773 216.106 495.491 220.783 504.765C223.62 510.385 223.361 516.751 220.649 521.938C218.897 525.31 216.099 528.171 212.452 530.01V530.018Z" fill="url(#paint14_linear_937_4321)"/>
<path d="M210.636 526.426C203.343 530.104 194.461 527.181 190.783 519.895C187.427 513.238 189.573 505.268 195.499 501.134C196.073 500.733 196.67 500.364 197.322 500.041C204.6 496.371 213.497 499.287 217.176 506.581C219.408 510.998 219.203 515.996 217.073 520.083C215.698 522.732 213.497 524.988 210.636 526.426Z" fill="#0064AB"/>
<path d="M215.273 521.152C207.98 524.831 199.091 521.899 195.42 514.613C193.196 510.204 193.385 505.197 195.507 501.134C196.08 500.733 196.678 500.364 197.33 500.041C204.608 496.371 213.505 499.287 217.183 506.581C219.415 510.998 219.211 515.996 217.081 520.083C216.507 520.484 215.91 520.838 215.273 521.16V521.152Z" fill="#0088BD"/>
<path d="M200.82 504.49C200.206 505.991 200.639 507.728 201.37 509.175C202.501 511.415 204.341 513.285 206.565 514.448C208.325 515.368 210.4 515.84 212.326 515.344C214.252 514.849 215.949 513.23 216.154 511.25C216.775 505.182 203.798 497.165 200.82 504.49Z" fill="#00B0DA"/>
<path d="M161.545 552.74L167.99 552.426C168.092 552.944 168.485 554.87 169.067 555.617C169.79 556.536 172.8 558.572 173.602 559.185C174.136 559.594 173.806 560.379 173.806 560.379L159.895 557.118C159.895 557.118 160.704 554.288 161.537 552.748L161.545 552.74Z" fill="#390280"/>
<path d="M123.772 510.212C125.698 514.228 128.456 518.189 133.07 518.716C143.837 519.958 157.45 517.505 157.45 517.505L160.531 553.518L168.697 552.732L168.862 552.708C168.862 552.708 168.878 508.121 167.353 507.327C166.261 506.753 156.829 505.905 151.446 506.125H151.398C149.064 506.235 147.602 505.087 147.602 505.087L122.601 506.243C122.782 507.649 123.19 508.986 123.772 510.212Z" fill="#0088BD"/>
<path d="M167.99 552.418L168.697 552.732L168.862 552.708C168.862 552.708 168.878 508.121 167.353 507.327C166.261 506.753 156.829 505.905 151.446 506.125C152.53 506.431 164.673 509.709 164.972 509.929C165.271 510.18 167.99 552.418 167.99 552.418Z" fill="#00B0DA"/>
<path d="M123.78 510.212C133 510.314 146.785 507.241 151.415 506.14C149.159 505.519 147.618 505.095 147.618 505.095L122.617 506.25C122.798 507.657 123.207 508.993 123.788 510.219L123.78 510.212Z" fill="#0064AB"/>
<path d="M141.22 459.808L143.515 468.713L144.144 471.157L144.451 472.368C144.451 472.368 161.923 476.195 165.569 474.938C169.232 473.688 181.524 450.777 181.524 450.777L179.96 449.928L178.844 449.308L175.025 447.217L173.704 446.494L163.047 464.484L143.814 460.366L141.22 459.808Z" fill="#0088BD"/>
<path d="M143.814 460.366C143.814 460.366 162.818 466.261 163.424 466.119C164.021 465.986 175.016 447.217 175.016 447.217L173.696 446.494L163.038 464.484L143.806 460.366H143.814Z" fill="#00B0DA"/>
<path d="M144.443 472.368C144.443 472.368 161.907 476.203 165.57 474.945C169.232 473.688 181.517 450.785 181.517 450.785L179.96 449.928L178.844 449.315C176.463 454.023 167.071 472.368 164.697 472.933C162.371 473.491 147.697 469.797 143.508 468.713L144.136 471.157L144.443 472.368Z" fill="#0064AB"/>
<path d="M121.249 508.844L138.69 507.264L139.452 507.193L151.367 506.117C151.367 506.117 148.742 483.426 147.233 470.984C146.423 464.296 143.633 461.223 141.22 459.808C140.67 459.486 140.136 459.25 139.656 459.077C138.32 458.597 137.353 458.605 137.353 458.605L131.317 459.132C130.783 459.258 130.28 459.399 129.8 459.541C129.439 459.659 129.093 459.776 128.763 459.894C127.71 460.287 122.585 462.716 122.114 463.18C120.361 466.198 119.779 471.582 119.779 471.582L120.243 483.229L120.337 485.627L121.257 508.844H121.249Z" fill="#0088BD"/>
<path d="M129.149 454.228L131.962 460.311L138.148 459.564L136.851 455.627L129.149 454.228Z" fill="#FF8A8C"/>
<path d="M137.7 441.935L140.05 455.65L131.617 456.837L128.481 454.086L125.911 445.44L137.7 441.935Z" fill="#FFABA7"/>
<path d="M130.736 451.579C130.736 451.579 127.844 446.981 126.052 449.834C124.802 451.83 128.481 454.094 128.481 454.094L130.736 451.579Z" fill="#FFABA7"/>
<path d="M138.148 444.403C138.171 444.544 140.938 450.392 140.938 450.392L138.069 451.241L137.448 445.873L138.148 444.403Z" fill="#FFABA7"/>
<path d="M134.925 434.414C135.813 434.98 136.316 435.616 136.599 436.229C136.968 435.145 136.858 434.005 136.858 434.005C140.937 435.962 139.428 440.528 139.428 440.528C139.483 442.902 127.985 446.046 127.985 446.046L129.046 449.606C127.725 448.184 126.059 449.826 126.059 449.826L123.261 445.676C124.684 444.112 126.735 442.572 128.527 441.369C131.184 439.593 133.384 437.212 134.925 434.406V434.414Z" fill="#28016A"/>
<path d="M136.497 482.341L139.657 459.069C138.321 458.59 137.354 458.598 137.354 458.598L134.548 458.841L131.318 459.124C130.791 459.25 130.28 459.391 129.801 459.541L136.49 482.341H136.497Z" fill="#F1EDF9"/>
<path d="M143.673 471.81L141.032 469.216L144.514 468.116L141.22 459.816C140.67 459.494 140.136 459.25 139.656 459.085L136.497 482.357L143.681 471.817L143.673 471.81Z" fill="#0064AB"/>
<path d="M130.72 470.953L128.307 473.429L136.489 482.349L129.8 459.549C129.439 459.659 129.093 459.777 128.763 459.902L127.144 469.727L130.728 470.953H130.72Z" fill="#0064AB"/>
<g style="mix-blend-mode:multiply">
<path d="M129.801 459.541L130.288 461.097L132.56 464.445L134.525 460.028L137.22 464.186L139.5 460.24L139.657 459.077C138.321 458.597 137.354 458.605 137.354 458.605L134.548 458.849L131.318 459.132C130.791 459.258 130.28 459.399 129.801 459.549V459.541Z" fill="#D4D1DB"/>
</g>
<path d="M137.354 458.605L134.548 458.849L137.032 463.282L139.657 459.077C138.321 458.598 137.354 458.605 137.354 458.605Z" fill="#F1EDF9"/>
<path d="M129.8 459.541L132.433 463.62L134.548 458.849L131.317 459.132C130.791 459.258 130.28 459.399 129.8 459.549V459.541Z" fill="#F1EDF9"/>
<path d="M138.689 507.264L139.452 507.194L138.092 484.527L135.671 480.109L134.995 480.479L137.345 484.739L138.689 507.264Z" fill="#0064AB"/>
<path d="M134.689 486.695C134.807 487.073 135.216 487.285 135.593 487.167C135.97 487.049 136.182 486.64 136.064 486.263C135.947 485.886 135.538 485.674 135.161 485.792C134.783 485.91 134.571 486.318 134.689 486.695Z" fill="#0064AB"/>
<path d="M135.074 491.113C135.192 491.49 135.601 491.702 135.978 491.585C136.355 491.467 136.568 491.058 136.45 490.681C136.332 490.303 135.923 490.091 135.546 490.209C135.169 490.327 134.956 490.736 135.074 491.113Z" fill="#0064AB"/>
<path d="M135.577 495.852C135.695 496.229 136.104 496.442 136.481 496.324C136.858 496.206 137.07 495.797 136.952 495.42C136.834 495.043 136.426 494.83 136.049 494.948C135.671 495.066 135.459 495.475 135.577 495.852Z" fill="#0064AB"/>
<path d="M132.512 499.774L124.165 500.6L124.684 502.25L128.637 502.824L132.362 501.15L132.512 499.774Z" fill="#0064AB"/>
<path d="M148.757 498.603L141.566 499.302L142.014 500.725L145.417 501.228L148.632 499.782L148.757 498.603Z" fill="#0064AB"/>
<path d="M178.538 443.358L182.082 447.249L179.96 450.157L176.581 448.467L177.092 443.767L178.538 443.358Z" fill="#FF8A8C"/>
<path d="M190.201 424.196L199.916 407.487C192.378 403.494 182.514 403.989 175.37 408.666C171.873 410.953 169.02 414.128 165.514 416.4C160.885 419.394 155.179 420.691 149.708 419.976C152.821 421.815 155.941 423.662 159.305 424.99C162.669 426.318 166.3 427.104 169.892 426.735C173.499 426.366 176.879 424.872 180.369 423.89C183.858 422.907 186.987 422.499 190.201 424.188V424.196Z" fill="url(#paint15_linear_937_4321)"/>
<path d="M201.574 408.461L132.732 526.842L131.16 525.75L199.908 407.494L201.574 408.461Z" fill="#F0EEF4"/>
<path d="M122.105 463.18L121.964 468.564L123.465 476.431L125.296 482.004L143.397 492.135L142.776 494.17L141.401 498.988C141.401 498.988 120.463 491.993 117.539 489.47C115.991 488.134 115.346 479.614 114.458 473.154C114.065 470.277 118.411 464.98 122.105 463.18Z" fill="#0088BD"/>
<path d="M174.946 445.999L177.138 442.038L183.198 442.148C183.198 442.148 183.56 443.028 182.585 443.421C181.603 443.814 179.528 444.018 179.528 444.018C179.528 444.018 177.618 448.357 175.897 447.877C174.175 447.406 174.946 445.999 174.946 445.999Z" fill="#FFABA7"/>
<path d="M182.419 444.026C182.419 444.026 183.135 444.977 182.907 445.629C182.687 446.282 179.213 446.596 179.213 446.596L178.883 445.787C178.883 445.787 181.453 443.578 182.419 444.026Z" fill="#FFABA7"/>
<path d="M182.168 442.509C182.168 442.509 182.883 443.46 182.655 444.112C182.435 444.765 178.961 445.079 178.961 445.079L178.631 444.27C178.631 444.27 181.201 442.061 182.168 442.509Z" fill="#FFABA7"/>
<path d="M182.467 445.684C182.467 445.684 183.103 446.533 182.899 447.115C182.695 447.696 179.606 447.979 179.606 447.979L179.315 447.256C179.315 447.256 181.602 445.291 182.459 445.692L182.467 445.684Z" fill="#FFABA7"/>
<path d="M182.317 447.398C182.317 447.398 182.734 448.199 182.482 448.655C182.239 449.119 179.598 448.922 179.598 448.922L179.456 448.27C179.456 448.27 181.649 446.934 182.317 447.39V447.398Z" fill="#FFABA7"/>
<path d="M142.776 494.162L146.344 494.382C146.344 494.382 150.644 497.385 150.691 497.966C150.738 498.548 149.881 499.515 149.74 499.554C149.598 499.593 148.93 499.577 148.93 499.577C148.93 499.577 148.553 500.379 148.27 500.473C147.987 500.568 147.225 500.709 147.225 500.709C147.225 500.709 146.737 501.173 146.572 501.22C146.407 501.275 145.511 501.314 145.338 501.259C145.165 501.204 143.256 499.208 143.185 498.886L141.739 497.73L142.784 494.154L142.776 494.162Z" fill="#FFABA7"/>
<path d="M143.405 492.135L142.784 494.17L124.786 484.377C124.786 484.377 121.351 476.589 120.974 473.005C120.597 469.428 122.019 466.89 122.019 466.89C122.019 466.89 121.43 474.459 125.949 482.86L143.405 492.135Z" fill="#0064AB"/>
<path d="M117.547 489.47C118.058 489.918 119.135 490.5 120.557 491.152C127.191 494.241 141.401 498.988 141.401 498.988L141.849 497.408V497.322C141.849 497.322 118.703 488.739 118.577 488.582C117.783 487.615 114.883 472.21 115.606 471.071C116.337 469.923 117.264 468.186 120.526 465.231C120.84 464.933 126.444 461.16 128.771 459.902C127.718 460.295 122.467 462.598 121.988 463.062C118.31 464.846 114.081 470.277 114.466 473.161C115.339 479.622 115.991 488.134 117.547 489.478V489.47Z" fill="#00B0DA"/>
<path d="M119.535 481.807C121.689 478.978 124.353 476.541 127.356 474.647C129.313 473.413 131.458 472.368 132.952 470.6C134.869 468.336 135.412 465.011 134.311 462.253L133.463 461.294L134.547 458.85L135.828 461.137L135.27 462.253C136.04 464.705 136.826 467.424 136.221 469.916C135.655 472.242 134.068 474.199 132.236 475.74C130.405 477.28 128.322 478.475 126.357 479.85C124.4 481.226 121.477 484.865 121.532 484.833L118.71 485.116L119.535 481.807Z" fill="#FF6790"/>
<g style="mix-blend-mode:screen" opacity="0.2">
<path d="M84.6704 461.694C80.5468 461.694 77.2038 458.351 77.2038 454.227C77.2038 450.104 80.5468 446.761 84.6704 446.761C88.7941 446.761 92.1371 450.104 92.1371 454.227C92.1371 458.351 88.7941 461.694 84.6704 461.694Z" fill="#F0EEF4"/>
</g>
<path d="M81.5975 451.217C82.0455 450.761 83.2952 451.233 84.647 452.294C85.9753 451.217 87.225 450.714 87.6808 451.162C88.1367 451.61 87.6651 452.86 86.6041 454.212C87.6808 455.54 88.1839 456.79 87.7359 457.246C87.2879 457.701 86.0382 457.23 84.6863 456.169C83.3581 457.246 82.1084 457.749 81.6525 457.301C81.1967 456.853 81.6683 455.603 82.7293 454.251C81.6525 452.923 81.1495 451.673 81.5975 451.217Z" fill="#FFE48F"/>
<g style="mix-blend-mode:screen" opacity="0.2">
<path d="M159.415 603.159C155.291 603.159 151.948 599.816 151.948 595.693C151.948 591.569 155.291 588.226 159.415 588.226C163.538 588.226 166.881 591.569 166.881 595.693C166.881 599.816 163.538 603.159 159.415 603.159Z" fill="#F0EEF4"/>
</g>
<path d="M156.342 592.682C156.79 592.226 158.039 592.698 159.391 593.759C160.72 592.682 161.969 592.179 162.425 592.627C162.881 593.075 162.409 594.325 161.348 595.677C162.425 597.005 162.928 598.255 162.48 598.71C162.032 599.166 160.782 598.695 159.431 597.634C158.102 598.71 156.853 599.213 156.397 598.765C155.941 598.317 156.412 597.068 157.474 595.716C156.397 594.388 155.894 593.138 156.342 592.682Z" fill="#FFE48F"/>
<g style="mix-blend-mode:screen" opacity="0.2">
<path d="M246.004 556.866C241.881 556.866 238.538 553.523 238.538 549.399C238.538 545.276 241.881 541.933 246.004 541.933C250.128 541.933 253.471 545.276 253.471 549.399C253.471 553.523 250.128 556.866 246.004 556.866Z" fill="#F0EEF4"/>
</g>
<path d="M241.705 549.438C241.705 548.802 242.924 548.251 244.621 548.039C244.794 546.334 245.329 545.1 245.965 545.1C246.602 545.1 247.152 546.318 247.364 548.016C249.07 548.188 250.304 548.723 250.304 549.36C250.304 549.996 249.085 550.546 247.388 550.759C247.215 552.464 246.68 553.698 246.044 553.698C245.407 553.698 244.857 552.48 244.645 550.782C242.939 550.609 241.705 550.075 241.705 549.438Z" fill="#FFE48F"/>
<g style="mix-blend-mode:screen" opacity="0.2">
<path d="M200.749 460.963C200.749 463.918 203.146 466.315 206.101 466.315C209.057 466.315 211.454 463.918 211.454 460.963C211.454 458.008 209.057 455.611 206.101 455.611C203.146 455.611 200.749 458.008 200.749 460.963Z" fill="#F0EEF4"/>
</g>
<path d="M203.901 458.81C204.223 458.488 205.119 458.826 206.086 459.58C207.037 458.81 207.933 458.448 208.255 458.77C208.577 459.093 208.239 459.989 207.485 460.955C208.255 461.906 208.617 462.802 208.294 463.125C207.972 463.447 207.076 463.109 206.109 462.354C205.158 463.125 204.262 463.486 203.94 463.164C203.618 462.842 203.956 461.946 204.71 460.979C203.94 460.028 203.579 459.132 203.901 458.81Z" fill="#FFE48F"/>
<g style="mix-blend-mode:screen" opacity="0.2">
<path d="M95.4938 512.624C97.5844 514.715 100.972 514.715 103.063 512.624C105.153 510.534 105.153 507.146 103.063 505.056C100.972 502.965 97.5844 502.965 95.4938 505.056C93.4031 507.146 93.4031 510.534 95.4938 512.624Z" fill="#F0EEF4"/>
</g>
<path d="M96.2008 508.875C96.2008 508.419 97.0732 508.026 98.2914 507.877C98.4172 506.658 98.7944 505.77 99.2503 505.77C99.7062 505.77 100.099 506.643 100.248 507.861C101.467 507.987 102.355 508.364 102.355 508.82C102.355 509.276 101.482 509.669 100.264 509.818C100.138 511.036 99.7612 511.924 99.3053 511.924C98.8495 511.924 98.4565 511.052 98.3071 509.834C97.0889 509.708 96.2008 509.331 96.2008 508.875Z" fill="#FFE48F"/>
<g style="mix-blend-mode:screen" opacity="0.2">
<path d="M57.2795 488.904C59.3701 490.995 62.7576 490.995 64.8482 488.904C66.9389 486.813 66.9389 483.426 64.8482 481.335C62.7576 479.245 59.3701 479.245 57.2795 481.335C55.1888 483.426 55.1888 486.813 57.2795 488.904Z" fill="#F0EEF4"/>
</g>
<path d="M57.9787 485.147C57.9787 484.691 58.8511 484.298 60.0693 484.149C60.1951 482.931 60.5723 482.043 61.0282 482.043C61.484 482.043 61.877 482.915 62.0263 484.133C63.2446 484.259 64.1327 484.636 64.1327 485.092C64.1327 485.548 63.2603 485.941 62.0421 486.09C61.9163 487.309 61.539 488.197 61.0832 488.197C60.6273 488.197 60.2344 487.324 60.085 486.106C58.8668 485.98 57.9787 485.603 57.9787 485.147Z" fill="#FFE48F"/>
<g style="mix-blend-mode:screen" opacity="0.2">
<path d="M257.778 525.231C257.778 528.186 260.175 530.583 263.13 530.583C266.085 530.583 268.483 528.186 268.483 525.231C268.483 522.276 266.085 519.878 263.13 519.878C260.175 519.878 257.778 522.276 257.778 525.231Z" fill="#F0EEF4"/>
</g>
<path d="M260.93 523.07C261.252 522.747 262.148 523.085 263.115 523.84C264.066 523.07 264.962 522.708 265.284 523.03C265.606 523.353 265.268 524.249 264.514 525.215C265.284 526.166 265.645 527.062 265.323 527.385C265.001 527.707 264.105 527.369 263.138 526.614C262.187 527.385 261.291 527.746 260.969 527.424C260.647 527.102 260.985 526.206 261.739 525.239C260.969 524.288 260.608 523.392 260.93 523.07Z" fill="#FFE48F"/>
</g>
<defs>
<linearGradient id="paint0_linear_937_4321" x1="668.068" y1="325.483" x2="6.51838e-06" y2="325.483" gradientUnits="userSpaceOnUse">
<stop stop-color="#1BD6DF"/>
<stop offset="1" stop-color="#1499A0"/>
</linearGradient>
<linearGradient id="paint1_linear_937_4321" x1="334.107" y1="212.021" x2="334.107" y2="430.851" gradientUnits="userSpaceOnUse">
<stop stop-color="white"/>
<stop offset="1" stop-color="white" stop-opacity="0"/>
</linearGradient>
<linearGradient id="paint2_linear_937_4321" x1="214.216" y1="314.703" x2="214.216" y2="435.267" gradientUnits="userSpaceOnUse">
<stop stop-color="white"/>
<stop offset="1" stop-color="white" stop-opacity="0"/>
</linearGradient>
<linearGradient id="paint3_linear_937_4321" x1="697.037" y1="111.928" x2="696.489" y2="402.217" gradientUnits="userSpaceOnUse">
<stop stop-color="white"/>
<stop offset="1" stop-color="white" stop-opacity="0"/>
</linearGradient>
<linearGradient id="paint4_linear_937_4321" x1="169.044" y1="475.016" x2="73.6837" y2="633.701" gradientUnits="userSpaceOnUse">
<stop stop-color="white"/>
<stop offset="1" stop-color="white" stop-opacity="0"/>
</linearGradient>
<linearGradient id="paint5_linear_937_4321" x1="260.947" y1="527.156" x2="260.947" y2="664.581" gradientUnits="userSpaceOnUse">
<stop stop-color="white"/>
<stop offset="0.25" stop-color="white" stop-opacity="0.7"/>
<stop offset="0.52" stop-color="white" stop-opacity="0.4"/>
<stop offset="0.75" stop-color="white" stop-opacity="0.18"/>
<stop offset="0.91" stop-color="white" stop-opacity="0.05"/>
<stop offset="1" stop-color="white" stop-opacity="0"/>
</linearGradient>
<linearGradient id="paint6_linear_937_4321" x1="338.804" y1="552.265" x2="338.804" y2="661.828" gradientUnits="userSpaceOnUse">
<stop stop-color="white"/>
<stop offset="0.25" stop-color="white" stop-opacity="0.7"/>
<stop offset="0.52" stop-color="white" stop-opacity="0.4"/>
<stop offset="0.75" stop-color="white" stop-opacity="0.18"/>
<stop offset="0.91" stop-color="white" stop-opacity="0.05"/>
<stop offset="1" stop-color="white" stop-opacity="0"/>
</linearGradient>
<linearGradient id="paint7_linear_937_4321" x1="97.0259" y1="555.53" x2="32.9388" y2="635.061" gradientUnits="userSpaceOnUse">
<stop stop-color="white"/>
<stop offset="1" stop-color="white" stop-opacity="0"/>
</linearGradient>
<linearGradient id="paint8_linear_937_4321" x1="125.742" y1="527.878" x2="83.3532" y2="535.513" gradientUnits="userSpaceOnUse">
<stop stop-color="#FF9A7A"/>
<stop offset="1" stop-color="#FF4E83"/>
</linearGradient>
<linearGradient id="paint9_linear_937_4321" x1="145.48" y1="566.833" x2="115.004" y2="597.267" gradientUnits="userSpaceOnUse">
<stop stop-color="#FF9A7A"/>
<stop offset="1" stop-color="#FF4E83"/>
</linearGradient>
<linearGradient id="paint10_linear_937_4321" x1="120.417" y1="555.423" x2="108.845" y2="561.405" gradientUnits="userSpaceOnUse">
<stop stop-color="#F66987"/>
<stop offset="1" stop-color="#C74F86"/>
</linearGradient>
<linearGradient id="paint11_linear_937_4321" x1="151.787" y1="547.274" x2="96.1718" y2="557.29" gradientUnits="userSpaceOnUse">
<stop stop-color="#FF9A7A"/>
<stop offset="1" stop-color="#FF4E83"/>
</linearGradient>
<linearGradient id="paint12_linear_937_4321" x1="260.012" y1="491.349" x2="235.151" y2="495.826" gradientUnits="userSpaceOnUse">
<stop stop-color="#F66987"/>
<stop offset="1" stop-color="#C74F86"/>
</linearGradient>
<linearGradient id="paint13_linear_937_4321" x1="243.368" y1="496.223" x2="227.805" y2="499.026" gradientUnits="userSpaceOnUse">
<stop stop-color="#F66987"/>
<stop offset="1" stop-color="#C74F86"/>
</linearGradient>
<linearGradient id="paint14_linear_937_4321" x1="222.499" y1="509.869" x2="185.479" y2="516.536" gradientUnits="userSpaceOnUse">
<stop stop-color="#FF9A7A"/>
<stop offset="1" stop-color="#FF4E83"/>
</linearGradient>
<linearGradient id="paint15_linear_937_4321" x1="200.802" y1="410.15" x2="151.784" y2="426.239" gradientUnits="userSpaceOnUse">
<stop stop-color="#FF9A7A"/>
<stop offset="1" stop-color="#FF4E83"/>
</linearGradient>
</defs>
</svg>
