<svg width="191" height="184" viewBox="0 0 191 184" fill="none" xmlns="http://www.w3.org/2000/svg">
<g clip-path="url(#clip0_803_6591)">
<g style="mix-blend-mode:screen" opacity="0.2">
<path d="M54.0271 145.301C36.9088 135.379 36.8178 119.263 53.8146 109.341C70.8266 99.4189 98.5981 99.4189 115.716 109.341C132.835 119.248 132.926 135.379 115.914 145.301C98.9017 155.208 71.1453 155.208 54.0119 145.301H54.0271Z" fill="#DB4DFF"/>
</g>
<g style="mix-blend-mode:multiply" opacity="0.6">
<path d="M177.725 174.626L133.518 149.029C132.622 148.512 131.181 148.512 130.285 149.029L130.027 149.182L120.755 143.81C134.944 133.401 133.7 118.167 117.082 108.55C99.2055 98.2015 70.2047 98.2015 52.4491 108.55C34.6935 118.898 34.7846 135.744 52.6616 146.092C69.2183 155.68 95.3205 156.364 113.182 148.177L122.47 153.549L122.212 153.701C121.317 154.219 121.317 155.056 122.212 155.573L166.419 181.17C167.314 181.687 168.756 181.687 169.651 181.17L177.725 176.498C178.62 175.98 178.62 175.143 177.725 174.626ZM54.0274 145.301C36.9092 135.379 36.8181 119.263 53.8149 109.341C70.8269 99.419 98.5985 99.419 115.717 109.341C132.835 119.248 132.926 135.379 115.914 145.301C98.902 155.208 71.1456 155.208 54.0122 145.301H54.0274Z" fill="#3A0155"/>
<path d="M114.244 122.55C118.539 131.818 109.039 141.344 93.0286 143.825C77.0182 146.305 60.5677 140.812 56.2882 131.544C52.0086 122.276 61.4934 112.75 77.5038 110.269C93.5142 107.789 109.965 113.283 114.244 122.55Z" fill="#3A0155"/>
<path d="M49.9449 161.782C62.1313 161.782 72.0104 156.066 72.0104 149.014C72.0104 141.963 62.1313 136.247 49.9449 136.247C37.7585 136.247 27.8794 141.963 27.8794 149.014C27.8794 156.066 37.7585 161.782 49.9449 161.782Z" fill="#3A0155"/>
</g>
<path d="M31.1431 103.451V129.078C31.1431 129.702 31.5376 130.326 32.3723 130.813C33.9961 131.757 36.6519 131.757 38.2757 130.813C39.08 130.341 39.4897 129.733 39.5049 129.124V103.497L31.1582 103.451H31.1431Z" fill="#6D00BA"/>
<path d="M38.2609 101.732C37.6083 101.351 36.8799 101.138 35.9693 101.047C34.1482 100.88 32.4486 101.382 31.6139 102.34C30.7792 103.284 31.0979 104.395 32.3879 105.141C33.3591 105.704 34.6187 105.947 35.9845 105.825C37.3503 105.704 38.4126 105.247 39.0348 104.532C39.8695 103.588 39.5508 102.477 38.2609 101.732Z" fill="#8A18ED"/>
<path d="M23.5552 111.456V133.461C23.5552 134.085 23.9497 134.709 24.7844 135.196C26.4082 136.14 29.064 136.14 30.6878 135.196C31.4921 134.724 31.9018 134.116 31.917 133.507V111.502L23.5704 111.456H23.5552Z" fill="#E29700"/>
<path d="M30.6574 109.752C30.0048 109.371 29.2764 109.158 28.3658 109.067C26.5447 108.9 24.845 109.402 24.0104 110.36C23.1757 111.304 23.4944 112.415 24.7843 113.161C25.7556 113.724 27.0152 113.967 28.381 113.845C29.7468 113.724 30.8091 113.267 31.4313 112.552C32.266 111.608 31.9473 110.497 30.6574 109.752Z" fill="#FFD03B"/>
<path d="M15.9517 119.354V137.874C15.9517 138.498 16.3462 139.122 17.1809 139.609C18.8047 140.553 21.4604 140.553 23.0842 139.609C23.8886 139.137 24.2983 138.529 24.3135 137.92V119.4L15.9668 119.354H15.9517Z" fill="#6D00BA"/>
<path d="M23.0538 117.635C22.4013 117.254 21.6728 117.041 20.7623 116.95C18.9412 116.782 17.2415 117.285 16.4069 118.243C15.5722 119.187 15.8909 120.298 17.1808 121.043C18.1521 121.606 19.4117 121.85 20.7775 121.728C22.1433 121.606 23.2056 121.15 23.8278 120.435C24.6625 119.491 24.3438 118.38 23.0538 117.635Z" fill="#8A18ED"/>
<path d="M8.22705 128.515V142.348C8.22705 142.972 8.62162 143.596 9.45628 144.083C11.0801 145.027 13.7358 145.027 15.3596 144.083C16.164 143.611 16.5737 143.003 16.5889 142.394V128.561L8.24223 128.515H8.22705Z" fill="#EA82F5"/>
<path d="M15.3448 126.796C14.6923 126.415 13.9639 126.202 13.0533 126.111C11.2322 125.944 9.53255 126.446 8.69789 127.404C7.86322 128.348 8.18191 129.459 9.47185 130.205C10.4431 130.768 11.7027 131.011 13.0685 130.889C14.4343 130.768 15.4966 130.311 16.1188 129.596C16.9535 128.652 16.6348 127.541 15.3448 126.796Z" fill="#FFACF6"/>
<path d="M0.518066 137.144V146.807C0.518066 147.431 0.912635 148.055 1.7473 148.542C3.3711 149.485 6.02685 149.485 7.65065 148.542C8.45497 148.07 8.86471 147.461 8.87989 146.853V137.189L0.533242 137.144H0.518066Z" fill="#C334CE"/>
<path d="M7.62024 135.424C6.96768 135.044 6.23925 134.831 5.32871 134.739C3.50762 134.572 1.80794 135.074 0.973276 136.033C0.138611 136.976 0.457301 138.087 1.74724 138.833C2.71848 139.396 3.97807 139.64 5.34388 139.518C6.7097 139.396 7.772 138.939 8.3942 138.224C9.22887 137.281 8.91018 136.17 7.62024 135.424Z" fill="#E467E8"/>
<path d="M56.001 89.6792V125.685C55.9251 130.083 58.7933 134.481 64.5753 137.829C76.0178 144.449 94.5473 144.449 105.99 137.829C111.635 134.557 114.503 130.281 114.564 126.004V89.9988L56.001 89.6792Z" fill="#6D00BA"/>
<path d="M57.7302 89.6943H55.985V125.7C55.9546 127.694 56.5465 129.672 57.7302 131.574V89.7096V89.6943Z" fill="#6D00BA"/>
<path d="M107.962 89.953L76.9731 89.7856V142.074C86.9284 143.779 98.1281 142.364 105.989 137.813C106.687 137.403 107.34 136.992 107.962 136.55V89.9378V89.953Z" fill="#E29700"/>
<path d="M103.257 89.9229V139.199C104.198 138.772 105.109 138.316 105.974 137.814C111.619 134.542 114.487 130.266 114.548 125.989V89.9837L103.257 89.9229Z" fill="#D66EE5"/>
<path d="M85.274 89.6943L103.227 103.208C95.548 106.647 86.397 107.636 77.064 106.038L85.274 89.6943Z" fill="#FFD03B"/>
<path d="M105.929 77.6418C113.304 81.918 116.552 88.3248 113.426 94.5337C111.604 98.1404 108.342 100.925 103.212 103.208L85.2594 89.6944L71.4495 88.5378L57.0933 84.8703C61.6308 75.8461 77.9144 70.6872 93.4695 73.3503C98.3409 74.1873 102.56 75.6787 105.914 77.6266L105.929 77.6418Z" fill="url(#paint0_linear_803_6591)"/>
<path d="M85.2741 89.6943L77.064 106.038C72.1471 105.201 67.9282 103.756 64.5592 101.808C61.5544 100.058 59.2174 97.912 57.6694 95.4011L85.2892 89.6943H85.2741Z" fill="#8A18ED"/>
<path d="M85.2745 89.6942L57.6547 95.4009C55.4694 91.8551 55.2873 88.4768 57.1083 84.8701L85.2745 89.6942Z" fill="#8A18ED"/>
<path d="M49.4448 132.807V160.275C55.1357 160.382 60.8873 159.179 65.2427 156.668C69.3705 154.279 71.4496 151.16 71.5103 148.025V132.913L49.46 132.792L49.4448 132.807Z" fill="#E29700"/>
<path d="M33.5098 132.73V155.725C33.9651 156.06 34.4659 156.379 34.997 156.683C40.0505 159.605 46.9858 160.747 53.5266 160.138V132.837L33.4946 132.73H33.5098Z" fill="#D66EE5"/>
<path d="M69.0972 132.913V153.594C70.6451 151.859 71.4646 149.942 71.4949 148.024V132.913H69.0972Z" fill="#E29700"/>
<path d="M35.1637 132.731L28.7444 132.7V147.812C28.6989 151.023 30.7779 154.234 35.012 156.684C35.0575 156.714 35.1182 156.745 35.1789 156.775V132.746L35.1637 132.731Z" fill="#6D00BA"/>
<path d="M50.1123 132.655L53.5117 144.875C46.546 145.514 40.0964 144.297 35.0884 141.405L50.1123 132.655Z" fill="#FFACF6"/>
<path d="M65.1206 123.904C71.7979 127.77 73.361 133.4 69.127 138.27L50.1118 132.655L65.1358 123.904H65.1206Z" fill="#FFD03B"/>
<path d="M69.127 138.27C65.9401 141.923 60.4768 144.236 53.5112 144.875L50.1118 132.655L69.127 138.27Z" fill="#FFD03B"/>
<path d="M50.1122 132.654L35.0883 141.405C28.4109 137.539 26.8479 131.909 31.0971 127.039L50.1122 132.654Z" fill="#8A18ED"/>
<path d="M53.3751 120.435L50.1123 132.655L31.0972 127.039C35.3464 122.169 44.0724 119.582 53.3751 120.435Z" fill="#E467E8"/>
<path d="M65.1211 123.904L50.0972 132.655L53.3599 120.435C58.0189 120.861 61.7673 121.972 65.106 123.904H65.1211Z" fill="#9E5BF4"/>
<path style="mix-blend-mode:screen" d="M71.3887 133.735C71.3128 134.085 71.2066 134.618 70.9334 135.226C70.4478 136.489 69.2944 138.072 67.5492 139.548C65.804 141.039 63.3911 142.272 60.6594 143.14C57.9278 144.007 54.8775 144.479 51.8272 144.631C48.7769 144.814 45.6962 144.6 42.8887 144.007C40.0812 143.413 37.5316 142.516 35.5285 141.42C33.4949 140.355 31.9773 139.137 31.0668 138.148C30.1411 137.159 29.7769 136.459 29.7769 136.459C29.7769 136.459 30.0955 137.174 30.9757 138.224C31.8408 139.274 33.2824 140.629 35.3312 141.785C37.3495 142.972 39.8991 144.022 42.7673 144.646C45.6203 145.285 48.7617 145.529 51.8727 145.377C54.9837 145.194 58.0796 144.677 60.8719 143.763C63.6642 142.85 66.0772 141.435 67.8376 139.868C69.5979 138.3 70.6451 136.565 71.07 135.272C71.2976 134.633 71.3887 134.1 71.4342 133.735C71.4797 133.37 71.4797 133.187 71.4797 133.187C71.4797 133.187 71.4797 133.385 71.4039 133.735H71.3887Z" fill="url(#paint1_radial_803_6591)"/>
<path d="M128.632 76.6372L128.601 86.1028C128.617 79.5439 124.322 72.9849 115.702 68.0087C98.5838 58.0866 70.8122 58.0866 53.8002 68.0087C45.3473 72.9393 41.1285 79.3917 41.0981 85.8593L41.1285 76.3938C41.1437 69.9261 45.3777 63.4737 53.8306 58.5431C70.8426 48.621 98.6141 48.621 115.732 58.5431C124.352 63.5346 128.647 70.0935 128.632 76.6372Z" fill="url(#paint2_linear_803_6591)"/>
<path d="M53.8155 64.2044C70.8274 54.2823 98.599 54.2823 115.717 64.2044C123.624 68.785 127.888 74.6743 128.526 80.6854C129.269 73.6395 125.005 66.4414 115.717 61.0695C98.599 51.1474 70.8274 51.1474 53.8155 61.0695C44.6645 66.411 40.4608 73.5482 41.2044 80.5484C41.8266 74.5982 46.0151 68.7546 53.8155 64.2196V64.2044Z" fill="#6C0099"/>
<path style="mix-blend-mode:screen" opacity="0.2" d="M54.0272 100.164C71.1454 110.071 98.9169 110.071 115.929 100.164C132.941 90.2421 132.85 74.1264 115.732 64.2043C98.6134 54.2822 70.8419 54.2822 53.8299 64.2043C36.8179 74.1111 36.909 90.2421 54.0423 100.164H54.0272Z" fill="url(#paint3_linear_803_6591)"/>
<path d="M130.559 76.6371L130.528 86.1027C130.513 92.8594 126.097 99.601 117.265 104.745C99.5091 115.093 70.5083 115.093 52.6465 104.745C43.6473 99.5401 39.1553 92.6768 39.1704 85.844L39.2008 76.3784C39.1856 83.2265 43.6776 90.0746 52.6768 95.2791C70.5538 105.627 99.5395 105.627 117.295 95.2791C126.112 90.1354 130.528 83.3939 130.559 76.6371Z" fill="url(#paint4_linear_803_6591)"/>
<path d="M117.082 57.7519C134.959 68.1001 135.051 84.9463 117.28 95.2945C99.5242 105.643 70.5234 105.643 52.6616 95.2945C34.7846 84.9463 34.6935 68.1001 52.4491 57.7519C70.2047 47.4037 99.2055 47.4037 117.082 57.7519ZM54.0274 94.5032C71.1456 104.41 98.9171 104.41 115.929 94.5032C132.941 84.5811 132.85 68.4653 115.732 58.5432C98.6136 48.6211 70.8421 48.6211 53.8301 58.5432C36.8181 68.4501 36.9092 84.5811 54.0426 94.5032H54.0274Z" fill="url(#paint5_linear_803_6591)"/>
<path d="M125.505 109.127C125.505 111.471 127.144 112.43 129.178 111.258C131.211 110.086 132.85 107.225 132.85 104.882C132.85 102.538 131.211 101.579 129.178 102.751C127.144 103.923 125.505 106.784 125.505 109.127Z" fill="#8712BA"/>
<path d="M131.803 102.508L119.92 95.6292C119.253 95.2336 118.327 95.2792 117.295 95.8727C115.262 97.0445 113.623 99.9055 113.623 102.249C113.623 103.406 114.017 104.227 114.67 104.623L126.552 111.502C125.9 111.106 125.505 110.299 125.505 109.128C125.505 106.784 127.144 103.923 129.178 102.751C130.21 102.158 131.135 102.112 131.803 102.508Z" fill="url(#paint6_linear_803_6591)"/>
<path d="M168.635 137.068C168.635 141.07 171.428 142.683 174.888 140.69C178.333 138.696 181.14 133.826 181.14 129.839C181.14 127.207 179.926 125.609 178.12 125.396C177.179 125.274 176.071 125.548 174.888 126.233C171.443 128.226 168.635 133.096 168.635 137.083V137.068Z" fill="url(#paint7_radial_803_6591)"/>
<path d="M179.334 125.807L134.672 99.9513C133.533 99.2665 131.955 99.3578 130.21 100.362C126.765 102.356 123.958 107.226 123.958 111.213C123.958 113.191 124.64 114.576 125.748 115.245L170.41 141.101C169.303 140.431 168.62 139.046 168.62 137.068C168.62 133.066 171.412 128.211 174.872 126.217C176.617 125.213 178.196 125.122 179.334 125.807Z" fill="url(#paint8_radial_803_6591)"/>
<path style="mix-blend-mode:screen" d="M168.634 137.068C170.198 129.398 175.342 125.35 178.119 125.381C174.553 124.133 167.861 130.539 168.634 137.068Z" fill="url(#paint9_radial_803_6591)"/>
</g>
<defs>
<linearGradient id="paint0_linear_803_6591" x1="57.1084" y1="87.9291" x2="114.609" y2="87.9291" gradientUnits="userSpaceOnUse">
<stop stop-color="#FF98FF"/>
<stop offset="1" stop-color="#FFAFF5"/>
</linearGradient>
<radialGradient id="paint1_radial_803_6591" cx="0" cy="0" r="1" gradientUnits="userSpaceOnUse" gradientTransform="translate(52.0548 144.753) scale(28.9401 29.0206)">
<stop stop-color="#FF9412"/>
<stop offset="0.24" stop-color="#BE6E0D"/>
<stop offset="0.77" stop-color="#361F03"/>
<stop offset="1"/>
</radialGradient>
<linearGradient id="paint2_linear_803_6591" x1="41.0981" y1="68.6022" x2="128.632" y2="68.6022" gradientUnits="userSpaceOnUse">
<stop stop-color="#D473F1"/>
<stop offset="1" stop-color="#962DCC"/>
</linearGradient>
<linearGradient id="paint3_linear_803_6591" x1="41.1278" y1="82.1919" x2="128.631" y2="82.1919" gradientUnits="userSpaceOnUse">
<stop stop-color="#FFC5FF"/>
<stop offset="1" stop-color="#FFDEFF"/>
</linearGradient>
<linearGradient id="paint4_linear_803_6591" x1="39.1704" y1="94.4421" x2="130.559" y2="94.4421" gradientUnits="userSpaceOnUse">
<stop stop-color="#962DCC"/>
<stop offset="1" stop-color="#D473F1"/>
</linearGradient>
<linearGradient id="paint5_linear_803_6591" x1="39.2007" y1="76.5156" x2="130.559" y2="76.5156" gradientUnits="userSpaceOnUse">
<stop stop-color="#F5ABFF"/>
<stop offset="0.46" stop-color="#FFC5FF"/>
<stop offset="1" stop-color="#FFDEFF"/>
</linearGradient>
<linearGradient id="paint6_linear_803_6591" x1="124.549" y1="98.3076" x2="119.337" y2="107.304" gradientUnits="userSpaceOnUse">
<stop stop-color="#FFDEFA"/>
<stop offset="0.52" stop-color="#FFBBFA"/>
<stop offset="0.78" stop-color="#F0ACF5"/>
<stop offset="1" stop-color="#E09DF1"/>
</linearGradient>
<radialGradient id="paint7_radial_803_6591" cx="0" cy="0" r="1" gradientUnits="userSpaceOnUse" gradientTransform="translate(174.827 126.491) scale(27.0431 27.1183)">
<stop stop-color="#473046"/>
<stop offset="0.08" stop-color="#442C43"/>
<stop offset="0.42" stop-color="#3D243C"/>
<stop offset="1" stop-color="#3B223A"/>
</radialGradient>
<radialGradient id="paint8_radial_803_6591" cx="0" cy="0" r="1" gradientUnits="userSpaceOnUse" gradientTransform="translate(174.827 126.491) scale(27.0431 27.1184)">
<stop stop-color="#473046"/>
<stop offset="0.08" stop-color="#442C43"/>
<stop offset="0.42" stop-color="#3D243C"/>
<stop offset="1" stop-color="#3B223A"/>
</radialGradient>
<radialGradient id="paint9_radial_803_6591" cx="0" cy="0" r="1" gradientUnits="userSpaceOnUse" gradientTransform="translate(176.359 125.244) scale(15.373 15.4158)">
<stop stop-color="#F5A25E"/>
<stop offset="0.05" stop-color="#C7844C"/>
<stop offset="0.09" stop-color="#9C673C"/>
<stop offset="0.14" stop-color="#774E2D"/>
<stop offset="0.2" stop-color="#563921"/>
<stop offset="0.25" stop-color="#3B2716"/>
<stop offset="0.32" stop-color="#25180E"/>
<stop offset="0.4" stop-color="#140D07"/>
<stop offset="0.49" stop-color="#080503"/>
<stop offset="0.63" stop-color="#010100"/>
<stop offset="1"/>
</radialGradient>
<clipPath id="clip0_803_6591">
<rect width="190" height="184" fill="white" transform="translate(0.184082)"/>
</clipPath>
</defs>
</svg>
