<svg width="130" height="45" viewBox="0 0 130 45" fill="none" xmlns="http://www.w3.org/2000/svg">
<path opacity="0.9" d="M126.6 25.6879C127.355 25.6879 127.949 25.6009 128.384 25.4196C128.827 25.2383 129.146 25.0715 129.356 24.9192H129.748L129.32 26.8338H119.225V26.4494C119.377 26.2464 119.551 25.9272 119.732 25.4921C119.914 25.057 120.008 24.4695 120.008 23.7298V3.10402C120.008 2.36427 119.928 1.76233 119.776 1.30543C119.623 0.819521 119.442 0.514918 119.232 0.384375V0H128.16L128.587 1.91463H128.196C127.985 1.76233 127.666 1.59552 127.224 1.41421C126.782 1.2329 126.187 1.14588 125.44 1.14588H123.888V7.66576H123.968C124.722 7.66576 125.317 7.57873 125.752 7.39742C126.194 7.21611 126.513 7.04931 126.724 6.89701H127.115V9.39183H126.767C126.557 9.23953 126.238 9.07273 125.795 8.89142C125.353 8.71011 124.758 8.62308 124.011 8.62308H123.895V25.6807H126.6V25.6879Z" fill="#252434"/>
<path opacity="0.9" d="M100.266 3.11131V8.05743C101.637 8.05743 102.819 8.35478 103.798 8.94223C104.785 9.50791 105.597 10.2477 106.242 11.1687C106.888 12.0607 107.359 13.0761 107.642 14.2002C107.954 15.3026 108.106 16.3759 108.106 17.4202C108.106 18.4936 107.954 19.596 107.642 20.7201C107.359 21.8224 106.888 22.8305 106.242 23.7516C105.597 24.6436 104.777 25.3906 103.798 25.9781C102.812 26.5655 101.637 26.8628 100.266 26.8628H95.6104V26.4785C95.7627 26.2754 95.9367 25.9563 96.118 25.5212C96.2993 25.086 96.3864 24.4986 96.3864 23.7588V3.13307C96.3864 2.39333 96.2993 1.80588 96.118 1.37074C95.9367 0.935599 95.7699 0.616494 95.6104 0.413428V0.0290527H101.05V0.413428C100.897 0.616494 100.723 0.935599 100.542 1.37074C100.353 1.77687 100.266 2.37157 100.266 3.11131ZM100.266 9.20331V25.688C101.093 25.688 101.746 25.4486 102.21 24.9627C102.703 24.4768 103.066 23.8531 103.298 23.0844C103.53 22.2939 103.675 21.3946 103.726 20.401C103.777 19.4074 103.806 18.4066 103.806 17.413C103.806 16.4194 103.777 15.4331 103.726 14.4613C103.675 13.4677 103.53 12.5829 103.298 11.8142C103.066 11.0454 102.703 10.4217 102.21 9.9358C101.739 9.44989 101.093 9.20331 100.266 9.20331Z" fill="#252434"/>
<path opacity="0.9" d="M74.6075 1.15337C73.8532 1.15337 73.2586 1.2404 72.8234 1.42171C72.381 1.60302 72.0619 1.76982 71.8516 1.92212H71.46L71.8879 0.00756836H84.3112L84.7391 1.92212H84.3474C84.1371 1.76982 83.818 1.60302 83.3756 1.42171C82.9332 1.2404 82.3385 1.15337 81.5915 1.15337H80.0395V23.7299C80.0395 24.4696 80.1266 25.0571 80.3151 25.4922C80.4964 25.9273 80.6632 26.2465 80.8228 26.4495V26.8339H75.3835V26.4495C75.5358 26.2465 75.7099 25.9273 75.8912 25.4922C76.0725 25.0571 76.1668 24.4696 76.1668 23.7299V1.15337H74.6075Z" fill="#252434"/>
<path opacity="0.9" d="M51.6682 8.81889V23.7298C51.6682 24.4695 51.7552 25.057 51.9365 25.4921C52.1178 25.9272 52.2846 26.2464 52.4442 26.4494V26.8338H47.0049V26.4494C47.1572 26.2464 47.3312 25.9272 47.5126 25.4921C47.6939 25.057 47.7809 24.4695 47.7809 23.7298V3.10402C47.7809 2.36427 47.6939 1.77683 47.5126 1.34169C47.3312 0.906546 47.1644 0.587442 47.0049 0.384375V0H52.4442V0.384375C52.2919 0.587442 52.1178 0.906546 51.9365 1.34169C51.7552 1.77683 51.6682 2.36427 51.6682 3.10402V7.66576H55.9398V3.10402C55.9398 2.36427 55.8528 1.77683 55.6715 1.34169C55.4902 0.906546 55.3234 0.587442 55.1638 0.384375V0H60.6031V0.384375C60.4508 0.587442 60.2767 0.906546 60.0954 1.34169C59.9141 1.77683 59.8271 2.36427 59.8271 3.10402V23.7298C59.8271 24.4695 59.9141 25.057 60.0954 25.4921C60.2767 25.9272 60.4435 26.2464 60.6031 26.4494V26.8338H55.1638V26.4494C55.3161 26.2464 55.4902 25.9272 55.6715 25.4921C55.8528 25.057 55.9398 24.4695 55.9398 23.7298V8.81889H51.6682Z" fill="#252434"/>
<path opacity="0.9" d="M21.2734 26.4567C21.5853 26.3261 21.8536 26.2028 22.0857 26.0723C22.3468 25.9418 22.5499 25.7532 22.7094 25.4994C22.8907 25.2455 23.043 24.8974 23.1736 24.4623C23.3259 24.0271 23.4564 23.4542 23.5652 22.7362L26.749 2.64712C26.8288 2.05968 26.7127 1.58827 26.4009 1.22565C26.089 0.870287 25.7554 0.652715 25.3928 0.572938V0H30.3607L34.2842 22.7289C34.4365 23.3962 34.5816 23.9401 34.7121 24.3752C34.8426 24.8104 34.9732 25.1657 35.1037 25.4486C35.2343 25.7024 35.3721 25.9055 35.5316 26.065C35.6839 26.2173 35.8942 26.3479 36.1553 26.4494V26.8338H29.7877V26.4494C29.8675 26.3479 29.969 26.2318 30.0996 26.1013C30.2301 25.9708 30.3317 25.804 30.4114 25.6009C30.513 25.3688 30.5782 25.1005 30.6072 24.7959C30.658 24.4913 30.6218 24.1069 30.4912 23.6427L29.4034 17.2389H25.6394L24.5878 23.7153C24.4862 24.281 24.4717 24.7234 24.5515 25.057C24.653 25.3906 24.7981 25.6444 24.9794 25.8257C25.1607 25.978 25.3565 26.1086 25.5596 26.2101C25.7917 26.2899 25.9875 26.3624 26.1398 26.4422V26.8265H21.2879V26.4567H21.2734ZM29.193 16.1075L27.525 6.4111H27.3727L25.8207 16.1075H29.193Z" fill="#252434"/>
<path opacity="0.9" d="M4.66571 23.7298C4.66571 24.4695 4.75274 25.057 4.93405 25.4921C5.11536 25.9272 5.28217 26.2464 5.44172 26.4494V26.8338H0.00244141V26.4494C0.154741 26.2464 0.328796 25.9272 0.510108 25.4921C0.691417 25.057 0.778439 24.4695 0.778439 23.7298V3.10402C0.778439 2.36427 0.691417 1.77683 0.510108 1.34169C0.328796 0.906546 0.161994 0.587442 0.00244141 0.384375V0H4.65847C6.02917 0 7.21131 0.253831 8.19038 0.76875C9.17671 1.25466 9.98897 1.90738 10.6344 2.7269C11.2799 3.54641 11.744 4.47472 12.0341 5.52631C12.346 6.5489 12.4983 7.59324 12.4983 8.66659C12.4983 9.71093 12.346 10.7625 12.0341 11.8069C11.7513 12.8295 11.2799 13.7505 10.6344 14.57C9.98897 15.3605 9.16945 16.0133 8.19038 16.5282C7.20406 17.0141 6.02917 17.2534 4.65847 17.2534V23.7298H4.66571ZM4.66571 16.1075C5.49248 16.1075 6.13795 15.919 6.60936 15.5346C7.10253 15.1285 7.46515 14.5773 7.69722 13.8883C7.9293 13.1993 8.07434 12.4088 8.12511 11.5095C8.17588 10.6175 8.20489 9.66742 8.20489 8.67384C8.20489 7.68027 8.17588 6.73021 8.12511 5.83817C8.07434 4.91711 7.9293 4.1121 7.69722 3.42312C7.46515 2.73415 7.10253 2.18296 6.60936 1.77683C6.1452 1.3707 5.49974 1.16038 4.66571 1.16038V16.1075Z" fill="#252434"/>
<g opacity="0.9">
<path opacity="0.9" d="M17.2702 34.8408C18.1332 34.8408 18.7932 35.0511 19.2429 35.4573C19.6998 35.8634 19.9246 36.4363 19.9246 37.1688C19.9246 37.8941 19.6925 38.4598 19.2429 38.8659C18.7932 39.272 18.1332 39.4751 17.2702 39.4751H15.3338V42.4558H14.5288V34.8408H17.2702ZM17.2339 38.7571C17.8504 38.7571 18.3145 38.6266 18.6264 38.3582C18.9455 38.0826 19.1051 37.6838 19.1051 37.1688C19.1051 36.6394 18.9455 36.2333 18.6264 35.9577C18.3145 35.6821 17.8504 35.5443 17.2339 35.5443H15.3338V38.7499H17.2339V38.7571ZM25.741 41.6363C25.741 41.8756 25.8498 41.9917 26.0673 41.9844V42.4631C26.0021 42.4993 25.9005 42.5211 25.7627 42.5211C25.5307 42.5211 25.3494 42.4631 25.2116 42.3543C25.081 42.2455 25.0157 42.086 25.0157 41.8756V41.4768H24.9867C24.9215 41.6073 24.7982 41.7596 24.6314 41.9191C24.4646 42.086 24.2252 42.231 23.9134 42.3688C23.6088 42.4993 23.2462 42.5646 22.8255 42.5646C22.2598 42.5646 21.8102 42.4413 21.4766 42.1875C21.143 41.9264 20.9762 41.542 20.9762 41.0416C20.9762 40.5775 21.1285 40.2221 21.4476 39.9683C21.7667 39.7144 22.2453 39.5404 22.8835 39.4533L24.1237 39.2865C24.6966 39.2068 24.9795 39.0835 24.9795 38.9167V38.6121C24.9795 38.1334 24.8562 37.7925 24.6096 37.5895C24.3703 37.3864 24.0004 37.2849 23.5073 37.2849C23.0213 37.2849 22.6587 37.3719 22.4194 37.5605C22.1801 37.7418 22.064 38.0174 22.064 38.3872V38.5105H21.3243V38.3365C21.3243 37.7853 21.5128 37.3719 21.8972 37.1036C22.2816 36.828 22.8328 36.6902 23.5435 36.6902C24.2905 36.6902 24.8417 36.8425 25.2043 37.1471C25.5669 37.4517 25.7482 37.9448 25.7482 38.6121V41.6363H25.741ZM24.965 39.5404C24.9432 39.6782 24.6749 39.7797 24.1672 39.845L23.0286 40.0118C22.5499 40.077 22.2163 40.1931 22.0133 40.3599C21.8247 40.5194 21.7304 40.737 21.7304 41.0053C21.7304 41.3317 21.8392 41.571 22.0568 41.7233C22.2816 41.8756 22.5789 41.9554 22.9488 41.9554C23.3767 41.9554 23.7466 41.8684 24.0512 41.6943C24.3558 41.5203 24.5806 41.3172 24.7329 41.0851C24.8852 40.853 24.965 40.65 24.965 40.4832V39.5404ZM29.6935 42.5501C28.9393 42.5501 28.3591 42.376 27.953 42.0207C27.5468 41.6581 27.3438 41.1721 27.3438 40.5557H28.0545C28.0545 40.9691 28.1995 41.3099 28.4896 41.5638C28.787 41.8249 29.2004 41.9554 29.7225 41.9554C30.1794 41.9554 30.5493 41.8539 30.8322 41.6508C31.115 41.4405 31.2528 41.1649 31.2528 40.824C31.2528 40.4542 31.0932 40.1713 30.7596 39.99C30.4333 39.7942 29.9981 39.6999 29.4469 39.7072V39.243C29.9619 39.2358 30.3462 39.1415 30.6073 38.9674C30.8757 38.7934 31.0062 38.5613 31.0062 38.2712C31.0062 37.9884 30.8829 37.7563 30.6363 37.5822C30.3898 37.4009 30.0779 37.3066 29.6935 37.3066C29.2656 37.3066 28.9248 37.4154 28.6709 37.633C28.4171 37.8433 28.2866 38.1189 28.2866 38.4453H27.5686C27.5686 37.9231 27.7571 37.5097 28.1198 37.1978C28.4969 36.8787 29.0191 36.7192 29.6863 36.7192C30.31 36.7192 30.8031 36.857 31.1658 37.1326C31.5356 37.4082 31.7169 37.7635 31.7169 38.1987C31.7169 38.5105 31.6154 38.7789 31.4123 38.9964C31.2165 39.2068 30.9409 39.3518 30.5856 39.4316C30.9699 39.4896 31.3036 39.6419 31.5791 39.8885C31.862 40.1278 31.9998 40.4614 31.9998 40.8748C31.9998 41.3897 31.7822 41.8031 31.3471 42.1077C30.9337 42.4051 30.3753 42.5501 29.6935 42.5501ZM36.4237 36.799C37.0039 36.799 37.4536 36.9223 37.7727 37.1688C38.0918 37.4082 38.2513 37.7418 38.2513 38.1697C38.2513 38.7426 37.9757 39.1342 37.4391 39.3373C37.8597 39.4461 38.1716 39.6274 38.3746 39.8885C38.5777 40.1496 38.6792 40.4687 38.6792 40.8313C38.6792 41.3535 38.4834 41.7596 38.1063 42.0424C37.7219 42.318 37.1635 42.4558 36.431 42.4558H33.7259V36.799H36.4237ZM36.3367 39.1487C37.1345 39.1487 37.5333 38.8659 37.5333 38.3002C37.5333 37.7418 37.1345 37.4662 36.3295 37.4662H34.4874V39.156H36.3367V39.1487ZM36.3367 41.7886C36.9169 41.7886 37.323 41.7016 37.5551 41.513C37.7944 41.3245 37.9105 41.0706 37.9105 40.7515C37.9105 40.4252 37.7872 40.1568 37.5551 39.9537C37.3158 39.7507 36.9096 39.6491 36.344 39.6491H34.4801V41.7814H36.3367V41.7886ZM40.3183 36.799H41.0943V41.4405H41.1305L44.4666 36.799H45.3224V42.4558H44.5464V37.8288H44.5246L41.2031 42.4558H40.311V36.799H40.3183ZM49.9494 36.799C50.5296 36.799 50.9793 36.9223 51.2984 37.1688C51.6175 37.4082 51.777 37.7418 51.777 38.1697C51.777 38.7426 51.5014 39.1342 50.9648 39.3373C51.3854 39.4461 51.6972 39.6274 51.9003 39.8885C52.1034 40.1496 52.2049 40.4687 52.2049 40.8313C52.2049 41.3535 52.0163 41.7596 51.632 42.0424C51.2476 42.318 50.6892 42.4558 49.9567 42.4558H47.2443V36.799H49.9494ZM49.8624 39.1487C50.6602 39.1487 51.059 38.8659 51.059 38.3002C51.059 37.7418 50.6529 37.4662 49.8479 37.4662H48.0058V39.156H49.8624V39.1487ZM49.8624 41.7886C50.4426 41.7886 50.8487 41.7016 51.0808 41.513C51.3201 41.3245 51.4362 41.0706 51.4362 40.7515C51.4362 40.4252 51.3129 40.1568 51.0808 39.9537C50.8415 39.7507 50.4353 39.6491 49.8696 39.6491H48.0058V41.7814H49.8624V41.7886ZM58.3477 41.6363C58.3477 41.8756 58.4565 41.9917 58.674 41.9844V42.4631C58.6088 42.4993 58.5072 42.5211 58.3694 42.5211C58.1374 42.5211 57.9488 42.4631 57.811 42.3543C57.6805 42.2455 57.6152 42.086 57.6152 41.8756V41.4768H57.5789C57.5136 41.6073 57.3904 41.7596 57.2235 41.9191C57.0567 42.086 56.8174 42.231 56.5056 42.3688C56.201 42.4993 55.8383 42.5646 55.4177 42.5646C54.852 42.5646 54.4024 42.4413 54.0688 42.1875C53.7352 41.9264 53.5684 41.542 53.5684 41.0416C53.5684 40.5775 53.7207 40.2221 54.0325 39.9683C54.3516 39.7144 54.8303 39.5404 55.4685 39.4533L56.7086 39.2865C57.2816 39.2068 57.5644 39.0835 57.5644 38.9167V38.6121C57.5644 38.1334 57.4411 37.7925 57.1945 37.5895C56.9552 37.3864 56.5926 37.2849 56.0994 37.2849C55.6135 37.2849 55.2509 37.3719 55.0116 37.5605C54.7723 37.7418 54.6562 38.0174 54.6562 38.3872V38.5105H53.9165V38.3365C53.9165 37.7853 54.1123 37.3719 54.4967 37.1036C54.881 36.828 55.4322 36.6902 56.1357 36.6902C56.8827 36.6902 57.4411 36.8425 57.8037 37.1471C58.1664 37.4517 58.3477 37.9448 58.3477 38.6121V41.6363ZM57.5717 39.5404C57.5499 39.6782 57.2888 39.7797 56.7739 39.845L55.628 40.0118C55.1494 40.077 54.8158 40.1931 54.6199 40.3599C54.4314 40.5194 54.3371 40.737 54.3371 41.0053C54.3371 41.3317 54.4459 41.571 54.6635 41.7233C54.8883 41.8756 55.1856 41.9554 55.5555 41.9554C55.9834 41.9554 56.3533 41.8684 56.6506 41.6943C56.9552 41.5203 57.1873 41.3172 57.3396 41.0851C57.4919 40.853 57.5717 40.65 57.5717 40.4832V39.5404ZM65.0199 39.4606C65.0199 39.6201 65.0054 39.7507 64.9836 39.8522H60.6467C60.6757 40.5484 60.857 41.0706 61.1906 41.426C61.5242 41.7741 61.9956 41.9482 62.6048 41.9482C63.4388 41.9482 63.9828 41.6 64.2366 40.9038H64.9473C64.766 41.4913 64.4614 41.9119 64.048 42.1802C63.6347 42.4413 63.1487 42.5719 62.5831 42.5719C61.7708 42.5719 61.1181 42.3253 60.6394 41.8321C60.1535 41.3317 59.9069 40.5992 59.9069 39.6491C59.9069 38.9892 60.023 38.438 60.255 37.9956C60.4871 37.5532 60.799 37.2269 61.1906 37.0165C61.5895 36.799 62.0391 36.6902 62.5323 36.6902C63.2865 36.6902 63.8957 36.9295 64.3526 37.4082C64.795 37.8796 65.0199 38.5613 65.0199 39.4606ZM64.2801 39.2865C64.2729 38.6483 64.1133 38.1624 63.7942 37.8215C63.4824 37.4807 63.0545 37.3139 62.5105 37.3139C61.9811 37.3139 61.546 37.4807 61.2051 37.8215C60.8715 38.1552 60.6902 38.6483 60.6612 39.2865H64.2801ZM66.6661 36.799H67.5219L69.8064 41.5855L72.0909 36.799H72.9466V42.4558H72.1706V38.1914H72.1271L70.1255 42.4558H69.4727L67.4712 38.1914H67.4276V42.4558H66.6516V36.799H66.6661ZM78.0306 36.799H81.5987V37.4299H78.7993V42.4558H78.0233V36.799H78.0306ZM85.4135 42.5646C84.9276 42.5646 84.4779 42.4558 84.0645 42.2383C83.6584 42.0207 83.332 41.6943 83.0782 41.2519C82.8316 40.8095 82.7083 40.2656 82.7083 39.6346C82.7083 38.9964 82.8316 38.4598 83.0782 38.0101C83.332 37.5677 83.6584 37.2341 84.0645 37.0238C84.4779 36.8062 84.9276 36.6974 85.4135 36.6974C85.8921 36.6974 86.3345 36.8062 86.7407 37.0238C87.154 37.2414 87.4876 37.575 87.7342 38.0101C87.9881 38.4525 88.1114 38.9964 88.1114 39.6346C88.1114 40.2729 87.9881 40.8095 87.7342 41.2519C87.4876 41.6943 87.154 42.0279 86.7407 42.2383C86.3345 42.4558 85.8921 42.5646 85.4135 42.5646ZM85.4135 41.9119C85.7616 41.9119 86.0807 41.8249 86.378 41.6581C86.6754 41.4913 86.9147 41.2374 87.096 40.8966C87.2773 40.5484 87.3716 40.1278 87.3716 39.6274C87.3716 39.127 87.2846 38.7063 87.096 38.3655C86.9147 38.0174 86.6754 37.7635 86.378 37.5895C86.0807 37.4227 85.7616 37.3356 85.4135 37.3356C85.0581 37.3356 84.7318 37.4227 84.4344 37.5895C84.1371 37.7563 83.8977 38.0174 83.7164 38.3655C83.5424 38.7063 83.4553 39.127 83.4553 39.6274C83.4553 40.1278 83.5424 40.5484 83.7164 40.8966C83.8977 41.2374 84.1371 41.4913 84.4344 41.6581C84.7318 41.8249 85.0581 41.9119 85.4135 41.9119ZM92.5861 36.6902C93.0502 36.6902 93.4781 36.799 93.8625 37.0165C94.2469 37.2269 94.5515 37.5532 94.7835 37.9956C95.0229 38.438 95.1389 38.9819 95.1389 39.6274C95.1389 40.2729 95.0229 40.8168 94.7835 41.2592C94.5515 41.7016 94.2469 42.0352 93.8625 42.2455C93.4781 42.4558 93.0575 42.5573 92.5861 42.5573C92.1509 42.5573 91.7521 42.4703 91.3894 42.2818C91.0268 42.0932 90.744 41.8249 90.5409 41.4768V44.5082H89.7649V36.7845H90.5409V37.7563C90.744 37.4082 91.0268 37.1398 91.3894 36.9585C91.7521 36.7845 92.1509 36.6902 92.5861 36.6902ZM92.4628 41.9119C92.8109 41.9119 93.13 41.8249 93.4201 41.6581C93.7174 41.484 93.9568 41.2229 94.1381 40.8821C94.3194 40.5339 94.4137 40.1133 94.4137 39.6201C94.4137 39.127 94.3266 38.7063 94.1381 38.3655C93.9568 38.0174 93.7174 37.7635 93.4201 37.5895C93.13 37.4154 92.8109 37.3284 92.4628 37.3284C92.1219 37.3284 91.8028 37.4154 91.4982 37.5895C91.2009 37.7563 90.9615 38.0101 90.7802 38.3655C90.5989 38.7063 90.5046 39.1197 90.5046 39.6201C90.5046 40.1133 90.5917 40.5339 90.7802 40.8821C90.9615 41.2229 91.2009 41.484 91.4982 41.6581C91.8028 41.8249 92.1219 41.9119 92.4628 41.9119ZM99.2873 42.5646C98.8014 42.5646 98.3517 42.4558 97.9383 42.2383C97.5322 42.0207 97.1986 41.6943 96.9447 41.2519C96.6982 40.8095 96.5749 40.2656 96.5749 39.6346C96.5749 38.9964 96.6982 38.4598 96.9447 38.0101C97.1986 37.5677 97.5322 37.2341 97.9383 37.0238C98.3517 36.8062 98.8014 36.6974 99.2873 36.6974C99.7659 36.6974 100.208 36.8062 100.614 37.0238C101.028 37.2414 101.354 37.575 101.601 38.0101C101.855 38.4525 101.978 38.9964 101.978 39.6346C101.978 40.2729 101.847 40.8095 101.601 41.2519C101.354 41.6943 101.021 42.0279 100.614 42.2383C100.208 42.4558 99.7659 42.5646 99.2873 42.5646ZM99.2873 41.9119C99.6354 41.9119 99.9545 41.8249 100.259 41.6581C100.556 41.4913 100.796 41.2374 100.977 40.8966C101.158 40.5484 101.253 40.1278 101.253 39.6274C101.253 39.127 101.166 38.7063 100.977 38.3655C100.796 38.0174 100.556 37.7635 100.259 37.5895C99.9617 37.4227 99.6354 37.3356 99.2873 37.3356C98.9319 37.3356 98.6055 37.4227 98.3082 37.5895C98.0108 37.7563 97.7715 38.0174 97.5902 38.3655C97.4162 38.7063 97.3291 39.127 97.3291 39.6274C97.3291 40.1278 97.4162 40.5484 97.5902 40.8966C97.7715 41.2374 98.0108 41.4913 98.3082 41.6581C98.6055 41.8249 98.9319 41.9119 99.2873 41.9119ZM108.853 41.8249V43.1738H108.15V42.4558H103.755V43.1738H103.044V41.8249H103.399C103.559 41.6363 103.675 41.3825 103.747 41.0634C103.82 40.737 103.864 40.3526 103.878 39.9102C103.9 39.4678 103.907 38.8296 103.907 37.9956V36.799H108.476V41.8249H108.853ZM107.715 41.8249V37.4299H104.69V37.9956C104.69 38.8296 104.676 39.4678 104.661 39.9102C104.647 40.3526 104.603 40.737 104.531 41.0634C104.458 41.3825 104.342 41.6363 104.175 41.8249H107.715ZM114.894 41.6363C114.894 41.8756 115.003 41.9917 115.221 41.9844V42.4631C115.155 42.4993 115.054 42.5211 114.916 42.5211C114.684 42.5211 114.496 42.4631 114.358 42.3543C114.227 42.2455 114.162 42.086 114.162 41.8756V41.4768H114.126C114.06 41.6073 113.937 41.7596 113.763 41.9191C113.596 42.086 113.357 42.231 113.045 42.3688C112.74 42.4993 112.378 42.5646 111.957 42.5646C111.391 42.5646 110.942 42.4413 110.608 42.1875C110.275 41.9264 110.108 41.542 110.108 41.0416C110.108 40.5775 110.26 40.2221 110.579 39.9683C110.898 39.7144 111.377 39.5404 112.015 39.4533L113.255 39.2865C113.828 39.2068 114.118 39.0835 114.118 38.9167V38.6121C114.118 38.1334 113.995 37.7925 113.749 37.5895C113.509 37.3864 113.139 37.2849 112.646 37.2849C112.16 37.2849 111.798 37.3719 111.558 37.5605C111.319 37.749 111.203 38.0174 111.203 38.3872V38.5105H110.463V38.3365C110.463 37.7853 110.659 37.3719 111.043 37.1036C111.428 36.828 111.979 36.6902 112.682 36.6902C113.429 36.6902 113.988 36.8425 114.35 37.1471C114.713 37.4517 114.894 37.9448 114.894 38.6121V41.6363ZM114.126 39.5404C114.104 39.6782 113.836 39.7797 113.328 39.845L112.182 40.0118C111.703 40.077 111.37 40.1931 111.174 40.3599C110.985 40.5194 110.891 40.737 110.891 41.0053C110.891 41.3317 111 41.571 111.217 41.7233C111.442 41.8756 111.74 41.9554 112.109 41.9554C112.537 41.9554 112.907 41.8684 113.212 41.6943C113.516 41.5203 113.741 41.3172 113.901 41.0851C114.053 40.853 114.133 40.65 114.133 40.4832V39.5404H114.126Z" fill="#9D62F5"/>
</g>
</svg>
